<svg width="118" height="31" viewBox="0 0 118 31" fill="none" xmlns="http://www.w3.org/2000/svg">
<path d="M1.18457 9.54569V21.3045C1.18457 22.0253 1.60385 22.7461 2.20687 23.1041L12.4063 28.9835C13.0659 29.3415 13.8479 29.3415 14.5074 28.9835L24.7069 23.1041C25.3664 22.7461 25.7292 22.0253 25.7292 21.3045V9.54569C25.7292 8.8249 25.3099 8.10411 24.7069 7.74607L14.5027 1.86667C13.8432 1.50863 13.0611 1.50863 12.4016 1.86667L2.20216 7.74607C1.54261 8.10411 1.18457 8.8249 1.18457 9.54569Z" fill="#A7A9AC"/>
<path d="M15.7033 17.7052L14.2618 21.6672C14.2005 21.785 14.2005 21.9075 14.2618 22.0253L16.7822 28.8657L19.6606 27.1839L16.1792 17.7052C16.1226 17.465 15.8211 17.465 15.7033 17.7052Z" fill="#65676B"/>
<path d="M18.5813 10.9872C18.5201 10.7469 18.2233 10.7469 18.1008 10.9872L16.6592 14.9492C16.598 15.067 16.598 15.1895 16.6592 15.3072L20.739 26.529L23.6174 24.8471L18.5813 10.9872Z" fill="#65676B"/>
<path d="M13.4236 2.28592C13.4849 2.28592 13.5414 2.28592 13.6026 2.34716L24.6406 8.70708C24.7584 8.76833 24.8197 8.8861 24.8197 9.06512V21.785C24.8197 21.9027 24.7584 22.0865 24.6406 22.143L13.6026 28.5029C13.5414 28.5642 13.4849 28.5642 13.4236 28.5642C13.3624 28.5642 13.3058 28.5642 13.2446 28.5029L2.2066 22.143C2.08882 22.0818 2.02758 21.964 2.02758 21.785V9.06512C2.02758 8.94735 2.08882 8.76362 2.2066 8.70708L13.2446 2.34716C13.3011 2.28592 13.3624 2.28592 13.4236 2.28592ZM13.4236 0.425049C13.0043 0.425049 12.6416 0.542825 12.2835 0.726556L1.24554 7.08648C0.524753 7.50576 0.105469 8.22656 0.105469 9.06512V21.785C0.105469 22.567 0.524753 23.3443 1.24554 23.7636L12.2835 30.1235C12.6416 30.3026 13.0043 30.425 13.4236 30.425C13.8429 30.425 14.2057 30.3073 14.5637 30.1235L25.6017 23.7636C26.3225 23.3443 26.7418 22.6235 26.7418 21.785V9.06512C26.7418 8.28309 26.3225 7.50576 25.6017 7.08648L14.6202 0.726556C14.2622 0.547536 13.8994 0.425049 13.4802 0.425049H13.4236Z" fill="#65676B"/>
<path d="M6.16406 26.5243L7.18165 23.7637L9.22154 25.4455L7.30414 27.2451L6.16406 26.5243Z" fill="#A7A9AC"/>
<path d="M12.5242 8.16528H9.70231C9.52329 8.16528 9.28303 8.28306 9.22178 8.46679L3.22461 24.9037L6.10306 26.5855L12.7033 8.52332C12.7645 8.3443 12.642 8.16528 12.463 8.16528H12.5242Z" fill="white"/>
<path d="M17.3814 8.1653H14.5594C14.3804 8.1653 14.1401 8.28307 14.0789 8.46681L7.24316 27.1838L10.1216 28.8657L17.5604 8.46681C17.6216 8.28779 17.4991 8.10876 17.3201 8.10876L17.3814 8.1653Z" fill="white"/>
<path d="M38.623 11.5856C38.9245 11.5856 39.1648 11.6468 39.3438 11.7646C39.5228 11.8824 39.7019 12.1226 39.8856 12.4241L43.5461 19.0243C43.6073 19.0856 43.6073 19.1421 43.5461 19.2033C43.5461 19.2646 43.4848 19.2646 43.3671 19.2646H41.9867C41.8689 19.2646 41.8077 19.2033 41.7465 19.1468L40.9597 17.7052H35.8011L35.0191 19.1468C34.9578 19.2646 34.9013 19.2646 34.7788 19.2646H33.3372C33.2194 19.2646 33.1582 19.2646 33.1582 19.2033C33.1582 19.1421 33.1582 19.0856 33.1582 19.0243L36.7574 12.4241C36.9365 12.0661 37.1155 11.8824 37.2992 11.7646C37.4829 11.6468 37.6573 11.5856 37.8975 11.5856H38.5571H38.623ZM36.4607 16.4474H40.2389L38.5005 13.2062C38.4393 13.1449 38.4393 13.1449 38.3828 13.1449H38.3215C38.2603 13.1449 38.2037 13.1449 38.2037 13.2062L36.4607 16.4474Z" fill="#A7A9AC"/>
<path d="M51.522 11.5856C52.3605 11.5856 52.9635 11.7646 53.3216 12.1839C53.6796 12.5419 53.8634 13.1449 53.8634 13.8657V14.464C53.8634 15.1236 53.7456 15.6041 53.5053 15.9621C53.2651 16.3202 52.8458 16.5604 52.2475 16.6829L54.1083 19.0243C54.1696 19.0856 54.1696 19.1421 54.1696 19.2033C54.1696 19.2646 54.1083 19.3211 53.9906 19.3211H52.549C52.4312 19.3211 52.3699 19.3211 52.3699 19.2599C52.3087 19.2599 52.3087 19.1986 52.2522 19.1421L50.5138 16.862H46.9758V19.0809C46.9758 19.2599 46.9145 19.3211 46.7355 19.3211H45.5342C45.3552 19.3211 45.2939 19.2599 45.2939 19.0809V11.9436C45.2939 11.7033 45.4117 11.5856 45.652 11.5856H51.5926H51.522ZM46.9617 15.5429H51.1592C51.5172 15.5429 51.8188 15.4816 51.9412 15.3026C52.1203 15.1236 52.1815 14.8833 52.1815 14.5818V14.1013C52.1815 13.7432 52.1203 13.503 51.9412 13.3805C51.7622 13.2015 51.522 13.1402 51.1592 13.1402H47.0794C46.9617 13.1402 46.9617 13.2015 46.9617 13.258V15.5429Z" fill="#A7A9AC"/>
<path d="M63.1022 11.5856C63.8842 11.5856 64.4213 11.7646 64.7228 12.0661C65.0243 12.3676 65.2033 12.8481 65.2033 13.4464V13.9882C65.2033 14.5865 64.9631 15.067 64.4825 15.3685C64.9631 15.6701 65.2646 16.1506 65.2646 16.8101V17.4697C65.2646 17.7712 65.2033 18.0115 65.1468 18.2517C65.0903 18.492 64.9678 18.671 64.8453 18.85C64.6663 19.029 64.4873 19.1515 64.247 19.2081C64.0067 19.2693 63.7052 19.3258 63.3472 19.3258H56.8082C56.568 19.3258 56.4502 19.2081 56.4502 18.9678V11.9483C56.4502 11.7081 56.568 11.5903 56.8082 11.5903H63.1682H63.1022V11.5856ZM58.1226 14.7655H62.6217C62.9797 14.7655 63.22 14.7043 63.3425 14.5865C63.465 14.4687 63.5215 14.3462 63.5215 14.106V13.7479C63.5215 13.5077 63.4602 13.3287 63.3425 13.2674C63.2247 13.1496 62.9844 13.0884 62.7442 13.0884H58.2451C58.1273 13.0884 58.1273 13.1496 58.1273 13.2062V14.7655H58.1226ZM58.1226 15.9669V17.5875C58.1226 17.7052 58.1839 17.7052 58.2404 17.7052H62.7395C63.041 17.7052 63.22 17.644 63.3378 17.5262C63.4555 17.4084 63.5168 17.2247 63.5168 17.0457V16.6264C63.5168 16.3861 63.4555 16.2071 63.3378 16.0846C63.22 15.9621 62.9797 15.9056 62.5557 15.9056H58.0614L58.1226 15.9669Z" fill="#A7A9AC"/>
<path d="M69.339 11.5856C69.5181 11.5856 69.5793 11.6468 69.5793 11.8258V19.0243C69.5793 19.2033 69.5181 19.2646 69.339 19.2646H68.1377C67.9587 19.2646 67.8975 19.2033 67.8975 19.0243V11.8258C67.8975 11.6468 67.9587 11.5856 68.1377 11.5856H69.339Z" fill="#A7A9AC"/>
<path d="M80.9192 11.5856C81.0982 11.5856 81.1595 11.6468 81.1595 11.8258V12.9047C81.1595 13.0837 81.0982 13.1449 80.9192 13.1449H77.4378V19.0243C77.4378 19.2033 77.3765 19.2646 77.1975 19.2646H75.9962C75.8172 19.2646 75.7559 19.2033 75.7559 19.0243V13.1449H72.2744C72.0954 13.1449 72.0342 13.0837 72.0342 12.9047V11.8258C72.0342 11.6468 72.0954 11.5856 72.2744 11.5856H80.8533H80.9192Z" fill="#A7A9AC"/>
<path d="M89.6206 11.5856C90.4592 11.5856 91.0622 11.7646 91.4202 12.1839C91.7783 12.5419 91.962 13.1449 91.962 13.8657V14.464C91.962 15.1236 91.8442 15.6041 91.6039 15.9621C91.3637 16.3202 90.9444 16.5604 90.3461 16.6829L92.207 19.0243C92.2682 19.0856 92.2682 19.1421 92.2682 19.2033C92.2682 19.2646 92.207 19.3211 92.0892 19.3211H90.6476C90.5298 19.3211 90.4686 19.3211 90.4686 19.2599C90.4073 19.2599 90.4073 19.1986 90.3508 19.1421L88.6124 16.862H85.0744V19.0809C85.0744 19.2599 85.0132 19.3211 84.8342 19.3211H83.6328C83.4538 19.3211 83.3926 19.2599 83.3926 19.0809V11.9436C83.3926 11.7033 83.5104 11.5856 83.7506 11.5856H89.6913H89.6206ZM85.0603 15.5429H89.2578C89.6159 15.5429 89.9174 15.4816 90.0399 15.3026C90.2189 15.1236 90.2801 14.8833 90.2801 14.5818V14.1013C90.2801 13.7432 90.2189 13.503 90.0399 13.3805C89.8609 13.2015 89.6206 13.1402 89.2578 13.1402H85.1781C85.0603 13.1402 85.0603 13.2015 85.0603 13.258V15.5429Z" fill="#A7A9AC"/>
<path d="M95.8015 11.5856C95.9806 11.5856 96.0418 11.6468 96.0418 11.8258V16.2071C96.0418 16.5086 96.0418 16.7489 96.1031 16.9279C96.1643 17.1069 96.2208 17.2859 96.3433 17.4084C96.4658 17.5309 96.5836 17.5875 96.7626 17.6487C96.9416 17.7099 97.1819 17.7099 97.4834 17.7099H100.546C100.847 17.7099 101.087 17.7099 101.266 17.6487C101.445 17.5875 101.624 17.5309 101.686 17.4084C101.803 17.2907 101.865 17.1069 101.926 16.9279C101.987 16.7489 101.987 16.5086 101.987 16.2071V11.8258C101.987 11.6468 102.048 11.5856 102.227 11.5856H103.429C103.608 11.5856 103.669 11.6468 103.669 11.8258V16.3861C103.669 16.9279 103.608 17.3472 103.49 17.7052C103.372 18.0633 103.188 18.3648 102.948 18.605C102.708 18.8453 102.406 19.0243 101.987 19.0856C101.568 19.2033 101.149 19.2646 100.546 19.2646H97.3656C96.8238 19.2646 96.3433 19.2033 95.924 19.0856C95.566 18.9678 95.2032 18.7841 94.963 18.605C94.7227 18.3648 94.5437 18.0633 94.4212 17.7052C94.3034 17.3472 94.2422 16.8667 94.2422 16.3861V11.8258C94.2422 11.6468 94.3034 11.5856 94.4825 11.5856H95.6838H95.8015Z" fill="#A7A9AC"/>
<path d="M108.398 11.5856C108.577 11.5856 108.7 11.5856 108.817 11.6468C108.935 11.6468 109.058 11.7081 109.119 11.7646C109.18 11.8258 109.298 11.8824 109.359 12.0049C109.42 12.1226 109.477 12.2451 109.599 12.4241L111.879 17.7052C111.941 17.7665 111.941 17.823 112.058 17.823H112.176C112.238 17.823 112.294 17.7618 112.355 17.7052L114.635 12.4241C114.697 12.2451 114.753 12.1226 114.876 12.0049C114.937 11.8871 114.993 11.8258 115.116 11.7646C115.177 11.7033 115.295 11.6468 115.417 11.6468C115.54 11.6468 115.658 11.5856 115.837 11.5856H117.038C117.396 11.5856 117.698 11.6468 117.82 11.8258C117.938 12.0049 117.999 12.3064 117.999 12.7256V19.0243C117.999 19.2033 117.938 19.2646 117.759 19.2646H116.619C116.44 19.2646 116.379 19.2033 116.379 19.0243V13.2674C116.379 13.2062 116.317 13.1496 116.317 13.1496H116.2C116.138 13.1496 116.082 13.2109 116.082 13.2109L113.863 18.1292C113.802 18.3082 113.684 18.4873 113.561 18.6098C113.439 18.7322 113.382 18.85 113.26 18.9678C113.142 19.029 113.02 19.1468 112.902 19.1468C112.784 19.2081 112.6 19.2081 112.421 19.2081H111.879C111.7 19.2081 111.521 19.2081 111.399 19.1468C111.276 19.0856 111.159 19.029 111.041 18.9678C110.923 18.9066 110.862 18.7888 110.739 18.6098C110.622 18.492 110.56 18.3082 110.438 18.1292L108.219 13.2109C108.219 13.1496 108.158 13.1496 108.101 13.1496H107.983C107.922 13.1496 107.922 13.2109 107.922 13.2674V19.029C107.922 19.2081 107.861 19.2693 107.682 19.2693H106.537C106.358 19.2693 106.297 19.2081 106.297 19.029V12.7256C106.297 12.3064 106.358 12.0049 106.476 11.8258C106.594 11.6468 106.895 11.5856 107.258 11.5856H108.459H108.398Z" fill="#A7A9AC"/>
</svg>
