<svg width="83" height="21" viewBox="0 0 83 21" fill="none" xmlns="http://www.w3.org/2000/svg">
<path d="M24.8813 19.2714V1.72865H30.6118C32.5121 1.72865 33.9431 2.12301 34.9014 2.91175C35.8598 3.69719 36.339 4.86386 36.339 6.41175C36.339 7.23006 36.1092 7.95963 35.6399 8.58733C35.1771 9.2216 34.5437 9.71128 33.7396 10.0563C34.6881 10.3193 35.4364 10.8254 35.9878 11.5648C36.5392 12.3108 36.8083 13.1948 36.8083 14.2169C36.8083 15.7911 36.2996 17.0268 35.2789 17.924C34.2614 18.8244 32.8239 19.2714 30.9629 19.2714H24.8813ZM27.1951 11.1047V17.3718H31.0056C32.0821 17.3718 32.9322 17.0958 33.5525 16.5404C34.1728 15.985 34.4846 15.2193 34.4846 14.2498C34.4846 12.1531 33.3392 11.1047 31.0417 11.1047H27.1951ZM27.1951 9.20517H30.6807C31.6916 9.20517 32.499 8.94884 33.1094 8.44273C33.7133 7.93663 34.0185 7.25306 34.0185 6.38545C34.0185 5.41926 33.7363 4.71926 33.1751 4.28217C32.6138 3.84179 31.7572 3.62489 30.6118 3.62489H27.1951V9.20517ZM49.8939 14.6836H42.5486L40.901 19.2747H38.5183L45.2104 1.72865H47.2321L53.9341 19.2747H51.5644L49.8939 14.6836ZM43.251 12.784H49.2112L46.2245 4.58452L43.251 12.784ZM61.4566 11.4531C59.4775 10.8812 58.0367 10.1779 57.1308 9.34649C56.2283 8.51503 55.7753 7.48639 55.7753 6.26714C55.7753 4.88686 56.33 3.7432 57.4295 2.83616C58.5355 1.9324 59.9665 1.47888 61.729 1.47888C62.9335 1.47888 64.01 1.71222 64.9487 2.17888C65.8939 2.64226 66.6193 3.28639 67.1378 4.10799C67.6564 4.9263 67.9157 5.82348 67.9157 6.79297H65.5953C65.5953 5.73146 65.2572 4.89672 64.5844 4.28874C63.9116 3.68405 62.9565 3.37841 61.729 3.37841C60.5901 3.37841 59.704 3.62818 59.0672 4.13099C58.4272 4.6371 58.1089 5.33053 58.1089 6.22442C58.1089 6.94085 58.4075 7.54884 59.018 8.04179C59.6219 8.53475 60.6525 8.98827 62.1097 9.39907C63.5637 9.80987 64.7058 10.2634 65.5263 10.7563C66.3469 11.2493 66.9573 11.8244 67.3544 12.4883C67.7516 13.1455 67.9485 13.9244 67.9485 14.815C67.9485 16.238 67.3938 17.3784 66.2878 18.2329C65.1784 19.0873 63.7015 19.5146 61.8471 19.5146C60.6426 19.5146 59.5169 19.2845 58.4765 18.8244C57.4361 18.361 56.6319 17.7268 56.0642 16.9249C55.4964 16.123 55.2174 15.2094 55.2174 14.1906H57.5378C57.5378 15.2488 57.9284 16.0836 58.7128 16.6948C59.4939 17.3061 60.5376 17.615 61.8471 17.615C63.0681 17.615 64.0002 17.3653 64.65 16.8657C65.3032 16.3695 65.6281 15.6892 65.6281 14.8348C65.6281 13.9737 65.3228 13.3099 64.7255 12.8399C64.1315 12.3765 63.0385 11.9099 61.4566 11.4531ZM80.824 11.177H73.2326V17.3718H82.0515V19.2714H70.922V1.72865H81.9334V3.62818H73.2326V9.27747H80.824V11.177Z" fill="#A7A9AC"/>
<path d="M10.4468 21C16.2364 21 20.933 16.3005 20.933 10.5C20.933 4.70282 16.2396 0 10.4468 0C4.95591 0 0.44636 4.23286 0 9.61596H13.8569V11.3808H0C0.44636 16.7671 4.95591 21 10.4468 21Z" fill="#A7A9AC"/>
</svg>
