<svg width="1161" height="729" viewBox="0 0 1161 729" fill="none" xmlns="http://www.w3.org/2000/svg">
<rect x="0.859741" y="0.65332" width="1160" height="728" fill="#282C30" fill-opacity="0.2"/>
<g filter="url(#filter0_d_197_2350)">
<path d="M280.063 325.896C280.063 314.695 280.063 309.095 277.883 304.817C275.966 301.053 272.906 297.994 269.143 296.076C264.865 293.896 259.264 293.896 248.063 293.896H169.753C158.552 293.896 152.951 293.896 148.673 296.076C144.91 297.994 141.85 301.053 139.933 304.817C137.753 309.095 137.753 314.695 137.753 325.896V403.41C137.753 414.611 137.753 420.212 139.933 424.49C141.85 428.253 144.91 431.313 148.673 433.23C152.951 435.41 158.552 435.41 169.753 435.41H248.063C259.264 435.41 264.865 435.41 269.143 433.23C272.906 431.313 275.966 428.253 277.883 424.49C280.063 420.212 280.063 414.611 280.063 403.41V325.896Z" fill="#3B4C64" fill-opacity="0.3" shape-rendering="crispEdges"/>
<path d="M280.063 325.896C280.063 314.695 280.063 309.095 277.883 304.817C275.966 301.053 272.906 297.994 269.143 296.076C264.865 293.896 259.264 293.896 248.063 293.896H169.753C158.552 293.896 152.951 293.896 148.673 296.076C144.91 297.994 141.85 301.053 139.933 304.817C137.753 309.095 137.753 314.695 137.753 325.896V403.41C137.753 414.611 137.753 420.212 139.933 424.49C141.85 428.253 144.91 431.313 148.673 433.23C152.951 435.41 158.552 435.41 169.753 435.41H248.063C259.264 435.41 264.865 435.41 269.143 433.23C272.906 431.313 275.966 428.253 277.883 424.49C280.063 420.212 280.063 414.611 280.063 403.41V325.896Z" stroke="url(#paint0_linear_197_2350)" stroke-width="2" shape-rendering="crispEdges"/>
</g>
<path d="M182.084 384.337C180.614 384.337 179.25 383.55 178.567 382.185C177.57 380.243 178.357 377.881 180.352 376.883C184.919 374.626 188.803 371.162 191.585 366.962C192.53 365.545 192.53 363.76 191.585 362.343C188.751 358.144 184.866 354.679 180.352 352.422C178.357 351.477 177.57 349.115 178.567 347.12C179.512 345.178 181.874 344.391 183.816 345.388C189.591 348.275 194.525 352.632 198.094 357.986C200.771 362.028 200.771 367.277 198.094 371.319C194.525 376.673 189.591 381.03 183.816 383.917C183.291 384.18 182.662 384.337 182.084 384.337Z" fill="white"/>
<path d="M235.154 384.338H214.157C212.005 384.338 210.22 382.553 210.22 380.401C210.22 378.249 212.005 376.464 214.157 376.464H235.154C237.306 376.464 239.091 378.249 239.091 380.401C239.091 382.553 237.306 384.338 235.154 384.338Z" fill="white"/>
<path d="M224.656 421.082H193.16C164.657 421.082 152.479 408.904 152.479 380.401V348.905C152.479 320.402 164.657 308.224 193.16 308.224H224.656C253.159 308.224 265.337 320.402 265.337 348.905V380.401C265.337 408.904 253.159 421.082 224.656 421.082ZM193.16 316.097C168.961 316.097 160.353 324.706 160.353 348.905V380.401C160.353 404.6 168.961 413.208 193.16 413.208H224.656C248.855 413.208 257.463 404.6 257.463 380.401V348.905C257.463 324.706 248.855 316.097 224.656 316.097H193.16Z" fill="white"/>
<path d="M420.447 362.057L280.063 364.654" stroke="#E2E7EF" stroke-width="3" stroke-miterlimit="10" stroke-dasharray="20 20"/>
<path d="M785.743 362.057L561.961 364.654" stroke="#E2E7EF" stroke-width="3" stroke-miterlimit="10" stroke-dasharray="20 20"/>
<g filter="url(#filter1_d_197_2350)">
<path d="M561.961 364.653C561.961 325.575 530.282 293.896 491.204 293.896V293.896C452.126 293.896 420.447 325.575 420.447 364.653V364.653C420.447 403.731 452.126 435.41 491.204 435.41V435.41C530.282 435.41 561.961 403.731 561.961 364.653V364.653Z" fill="#3B4C64" fill-opacity="0.3" shape-rendering="crispEdges"/>
<path d="M561.961 364.653C561.961 325.575 530.282 293.896 491.204 293.896V293.896C452.126 293.896 420.447 325.575 420.447 364.653V364.653C420.447 403.731 452.126 435.41 491.204 435.41V435.41C530.282 435.41 561.961 403.731 561.961 364.653V364.653Z" stroke="url(#paint1_linear_197_2350)" stroke-width="2" shape-rendering="crispEdges"/>
</g>
<path d="M491.156 382.845C481.106 382.845 472.95 374.689 472.95 364.639C472.95 354.59 481.106 346.434 491.156 346.434C501.205 346.434 509.361 354.59 509.361 364.639C509.361 374.689 501.205 382.845 491.156 382.845ZM491.156 353.716C485.136 353.716 480.232 358.619 480.232 364.639C480.232 370.659 485.136 375.562 491.156 375.562C497.176 375.562 502.079 370.659 502.079 364.639C502.079 358.619 497.176 353.716 491.156 353.716Z" fill="white"/>
<path d="M506.739 414.109C505.72 414.109 504.7 413.963 503.681 413.721C500.671 412.895 498.146 411.002 496.544 408.332L495.962 407.361C493.097 402.409 489.165 402.409 486.301 407.361L485.767 408.283C484.165 411.002 481.64 412.944 478.63 413.721C475.571 414.546 472.416 414.109 469.746 412.507L461.395 407.701C458.434 406.001 456.298 403.234 455.375 399.884C454.502 396.535 454.939 393.088 456.638 390.126C458.046 387.65 458.434 385.417 457.609 384.009C456.783 382.601 454.696 381.776 451.831 381.776C444.743 381.776 438.966 375.999 438.966 368.911V360.366C438.966 353.278 444.743 347.501 451.831 347.501C454.696 347.501 456.783 346.676 457.609 345.268C458.434 343.86 458.094 341.627 456.638 339.151C454.939 336.189 454.502 332.694 455.375 329.393C456.249 326.043 458.385 323.276 461.395 321.576L469.794 316.77C475.28 313.517 482.514 315.411 485.815 320.994L486.398 321.965C489.262 326.917 493.194 326.917 496.059 321.965L496.593 321.042C499.894 315.411 507.128 313.517 512.662 316.819L521.013 321.625C523.974 323.324 526.11 326.091 527.032 329.441C527.906 332.791 527.469 336.238 525.77 339.199C524.362 341.675 523.974 343.908 524.799 345.316C525.625 346.724 527.712 347.55 530.577 347.55C537.665 347.55 543.442 353.327 543.442 360.415V368.959C543.442 376.047 537.665 381.825 530.577 381.825C527.712 381.825 525.625 382.65 524.799 384.058C523.974 385.466 524.314 387.699 525.77 390.175C527.469 393.136 527.955 396.632 527.032 399.933C526.159 403.283 524.023 406.05 521.013 407.749L512.614 412.555C510.769 413.575 508.778 414.109 506.739 414.109ZM491.155 396.146C495.476 396.146 499.506 398.865 502.273 403.671L502.807 404.594C503.39 405.613 504.361 406.341 505.526 406.633C506.691 406.924 507.856 406.778 508.827 406.196L517.226 401.341C518.488 400.613 519.459 399.399 519.847 397.943C520.236 396.486 520.042 394.981 519.313 393.719C516.546 388.961 516.206 384.058 518.342 380.32C520.478 376.581 524.896 374.445 530.431 374.445C533.538 374.445 536.014 371.969 536.014 368.862V360.318C536.014 357.259 533.538 354.735 530.431 354.735C524.896 354.735 520.478 352.599 518.342 348.86C516.206 345.122 516.546 340.219 519.313 335.461C520.042 334.199 520.236 332.694 519.847 331.237C519.459 329.781 518.537 328.616 517.274 327.839L508.875 323.033C506.788 321.771 504.021 322.499 502.758 324.635L502.224 325.557C499.457 330.364 495.428 333.082 491.107 333.082C486.786 333.082 482.757 330.364 479.989 325.557L479.455 324.586C478.242 322.547 475.523 321.819 473.435 323.033L465.037 327.888C463.774 328.616 462.803 329.829 462.415 331.286C462.027 332.742 462.221 334.247 462.949 335.51C465.716 340.267 466.056 345.171 463.92 348.909C461.784 352.647 457.366 354.783 451.831 354.783C448.724 354.783 446.248 357.259 446.248 360.366V368.911C446.248 371.969 448.724 374.494 451.831 374.494C457.366 374.494 461.784 376.63 463.92 380.368C466.056 384.106 465.716 389.01 462.949 393.767C462.221 395.03 462.027 396.535 462.415 397.991C462.803 399.447 463.726 400.613 464.988 401.389L473.387 406.196C474.406 406.827 475.62 406.972 476.737 406.681C477.902 406.39 478.873 405.613 479.504 404.594L480.038 403.671C482.805 398.913 486.835 396.146 491.155 396.146Z" fill="white"/>
<g filter="url(#filter2_d_197_2350)">
<g filter="url(#filter3_d_197_2350)">
<path d="M968.077 279.958C968.077 268.568 968.077 262.873 965.826 258.538C963.928 254.885 960.95 251.907 957.297 250.01C952.962 247.758 947.267 247.758 935.877 247.758H817.943C806.553 247.758 800.858 247.758 796.523 250.01C792.871 251.907 789.892 254.885 787.995 258.538C785.743 262.873 785.743 268.568 785.743 279.958V445.141C785.743 456.531 785.743 462.226 787.995 466.56C789.892 470.213 792.871 473.192 796.523 475.089C800.858 477.341 806.553 477.341 817.943 477.341H935.877C947.267 477.341 952.962 477.341 957.297 475.089C960.95 473.192 963.928 470.213 965.826 466.56C968.077 462.226 968.077 456.531 968.077 445.141V279.958Z" fill="#3B4C64" fill-opacity="0.3" shape-rendering="crispEdges"/>
<path d="M968.077 279.958C968.077 268.568 968.077 262.873 965.826 258.538C963.928 254.885 960.95 251.907 957.297 250.01C952.962 247.758 947.267 247.758 935.877 247.758H817.943C806.553 247.758 800.858 247.758 796.523 250.01C792.871 251.907 789.892 254.885 787.995 258.538C785.743 262.873 785.743 268.568 785.743 279.958V445.141C785.743 456.531 785.743 462.226 787.995 466.56C789.892 470.213 792.871 473.192 796.523 475.089C800.858 477.341 806.553 477.341 817.943 477.341H935.877C947.267 477.341 952.962 477.341 957.297 475.089C960.95 473.192 963.928 470.213 965.826 466.56C968.077 462.226 968.077 456.531 968.077 445.141V279.958Z" stroke="url(#paint2_linear_197_2350)" stroke-width="2" shape-rendering="crispEdges"/>
</g>
<rect x="812.442" y="280.753" width="90.7366" height="11.2209" fill="white"/>
<rect x="812.442" y="334.06" width="58.4829" height="11.2209" fill="white"/>
<rect x="812.442" y="395.25" width="90.7365" height="11.2209" fill="white"/>
<rect x="812.442" y="307.406" width="134.222" height="11.2209" fill="white"/>
<rect x="812.442" y="364.654" width="134.222" height="11.2209" fill="white"/>
<g filter="url(#filter4_d_197_2350)">
<path d="M770.468 466.023C770.468 457.449 763.517 450.498 754.942 450.498H689.962C681.388 450.498 674.437 457.449 674.437 466.023V466.023C674.437 474.598 681.388 481.549 689.962 481.549H754.942C763.517 481.549 770.468 474.598 770.468 466.023V466.023Z" fill="#3B4C64" fill-opacity="0.3" shape-rendering="crispEdges"/>
<path d="M770.468 466.023C770.468 457.449 763.517 450.498 754.942 450.498H689.962C681.388 450.498 674.437 457.449 674.437 466.023V466.023C674.437 474.598 681.388 481.549 689.962 481.549H754.942C763.517 481.549 770.468 474.598 770.468 466.023V466.023Z" stroke="url(#paint3_linear_197_2350)" shape-rendering="crispEdges"/>
</g>
<g filter="url(#filter5_d_197_2350)">
<path d="M1086.67 347.024C1086.67 338.45 1079.72 331.499 1071.15 331.499H1006.17C997.592 331.499 990.641 338.45 990.641 347.024V347.024C990.641 355.599 997.592 362.55 1006.17 362.55H1071.15C1079.72 362.55 1086.67 355.599 1086.67 347.024V347.024Z" fill="#3B4C64" fill-opacity="0.3" shape-rendering="crispEdges"/>
<path d="M1086.67 347.024C1086.67 338.45 1079.72 331.499 1071.15 331.499H1006.17C997.592 331.499 990.641 338.45 990.641 347.024V347.024C990.641 355.599 997.592 362.55 1006.17 362.55H1071.15C1079.72 362.55 1086.67 355.599 1086.67 347.024V347.024Z" stroke="url(#paint4_linear_197_2350)" shape-rendering="crispEdges"/>
</g>
<path d="M685.587 462.645H687.185L689.963 469.429H690.066L692.844 462.645H694.442V471.372H693.189V465.057H693.108L690.534 471.359H689.495L686.921 465.052H686.84V471.372H685.587V462.645ZM699.131 471.504C698.518 471.504 697.982 471.364 697.525 471.082C697.067 470.801 696.712 470.408 696.459 469.902C696.207 469.396 696.08 468.805 696.08 468.129C696.08 467.45 696.207 466.856 696.459 466.348C696.712 465.839 697.067 465.445 697.525 465.163C697.982 464.882 698.518 464.741 699.131 464.741C699.745 464.741 700.28 464.882 700.738 465.163C701.195 465.445 701.55 465.839 701.803 466.348C702.056 466.856 702.182 467.45 702.182 468.129C702.182 468.805 702.056 469.396 701.803 469.902C701.55 470.408 701.195 470.801 700.738 471.082C700.28 471.364 699.745 471.504 699.131 471.504ZM699.136 470.435C699.533 470.435 699.863 470.329 700.124 470.119C700.386 469.909 700.579 469.629 700.704 469.28C700.832 468.93 700.895 468.545 700.895 468.125C700.895 467.707 700.832 467.324 700.704 466.974C700.579 466.622 700.386 466.339 700.124 466.126C699.863 465.913 699.533 465.807 699.136 465.807C698.735 465.807 698.403 465.913 698.138 466.126C697.877 466.339 697.682 466.622 697.555 466.974C697.43 467.324 697.367 467.707 697.367 468.125C697.367 468.545 697.43 468.93 697.555 469.28C697.682 469.629 697.877 469.909 698.138 470.119C698.403 470.329 698.735 470.435 699.136 470.435ZM706.84 464.827V465.849H703.141V464.827H706.84ZM704.155 471.372V464.068C704.155 463.659 704.245 463.32 704.424 463.05C704.602 462.777 704.84 462.574 705.135 462.44C705.431 462.304 705.752 462.236 706.098 462.236C706.354 462.236 706.573 462.257 706.754 462.3C706.936 462.339 707.071 462.376 707.159 462.41L706.861 463.442C706.801 463.425 706.725 463.405 706.631 463.382C706.537 463.356 706.424 463.344 706.29 463.344C705.98 463.344 705.759 463.42 705.625 463.574C705.495 463.727 705.429 463.949 705.429 464.239V471.372H704.155ZM710.838 471.504C710.193 471.504 709.637 471.366 709.171 471.091C708.708 470.812 708.35 470.422 708.097 469.919C707.847 469.413 707.722 468.821 707.722 468.142C707.722 467.472 707.847 466.881 708.097 466.369C708.35 465.858 708.703 465.459 709.154 465.172C709.609 464.885 710.14 464.741 710.748 464.741C711.117 464.741 711.475 464.802 711.822 464.925C712.169 465.047 712.48 465.239 712.755 465.5C713.031 465.761 713.248 466.101 713.407 466.518C713.566 466.933 713.646 467.437 713.646 468.031V468.483H708.443V467.528H712.397C712.397 467.193 712.329 466.896 712.193 466.638C712.056 466.376 711.865 466.17 711.617 466.02C711.373 465.869 711.086 465.794 710.757 465.794C710.399 465.794 710.086 465.882 709.819 466.058C709.555 466.231 709.35 466.459 709.205 466.74C709.063 467.018 708.992 467.321 708.992 467.648V468.393C708.992 468.831 709.069 469.203 709.222 469.51C709.379 469.817 709.596 470.051 709.874 470.213C710.153 470.372 710.478 470.452 710.85 470.452C711.092 470.452 711.312 470.418 711.511 470.349C711.71 470.278 711.882 470.173 712.026 470.034C712.171 469.895 712.282 469.723 712.359 469.518L713.565 469.736C713.468 470.091 713.295 470.402 713.045 470.669C712.798 470.933 712.487 471.139 712.112 471.287C711.74 471.432 711.315 471.504 710.838 471.504ZM719.036 467.132V468.236H715.167V467.132H719.036ZM723.782 471.372H720.956V462.645H723.871C724.726 462.645 725.461 462.82 726.074 463.169C726.688 463.516 727.158 464.014 727.485 464.665C727.814 465.312 727.979 466.089 727.979 466.996C727.979 467.905 727.813 468.686 727.481 469.339C727.151 469.993 726.674 470.496 726.049 470.848C725.424 471.197 724.668 471.372 723.782 471.372ZM722.273 470.222H723.709C724.374 470.222 724.927 470.097 725.367 469.847C725.807 469.594 726.137 469.229 726.356 468.751C726.574 468.271 726.684 467.686 726.684 466.996C726.684 466.311 726.574 465.73 726.356 465.253C726.14 464.775 725.817 464.413 725.388 464.166C724.959 463.919 724.427 463.795 723.79 463.795H722.273V470.222ZM731.539 471.517C731.124 471.517 730.749 471.44 730.414 471.287C730.079 471.131 729.813 470.905 729.617 470.609C729.424 470.314 729.328 469.952 729.328 469.523C729.328 469.153 729.399 468.849 729.541 468.611C729.683 468.372 729.874 468.183 730.116 468.044C730.357 467.905 730.627 467.8 730.926 467.729C731.224 467.658 731.528 467.604 731.837 467.567C732.23 467.521 732.548 467.484 732.792 467.456C733.036 467.425 733.214 467.375 733.325 467.307C733.435 467.239 733.491 467.128 733.491 466.974V466.945C733.491 466.572 733.386 466.284 733.176 466.079C732.968 465.875 732.658 465.773 732.247 465.773C731.818 465.773 731.48 465.868 731.232 466.058C730.988 466.246 730.819 466.454 730.725 466.685L729.528 466.412C729.67 466.014 729.877 465.693 730.15 465.449C730.426 465.202 730.742 465.023 731.1 464.912C731.458 464.798 731.835 464.741 732.23 464.741C732.491 464.741 732.768 464.773 733.06 464.835C733.356 464.895 733.631 465.006 733.887 465.168C734.146 465.329 734.357 465.561 734.522 465.862C734.687 466.16 734.769 466.548 734.769 467.025V471.372H733.525V470.477H733.474C733.391 470.642 733.268 470.804 733.103 470.963C732.938 471.122 732.727 471.254 732.468 471.359C732.21 471.464 731.9 471.517 731.539 471.517ZM731.816 470.494C732.168 470.494 732.47 470.425 732.72 470.285C732.972 470.146 733.164 469.964 733.295 469.74C733.428 469.513 733.495 469.27 733.495 469.011V468.168C733.45 468.213 733.362 468.256 733.231 468.295C733.103 468.332 732.957 468.365 732.792 468.393C732.627 468.419 732.467 468.443 732.31 468.466C732.154 468.486 732.024 468.503 731.918 468.517C731.671 468.548 731.445 468.601 731.241 468.675C731.039 468.748 730.877 468.855 730.755 468.994C730.636 469.131 730.576 469.312 730.576 469.54C730.576 469.855 730.693 470.094 730.926 470.256C731.158 470.415 731.455 470.494 731.816 470.494ZM736.586 471.372V464.827H737.809V465.892H737.89C738.027 465.531 738.25 465.25 738.559 465.048C738.869 464.844 739.24 464.741 739.672 464.741C740.109 464.741 740.476 464.844 740.771 465.048C741.069 465.253 741.289 465.534 741.432 465.892H741.5C741.656 465.543 741.905 465.264 742.245 465.057C742.586 464.847 742.993 464.741 743.464 464.741C744.058 464.741 744.542 464.927 744.917 465.3C745.295 465.672 745.484 466.233 745.484 466.983V471.372H744.21V467.102C744.21 466.659 744.089 466.338 743.848 466.139C743.606 465.94 743.318 465.841 742.983 465.841C742.568 465.841 742.245 465.969 742.015 466.224C741.785 466.477 741.67 466.802 741.67 467.2V471.372H740.4V467.021C740.4 466.666 740.289 466.381 740.068 466.165C739.846 465.949 739.558 465.841 739.203 465.841C738.961 465.841 738.738 465.905 738.534 466.033C738.332 466.158 738.169 466.332 738.044 466.557C737.922 466.781 737.861 467.041 737.861 467.337V471.372H736.586ZM747.312 471.372V464.827H748.586V471.372H747.312ZM747.955 463.817C747.734 463.817 747.543 463.743 747.384 463.595C747.228 463.445 747.15 463.266 747.15 463.058C747.15 462.848 747.228 462.669 747.384 462.521C747.543 462.371 747.734 462.295 747.955 462.295C748.177 462.295 748.366 462.371 748.522 462.521C748.681 462.669 748.761 462.848 748.761 463.058C748.761 463.266 748.681 463.445 748.522 463.595C748.366 463.743 748.177 463.817 747.955 463.817ZM750.42 464.827H751.694V471.798C751.694 472.236 751.615 472.605 751.456 472.906C751.299 473.207 751.066 473.436 750.757 473.592C750.45 473.748 750.071 473.827 749.619 473.827C749.574 473.827 749.531 473.827 749.491 473.827C749.449 473.827 749.404 473.825 749.359 473.822V472.727C749.399 472.727 749.434 472.727 749.466 472.727C749.494 472.727 749.527 472.727 749.564 472.727C749.865 472.727 750.082 472.646 750.216 472.484C750.352 472.325 750.42 472.094 750.42 471.79V464.827ZM751.051 463.817C750.829 463.817 750.639 463.743 750.48 463.595C750.324 463.445 750.245 463.266 750.245 463.058C750.245 462.848 750.324 462.669 750.48 462.521C750.639 462.371 750.829 462.295 751.051 462.295C751.272 462.295 751.461 462.371 751.618 462.521C751.777 462.669 751.856 462.848 751.856 463.058C751.856 463.266 751.777 463.445 751.618 463.595C751.461 463.743 751.272 463.817 751.051 463.817ZM756.285 471.504C755.672 471.504 755.136 471.364 754.679 471.082C754.222 470.801 753.866 470.408 753.614 469.902C753.361 469.396 753.234 468.805 753.234 468.129C753.234 467.45 753.361 466.856 753.614 466.348C753.866 465.839 754.222 465.445 754.679 465.163C755.136 464.882 755.672 464.741 756.285 464.741C756.899 464.741 757.435 464.882 757.892 465.163C758.349 465.445 758.705 465.839 758.957 466.348C759.21 466.856 759.337 467.45 759.337 468.129C759.337 468.805 759.21 469.396 758.957 469.902C758.705 470.408 758.349 470.801 757.892 471.082C757.435 471.364 756.899 471.504 756.285 471.504ZM756.29 470.435C756.687 470.435 757.017 470.329 757.278 470.119C757.54 469.909 757.733 469.629 757.858 469.28C757.986 468.93 758.05 468.545 758.05 468.125C758.05 467.707 757.986 467.324 757.858 466.974C757.733 466.622 757.54 466.339 757.278 466.126C757.017 465.913 756.687 465.807 756.29 465.807C755.889 465.807 755.557 465.913 755.293 466.126C755.031 466.339 754.837 466.622 754.709 466.974C754.584 467.324 754.521 467.707 754.521 468.125C754.521 468.545 754.584 468.93 754.709 469.28C754.837 469.629 755.031 469.909 755.293 470.119C755.557 470.329 755.889 470.435 756.29 470.435Z" fill="white"/>
<path d="M1007.07 351.67H1005.67L1008.81 342.943H1010.33L1013.47 351.67H1012.08L1009.61 344.528H1009.54L1007.07 351.67ZM1007.3 348.252H1011.84V349.36H1007.3V348.252ZM1016.03 342.943V351.67H1014.75V342.943H1016.03ZM1020.68 351.802C1020.04 351.802 1019.48 351.664 1019.02 351.389C1018.55 351.11 1018.19 350.72 1017.94 350.217C1017.69 349.711 1017.57 349.119 1017.57 348.44C1017.57 347.769 1017.69 347.178 1017.94 346.667C1018.19 346.156 1018.55 345.757 1019 345.47C1019.45 345.183 1019.98 345.039 1020.59 345.039C1020.96 345.039 1021.32 345.1 1021.67 345.222C1022.01 345.345 1022.32 345.536 1022.6 345.798C1022.88 346.059 1023.09 346.399 1023.25 346.816C1023.41 347.231 1023.49 347.735 1023.49 348.329V348.781H1018.29V347.826H1022.24C1022.24 347.491 1022.17 347.194 1022.04 346.936C1021.9 346.674 1021.71 346.468 1021.46 346.318C1021.22 346.167 1020.93 346.092 1020.6 346.092C1020.24 346.092 1019.93 346.18 1019.66 346.356C1019.4 346.529 1019.19 346.757 1019.05 347.038C1018.91 347.316 1018.84 347.619 1018.84 347.945V348.691C1018.84 349.129 1018.91 349.501 1019.07 349.808C1019.22 350.115 1019.44 350.349 1019.72 350.511C1020 350.67 1020.32 350.749 1020.69 350.749C1020.94 350.749 1021.16 350.715 1021.36 350.647C1021.55 350.576 1021.73 350.471 1021.87 350.332C1022.02 350.193 1022.13 350.021 1022.2 349.816L1023.41 350.034C1023.31 350.389 1023.14 350.7 1022.89 350.967C1022.64 351.231 1022.33 351.437 1021.96 351.585C1021.58 351.73 1021.16 351.802 1020.68 351.802ZM1026.2 349.45L1026.19 347.894H1026.41L1029.02 345.124H1030.54L1027.57 348.278H1027.37L1026.2 349.45ZM1025.02 351.67V342.943H1026.3V351.67H1025.02ZM1029.16 351.67L1026.81 348.559L1027.69 347.669L1030.72 351.67H1029.16ZM1036.73 346.722L1035.57 346.927C1035.53 346.779 1035.45 346.639 1035.34 346.505C1035.24 346.372 1035.1 346.262 1034.93 346.177C1034.75 346.092 1034.53 346.049 1034.27 346.049C1033.9 346.049 1033.6 346.13 1033.36 346.292C1033.12 346.451 1033 346.657 1033 346.91C1033 347.129 1033.08 347.305 1033.24 347.438C1033.4 347.572 1033.67 347.681 1034.03 347.767L1035.07 348.005C1035.67 348.144 1036.12 348.359 1036.41 348.649C1036.71 348.938 1036.86 349.315 1036.86 349.778C1036.86 350.17 1036.74 350.519 1036.52 350.826C1036.29 351.13 1035.98 351.369 1035.57 351.542C1035.17 351.715 1034.71 351.802 1034.18 351.802C1033.45 351.802 1032.85 351.646 1032.39 351.333C1031.92 351.018 1031.64 350.57 1031.53 349.991L1032.77 349.803C1032.84 350.124 1033 350.367 1033.24 350.532C1033.48 350.694 1033.79 350.775 1034.17 350.775C1034.59 350.775 1034.92 350.688 1035.17 350.515C1035.42 350.339 1035.55 350.124 1035.55 349.872C1035.55 349.667 1035.47 349.495 1035.32 349.356C1035.17 349.217 1034.94 349.112 1034.62 349.041L1033.52 348.798C1032.9 348.659 1032.45 348.437 1032.16 348.133C1031.87 347.829 1031.73 347.444 1031.73 346.978C1031.73 346.592 1031.83 346.254 1032.05 345.964C1032.27 345.674 1032.56 345.448 1032.94 345.286C1033.33 345.122 1033.76 345.039 1034.25 345.039C1034.96 345.039 1035.52 345.193 1035.92 345.499C1036.33 345.803 1036.6 346.211 1036.73 346.722ZM1040.28 351.815C1039.87 351.815 1039.49 351.738 1039.16 351.585C1038.82 351.428 1038.56 351.203 1038.36 350.907C1038.17 350.612 1038.07 350.249 1038.07 349.82C1038.07 349.451 1038.14 349.147 1038.28 348.909C1038.43 348.67 1038.62 348.481 1038.86 348.342C1039.1 348.203 1039.37 348.097 1039.67 348.026C1039.97 347.955 1040.27 347.901 1040.58 347.865C1040.97 347.819 1041.29 347.782 1041.53 347.754C1041.78 347.722 1041.96 347.673 1042.07 347.605C1042.18 347.536 1042.23 347.426 1042.23 347.272V347.242C1042.23 346.87 1042.13 346.582 1041.92 346.377C1041.71 346.173 1041.4 346.07 1040.99 346.07C1040.56 346.07 1040.22 346.166 1039.98 346.356C1039.73 346.544 1039.56 346.752 1039.47 346.982L1038.27 346.71C1038.41 346.312 1038.62 345.991 1038.89 345.747C1039.17 345.499 1039.49 345.32 1039.84 345.21C1040.2 345.096 1040.58 345.039 1040.97 345.039C1041.23 345.039 1041.51 345.07 1041.8 345.133C1042.1 345.193 1042.37 345.303 1042.63 345.465C1042.89 345.627 1043.1 345.859 1043.26 346.16C1043.43 346.458 1043.51 346.846 1043.51 347.323V351.67H1042.27V350.775H1042.22C1042.13 350.94 1042.01 351.102 1041.85 351.261C1041.68 351.42 1041.47 351.552 1041.21 351.657C1040.95 351.762 1040.64 351.815 1040.28 351.815ZM1040.56 350.792C1040.91 350.792 1041.21 350.722 1041.46 350.583C1041.72 350.444 1041.91 350.262 1042.04 350.038C1042.17 349.811 1042.24 349.568 1042.24 349.309V348.465C1042.19 348.511 1042.1 348.553 1041.97 348.593C1041.85 348.63 1041.7 348.663 1041.53 348.691C1041.37 348.717 1041.21 348.741 1041.05 348.764C1040.9 348.784 1040.77 348.801 1040.66 348.815C1040.41 348.846 1040.19 348.899 1039.98 348.972C1039.78 349.046 1039.62 349.153 1039.5 349.292C1039.38 349.428 1039.32 349.61 1039.32 349.838C1039.32 350.153 1039.44 350.392 1039.67 350.553C1039.9 350.713 1040.2 350.792 1040.56 350.792ZM1046.6 347.784V351.67H1045.33V345.124H1046.55V346.19H1046.63C1046.78 345.843 1047.02 345.565 1047.34 345.355C1047.66 345.144 1048.07 345.039 1048.56 345.039C1049.01 345.039 1049.4 345.133 1049.74 345.32C1050.07 345.505 1050.33 345.781 1050.52 346.147C1050.7 346.514 1050.79 346.967 1050.79 347.507V351.67H1049.52V347.66C1049.52 347.186 1049.39 346.815 1049.15 346.548C1048.9 346.278 1048.56 346.143 1048.13 346.143C1047.83 346.143 1047.57 346.207 1047.34 346.335C1047.11 346.463 1046.93 346.65 1046.8 346.897C1046.67 347.142 1046.6 347.437 1046.6 347.784ZM1055.07 351.798C1054.54 351.798 1054.07 351.663 1053.66 351.393C1053.24 351.12 1052.92 350.732 1052.69 350.23C1052.45 349.724 1052.34 349.117 1052.34 348.41C1052.34 347.703 1052.45 347.097 1052.69 346.595C1052.93 346.092 1053.25 345.707 1053.67 345.44C1054.08 345.173 1054.55 345.039 1055.08 345.039C1055.49 345.039 1055.81 345.107 1056.06 345.244C1056.31 345.377 1056.5 345.534 1056.64 345.713C1056.78 345.892 1056.89 346.049 1056.96 346.186H1057.04V342.943H1058.31V351.67H1057.07V350.651H1056.96C1056.89 350.791 1056.78 350.95 1056.63 351.129C1056.49 351.308 1056.29 351.464 1056.04 351.597C1055.79 351.731 1055.47 351.798 1055.07 351.798ZM1055.35 350.711C1055.72 350.711 1056.03 350.615 1056.28 350.421C1056.54 350.225 1056.73 349.954 1056.86 349.607C1056.99 349.261 1057.06 348.857 1057.06 348.397C1057.06 347.943 1057 347.545 1056.87 347.204C1056.73 346.863 1056.54 346.597 1056.29 346.407C1056.04 346.217 1055.72 346.122 1055.35 346.122C1054.97 346.122 1054.65 346.221 1054.39 346.42C1054.14 346.619 1053.94 346.89 1053.81 347.234C1053.69 347.578 1053.62 347.965 1053.62 348.397C1053.62 348.835 1053.69 349.228 1053.82 349.578C1053.95 349.927 1054.14 350.204 1054.4 350.409C1054.66 350.61 1054.97 350.711 1055.35 350.711ZM1063.07 351.802C1062.43 351.802 1061.87 351.664 1061.41 351.389C1060.94 351.11 1060.59 350.72 1060.33 350.217C1060.08 349.711 1059.96 349.119 1059.96 348.44C1059.96 347.769 1060.08 347.178 1060.33 346.667C1060.59 346.156 1060.94 345.757 1061.39 345.47C1061.85 345.183 1062.38 345.039 1062.98 345.039C1063.35 345.039 1063.71 345.1 1064.06 345.222C1064.4 345.345 1064.72 345.536 1064.99 345.798C1065.27 346.059 1065.48 346.399 1065.64 346.816C1065.8 347.231 1065.88 347.735 1065.88 348.329V348.781H1060.68V347.826H1064.63C1064.63 347.491 1064.57 347.194 1064.43 346.936C1064.29 346.674 1064.1 346.468 1063.85 346.318C1063.61 346.167 1063.32 346.092 1062.99 346.092C1062.63 346.092 1062.32 346.18 1062.06 346.356C1061.79 346.529 1061.59 346.757 1061.44 347.038C1061.3 347.316 1061.23 347.619 1061.23 347.945V348.691C1061.23 349.129 1061.31 349.501 1061.46 349.808C1061.62 350.115 1061.83 350.349 1062.11 350.511C1062.39 350.67 1062.71 350.749 1063.09 350.749C1063.33 350.749 1063.55 350.715 1063.75 350.647C1063.95 350.576 1064.12 350.471 1064.26 350.332C1064.41 350.193 1064.52 350.021 1064.6 349.816L1065.8 350.034C1065.7 350.389 1065.53 350.7 1065.28 350.967C1065.03 351.231 1064.72 351.437 1064.35 351.585C1063.98 351.73 1063.55 351.802 1063.07 351.802ZM1067.42 351.67V345.124H1068.65V346.164H1068.72C1068.83 345.812 1069.05 345.535 1069.35 345.333C1069.65 345.129 1069.99 345.026 1070.38 345.026C1070.46 345.026 1070.55 345.029 1070.66 345.035C1070.77 345.041 1070.86 345.048 1070.92 345.056V346.275C1070.87 346.261 1070.78 346.245 1070.65 346.228C1070.52 346.208 1070.38 346.198 1070.25 346.198C1069.95 346.198 1069.68 346.262 1069.45 346.39C1069.22 346.515 1069.03 346.69 1068.89 346.914C1068.76 347.136 1068.69 347.389 1068.69 347.673V351.67H1067.42Z" fill="white"/>
</g>
<path d="M960.112 311.331L974.951 344.348L982.4 330.378L996.039 321.699L960.112 311.331Z" fill="#08C15B" fill-opacity="0.4" stroke="#42B85C" stroke-width="2.5" stroke-linejoin="round"/>
<path d="M788.979 434.83L777.219 439.329L765.459 443.829L774.867 449.555L780.355 459.372L788.979 434.83Z" fill="#FFBE00" fill-opacity="0.4" stroke="#F3B500" stroke-width="2.5" stroke-linejoin="round"/>
<defs>
<filter id="filter0_d_197_2350" x="134.753" y="292.896" width="152.311" height="153.514" filterUnits="userSpaceOnUse" color-interpolation-filters="sRGB">
<feFlood flood-opacity="0" result="BackgroundImageFix"/>
<feColorMatrix in="SourceAlpha" type="matrix" values="0 0 0 0 0 0 0 0 0 0 0 0 0 0 0 0 0 0 127 0" result="hardAlpha"/>
<feOffset dx="2" dy="6"/>
<feGaussianBlur stdDeviation="2"/>
<feComposite in2="hardAlpha" operator="out"/>
<feColorMatrix type="matrix" values="0 0 0 0 0.0862745 0 0 0 0 0.0941176 0 0 0 0 0.109804 0 0 0 0.15 0"/>
<feBlend mode="normal" in2="BackgroundImageFix" result="effect1_dropShadow_197_2350"/>
<feBlend mode="normal" in="SourceGraphic" in2="effect1_dropShadow_197_2350" result="shape"/>
</filter>
<filter id="filter1_d_197_2350" x="417.447" y="292.896" width="151.514" height="153.514" filterUnits="userSpaceOnUse" color-interpolation-filters="sRGB">
<feFlood flood-opacity="0" result="BackgroundImageFix"/>
<feColorMatrix in="SourceAlpha" type="matrix" values="0 0 0 0 0 0 0 0 0 0 0 0 0 0 0 0 0 0 127 0" result="hardAlpha"/>
<feOffset dx="2" dy="6"/>
<feGaussianBlur stdDeviation="2"/>
<feComposite in2="hardAlpha" operator="out"/>
<feColorMatrix type="matrix" values="0 0 0 0 0.0862745 0 0 0 0 0.0941176 0 0 0 0 0.109804 0 0 0 0.15 0"/>
<feBlend mode="normal" in2="BackgroundImageFix" result="effect1_dropShadow_197_2350"/>
<feBlend mode="normal" in="SourceGraphic" in2="effect1_dropShadow_197_2350" result="shape"/>
</filter>
<filter id="filter2_d_197_2350" x="669.937" y="244.758" width="421.235" height="243.291" filterUnits="userSpaceOnUse" color-interpolation-filters="sRGB">
<feFlood flood-opacity="0" result="BackgroundImageFix"/>
<feColorMatrix in="SourceAlpha" type="matrix" values="0 0 0 0 0 0 0 0 0 0 0 0 0 0 0 0 0 0 127 0" result="hardAlpha"/>
<feOffset dy="2"/>
<feGaussianBlur stdDeviation="2"/>
<feComposite in2="hardAlpha" operator="out"/>
<feColorMatrix type="matrix" values="0 0 0 0 0.0823529 0 0 0 0 0.105882 0 0 0 0 0.141176 0 0 0 0.5 0"/>
<feBlend mode="normal" in2="BackgroundImageFix" result="effect1_dropShadow_197_2350"/>
<feBlend mode="normal" in="SourceGraphic" in2="effect1_dropShadow_197_2350" result="shape"/>
</filter>
<filter id="filter3_d_197_2350" x="782.743" y="246.758" width="192.334" height="241.583" filterUnits="userSpaceOnUse" color-interpolation-filters="sRGB">
<feFlood flood-opacity="0" result="BackgroundImageFix"/>
<feColorMatrix in="SourceAlpha" type="matrix" values="0 0 0 0 0 0 0 0 0 0 0 0 0 0 0 0 0 0 127 0" result="hardAlpha"/>
<feOffset dx="2" dy="6"/>
<feGaussianBlur stdDeviation="2"/>
<feComposite in2="hardAlpha" operator="out"/>
<feColorMatrix type="matrix" values="0 0 0 0 0.0862745 0 0 0 0 0.0941176 0 0 0 0 0.109804 0 0 0 0.15 0"/>
<feBlend mode="normal" in2="BackgroundImageFix" result="effect1_dropShadow_197_2350"/>
<feBlend mode="normal" in="SourceGraphic" in2="effect1_dropShadow_197_2350" result="shape"/>
</filter>
<filter id="filter4_d_197_2350" x="671.937" y="449.998" width="105.031" height="42.0508" filterUnits="userSpaceOnUse" color-interpolation-filters="sRGB">
<feFlood flood-opacity="0" result="BackgroundImageFix"/>
<feColorMatrix in="SourceAlpha" type="matrix" values="0 0 0 0 0 0 0 0 0 0 0 0 0 0 0 0 0 0 127 0" result="hardAlpha"/>
<feOffset dx="2" dy="6"/>
<feGaussianBlur stdDeviation="2"/>
<feComposite in2="hardAlpha" operator="out"/>
<feColorMatrix type="matrix" values="0 0 0 0 0.0862745 0 0 0 0 0.0941176 0 0 0 0 0.109804 0 0 0 0.15 0"/>
<feBlend mode="normal" in2="BackgroundImageFix" result="effect1_dropShadow_197_2350"/>
<feBlend mode="normal" in="SourceGraphic" in2="effect1_dropShadow_197_2350" result="shape"/>
</filter>
<filter id="filter5_d_197_2350" x="988.141" y="330.999" width="105.031" height="42.0508" filterUnits="userSpaceOnUse" color-interpolation-filters="sRGB">
<feFlood flood-opacity="0" result="BackgroundImageFix"/>
<feColorMatrix in="SourceAlpha" type="matrix" values="0 0 0 0 0 0 0 0 0 0 0 0 0 0 0 0 0 0 127 0" result="hardAlpha"/>
<feOffset dx="2" dy="6"/>
<feGaussianBlur stdDeviation="2"/>
<feComposite in2="hardAlpha" operator="out"/>
<feColorMatrix type="matrix" values="0 0 0 0 0.0862745 0 0 0 0 0.0941176 0 0 0 0 0.109804 0 0 0 0.15 0"/>
<feBlend mode="normal" in2="BackgroundImageFix" result="effect1_dropShadow_197_2350"/>
<feBlend mode="normal" in="SourceGraphic" in2="effect1_dropShadow_197_2350" result="shape"/>
</filter>
<linearGradient id="paint0_linear_197_2350" x1="193.639" y1="230.348" x2="320.601" y2="333.288" gradientUnits="userSpaceOnUse">
<stop offset="1.86066e-08" stop-color="#4E5E6E"/>
<stop offset="1" stop-color="#4E5E6E" stop-opacity="0"/>
</linearGradient>
<linearGradient id="paint1_linear_197_2350" x1="476.021" y1="230.348" x2="602.833" y2="332.591" gradientUnits="userSpaceOnUse">
<stop offset="1.86066e-08" stop-color="#4E5E6E"/>
<stop offset="1" stop-color="#4E5E6E" stop-opacity="0"/>
</linearGradient>
<linearGradient id="paint2_linear_197_2350" x1="857.347" y1="144.661" x2="1048.55" y2="267.096" gradientUnits="userSpaceOnUse">
<stop offset="1.86066e-08" stop-color="#4E5E6E"/>
<stop offset="1" stop-color="#4E5E6E" stop-opacity="0"/>
</linearGradient>
<linearGradient id="paint3_linear_197_2350" x1="712.149" y1="436.554" x2="731.822" y2="485.61" gradientUnits="userSpaceOnUse">
<stop offset="1.86066e-08" stop-color="#4E5E6E"/>
<stop offset="1" stop-color="#4E5E6E" stop-opacity="0"/>
</linearGradient>
<linearGradient id="paint4_linear_197_2350" x1="1028.35" y1="317.555" x2="1048.03" y2="366.611" gradientUnits="userSpaceOnUse">
<stop offset="1.86066e-08" stop-color="#4E5E6E"/>
<stop offset="1" stop-color="#4E5E6E" stop-opacity="0"/>
</linearGradient>
</defs>
</svg>
