<svg width="1148" height="721" viewBox="0 0 1148 721" fill="none" xmlns="http://www.w3.org/2000/svg">
<rect x="0.598877" y="0.55957" width="1147.25" height="720" fill="#282C30" fill-opacity="0.2"/>
<g filter="url(#filter0_d_200_2452)">
<g filter="url(#filter1_d_200_2452)">
<path d="M719.797 190.012C719.797 178.622 719.797 172.927 717.546 168.592C715.648 164.939 712.67 161.961 709.017 160.063C704.682 157.812 698.987 157.812 687.597 157.812H435.75C424.36 157.812 418.665 157.812 414.331 160.063C410.678 161.961 407.699 164.939 405.802 168.592C403.55 172.927 403.55 178.622 403.55 190.012V523.809C403.55 535.199 403.55 540.894 405.802 545.228C407.699 548.881 410.678 551.86 414.331 553.757C418.665 556.009 424.36 556.009 435.75 556.009H687.597C698.987 556.009 704.682 556.009 709.017 553.757C712.67 551.86 715.648 548.881 717.546 545.228C719.797 540.894 719.797 535.199 719.797 523.809V190.012Z" fill="#3B4C64" fill-opacity="0.3" shape-rendering="crispEdges"/>
<path d="M719.797 190.012C719.797 178.622 719.797 172.927 717.546 168.592C715.648 164.939 712.67 161.961 709.017 160.063C704.682 157.812 698.987 157.812 687.597 157.812H435.75C424.36 157.812 418.665 157.812 414.331 160.063C410.678 161.961 407.699 164.939 405.802 168.592C403.55 172.927 403.55 178.622 403.55 190.012V523.809C403.55 535.199 403.55 540.894 405.802 545.228C407.699 548.881 410.678 551.86 414.331 553.757C418.665 556.009 424.36 556.009 435.75 556.009H687.597C698.987 556.009 704.682 556.009 709.017 553.757C712.67 551.86 715.648 548.881 717.546 545.228C719.797 540.894 719.797 535.199 719.797 523.809V190.012Z" stroke="url(#paint0_linear_200_2452)" stroke-width="2" shape-rendering="crispEdges"/>
</g>
<rect x="449.858" y="215.04" width="157.377" height="19.4618" fill="white"/>
<rect x="449.858" y="307.496" width="101.435" height="19.4618" fill="white"/>
<rect x="449.858" y="413.627" width="157.377" height="19.4618" fill="white"/>
<rect x="449.858" y="261.268" width="232.8" height="19.4618" fill="white"/>
<rect x="449.858" y="360.561" width="232.8" height="19.4618" fill="white"/>
<g filter="url(#filter2_d_200_2452)">
<path d="M377.056 536.381C377.056 529.937 377.056 526.716 376.321 524.079C374.44 517.337 369.172 512.069 362.43 510.189C359.794 509.453 356.572 509.453 350.128 509.453H237.425C230.981 509.453 227.76 509.453 225.123 510.189C218.381 512.069 213.113 517.337 211.233 524.079C210.497 526.716 210.497 529.937 210.497 536.381V536.381C210.497 542.824 210.497 546.046 211.233 548.683C213.113 555.424 218.381 560.692 225.123 562.573C227.76 563.308 230.981 563.308 237.425 563.308H350.129C356.572 563.308 359.794 563.308 362.43 562.573C369.172 560.692 374.44 555.424 376.321 548.683C377.056 546.046 377.056 542.824 377.056 536.381V536.381Z" fill="#3B4C64" fill-opacity="0.3" shape-rendering="crispEdges"/>
<path d="M377.056 536.381C377.056 529.937 377.056 526.716 376.321 524.079C374.44 517.337 369.172 512.069 362.43 510.189C359.794 509.453 356.572 509.453 350.128 509.453H237.425C230.981 509.453 227.76 509.453 225.123 510.189C218.381 512.069 213.113 517.337 211.233 524.079C210.497 526.716 210.497 529.937 210.497 536.381V536.381C210.497 542.824 210.497 546.046 211.233 548.683C213.113 555.424 218.381 560.692 225.123 562.573C227.76 563.308 230.981 563.308 237.425 563.308H350.129C356.572 563.308 359.794 563.308 362.43 562.573C369.172 560.692 374.44 555.424 376.321 548.683C377.056 546.046 377.056 542.824 377.056 536.381V536.381Z" stroke="url(#paint1_linear_200_2452)" shape-rendering="crispEdges"/>
</g>
<g filter="url(#filter3_d_200_2452)">
<path d="M937.953 329.983C937.953 323.54 937.953 320.318 937.218 317.682C935.337 310.94 930.069 305.672 923.327 303.791C920.691 303.056 917.469 303.056 911.026 303.056H785.861C779.417 303.056 776.195 303.056 773.559 303.791C766.817 305.672 761.549 310.94 759.668 317.682C758.933 320.318 758.933 323.54 758.933 329.983V329.983C758.933 336.427 758.933 339.648 759.668 342.285C761.549 349.027 766.817 354.295 773.559 356.175C776.195 356.911 779.417 356.911 785.861 356.911H911.026C917.469 356.911 920.691 356.911 923.327 356.175C930.069 354.295 935.337 349.027 937.218 342.285C937.953 339.648 937.953 336.427 937.953 329.983V329.983Z" fill="#3B4C64" fill-opacity="0.3" shape-rendering="crispEdges"/>
<path d="M937.953 329.983C937.953 323.54 937.953 320.318 937.218 317.682C935.337 310.94 930.069 305.672 923.327 303.791C920.691 303.056 917.469 303.056 911.026 303.056H785.861C779.417 303.056 776.195 303.056 773.559 303.791C766.817 305.672 761.549 310.94 759.668 317.682C758.933 320.318 758.933 323.54 758.933 329.983V329.983C758.933 336.427 758.933 339.648 759.668 342.285C761.549 349.027 766.817 354.295 773.559 356.175C776.195 356.911 779.417 356.911 785.861 356.911H911.026C917.469 356.911 920.691 356.911 923.327 356.175C930.069 354.295 935.337 349.027 937.218 342.285C937.953 339.648 937.953 336.427 937.953 329.983V329.983Z" stroke="url(#paint2_linear_200_2452)" shape-rendering="crispEdges"/>
</g>
<path d="M249.365 543.844H244.656V529.298H249.514C250.94 529.298 252.164 529.589 253.186 530.172C254.209 530.75 254.993 531.58 255.537 532.665C256.086 533.744 256.361 535.039 256.361 536.55C256.361 538.065 256.084 539.367 255.53 540.456C254.981 541.545 254.185 542.383 253.144 542.97C252.102 543.553 250.843 543.844 249.365 543.844ZM246.851 541.926H249.245C250.353 541.926 251.273 541.718 252.007 541.301C252.741 540.88 253.29 540.271 253.655 539.476C254.02 538.676 254.202 537.7 254.202 536.55C254.202 535.409 254.02 534.44 253.655 533.645C253.295 532.849 252.758 532.246 252.043 531.834C251.328 531.422 250.44 531.216 249.379 531.216H246.851V541.926ZM263.821 544.064C262.747 544.064 261.821 543.834 261.044 543.375C260.273 542.911 259.676 542.26 259.255 541.422C258.838 540.579 258.63 539.592 258.63 538.46C258.63 537.343 258.838 536.358 259.255 535.506C259.676 534.653 260.263 533.988 261.016 533.51C261.774 533.032 262.659 532.793 263.672 532.793C264.288 532.793 264.884 532.894 265.462 533.098C266.04 533.302 266.558 533.621 267.017 534.057C267.477 534.492 267.839 535.058 268.104 535.754C268.369 536.446 268.502 537.286 268.502 538.276V539.028H259.83V537.438H266.421C266.421 536.879 266.307 536.384 266.08 535.953C265.853 535.518 265.533 535.174 265.121 534.923C264.714 534.672 264.236 534.547 263.686 534.547C263.09 534.547 262.569 534.694 262.124 534.987C261.684 535.276 261.343 535.655 261.101 536.124C260.864 536.588 260.746 537.092 260.746 537.636V538.879C260.746 539.608 260.874 540.229 261.13 540.74C261.39 541.251 261.752 541.642 262.216 541.912C262.68 542.177 263.222 542.31 263.843 542.31C264.245 542.31 264.612 542.253 264.943 542.139C265.275 542.021 265.561 541.846 265.803 541.614C266.044 541.382 266.229 541.095 266.357 540.754L268.367 541.116C268.206 541.708 267.917 542.227 267.5 542.672C267.088 543.112 266.57 543.455 265.945 543.702C265.325 543.943 264.617 544.064 263.821 544.064ZM280.078 532.935L276.122 543.844H273.849L269.886 532.935H272.166L274.929 541.33H275.042L277.798 532.935H280.078ZM286.604 544.064C285.529 544.064 284.604 543.834 283.827 543.375C283.055 542.911 282.459 542.26 282.037 541.422C281.621 540.579 281.412 539.592 281.412 538.46C281.412 537.343 281.621 536.358 282.037 535.506C282.459 534.653 283.046 533.988 283.799 533.51C284.556 533.032 285.442 532.793 286.455 532.793C287.071 532.793 287.667 532.894 288.245 533.098C288.822 533.302 289.341 533.621 289.8 534.057C290.259 534.492 290.622 535.058 290.887 535.754C291.152 536.446 291.285 537.286 291.285 538.276V539.028H282.613V537.438H289.204C289.204 536.879 289.09 536.384 288.863 535.953C288.635 535.518 288.316 535.174 287.904 534.923C287.497 534.672 287.018 534.547 286.469 534.547C285.873 534.547 285.352 534.694 284.907 534.987C284.466 535.276 284.125 535.655 283.884 536.124C283.647 536.588 283.529 537.092 283.529 537.636V538.879C283.529 539.608 283.657 540.229 283.912 540.74C284.173 541.251 284.535 541.642 284.999 541.912C285.463 542.177 286.005 542.31 286.625 542.31C287.028 542.31 287.395 542.253 287.726 542.139C288.058 542.021 288.344 541.846 288.586 541.614C288.827 541.382 289.012 541.095 289.14 540.754L291.15 541.116C290.989 541.708 290.7 542.227 290.283 542.672C289.871 543.112 289.353 543.455 288.728 543.702C288.107 543.943 287.4 544.064 286.604 544.064ZM295.964 529.298V543.844H293.841V529.298H295.964ZM303.616 544.064C302.594 544.064 301.701 543.83 300.939 543.361C300.176 542.892 299.585 542.236 299.163 541.393C298.742 540.551 298.531 539.566 298.531 538.439C298.531 537.307 298.742 536.318 299.163 535.47C299.585 534.623 300.176 533.964 300.939 533.496C301.701 533.027 302.594 532.793 303.616 532.793C304.639 532.793 305.532 533.027 306.294 533.496C307.056 533.964 307.648 534.623 308.069 535.47C308.491 536.318 308.702 537.307 308.702 538.439C308.702 539.566 308.491 540.551 308.069 541.393C307.648 542.236 307.056 542.892 306.294 543.361C305.532 543.83 304.639 544.064 303.616 544.064ZM303.623 542.281C304.286 542.281 304.836 542.106 305.271 541.756C305.707 541.405 306.029 540.939 306.237 540.357C306.45 539.774 306.557 539.133 306.557 538.432C306.557 537.736 306.45 537.097 306.237 536.514C306.029 535.927 305.707 535.456 305.271 535.101C304.836 534.746 304.286 534.568 303.623 534.568C302.956 534.568 302.402 534.746 301.962 535.101C301.526 535.456 301.202 535.927 300.989 536.514C300.78 537.097 300.676 537.736 300.676 538.432C300.676 539.133 300.78 539.774 300.989 540.357C301.202 540.939 301.526 541.405 301.962 541.756C302.402 542.106 302.956 542.281 303.623 542.281ZM311.272 547.935V532.935H313.346V534.703H313.523C313.646 534.476 313.824 534.213 314.056 533.915C314.288 533.616 314.61 533.356 315.022 533.134C315.434 532.906 315.978 532.793 316.655 532.793C317.536 532.793 318.322 533.015 319.013 533.46C319.705 533.905 320.247 534.547 320.64 535.385C321.038 536.223 321.236 537.232 321.236 538.411C321.236 539.589 321.04 540.6 320.647 541.443C320.254 542.281 319.714 542.928 319.028 543.382C318.341 543.832 317.557 544.057 316.677 544.057C316.014 544.057 315.472 543.946 315.05 543.723C314.634 543.5 314.307 543.24 314.07 542.942C313.834 542.643 313.651 542.378 313.523 542.146H313.396V547.935H311.272ZM313.353 538.389C313.353 539.156 313.464 539.829 313.687 540.406C313.909 540.984 314.231 541.436 314.653 541.763C315.074 542.085 315.59 542.246 316.201 542.246C316.835 542.246 317.366 542.078 317.792 541.741C318.218 541.401 318.54 540.939 318.758 540.357C318.98 539.774 319.092 539.118 319.092 538.389C319.092 537.67 318.983 537.023 318.765 536.45C318.552 535.877 318.23 535.425 317.799 535.094C317.373 534.762 316.84 534.597 316.201 534.597C315.585 534.597 315.065 534.755 314.638 535.072C314.217 535.39 313.897 535.832 313.68 536.401C313.462 536.969 313.353 537.632 313.353 538.389ZM328.517 544.064C327.443 544.064 326.517 543.834 325.74 543.375C324.969 542.911 324.372 542.26 323.951 541.422C323.534 540.579 323.326 539.592 323.326 538.46C323.326 537.343 323.534 536.358 323.951 535.506C324.372 534.653 324.959 533.988 325.712 533.51C326.47 533.032 327.355 532.793 328.368 532.793C328.984 532.793 329.58 532.894 330.158 533.098C330.736 533.302 331.254 533.621 331.713 534.057C332.173 534.492 332.535 535.058 332.8 535.754C333.065 536.446 333.198 537.286 333.198 538.276V539.028H324.526V537.438H331.117C331.117 536.879 331.003 536.384 330.776 535.953C330.549 535.518 330.229 535.174 329.817 534.923C329.41 534.672 328.932 534.547 328.382 534.547C327.786 534.547 327.265 534.694 326.82 534.987C326.38 535.276 326.039 535.655 325.797 536.124C325.561 536.588 325.442 537.092 325.442 537.636V538.879C325.442 539.608 325.57 540.229 325.826 540.74C326.086 541.251 326.448 541.642 326.912 541.912C327.376 542.177 327.918 542.31 328.539 542.31C328.941 542.31 329.308 542.253 329.64 542.139C329.971 542.021 330.257 541.846 330.499 541.614C330.74 541.382 330.925 541.095 331.053 540.754L333.063 541.116C332.902 541.708 332.613 542.227 332.196 542.672C331.784 543.112 331.266 543.455 330.641 543.702C330.021 543.943 329.313 544.064 328.517 544.064ZM335.754 543.844V532.935H337.807V534.668H337.92C338.119 534.08 338.469 533.619 338.971 533.283C339.478 532.942 340.051 532.771 340.69 532.771C340.823 532.771 340.979 532.776 341.159 532.786C341.343 532.795 341.488 532.807 341.592 532.821V534.852C341.507 534.829 341.355 534.803 341.138 534.774C340.92 534.741 340.702 534.724 340.484 534.724C339.982 534.724 339.535 534.831 339.142 535.044C338.754 535.252 338.446 535.544 338.218 535.918C337.991 536.287 337.878 536.708 337.878 537.182V543.844H335.754Z" fill="white"/>
<path d="M784.6 338.421H781.805L788.086 320.966H791.129L797.41 338.421H794.615L789.68 324.137H789.543L784.6 338.421ZM785.069 331.586H794.137V333.802H785.069V331.586ZM802.514 320.966V338.421H799.966V320.966H802.514ZM811.825 338.685C810.535 338.685 809.424 338.41 808.492 337.858C807.566 337.302 806.85 336.52 806.345 335.515C805.845 334.503 805.595 333.319 805.595 331.961C805.595 330.62 805.845 329.438 806.345 328.415C806.85 327.392 807.555 326.594 808.458 326.02C809.367 325.446 810.43 325.16 811.646 325.16C812.384 325.16 813.1 325.282 813.793 325.526C814.487 325.77 815.109 326.154 815.66 326.677C816.211 327.199 816.646 327.878 816.964 328.714C817.282 329.543 817.441 330.552 817.441 331.739V332.642H807.035V330.733H814.944C814.944 330.063 814.808 329.469 814.535 328.952C814.262 328.429 813.879 328.017 813.384 327.716C812.896 327.415 812.322 327.265 811.663 327.265C810.947 327.265 810.322 327.441 809.788 327.793C809.259 328.14 808.85 328.594 808.56 329.157C808.276 329.714 808.134 330.319 808.134 330.972V332.464C808.134 333.339 808.288 334.083 808.595 334.696C808.907 335.31 809.342 335.779 809.898 336.103C810.455 336.421 811.106 336.58 811.85 336.58C812.333 336.58 812.773 336.512 813.171 336.375C813.569 336.233 813.913 336.023 814.202 335.745C814.492 335.466 814.714 335.123 814.867 334.714L817.279 335.148C817.086 335.858 816.739 336.481 816.239 337.015C815.745 337.543 815.123 337.955 814.373 338.25C813.629 338.54 812.779 338.685 811.825 338.685ZM822.852 333.981L822.835 330.87H823.278L828.494 325.33H831.545L825.597 331.637H825.196L822.852 333.981ZM820.509 338.421V320.966H823.057V338.421H820.509ZM828.776 338.421L824.088 332.199L825.844 330.418L831.903 338.421H828.776ZM843.918 328.526L841.608 328.935C841.511 328.64 841.358 328.358 841.148 328.091C840.943 327.824 840.665 327.606 840.312 327.435C839.96 327.265 839.52 327.179 838.991 327.179C838.27 327.179 837.668 327.341 837.185 327.665C836.702 327.983 836.46 328.395 836.46 328.901C836.46 329.339 836.622 329.691 836.946 329.958C837.27 330.225 837.793 330.444 838.514 330.614L840.594 331.091C841.798 331.37 842.696 331.799 843.287 332.378C843.878 332.958 844.173 333.711 844.173 334.637C844.173 335.421 843.946 336.12 843.491 336.733C843.043 337.341 842.415 337.819 841.608 338.165C840.807 338.512 839.878 338.685 838.821 338.685C837.355 338.685 836.159 338.373 835.233 337.748C834.307 337.117 833.739 336.222 833.528 335.063L835.991 334.688C836.145 335.33 836.46 335.816 836.937 336.145C837.415 336.469 838.037 336.631 838.804 336.631C839.639 336.631 840.307 336.458 840.807 336.111C841.307 335.759 841.557 335.33 841.557 334.824C841.557 334.415 841.403 334.071 841.097 333.793C840.795 333.515 840.332 333.304 839.707 333.162L837.491 332.677C836.27 332.398 835.366 331.955 834.781 331.347C834.202 330.739 833.912 329.969 833.912 329.037C833.912 328.265 834.128 327.589 834.56 327.009C834.991 326.429 835.588 325.978 836.349 325.654C837.111 325.324 837.983 325.16 838.966 325.16C840.381 325.16 841.494 325.466 842.307 326.08C843.119 326.688 843.656 327.503 843.918 328.526ZM851.025 338.711C850.195 338.711 849.445 338.557 848.775 338.25C848.104 337.938 847.573 337.486 847.181 336.895C846.795 336.304 846.601 335.58 846.601 334.722C846.601 333.983 846.743 333.375 847.028 332.898C847.312 332.421 847.695 332.043 848.178 331.765C848.661 331.486 849.201 331.276 849.797 331.134C850.394 330.992 851.002 330.884 851.621 330.81C852.405 330.719 853.042 330.645 853.53 330.589C854.019 330.526 854.374 330.427 854.596 330.29C854.817 330.154 854.928 329.932 854.928 329.625V329.566C854.928 328.821 854.718 328.245 854.297 327.836C853.883 327.427 853.263 327.222 852.439 327.222C851.582 327.222 850.905 327.412 850.411 327.793C849.922 328.168 849.584 328.586 849.397 329.046L847.002 328.5C847.286 327.705 847.701 327.063 848.246 326.574C848.797 326.08 849.431 325.722 850.147 325.5C850.863 325.273 851.616 325.16 852.405 325.16C852.928 325.16 853.482 325.222 854.067 325.347C854.658 325.466 855.209 325.688 855.721 326.012C856.238 326.336 856.661 326.799 856.991 327.401C857.32 327.998 857.485 328.773 857.485 329.728V338.421H854.996V336.631H854.894C854.729 336.961 854.482 337.285 854.153 337.603C853.823 337.921 853.4 338.185 852.883 338.395C852.366 338.606 851.746 338.711 851.025 338.711ZM851.579 336.665C852.283 336.665 852.886 336.526 853.386 336.248C853.891 335.969 854.275 335.606 854.536 335.157C854.803 334.702 854.937 334.216 854.937 333.699V332.012C854.846 332.103 854.67 332.188 854.408 332.267C854.153 332.341 853.86 332.407 853.53 332.464C853.201 332.515 852.88 332.563 852.567 332.608C852.255 332.648 851.993 332.682 851.783 332.711C851.289 332.773 850.837 332.878 850.428 333.026C850.025 333.174 849.701 333.387 849.457 333.665C849.218 333.938 849.099 334.302 849.099 334.756C849.099 335.387 849.332 335.864 849.797 336.188C850.263 336.506 850.857 336.665 851.579 336.665ZM863.667 330.648V338.421H861.119V325.33H863.565V327.461H863.727C864.028 326.767 864.5 326.211 865.142 325.79C865.79 325.37 866.605 325.16 867.588 325.16C868.48 325.16 869.261 325.347 869.932 325.722C870.602 326.091 871.122 326.642 871.491 327.375C871.861 328.108 872.045 329.015 872.045 330.094V338.421H869.497V330.401C869.497 329.452 869.25 328.711 868.755 328.177C868.261 327.637 867.582 327.367 866.719 327.367C866.128 327.367 865.602 327.495 865.142 327.75C864.687 328.006 864.327 328.381 864.059 328.875C863.798 329.364 863.667 329.955 863.667 330.648ZM880.603 338.677C879.547 338.677 878.603 338.407 877.774 337.867C876.95 337.321 876.302 336.546 875.831 335.54C875.365 334.529 875.132 333.316 875.132 331.901C875.132 330.486 875.368 329.276 875.839 328.27C876.317 327.265 876.97 326.495 877.799 325.961C878.629 325.427 879.569 325.16 880.62 325.16C881.433 325.16 882.086 325.296 882.581 325.569C883.081 325.836 883.467 326.148 883.74 326.506C884.018 326.864 884.234 327.179 884.388 327.452H884.541V320.966H887.089V338.421H884.601V336.384H884.388C884.234 336.662 884.013 336.981 883.723 337.339C883.439 337.696 883.047 338.009 882.547 338.276C882.047 338.543 881.399 338.677 880.603 338.677ZM881.166 336.503C881.899 336.503 882.518 336.31 883.024 335.924C883.535 335.532 883.922 334.989 884.183 334.296C884.45 333.603 884.584 332.796 884.584 331.875C884.584 330.966 884.453 330.171 884.192 329.489C883.93 328.807 883.547 328.276 883.041 327.895C882.535 327.515 881.91 327.324 881.166 327.324C880.399 327.324 879.76 327.523 879.248 327.921C878.737 328.319 878.351 328.861 878.089 329.549C877.834 330.236 877.706 331.012 877.706 331.875C877.706 332.75 877.836 333.537 878.098 334.236C878.359 334.935 878.745 335.489 879.257 335.898C879.774 336.302 880.41 336.503 881.166 336.503ZM896.608 338.685C895.319 338.685 894.208 338.41 893.276 337.858C892.35 337.302 891.634 336.52 891.128 335.515C890.628 334.503 890.378 333.319 890.378 331.961C890.378 330.62 890.628 329.438 891.128 328.415C891.634 327.392 892.338 326.594 893.242 326.02C894.151 325.446 895.213 325.16 896.429 325.16C897.168 325.16 897.884 325.282 898.577 325.526C899.27 325.77 899.892 326.154 900.444 326.677C900.995 327.199 901.429 327.878 901.748 328.714C902.066 329.543 902.225 330.552 902.225 331.739V332.642H891.819V330.733H899.728C899.728 330.063 899.591 329.469 899.319 328.952C899.046 328.429 898.662 328.017 898.168 327.716C897.679 327.415 897.106 327.265 896.446 327.265C895.731 327.265 895.106 327.441 894.571 327.793C894.043 328.14 893.634 328.594 893.344 329.157C893.06 329.714 892.918 330.319 892.918 330.972V332.464C892.918 333.339 893.071 334.083 893.378 334.696C893.691 335.31 894.125 335.779 894.682 336.103C895.239 336.421 895.89 336.58 896.634 336.58C897.117 336.58 897.557 336.512 897.955 336.375C898.353 336.233 898.696 336.023 898.986 335.745C899.276 335.466 899.498 335.123 899.651 334.714L902.063 335.148C901.87 335.858 901.523 336.481 901.023 337.015C900.529 337.543 899.907 337.955 899.157 338.25C898.412 338.54 897.563 338.685 896.608 338.685ZM905.292 338.421V325.33H907.755V327.41H907.892C908.13 326.705 908.551 326.151 909.153 325.748C909.761 325.339 910.449 325.134 911.216 325.134C911.375 325.134 911.562 325.14 911.778 325.151C912 325.162 912.173 325.177 912.298 325.194V327.631C912.196 327.603 912.014 327.571 911.752 327.537C911.491 327.498 911.23 327.478 910.968 327.478C910.366 327.478 909.829 327.606 909.358 327.861C908.892 328.111 908.522 328.461 908.25 328.91C907.977 329.353 907.841 329.858 907.841 330.427V338.421H905.292Z" fill="white"/>
</g>
<path d="M717.029 258.946L738.373 306.437L749.086 286.343L768.705 273.859L717.029 258.946Z" fill="#08C15B" fill-opacity="0.4" stroke="#42B85C" stroke-width="2.5" stroke-linejoin="round"/>
<path d="M403.55 482.39L386.635 488.861L369.72 495.333L383.252 503.57L391.146 517.69L403.55 482.39Z" fill="#FFBE00" fill-opacity="0.4" stroke="#F3B500" stroke-width="2.5" stroke-linejoin="round"/>
<path d="M781.208 522.441C781.346 563.774 747.951 597.393 706.618 597.532C665.285 597.67 631.666 564.275 631.527 522.942C631.389 481.609 664.783 447.99 706.117 447.851C747.45 447.713 781.069 481.107 781.208 522.441Z" fill="#030C17"/>
<path opacity="0.2" d="M753.172 569.185C778.843 543.326 778.719 501.617 752.861 475.945C727.002 450.273 685.293 450.398 659.621 476.256L753.172 569.185Z" fill="white"/>
<path d="M713.39 515.977C712.644 515.852 711.96 515.666 711.276 515.542C702.077 513.677 695.426 512.371 695.426 505.969C695.426 501.991 699.342 498.82 706.366 498.82C712.644 498.82 717.617 501.369 720.849 506.155L721.347 506.279L731.354 496.023L731.292 495.65C727.314 490.926 722.279 487.632 716.498 485.891C715.69 485.643 714.944 485.456 714.136 485.27H714.074C713.763 485.207 713.514 485.145 713.203 485.083V476.008H699.528V485.083C699.093 485.145 698.658 485.27 698.223 485.332H698.161C691.696 486.886 686.04 490.242 681.626 495.402C679.762 498.509 678.829 502.239 678.829 506.528C678.829 521.198 689.893 525.86 700.71 528.471C702.698 528.968 704.687 529.341 706.615 529.652C713.39 530.895 719.233 531.952 719.233 538.043C719.233 541.835 715.069 546.559 706.366 546.559C701.207 546.559 696.98 544.819 693.872 541.648C693.686 541.462 693.437 541.275 693.25 541.089L681.44 549.294V549.729C683.118 551.719 684.983 553.459 686.972 554.95C687.656 555.448 688.34 555.883 689.023 556.318C689.023 556.318 689.023 556.318 689.085 556.318C689.769 556.753 690.515 557.126 691.199 557.499C691.199 557.499 691.261 557.499 691.261 557.562C692.007 557.935 692.691 558.245 693.437 558.556C693.499 558.556 693.499 558.556 693.561 558.618C694.307 558.929 695.053 559.178 695.799 559.426C695.861 559.426 695.923 559.426 695.923 559.488C696.296 559.613 696.607 559.675 696.98 559.799C697.042 559.799 697.042 559.799 697.104 559.799C697.477 559.924 697.85 559.986 698.285 560.11C698.347 560.11 698.409 560.11 698.472 560.172C698.782 560.234 699.155 560.296 699.466 560.359V569.434H713.141V560.359C713.39 560.296 713.639 560.296 713.887 560.234C713.95 560.234 713.95 560.234 714.012 560.234C714.944 560.048 715.876 559.799 716.809 559.488C717.244 559.364 717.741 559.178 718.176 559.053C723.211 557.189 727.625 554.08 731.23 549.854C732.597 548.237 733.778 546.559 734.835 544.695C735.395 542.705 735.643 540.467 735.643 538.106C735.706 522.317 723.771 518.028 713.39 515.977Z" fill="#FAFBFC"/>
<path d="M681.502 549.666C680.818 548.859 680.197 548.051 679.637 547.18C679.389 546.808 679.14 546.434 678.891 546.124C678.829 546.061 678.767 545.937 678.705 545.875C678.518 545.564 678.27 545.191 678.083 544.818C678.021 544.694 677.959 544.569 677.897 544.445C677.71 544.134 677.524 543.761 677.337 543.45C677.275 543.326 677.213 543.202 677.151 543.077C676.964 542.767 676.778 542.394 676.654 542.021C676.591 541.897 676.529 541.71 676.467 541.586C676.281 541.213 676.156 540.902 675.97 540.529C675.908 540.405 675.846 540.281 675.783 540.094C675.659 539.721 675.473 539.348 675.348 538.975C675.348 538.913 675.286 538.789 675.286 538.727C674.975 537.856 674.664 536.986 674.416 536.116C674.416 536.053 674.354 535.991 674.354 535.867C674.292 535.556 674.167 535.245 674.105 534.935C674.043 534.686 673.981 534.437 673.919 534.189C673.856 533.878 673.794 533.63 673.732 533.319C673.67 533.07 673.608 532.759 673.546 532.511C673.483 532.2 673.421 531.951 673.359 531.64C673.297 531.33 673.235 531.019 673.173 530.708C673.11 530.459 673.11 530.148 673.048 529.9C672.986 529.589 672.924 529.278 672.924 528.905C672.862 528.656 672.862 528.408 672.8 528.097C672.738 527.724 672.738 527.413 672.675 527.041C672.675 526.792 672.613 526.543 672.613 526.295C672.613 525.86 672.551 525.487 672.551 525.051C672.551 524.865 672.551 524.678 672.489 524.43C672.489 523.808 672.427 523.186 672.427 522.565C672.427 521.943 672.427 521.384 672.489 520.762C672.489 520.576 672.489 520.389 672.489 520.203C672.489 519.768 672.551 519.395 672.551 518.96C672.551 518.773 672.613 518.525 672.613 518.338C672.675 517.965 672.675 517.53 672.738 517.157C672.738 516.971 672.8 516.784 672.8 516.598C672.862 516.1 672.924 515.665 672.986 515.23C672.986 515.106 672.986 514.981 673.048 514.919C673.11 514.36 673.235 513.8 673.359 513.241C673.421 513.055 673.421 512.868 673.483 512.744C673.546 512.371 673.67 511.998 673.732 511.625C673.794 511.439 673.856 511.19 673.856 511.003C673.919 510.63 674.043 510.32 674.105 509.946C674.167 509.76 674.229 509.511 674.292 509.325C674.416 508.952 674.54 508.579 674.602 508.206C674.664 508.019 674.727 507.895 674.789 507.709C674.975 507.211 675.162 506.714 675.348 506.217C675.41 506.031 675.473 505.906 675.535 505.72C675.659 505.347 675.783 505.036 675.97 504.663C676.032 504.477 676.156 504.29 676.219 504.041C676.343 503.731 676.467 503.482 676.654 503.171C676.778 502.985 676.84 502.736 676.964 502.549C677.089 502.239 677.275 501.99 677.4 501.679C677.524 501.493 677.586 501.306 677.71 501.12C677.959 500.685 678.208 500.249 678.456 499.814C677.897 501.866 677.648 504.104 677.648 506.466C677.648 514.546 681.067 520.7 687.842 524.865C688.215 532.138 690.329 537.856 693.934 541.524L681.502 549.666Z" fill="url(#paint3_linear_200_2452)"/>
<path d="M720.912 506.155C723.025 509.326 724.392 513.304 724.89 518.09C726.63 518.898 728.122 519.83 729.49 520.887C734.525 524.803 737.073 530.522 737.073 537.795C737.073 538.665 737.011 539.535 736.949 540.405V540.343C737.197 539.784 737.446 539.162 737.632 538.541C737.695 538.354 737.757 538.23 737.819 538.043C737.943 537.608 738.13 537.173 738.254 536.738C738.316 536.552 738.378 536.303 738.44 536.116C738.502 535.868 738.627 535.557 738.689 535.308C738.813 534.935 738.875 534.624 739 534.251C739.062 534.003 739.124 533.692 739.186 533.443C739.248 533.133 739.311 532.822 739.373 532.511C739.435 532.325 739.435 532.076 739.497 531.89C739.559 531.454 739.684 530.957 739.746 530.522C739.746 530.336 739.808 530.149 739.808 529.963C739.87 529.465 739.932 528.968 739.994 528.471C739.994 528.346 739.994 528.284 740.057 528.16C740.119 527.663 740.181 527.227 740.181 526.73C740.181 526.606 740.181 526.481 740.243 526.357C740.305 525.798 740.305 525.238 740.368 524.679C740.368 524.555 740.368 524.43 740.368 524.306C740.368 523.747 740.43 523.125 740.43 522.566C740.43 521.944 740.43 521.322 740.368 520.638C740.368 520.452 740.368 520.265 740.305 520.017C740.305 519.582 740.243 519.147 740.243 518.774C740.243 518.525 740.181 518.276 740.181 518.028C740.119 517.655 740.119 517.282 740.057 516.909C740.057 516.661 739.994 516.412 739.932 516.101C739.87 515.728 739.87 515.417 739.808 515.044C739.746 514.796 739.746 514.485 739.684 514.236C739.621 513.925 739.559 513.552 739.497 513.241C739.435 512.993 739.373 512.682 739.311 512.433C739.248 512.122 739.186 511.812 739.124 511.501C739.062 511.252 739 510.942 738.938 510.693C738.875 510.382 738.751 510.072 738.689 509.761C738.627 509.512 738.565 509.201 738.44 508.953C738.378 508.642 738.254 508.393 738.192 508.082C738.13 507.834 738.005 507.523 737.943 507.274C737.819 506.963 737.757 506.715 737.632 506.466C737.508 506.217 737.446 505.906 737.322 505.658C737.197 505.409 737.135 505.098 737.011 504.85C736.887 504.601 736.762 504.29 736.7 504.042C736.576 503.793 736.451 503.545 736.327 503.296C736.203 503.047 736.079 502.799 735.954 502.488C735.83 502.239 735.706 501.991 735.581 501.742C735.457 501.494 735.333 501.245 735.146 500.996C735.022 500.748 734.898 500.499 734.711 500.312C734.587 500.064 734.4 499.815 734.276 499.566C734.152 499.318 733.965 499.131 733.841 498.882C733.406 498.199 732.908 497.515 732.411 496.831C732.038 496.334 731.665 495.899 731.292 495.464L720.912 506.155Z" fill="url(#paint4_linear_200_2452)"/>
<defs>
<filter id="filter0_d_200_2452" x="205.997" y="154.812" width="736.456" height="414.997" filterUnits="userSpaceOnUse" color-interpolation-filters="sRGB">
<feFlood flood-opacity="0" result="BackgroundImageFix"/>
<feColorMatrix in="SourceAlpha" type="matrix" values="0 0 0 0 0 0 0 0 0 0 0 0 0 0 0 0 0 0 127 0" result="hardAlpha"/>
<feOffset dy="2"/>
<feGaussianBlur stdDeviation="2"/>
<feComposite in2="hardAlpha" operator="out"/>
<feColorMatrix type="matrix" values="0 0 0 0 0.0823529 0 0 0 0 0.105882 0 0 0 0 0.141176 0 0 0 0.5 0"/>
<feBlend mode="normal" in2="BackgroundImageFix" result="effect1_dropShadow_200_2452"/>
<feBlend mode="normal" in="SourceGraphic" in2="effect1_dropShadow_200_2452" result="shape"/>
</filter>
<filter id="filter1_d_200_2452" x="400.55" y="156.812" width="326.247" height="410.197" filterUnits="userSpaceOnUse" color-interpolation-filters="sRGB">
<feFlood flood-opacity="0" result="BackgroundImageFix"/>
<feColorMatrix in="SourceAlpha" type="matrix" values="0 0 0 0 0 0 0 0 0 0 0 0 0 0 0 0 0 0 127 0" result="hardAlpha"/>
<feOffset dx="2" dy="6"/>
<feGaussianBlur stdDeviation="2"/>
<feComposite in2="hardAlpha" operator="out"/>
<feColorMatrix type="matrix" values="0 0 0 0 0.0862745 0 0 0 0 0.0941176 0 0 0 0 0.109804 0 0 0 0.15 0"/>
<feBlend mode="normal" in2="BackgroundImageFix" result="effect1_dropShadow_200_2452"/>
<feBlend mode="normal" in="SourceGraphic" in2="effect1_dropShadow_200_2452" result="shape"/>
</filter>
<filter id="filter2_d_200_2452" x="207.997" y="508.953" width="175.559" height="64.8555" filterUnits="userSpaceOnUse" color-interpolation-filters="sRGB">
<feFlood flood-opacity="0" result="BackgroundImageFix"/>
<feColorMatrix in="SourceAlpha" type="matrix" values="0 0 0 0 0 0 0 0 0 0 0 0 0 0 0 0 0 0 127 0" result="hardAlpha"/>
<feOffset dx="2" dy="6"/>
<feGaussianBlur stdDeviation="2"/>
<feComposite in2="hardAlpha" operator="out"/>
<feColorMatrix type="matrix" values="0 0 0 0 0.0862745 0 0 0 0 0.0941176 0 0 0 0 0.109804 0 0 0 0.15 0"/>
<feBlend mode="normal" in2="BackgroundImageFix" result="effect1_dropShadow_200_2452"/>
<feBlend mode="normal" in="SourceGraphic" in2="effect1_dropShadow_200_2452" result="shape"/>
</filter>
<filter id="filter3_d_200_2452" x="756.433" y="302.556" width="188.021" height="64.8555" filterUnits="userSpaceOnUse" color-interpolation-filters="sRGB">
<feFlood flood-opacity="0" result="BackgroundImageFix"/>
<feColorMatrix in="SourceAlpha" type="matrix" values="0 0 0 0 0 0 0 0 0 0 0 0 0 0 0 0 0 0 127 0" result="hardAlpha"/>
<feOffset dx="2" dy="6"/>
<feGaussianBlur stdDeviation="2"/>
<feComposite in2="hardAlpha" operator="out"/>
<feColorMatrix type="matrix" values="0 0 0 0 0.0862745 0 0 0 0 0.0941176 0 0 0 0 0.109804 0 0 0 0.15 0"/>
<feBlend mode="normal" in2="BackgroundImageFix" result="effect1_dropShadow_200_2452"/>
<feBlend mode="normal" in="SourceGraphic" in2="effect1_dropShadow_200_2452" result="shape"/>
</filter>
<linearGradient id="paint0_linear_200_2452" x1="527.743" y1="-21.0032" x2="859.379" y2="191.352" gradientUnits="userSpaceOnUse">
<stop offset="1.86066e-08" stop-color="#4E5E6E"/>
<stop offset="1" stop-color="#4E5E6E" stop-opacity="0"/>
</linearGradient>
<linearGradient id="paint1_linear_200_2452" x1="275.906" y1="485.269" x2="310.028" y2="570.352" gradientUnits="userSpaceOnUse">
<stop offset="1.86066e-08" stop-color="#4E5E6E"/>
<stop offset="1" stop-color="#4E5E6E" stop-opacity="0"/>
</linearGradient>
<linearGradient id="paint2_linear_200_2452" x1="829.236" y1="278.871" x2="861.585" y2="365.569" gradientUnits="userSpaceOnUse">
<stop offset="1.86066e-08" stop-color="#4E5E6E"/>
<stop offset="1" stop-color="#4E5E6E" stop-opacity="0"/>
</linearGradient>
<linearGradient id="paint3_linear_200_2452" x1="694.051" y1="526.274" x2="664.884" y2="504.559" gradientUnits="userSpaceOnUse">
<stop offset="0.00058093" stop-color="white"/>
<stop offset="1" stop-color="#1E313F"/>
</linearGradient>
<linearGradient id="paint4_linear_200_2452" x1="719.492" y1="515.342" x2="746.428" y2="536.341" gradientUnits="userSpaceOnUse">
<stop offset="0.00058093" stop-color="white"/>
<stop offset="0.9967" stop-color="#4E5A64"/>
</linearGradient>
</defs>
</svg>
