<svg width="113" height="25" viewBox="0 0 113 25" fill="none" xmlns="http://www.w3.org/2000/svg">
<path d="M109.981 14.1972C109.981 12.7368 109.12 11.6321 107.753 11.6321C106.386 11.6321 105.525 12.7368 105.525 14.1972C105.525 15.6577 106.386 16.7623 107.753 16.7623C109.12 16.7623 109.981 15.6577 109.981 14.1972ZM109.906 10.6585V6.82021C109.906 6.55808 110.075 6.35212 110.318 6.27723L112.341 5.73425V18.6909H110.094V17.5862C109.532 18.41 108.502 18.8968 107.229 18.8968C104.608 18.8968 103.091 16.7998 103.091 14.1785C103.091 11.5572 104.626 9.46021 107.229 9.46021C108.521 9.47894 109.438 10.0219 109.906 10.6585ZM96.0512 9.6849V10.7896C96.4631 10.0219 97.3993 9.47894 98.7286 9.47894C100.901 9.47894 102.043 10.9206 102.043 13.0738V18.7096H99.6086V13.3547C99.6086 12.3062 99.1593 11.576 98.0733 11.576C96.8937 11.576 96.2384 12.3249 96.2384 13.5419V18.7096H93.8043V9.70362H96.0512V9.6849ZM88.0937 18.9155C85.4537 18.9155 83.9933 17.7734 83.9933 14.8526V9.6849H86.4273V14.89C86.4273 16.1445 86.989 16.7249 88.075 16.7249C89.1609 16.7249 89.7226 16.1445 89.7226 14.89V9.6849H92.1567V14.8526C92.1754 17.7734 90.715 18.9155 88.0937 18.9155ZM75.9235 14.1972C75.9235 15.8075 76.9158 16.7623 78.2077 16.7623C79.4997 16.7623 80.492 15.8075 80.492 14.1972C80.492 12.587 79.4997 11.6321 78.2077 11.6321C76.9345 11.6321 75.9235 12.5683 75.9235 14.1972ZM78.2077 18.9155C75.3243 18.9155 73.4707 16.7624 73.4707 14.1972C73.4707 11.6321 75.3056 9.47894 78.2077 9.47894C81.0911 9.47894 82.9448 11.6321 82.9448 14.1972C82.9448 16.7624 81.1099 18.9155 78.2077 18.9155ZM66.0375 14.1972C66.0375 15.6577 66.8988 16.7623 68.2656 16.7623C69.6324 16.7623 70.4937 15.6577 70.4937 14.1972C70.4937 12.7368 69.6324 11.6321 68.2656 11.6321C66.8988 11.6321 66.0375 12.7368 66.0375 14.1972ZM66.1124 17.736V21.4807C66.1124 21.7428 65.9439 21.9487 65.7005 22.0236L63.6784 22.5479V9.6849H65.9252V10.7896C66.4869 9.96575 67.5167 9.47894 68.7899 9.47894C71.4111 9.47894 72.9277 11.576 72.9277 14.1972C72.9277 16.8185 71.3924 18.9155 68.7899 18.9155C67.4979 18.9155 66.5805 18.3538 66.1124 17.736ZM56.4137 13.5794V18.7096H53.9796V13.3547C53.9796 12.3623 53.6239 11.576 52.5379 11.576C51.3958 11.576 50.7779 12.3062 50.7779 13.5232V18.7096H48.3439V9.6849H50.5907V10.7896C51.0026 10.0219 51.9013 9.47894 53.1933 9.47894C54.4103 9.47894 55.2903 9.96574 55.8145 10.7521C56.6009 9.87213 57.5184 9.47894 58.8103 9.47894C60.9822 9.47894 62.0869 10.9768 62.0869 13.0738V18.7096H59.6528V13.3547C59.6528 12.3623 59.2971 11.576 58.2111 11.576C57.0128 11.576 56.4137 12.3249 56.4137 13.5794ZM40.1805 14.1972C40.1805 15.8075 41.1728 16.7623 42.4647 16.7623C43.7566 16.7623 44.749 15.8075 44.749 14.1972C44.749 12.587 43.7566 11.6321 42.4647 11.6321C41.1728 11.6321 40.1805 12.5683 40.1805 14.1972ZM42.4647 18.9155C39.5813 18.9155 37.7277 16.7624 37.7277 14.1972C37.7277 11.6321 39.5626 9.47894 42.4647 9.47894C45.3669 9.47894 47.2018 11.6321 47.2018 14.1972C47.2018 16.7624 45.3481 18.9155 42.4647 18.9155ZM25.0519 12.5683C25.0519 8.74872 27.6919 6.22106 31.1932 6.22106C34.2451 6.22106 36.6417 8.01851 37.1098 10.9955H34.4324C34.0766 9.46022 32.8409 8.59893 31.1932 8.59893C28.9651 8.59893 27.6919 10.153 27.6919 12.5496C27.6919 14.9649 28.9464 16.5002 31.1932 16.5002C32.8222 16.5002 34.0579 15.6389 34.4324 14.1036H37.1098C36.6417 17.0806 34.2451 18.8781 31.1932 18.8781C27.6919 18.9343 25.0519 16.3879 25.0519 12.5683Z" fill="#A7A9AC"/>
<path d="M1.01106 19.4585C0.393192 19.0841 0 18.3913 0 17.6798V13.6168C0 13.467 0.0374469 13.3172 0.112341 13.1862C0.355745 12.7743 0.898724 12.6245 1.31064 12.8679L10.4851 18.2228C11.0281 18.5411 11.3464 19.1028 11.3464 19.7394V23.9521C11.3464 24.1394 11.2902 24.3266 11.1966 24.4951C10.897 24.9819 10.2417 25.1504 9.7549 24.8509L1.01106 19.4585ZM14.6979 11.7445C15.2409 12.0628 15.5592 12.6245 15.5592 13.2611V21.8177C15.5592 22.0798 15.4281 22.3045 15.2034 22.4356L13.2 23.559C13.1813 23.5777 13.1438 23.5777 13.1251 23.5964V18.8594C13.1251 18.2415 12.8068 17.6798 12.2826 17.3615L4.23149 12.5496V7.13851C4.23149 6.98873 4.26894 6.83894 4.34383 6.70788C4.58724 6.29596 5.13022 6.14617 5.54213 6.38958L14.6979 11.7445ZM18.7047 5.41596C19.2477 5.73426 19.566 6.29596 19.566 6.93256V19.4211C19.566 19.6832 19.4162 19.9079 19.1915 20.039L17.2817 21.0687V12.3811C17.2817 11.7632 16.9634 11.2015 16.4392 10.8832L8.20086 5.94022V0.866168C8.20086 0.716381 8.23831 0.566596 8.3132 0.435532C8.5566 0.0236165 9.09958 -0.126173 9.5115 0.117231L18.7047 5.41596Z" fill="#A7A9AC"/>
</svg>
