<svg width="132" height="31" viewBox="0 0 132 31" fill="none" xmlns="http://www.w3.org/2000/svg">
<mask id="mask0_134_8473" style="mask-type:luminance" maskUnits="userSpaceOnUse" x="0" y="0" width="132" height="31">
<path d="M0.954102 0.425049H131.389V30.4251H0.954102V0.425049Z" fill="white"/>
</mask>
<g mask="url(#mask0_134_8473)">
<path d="M34.0576 5.67505C34.0576 2.40265 36.0508 0.425049 39.5446 0.425049C42.7654 0.425049 44.3842 2.11285 44.6908 4.60105H42.322C42.0838 3.11785 41.1976 2.26645 39.4936 2.26645C37.4146 2.26645 36.3754 3.40765 36.3754 5.65825C36.3754 7.90825 37.534 9.05005 39.4936 9.05005C41.2654 9.05005 42.1684 8.16385 42.3904 6.69805H44.776C44.4694 9.27145 42.6298 10.8902 39.4768 10.8902C36.0514 10.8902 34.0576 8.84425 34.0576 5.67505ZM56.2606 5.62405C56.2606 8.86225 54.2152 10.8908 50.8756 10.8908C47.7232 10.8908 45.4912 9.06685 45.4912 5.69245C45.4912 2.31865 47.536 0.425649 50.8756 0.425649C54.028 0.425649 56.2606 2.24965 56.2606 5.62405ZM53.9434 5.69185C53.9434 3.33985 52.7164 2.26585 50.8756 2.26585C48.9334 2.26585 47.8084 3.33985 47.8084 5.62285C47.8084 7.90645 49.0348 9.04885 50.8756 9.04885C52.8184 9.04885 53.9434 7.97485 53.9434 5.69185ZM57.5038 0.595449H59.7874V3.28885C60.3664 1.49905 61.5082 0.425049 63.5872 0.425049C65.9392 0.425049 67.2676 1.82305 67.2676 4.24285V10.7192H64.9846V4.56745C64.9846 2.93185 64.1494 2.18125 62.5138 2.18125C61.2016 2.18125 60.3838 2.70925 59.7874 3.85165V10.7204H57.5038V0.595449ZM68.2222 7.61725H70.6084C70.7956 8.62345 71.5798 9.10045 73.3174 9.10045C75.0556 9.10045 75.7204 8.55505 75.7204 7.82245C75.7204 7.27765 75.4654 6.86845 74.4934 6.74905L71.5624 6.40825C69.3304 6.15325 68.4952 5.19805 68.4952 3.61345C68.4952 1.80745 69.8074 0.426849 73.045 0.426849C76.282 0.426849 77.5264 1.75645 77.8162 3.68185H75.4474C75.3112 2.79565 74.7148 2.21665 72.9772 2.21665C71.239 2.21665 70.6936 2.76205 70.6936 3.47785C70.6936 4.07365 71.0176 4.43185 71.9206 4.53385L74.971 4.89205C77.1862 5.14705 77.9188 6.20485 77.9188 7.73785C77.9188 9.54385 76.5388 10.8908 73.267 10.8908C69.9952 10.8908 68.4784 9.64645 68.2234 7.61845L68.2222 7.61725ZM84.07 10.8896C80.6278 10.8896 78.787 8.65765 78.787 5.69185C78.787 2.55625 80.7634 0.425049 84.0868 0.425049C87.784 0.425049 89.3182 2.69185 89.3014 6.23725H81.1048C81.3094 8.04325 82.417 9.04885 84.1378 9.04885C85.6882 9.04885 86.5576 8.45305 86.8984 7.44685H89.2336C88.7218 9.52645 86.95 10.8896 84.07 10.8896ZM81.139 4.68565H86.8984C86.7448 3.18565 85.876 2.21485 84.07 2.21485C82.4854 2.21485 81.4288 3.06685 81.139 4.68625V4.68565ZM90.4252 0.596049H92.7082V3.28945C93.2878 1.49905 94.4296 0.425049 96.5086 0.425049C98.8606 0.425049 100.189 1.82305 100.189 4.24285V10.7192H97.9054V4.56745C97.9054 2.93185 97.0702 2.18125 95.4352 2.18125C94.1224 2.18125 93.3052 2.70925 92.7082 3.85165V10.7204H90.4252V0.596049ZM101.144 7.61785H103.529C103.717 8.62405 104.501 9.10105 106.239 9.10105C107.977 9.10105 108.642 8.55565 108.642 7.82305C108.642 7.27825 108.387 6.86905 107.415 6.74965L104.484 6.40885C102.252 6.15385 101.417 5.19865 101.417 3.61405C101.417 1.80805 102.729 0.427449 105.966 0.427449C109.203 0.427449 110.448 1.75705 110.738 3.68245H108.369C108.232 2.79625 107.636 2.21725 105.899 2.21725C104.16 2.21725 103.615 2.76265 103.615 3.47845C103.615 4.07425 103.939 4.43245 104.842 4.53445L107.892 4.89265C110.108 5.14765 110.84 6.20545 110.84 7.73845C110.84 9.54445 109.46 10.8914 106.188 10.8914C102.916 10.8914 101.4 9.64705 101.144 7.61905L101.144 7.61785ZM121.727 0.596049L117.484 13.208H111.946V11.333H115.797L116.359 9.61165H114.161L110.838 0.596049H113.359L116.41 9.45805L119.34 0.596649H121.727V0.596049ZM121.692 7.61845H124.079C124.265 8.62405 125.05 9.10105 126.788 9.10105C128.526 9.10105 129.191 8.55625 129.191 7.82305C129.191 7.27825 128.936 6.86905 127.964 6.74965L125.033 6.40885C122.801 6.15385 121.965 5.19925 121.965 3.61405C121.965 1.80805 123.278 0.427449 126.515 0.427449C129.752 0.427449 130.997 1.75705 131.286 3.68305H128.918C128.781 2.79685 128.185 2.21725 126.447 2.21725C124.709 2.21725 124.164 2.76325 124.164 3.47845C124.164 4.07485 124.488 4.43245 125.391 4.53445L128.441 4.89265C130.656 5.14825 131.389 6.20545 131.389 7.73845C131.389 9.54445 130.009 10.8914 126.737 10.8914C123.465 10.8914 121.949 9.64765 121.694 7.61905L121.692 7.61845Z" fill="#A7A9AC"/>
<path fill-rule="evenodd" clip-rule="evenodd" d="M28.7893 10.7199V14.5167C28.7893 22.2039 22.5583 28.4367 14.8723 28.4367C7.1863 28.4367 0.954102 22.2027 0.954102 14.5155C0.954102 6.82767 7.1851 0.596069 14.8717 0.596069H18.6673L11.7085 7.55607V17.6829H21.8293L28.7893 10.7193V10.7199ZM28.7893 0.596069H18.6673V10.7199H28.7893V0.596069Z" fill="#A7A9AC"/>
<path d="M35.9266 27.4904H34.8076V17.4464H40.7044V18.4652H35.9266V22.0382H40.561V23.057H35.9266V27.4904ZM45.3694 20.0864C47.593 20.0864 49.2574 21.866 49.0852 24.1904H42.7006C42.8584 25.625 43.9774 26.6726 45.4546 26.6726C46.5886 26.6726 47.5066 26.0696 47.9662 25.1228L48.8842 25.5104C48.2962 26.7584 47.0482 27.6338 45.4408 27.6338C43.2748 27.6338 41.6248 26.0126 41.6248 23.8598C41.6248 21.7226 43.2454 20.087 45.3688 20.087L45.3694 20.0864ZM45.3694 21.0482C44.035 21.0482 42.973 21.995 42.7294 23.3006H47.9944C47.7784 22.0238 46.747 21.0482 45.3694 21.0482ZM51.7444 27.4904H50.668V16.8728H51.7444V27.4904ZM54.6586 27.4904H53.5822V16.8728H54.6586V27.4904ZM56.2102 23.8604C56.2102 21.7226 57.8602 20.0864 60.0262 20.0864C62.1928 20.0864 63.8428 21.7226 63.8428 23.8604C63.8428 26.0126 62.1928 27.6338 60.0268 27.6338C57.8602 27.6338 56.2102 26.0132 56.2102 23.8604ZM57.3142 23.8604C57.3142 25.4384 58.4914 26.6294 60.0262 26.6294C61.576 26.6294 62.7382 25.4384 62.7382 23.8604C62.7382 22.2824 61.576 21.0914 60.0262 21.0914C58.4914 21.0914 57.3142 22.2818 57.3142 23.8604ZM72.7378 26.4284L74.818 20.2304H75.9082L73.3114 27.4904H72.1204L70.0546 21.7508L67.9744 27.4904H66.7834L64.1866 20.2304H65.3344L67.4146 26.4428L69.5236 20.2304H70.6282L72.7378 26.4284ZM76.3828 25.6106L77.4736 25.3952C77.617 26.2418 78.277 26.7296 79.3528 26.7296C80.458 26.7296 81.2326 26.2274 81.2326 25.5248C81.2326 23.5304 76.5982 24.9938 76.5982 22.196C76.5982 20.9762 77.746 20.087 79.3528 20.087C80.9596 20.087 81.964 20.8904 82.1938 22.1096L81.118 22.325C80.9596 21.479 80.3428 21.005 79.3528 21.005C78.3772 21.005 77.674 21.464 77.674 22.1528C77.674 24.0038 82.3228 22.5836 82.3228 25.496C82.3228 26.744 81.046 27.6338 79.3528 27.6338C77.674 27.6338 76.6126 26.8298 76.3828 25.6106ZM87.3076 20.087C89.1154 20.087 90.4216 21.4208 90.4216 23.2148V27.4904H89.3452V23.3438C89.3452 22.0526 88.384 21.077 87.0784 21.077C85.7872 21.077 84.8116 22.0526 84.8116 23.3438V27.4898H83.7352V16.8734H84.8116V21.3644C85.342 20.5898 86.2318 20.087 87.3076 20.087ZM92.0404 18.0782C92.0404 17.6762 92.3416 17.375 92.7436 17.375C93.1306 17.375 93.4462 17.6762 93.4462 18.0782C93.4462 18.4514 93.1306 18.767 92.7436 18.767C92.3416 18.767 92.0404 18.4514 92.0404 18.0782ZM93.274 27.4904H92.1982V20.2304H93.274V27.4904ZM99.0442 20.0864C101.139 20.0864 102.717 21.7226 102.717 23.8604C102.717 26.0126 101.139 27.6338 99.0442 27.6338C97.8244 27.6338 96.82 27.074 96.1888 26.1848V30.3596H95.113V20.231H96.1888V21.5366C96.82 20.6468 97.8244 20.0876 99.0442 20.0876V20.0864ZM98.9008 26.6294C100.45 26.6294 101.612 25.4384 101.612 23.8604C101.612 22.2824 100.45 21.0914 98.9008 21.0914C97.3654 21.0914 96.1888 22.2818 96.1888 23.8604C96.1888 25.4384 97.3654 26.6294 98.9008 26.6294Z" fill="#A7A9AC"/>
</g>
</svg>
