<svg width="140" height="31" viewBox="0 0 140 31" fill="none" xmlns="http://www.w3.org/2000/svg">
<path d="M41.4156 0.939453C37.6769 0.939453 35.5439 3.05655 35.5439 6.56138C35.5439 9.95635 37.6777 12.1478 41.343 12.1478C44.7168 12.1478 46.6855 10.414 47.014 7.65755H44.461C44.2234 9.22785 43.2572 10.177 41.3611 10.177C39.2644 10.177 38.0243 8.95446 38.0243 6.54407C38.0243 4.13368 39.1365 2.91119 41.3611 2.91119C43.1846 2.91119 44.1327 3.82309 44.3875 5.41156H46.9224C46.594 2.74681 44.862 0.939453 41.4156 0.939453Z" fill="#A7A9AC"/>
<path fill-rule="evenodd" clip-rule="evenodd" d="M53.5401 12.1478C57.1138 12.1478 59.3019 9.97537 59.3019 6.50687C59.3019 2.89303 56.9132 0.939453 53.5401 0.939453C49.9666 0.939453 47.7783 2.96656 47.7783 6.5804C47.7783 10.1943 50.167 12.1478 53.5401 12.1478ZM53.5401 2.91032C55.5097 2.91032 56.8225 4.06015 56.8225 6.57955C56.8225 9.0254 55.6186 10.1752 53.5401 10.1752C51.5707 10.1752 50.2578 8.95187 50.2578 6.506C50.2578 4.06015 51.4618 2.91032 53.5401 2.91032Z" fill="#A7A9AC"/>
<path d="M63.076 1.12201H60.6328V11.9661H63.076V4.60953C63.7147 3.38617 64.5893 2.82034 65.9936 2.82034C67.7438 2.82034 68.6374 3.6241 68.6374 5.37609V11.9653H71.0806V5.02828C71.0806 2.43621 69.6588 0.939453 67.1423 0.939453C64.9178 0.939453 63.6957 2.09014 63.076 4.0065V1.12201Z" fill="#A7A9AC"/>
<path d="M74.6555 8.64126H72.1025C72.3757 10.8137 73.9995 12.147 77.5006 12.147C81.0015 12.147 82.4784 10.7047 82.4784 8.77018C82.4784 7.12807 81.6947 5.99556 79.3241 5.72215L76.0599 5.33888C75.0937 5.229 74.7472 4.84573 74.7472 4.20722C74.7472 3.44068 75.3304 2.85669 77.1904 2.85669C79.0502 2.85669 79.6878 3.47701 79.834 4.42611H82.3688C82.0584 2.36354 80.7266 0.939453 77.263 0.939453C73.7991 0.939453 72.3948 2.41804 72.3948 4.35258C72.3948 6.05006 73.2884 7.07271 75.6771 7.3461L78.8133 7.7112C79.853 7.83925 80.126 8.27703 80.126 8.86103C80.126 9.64573 79.4148 10.2297 77.555 10.2297C75.6952 10.2297 74.8561 9.71841 74.6555 8.64126Z" fill="#A7A9AC"/>
<path fill-rule="evenodd" clip-rule="evenodd" d="M83.4082 6.58041C83.4082 9.75647 85.3777 12.1478 89.0611 12.1478C92.1429 12.1478 94.039 10.6874 94.5861 8.46045H92.0875C91.7228 9.53758 90.7929 10.1761 89.1337 10.1761C87.2919 10.1761 86.1071 9.09894 85.8884 7.16441H94.6587C94.6768 3.36714 93.0356 0.939453 89.0793 0.939453C85.5229 0.939453 83.4082 3.2218 83.4082 6.58041ZM92.0875 5.50327H85.9247C86.2351 3.76944 87.3654 2.85669 89.0611 2.85669C90.9935 2.85669 91.9234 3.89664 92.0875 5.50327Z" fill="#A7A9AC"/>
<path d="M98.3044 1.12201H95.8613V11.9661H98.3044V4.60953C98.9431 3.38617 99.8176 2.82034 101.222 2.82034C102.972 2.82034 103.866 3.6241 103.866 5.37609V11.9653H106.309V5.02828C106.309 2.43621 104.887 0.939453 102.371 0.939453C100.146 0.939453 98.924 2.09014 98.3044 4.0065V1.12201Z" fill="#A7A9AC"/>
<path d="M109.883 8.64126H107.33C107.603 10.8137 109.227 12.147 112.728 12.147C116.229 12.147 117.706 10.7047 117.706 8.77018C117.706 7.12807 116.922 5.99556 114.551 5.72215L111.287 5.33888C110.321 5.229 109.975 4.84573 109.975 4.20722C109.975 3.44068 110.558 2.85669 112.418 2.85669C114.278 2.85669 114.915 3.47701 115.061 4.42611H117.596C117.286 2.36354 115.954 0.939453 112.49 0.939453C109.027 0.939453 107.622 2.41804 107.622 4.35258C107.622 6.05006 108.516 7.07271 110.904 7.3461L114.041 7.7112C115.08 7.83925 115.353 8.27703 115.353 8.86103C115.353 9.64573 114.642 10.2297 112.782 10.2297C110.923 10.2297 110.083 9.71841 109.883 8.64126Z" fill="#A7A9AC"/>
<path d="M124.815 14.6291L129.355 1.12109H126.802L123.665 10.613L120.401 1.12109H117.703L121.259 10.7773H123.611L123.01 12.621H118.889V14.6291H124.815Z" fill="#A7A9AC"/>
<path d="M131.871 8.6442H129.318C129.591 10.8167 131.215 12.1499 134.716 12.1499C138.217 12.1499 139.694 10.7077 139.694 8.7731C139.694 7.13099 138.91 5.99848 136.54 5.72509L133.276 5.34182C132.309 5.23194 131.963 4.84867 131.963 4.21016C131.963 3.44362 132.546 2.85962 134.406 2.85962C136.266 2.85962 136.904 3.47995 137.05 4.42905H139.584C139.274 2.36647 137.942 0.942383 134.479 0.942383C131.015 0.942383 129.61 2.42097 129.61 4.35552C129.61 6.05299 130.504 7.07563 132.893 7.34903L136.029 7.71413C137.069 7.84218 137.342 8.27995 137.342 8.86395C137.342 9.64867 136.63 10.2327 134.771 10.2327C132.911 10.2327 132.072 9.72135 131.871 8.6442Z" fill="#A7A9AC"/>
<path fill-rule="evenodd" clip-rule="evenodd" d="M29.9077 16.0307V11.9644V1.12109H19.0763H15.0144C6.78958 1.12109 0.12207 7.79594 0.12207 16.0298C0.12207 24.2638 6.79044 30.9394 15.0153 30.9394C23.2401 30.9394 29.9077 24.2645 29.9077 16.0307ZM11.6301 8.57547L19.0763 1.12109V11.9644H29.9077L22.4598 19.4221H11.6301V8.57547Z" fill="#A7A9AC"/>
</svg>
