<svg width="43" height="37" viewBox="0 0 43 37" fill="none" xmlns="http://www.w3.org/2000/svg">
<path d="M1.42529 2.57582C1.42529 2.08252 1.82519 1.68262 2.3185 1.68262H34.339C34.8323 1.68262 35.2322 2.08252 35.2322 2.57582V6.91478C35.2322 7.40808 34.8323 7.80798 34.339 7.80798H2.3185C1.82519 7.80798 1.42529 7.40808 1.42529 6.91478V2.57582Z" fill="#0038FC" fill-opacity="0.25"/>
<path d="M1.42529 12.0466C1.42529 11.5532 1.82519 11.1533 2.3185 11.1533H34.339C34.8323 11.1533 35.2322 11.5532 35.2322 12.0466V16.3855C35.2322 16.8788 34.8323 17.2787 34.339 17.2787H2.3185C1.82519 17.2787 1.42529 16.8788 1.42529 16.3855V12.0466Z" fill="#0038FC" fill-opacity="0.25"/>
<path d="M1.42529 21.5172C1.42529 21.0239 1.82519 20.624 2.3185 20.624H22.634C23.1273 20.624 23.5272 21.0239 23.5272 21.5172V25.8562C23.5272 26.3495 23.1273 26.7494 22.634 26.7494H2.3185C1.82519 26.7494 1.42529 26.3495 1.42529 25.8562V21.5172Z" fill="#0038FC" fill-opacity="0.25"/>
<path d="M1.42529 30.9876C1.42529 30.4943 1.82519 30.0944 2.3185 30.0944H22.634C23.1273 30.0944 23.5272 30.4943 23.5272 30.9876V35.3266C23.5272 35.8199 23.1273 36.2198 22.634 36.2198H2.3185C1.82519 36.2198 1.42529 35.8199 1.42529 35.3266V30.9876Z" fill="#0038FC" fill-opacity="0.25"/>
<path d="M1.42529 2.57582C1.42529 2.08252 1.82519 1.68262 2.3185 1.68262H34.339C34.8323 1.68262 35.2322 2.08252 35.2322 2.57582V6.91478C35.2322 7.40808 34.8323 7.80798 34.339 7.80798H2.3185C1.82519 7.80798 1.42529 7.40808 1.42529 6.91478V2.57582Z" stroke="#055DF5" stroke-width="1.5" stroke-linejoin="round"/>
<path d="M1.42529 12.0466C1.42529 11.5532 1.82519 11.1533 2.3185 11.1533H34.339C34.8323 11.1533 35.2322 11.5532 35.2322 12.0466V16.3855C35.2322 16.8788 34.8323 17.2787 34.339 17.2787H2.3185C1.82519 17.2787 1.42529 16.8788 1.42529 16.3855V12.0466Z" stroke="#055DF5" stroke-width="1.5" stroke-linejoin="round"/>
<path d="M1.42529 21.5172C1.42529 21.0239 1.82519 20.624 2.3185 20.624H22.634C23.1273 20.624 23.5272 21.0239 23.5272 21.5172V25.8562C23.5272 26.3495 23.1273 26.7494 22.634 26.7494H2.3185C1.82519 26.7494 1.42529 26.3495 1.42529 25.8562V21.5172Z" stroke="#055DF5" stroke-width="1.5" stroke-linejoin="round"/>
<path d="M1.42529 30.9876C1.42529 30.4943 1.82519 30.0944 2.3185 30.0944H22.634C23.1273 30.0944 23.5272 30.4943 23.5272 30.9876V35.3266C23.5272 35.8199 23.1273 36.2198 22.634 36.2198H2.3185C1.82519 36.2198 1.42529 35.8199 1.42529 35.3266V30.9876Z" stroke="#055DF5" stroke-width="1.5" stroke-linejoin="round"/>
<path d="M33.452 30.9386C32.0823 30.1478 31.6125 28.3943 32.4033 27.0246C33.1941 25.6549 34.9475 25.1851 36.3172 25.9759C37.687 26.7667 38.1568 28.5201 37.366 29.8898C36.5752 31.2595 34.8217 31.7294 33.452 30.9386ZM35.7442 26.9684C34.9237 26.4947 33.8696 26.7772 33.3958 27.5977C32.9221 28.4182 33.2046 29.4723 34.0251 29.946C34.8456 30.4197 35.8997 30.1373 36.3734 29.3168C36.8472 28.4963 36.5647 27.4421 35.7442 26.9684Z" fill="#055DF5"/>
<path d="M33.1156 36.4262C32.9766 36.346 32.8491 36.2459 32.7293 36.1326C32.384 35.7832 32.1889 35.3265 32.1806 34.8365L32.1776 34.6583C32.1769 33.758 31.6409 33.4486 30.8609 33.8981L30.7155 33.9818C30.2832 34.2263 29.7863 34.2923 29.3149 34.1613C28.8331 34.0331 28.4374 33.7252 28.1996 33.2968L27.4397 31.9846C27.1697 31.52 27.0963 30.9747 27.2342 30.4456C27.3787 29.9202 27.7095 29.4848 28.1741 29.2149C28.5609 28.9882 28.7895 28.7144 28.7878 28.4576C28.7861 28.2007 28.5665 27.924 28.1761 27.6986C27.2101 27.1408 26.8773 25.8988 27.435 24.9327L28.1074 23.7681C28.6652 22.8021 29.9072 22.4693 30.8733 23.027C31.2637 23.2524 31.6131 23.3042 31.8364 23.1773C32.0597 23.0503 32.1891 22.7192 32.1854 22.2671C32.1869 21.7298 32.4024 21.219 32.7813 20.8378C33.164 20.45 33.6729 20.2409 34.2168 20.2462L35.7398 20.252C36.7434 20.2404 37.5804 21.0677 37.591 22.0884L37.594 22.2666C37.5947 23.1669 38.1307 23.4763 38.9107 23.0268L39.0561 22.9431C39.9492 22.4353 41.0841 22.7465 41.5787 23.6319L42.3386 24.9441C42.6085 25.4087 42.6819 25.954 42.544 26.4832C42.3995 27.0085 42.0687 27.4439 41.6041 27.7138C41.2174 27.9405 40.9887 28.2143 40.9904 28.4712C40.9921 28.728 41.2117 29.0047 41.6021 29.2301C42.5682 29.7879 42.901 31.0299 42.3432 31.996L41.6708 33.1606C41.1131 34.1267 39.871 34.4595 38.905 33.9017C38.5146 33.6763 38.1651 33.6245 37.9418 33.7515C37.7186 33.8784 37.5891 34.2095 37.5928 34.6616C37.5914 35.1989 37.3825 35.7136 36.997 36.0909C36.6143 36.4787 36.1054 36.6878 35.5614 36.6825L34.0385 36.6767C33.7068 36.6705 33.3935 36.5866 33.1156 36.4262ZM32.4051 32.7516C32.994 33.0916 33.3292 33.7792 33.3282 34.6521L33.3284 34.8198C33.3276 35.0046 33.4026 35.1803 33.5385 35.3117C33.6744 35.4431 33.8446 35.5149 34.0228 35.5119L35.5496 35.5111C35.7789 35.5112 36.0068 35.4222 36.1743 35.2542C36.3418 35.0863 36.4338 34.8659 36.4339 34.6365C36.4311 33.7703 36.7706 33.0753 37.3559 32.7339C37.9412 32.3924 38.7115 32.4489 39.4658 32.8845C39.8893 33.129 40.4216 32.9863 40.6661 32.5628L41.3385 31.3983C41.5791 30.9814 41.4403 30.4425 41.0168 30.198C40.2625 29.7625 39.8285 29.1237 39.8315 28.4461C39.8345 27.7685 40.2667 27.1269 41.0182 26.6962C41.2168 26.5815 41.3617 26.3916 41.4234 26.1626C41.485 25.9335 41.451 25.7021 41.3401 25.4969L40.5736 24.1809C40.3884 23.8446 39.9539 23.7261 39.6138 23.9179L39.4684 24.0016C38.713 24.439 37.9499 24.4924 37.361 24.1524C36.7721 23.8124 36.4368 23.1248 36.4378 22.2519L36.4415 22.0776C36.4365 21.7042 36.1233 21.391 35.7432 21.3921L34.2165 21.3929C33.9871 21.3928 33.7593 21.4819 33.5917 21.6498C33.4242 21.8177 33.3322 22.0382 33.3322 22.2675C33.3349 23.1337 32.9954 23.8288 32.4101 24.1702C31.8248 24.5116 31.0546 24.4551 30.3002 24.0196C29.8767 23.7751 29.3444 23.9177 29.0999 24.3412L28.4276 25.5058C28.1869 25.9226 28.3257 26.4615 28.7492 26.706C29.5035 27.1416 29.9376 27.7803 29.9345 28.4579C29.9315 29.1355 29.4994 29.7771 28.7478 30.2078C28.5492 30.3225 28.4043 30.5124 28.3427 30.7414C28.281 30.9705 28.315 31.2019 28.4259 31.4071L29.1925 32.7231C29.2818 32.8893 29.4357 33.0047 29.6108 33.0529C29.7926 33.1048 29.986 33.0754 30.1523 32.9861L30.2976 32.9024C31.0492 32.4717 31.8161 32.4116 32.4051 32.7516Z" fill="#055DF5"/>
</svg>
