<svg width="1161" height="729" viewBox="0 0 1161 729" fill="none" xmlns="http://www.w3.org/2000/svg">
<rect x="0.0639648" y="0.696289" width="1160" height="728" fill="#282C30" fill-opacity="0.2"/>
<g filter="url(#filter0_d_186_1617)">
<g filter="url(#filter1_d_186_1617)">
<path d="M738.353 196.298C738.353 184.908 738.353 179.213 736.101 174.878C734.204 171.225 731.225 168.247 727.573 166.349C723.238 164.098 717.543 164.098 706.153 164.098H442.667C431.277 164.098 425.582 164.098 421.247 166.349C417.594 168.247 414.616 171.225 412.718 174.878C410.467 179.213 410.467 184.908 410.467 196.298V544.75C410.467 556.14 410.467 561.835 412.718 566.17C414.616 569.822 417.594 572.801 421.247 574.698C425.582 576.95 431.277 576.95 442.667 576.95H706.153C717.543 576.95 723.238 576.95 727.573 574.698C731.225 572.801 734.204 569.822 736.101 566.17C738.353 561.835 738.353 556.14 738.353 544.75V196.298Z" fill="#3B4C64" fill-opacity="0.3" shape-rendering="crispEdges"/>
<path d="M738.353 196.298C738.353 184.908 738.353 179.213 736.101 174.878C734.204 171.225 731.225 168.247 727.573 166.349C723.238 164.098 717.543 164.098 706.153 164.098H442.667C431.277 164.098 425.582 164.098 421.247 166.349C417.594 168.247 414.616 171.225 412.718 174.878C410.467 179.213 410.467 184.908 410.467 196.298V544.75C410.467 556.14 410.467 561.835 412.718 566.17C414.616 569.822 417.594 572.801 421.247 574.698C425.582 576.95 431.277 576.95 442.667 576.95H706.153C717.543 576.95 723.238 576.95 727.573 574.698C731.225 572.801 734.204 569.822 736.101 566.17C738.353 561.835 738.353 556.14 738.353 544.75V196.298Z" stroke="url(#paint0_linear_186_1617)" stroke-width="2" shape-rendering="crispEdges"/>
</g>
<rect x="458.478" y="223.432" width="163.169" height="20.1781" fill="white"/>
<rect x="458.478" y="319.291" width="105.168" height="20.1781" fill="white"/>
<rect x="458.478" y="429.328" width="163.169" height="20.1781" fill="white"/>
<rect x="458.478" y="271.362" width="241.368" height="20.1781" fill="white"/>
<rect x="458.478" y="374.31" width="241.368" height="20.1781" fill="white"/>
<g filter="url(#filter2_d_186_1617)">
<path d="M479.915 532.413C479.915 525.044 479.915 521.359 478.955 518.375C476.983 512.237 472.172 507.426 466.034 505.453C463.05 504.494 459.365 504.494 451.996 504.494H335.144C327.775 504.494 324.091 504.494 321.106 505.453C314.968 507.426 310.158 512.237 308.185 518.375C307.226 521.359 307.226 525.044 307.226 532.413V532.413C307.226 539.782 307.226 543.466 308.185 546.451C310.158 552.589 314.968 557.4 321.106 559.372C324.091 560.332 327.775 560.332 335.144 560.332H451.996C459.365 560.332 463.05 560.332 466.034 559.372C472.172 557.4 476.983 552.589 478.955 546.451C479.915 543.466 479.915 539.782 479.915 532.413V532.413Z" fill="#3B4C64" fill-opacity="0.3" shape-rendering="crispEdges"/>
<path d="M479.915 532.413C479.915 525.044 479.915 521.359 478.955 518.375C476.983 512.237 472.172 507.426 466.034 505.453C463.05 504.494 459.365 504.494 451.996 504.494H335.144C327.775 504.494 324.091 504.494 321.106 505.453C314.968 507.426 310.158 512.237 308.185 518.375C307.226 521.359 307.226 525.044 307.226 532.413V532.413C307.226 539.782 307.226 543.466 308.185 546.451C310.158 552.589 314.968 557.4 321.106 559.372C324.091 560.332 327.775 560.332 335.144 560.332H451.996C459.365 560.332 463.05 560.332 466.034 559.372C472.172 557.4 476.983 552.589 478.955 546.451C479.915 543.466 479.915 539.782 479.915 532.413V532.413Z" stroke="url(#paint1_linear_186_1617)" stroke-width="2" shape-rendering="crispEdges"/>
</g>
<g filter="url(#filter3_d_186_1617)">
<path d="M381.199 267.33C381.199 259.961 381.199 256.276 380.24 253.292C378.267 247.154 373.457 242.343 367.319 240.37C364.334 239.411 360.65 239.411 353.281 239.411H236.429C229.06 239.411 225.375 239.411 222.391 240.37C216.253 242.343 211.442 247.154 209.469 253.292C208.51 256.276 208.51 259.961 208.51 267.33V267.33C208.51 274.699 208.51 278.383 209.469 281.368C211.442 287.506 216.253 292.317 222.391 294.289C225.375 295.249 229.06 295.249 236.429 295.249H353.281C360.65 295.249 364.334 295.249 367.319 294.289C373.457 292.317 378.267 287.506 380.24 281.368C381.199 278.383 381.199 274.699 381.199 267.33V267.33Z" fill="#3B4C64" fill-opacity="0.3" shape-rendering="crispEdges"/>
<path d="M381.199 267.33C381.199 259.961 381.199 256.276 380.24 253.292C378.267 247.154 373.457 242.343 367.319 240.37C364.334 239.411 360.65 239.411 353.281 239.411H236.429C229.06 239.411 225.375 239.411 222.391 240.37C216.253 242.343 211.442 247.154 209.469 253.292C208.51 256.276 208.51 259.961 208.51 267.33V267.33C208.51 274.699 208.51 278.383 209.469 281.368C211.442 287.506 216.253 292.317 222.391 294.289C225.375 295.249 229.06 295.249 236.429 295.249H353.281C360.65 295.249 364.334 295.249 367.319 294.289C373.457 292.317 378.267 287.506 380.24 281.368C381.199 278.383 381.199 274.699 381.199 267.33V267.33Z" stroke="url(#paint2_linear_186_1617)" stroke-width="2" shape-rendering="crispEdges"/>
</g>
<g filter="url(#filter4_d_186_1617)">
<path d="M951.618 342.606C951.618 335.237 951.618 331.553 950.658 328.568C948.686 322.43 943.875 317.619 937.737 315.647C934.753 314.688 931.068 314.688 923.699 314.688H806.847C799.478 314.688 795.794 314.688 792.809 315.647C786.671 317.619 781.861 322.43 779.888 328.568C778.929 331.553 778.929 335.237 778.929 342.606V342.606C778.929 349.975 778.929 353.66 779.888 356.644C781.861 362.782 786.671 367.593 792.809 369.566C795.794 370.525 799.478 370.525 806.847 370.525H923.699C931.068 370.525 934.753 370.525 937.737 369.566C943.875 367.593 948.686 362.782 950.658 356.644C951.618 353.66 951.618 349.975 951.618 342.606V342.606Z" fill="#3B4C64" fill-opacity="0.3" shape-rendering="crispEdges"/>
<path d="M951.618 342.606C951.618 335.237 951.618 331.553 950.658 328.568C948.686 322.43 943.875 317.619 937.737 315.647C934.753 314.688 931.068 314.688 923.699 314.688H806.847C799.478 314.688 795.794 314.688 792.809 315.647C786.671 317.619 781.861 322.43 779.888 328.568C778.929 331.553 778.929 335.237 778.929 342.606V342.606C778.929 349.975 778.929 353.66 779.888 356.644C781.861 362.782 786.671 367.593 792.809 369.566C795.794 370.525 799.478 370.525 806.847 370.525H923.699C931.068 370.525 934.753 370.525 937.737 369.566C943.875 367.593 948.686 362.782 950.658 356.644C951.618 353.66 951.618 349.975 951.618 342.606V342.606Z" stroke="url(#paint3_linear_186_1617)" stroke-width="2" shape-rendering="crispEdges"/>
</g>
<path d="M331.668 524.906H334.331L338.962 536.213H339.132L343.763 524.906H346.426V539.451H344.338V528.926H344.203L339.914 539.43H338.181L333.891 528.919H333.756V539.451H331.668V524.906ZM354.242 539.671C353.219 539.671 352.327 539.437 351.564 538.968C350.802 538.499 350.21 537.844 349.789 537.001C349.367 536.158 349.157 535.173 349.157 534.046C349.157 532.915 349.367 531.925 349.789 531.078C350.21 530.23 350.802 529.572 351.564 529.103C352.327 528.634 353.219 528.4 354.242 528.4C355.264 528.4 356.157 528.634 356.919 529.103C357.682 529.572 358.273 530.23 358.695 531.078C359.116 531.925 359.327 532.915 359.327 534.046C359.327 535.173 359.116 536.158 358.695 537.001C358.273 537.844 357.682 538.499 356.919 538.968C356.157 539.437 355.264 539.671 354.242 539.671ZM354.249 537.889C354.912 537.889 355.461 537.713 355.897 537.363C356.332 537.013 356.654 536.546 356.863 535.964C357.076 535.382 357.182 534.74 357.182 534.039C357.182 533.343 357.076 532.704 356.863 532.122C356.654 531.535 356.332 531.063 355.897 530.708C355.461 530.353 354.912 530.176 354.249 530.176C353.581 530.176 353.027 530.353 352.587 530.708C352.151 531.063 351.827 531.535 351.614 532.122C351.406 532.704 351.301 533.343 351.301 534.039C351.301 534.74 351.406 535.382 351.614 535.964C351.827 536.546 352.151 537.013 352.587 537.363C353.027 537.713 353.581 537.889 354.249 537.889ZM367.089 528.542V530.247H360.924V528.542H367.089ZM362.615 539.451V527.278C362.615 526.596 362.764 526.03 363.062 525.58C363.36 525.126 363.756 524.787 364.248 524.565C364.741 524.338 365.276 524.224 365.853 524.224C366.279 524.224 366.644 524.259 366.947 524.33C367.25 524.397 367.475 524.458 367.622 524.515L367.125 526.234C367.025 526.205 366.897 526.172 366.741 526.134C366.585 526.092 366.395 526.07 366.173 526.07C365.657 526.07 365.288 526.198 365.065 526.454C364.847 526.71 364.738 527.079 364.738 527.562V539.451H362.615ZM373.752 539.671C372.677 539.671 371.752 539.442 370.975 538.982C370.203 538.518 369.607 537.867 369.185 537.029C368.769 536.186 368.56 535.199 368.56 534.068C368.56 532.95 368.769 531.965 369.185 531.113C369.607 530.261 370.194 529.596 370.947 529.117C371.704 528.639 372.59 528.4 373.603 528.4C374.219 528.4 374.815 528.502 375.393 528.705C375.97 528.909 376.489 529.229 376.948 529.664C377.408 530.1 377.77 530.666 378.035 531.362C378.3 532.053 378.433 532.893 378.433 533.883V534.636H369.761V533.045H376.352C376.352 532.486 376.238 531.991 376.011 531.561C375.783 531.125 375.464 530.782 375.052 530.531C374.645 530.28 374.167 530.154 373.617 530.154C373.021 530.154 372.5 530.301 372.055 530.595C371.614 530.883 371.274 531.262 371.032 531.731C370.795 532.195 370.677 532.699 370.677 533.244V534.487C370.677 535.216 370.805 535.836 371.06 536.347C371.321 536.859 371.683 537.249 372.147 537.519C372.611 537.785 373.153 537.917 373.774 537.917C374.176 537.917 374.543 537.86 374.874 537.747C375.206 537.628 375.492 537.453 375.734 537.221C375.975 536.989 376.16 536.703 376.288 536.362L378.298 536.724C378.137 537.316 377.848 537.834 377.431 538.279C377.019 538.72 376.501 539.063 375.876 539.309C375.256 539.551 374.548 539.671 373.752 539.671ZM387.416 532.384V534.224H380.967V532.384H387.416ZM395.326 539.451H390.617V524.906H395.475C396.9 524.906 398.124 525.197 399.147 525.779C400.17 526.357 400.953 527.188 401.498 528.272C402.047 529.352 402.322 530.647 402.322 532.157C402.322 533.672 402.045 534.974 401.491 536.063C400.941 537.152 400.146 537.99 399.104 538.578C398.063 539.16 396.803 539.451 395.326 539.451ZM392.812 537.534H395.205C396.313 537.534 397.234 537.325 397.968 536.909C398.702 536.487 399.251 535.879 399.616 535.083C399.98 534.283 400.163 533.308 400.163 532.157C400.163 531.016 399.98 530.048 399.616 529.252C399.256 528.457 398.718 527.853 398.003 527.441C397.288 527.029 396.401 526.823 395.34 526.823H392.812V537.534ZM408.255 539.693C407.564 539.693 406.939 539.565 406.38 539.309C405.821 539.049 405.378 538.672 405.052 538.18C404.73 537.687 404.569 537.084 404.569 536.369C404.569 535.753 404.687 535.247 404.924 534.849C405.161 534.451 405.48 534.136 405.883 533.904C406.285 533.672 406.735 533.497 407.232 533.379C407.729 533.26 408.236 533.17 408.752 533.109C409.405 533.033 409.936 532.972 410.343 532.924C410.75 532.872 411.046 532.789 411.231 532.676C411.415 532.562 411.508 532.377 411.508 532.122V532.072C411.508 531.452 411.333 530.971 410.982 530.63C410.637 530.289 410.12 530.119 409.434 530.119C408.719 530.119 408.155 530.277 407.744 530.595C407.336 530.907 407.055 531.255 406.898 531.639L404.903 531.184C405.139 530.521 405.485 529.986 405.94 529.579C406.399 529.167 406.927 528.869 407.523 528.684C408.12 528.495 408.747 528.4 409.405 528.4C409.841 528.4 410.303 528.452 410.79 528.556C411.283 528.656 411.742 528.84 412.168 529.11C412.599 529.38 412.952 529.766 413.226 530.268C413.501 530.765 413.638 531.411 413.638 532.207V539.451H411.565V537.96H411.479C411.342 538.234 411.136 538.504 410.861 538.769C410.587 539.035 410.234 539.255 409.803 539.43C409.372 539.605 408.856 539.693 408.255 539.693ZM408.717 537.988C409.304 537.988 409.806 537.872 410.222 537.64C410.644 537.408 410.963 537.105 411.181 536.731C411.404 536.352 411.515 535.947 411.515 535.517V534.11C411.439 534.186 411.292 534.257 411.075 534.323C410.861 534.385 410.618 534.439 410.343 534.487C410.068 534.529 409.801 534.57 409.54 534.607C409.28 534.641 409.062 534.669 408.887 534.693C408.475 534.745 408.099 534.832 407.758 534.955C407.422 535.079 407.152 535.256 406.948 535.488C406.749 535.715 406.65 536.018 406.65 536.397C406.65 536.923 406.844 537.32 407.232 537.59C407.62 537.856 408.115 537.988 408.717 537.988ZM416.667 539.451V528.542H418.705V530.318H418.84C419.067 529.716 419.439 529.248 419.955 528.911C420.471 528.57 421.089 528.4 421.809 528.4C422.538 528.4 423.149 528.57 423.641 528.911C424.139 529.252 424.505 529.721 424.742 530.318H424.856C425.116 529.735 425.531 529.271 426.099 528.926C426.667 528.575 427.344 528.4 428.13 528.4C429.12 528.4 429.927 528.71 430.552 529.33C431.182 529.951 431.496 530.886 431.496 532.136V539.451H429.373V532.335C429.373 531.596 429.172 531.061 428.769 530.73C428.367 530.398 427.886 530.232 427.327 530.232C426.636 530.232 426.099 530.445 425.715 530.872C425.332 531.293 425.14 531.835 425.14 532.498V539.451H423.023V532.2C423.023 531.608 422.839 531.132 422.469 530.772C422.1 530.412 421.62 530.232 421.028 530.232C420.625 530.232 420.254 530.339 419.913 530.552C419.576 530.76 419.304 531.052 419.096 531.426C418.892 531.8 418.79 532.233 418.79 532.725V539.451H416.667ZM434.543 539.451V528.542H436.666V539.451H434.543ZM435.615 526.859C435.246 526.859 434.929 526.736 434.663 526.49C434.403 526.239 434.273 525.94 434.273 525.595C434.273 525.244 434.403 524.946 434.663 524.7C434.929 524.449 435.246 524.323 435.615 524.323C435.984 524.323 436.299 524.449 436.56 524.7C436.825 524.946 436.957 525.244 436.957 525.595C436.957 525.94 436.825 526.239 436.56 526.49C436.299 526.736 435.984 526.859 435.615 526.859ZM439.723 528.542H441.847V540.161C441.847 540.891 441.714 541.506 441.449 542.008C441.189 542.51 440.8 542.891 440.284 543.151C439.773 543.412 439.141 543.542 438.388 543.542C438.312 543.542 438.241 543.542 438.175 543.542C438.104 543.542 438.03 543.54 437.955 543.535V541.71C438.021 541.71 438.08 541.71 438.132 541.71C438.18 541.71 438.234 541.71 438.296 541.71C438.798 541.71 439.16 541.575 439.382 541.305C439.61 541.04 439.723 540.654 439.723 540.147V528.542ZM440.774 526.859C440.405 526.859 440.088 526.736 439.823 526.49C439.562 526.239 439.432 525.94 439.432 525.595C439.432 525.244 439.562 524.946 439.823 524.7C440.088 524.449 440.405 524.323 440.774 524.323C441.144 524.323 441.458 524.449 441.719 524.7C441.984 524.946 442.117 525.244 442.117 525.595C442.117 525.94 441.984 526.239 441.719 526.49C441.458 526.736 441.144 526.859 440.774 526.859ZM449.499 539.671C448.476 539.671 447.584 539.437 446.821 538.968C446.059 538.499 445.467 537.844 445.046 537.001C444.624 536.158 444.414 535.173 444.414 534.046C444.414 532.915 444.624 531.925 445.046 531.078C445.467 530.23 446.059 529.572 446.821 529.103C447.584 528.634 448.476 528.4 449.499 528.4C450.522 528.4 451.414 528.634 452.176 529.103C452.939 529.572 453.531 530.23 453.952 531.078C454.373 531.925 454.584 532.915 454.584 534.046C454.584 535.173 454.373 536.158 453.952 537.001C453.531 537.844 452.939 538.499 452.176 538.968C451.414 539.437 450.522 539.671 449.499 539.671ZM449.506 537.889C450.169 537.889 450.718 537.713 451.154 537.363C451.589 537.013 451.911 536.546 452.12 535.964C452.333 535.382 452.439 534.74 452.439 534.039C452.439 533.343 452.333 532.704 452.12 532.122C451.911 531.535 451.589 531.063 451.154 530.708C450.718 530.353 450.169 530.176 449.506 530.176C448.838 530.176 448.284 530.353 447.844 530.708C447.408 531.063 447.084 531.535 446.871 532.122C446.663 532.704 446.558 533.343 446.558 534.039C446.558 534.74 446.663 535.382 446.871 535.964C447.084 536.546 447.408 537.013 447.844 537.363C448.284 537.713 448.838 537.889 449.506 537.889Z" fill="white"/>
<path d="M257.453 274.37V259.825H262.638C263.765 259.825 264.7 260.019 265.443 260.407C266.191 260.795 266.75 261.333 267.119 262.019C267.489 262.701 267.673 263.489 267.673 264.384C267.673 265.274 267.486 266.058 267.112 266.735C266.743 267.408 266.184 267.931 265.436 268.305C264.693 268.679 263.757 268.866 262.631 268.866H258.703V266.977H262.432C263.142 266.977 263.72 266.875 264.165 266.671C264.614 266.468 264.944 266.172 265.152 265.783C265.36 265.395 265.464 264.929 265.464 264.384C265.464 263.835 265.358 263.359 265.145 262.957C264.936 262.554 264.607 262.247 264.158 262.033C263.712 261.816 263.128 261.707 262.403 261.707H259.648V274.37H257.453ZM264.633 267.808L268.227 274.37H265.727L262.204 267.808H264.633ZM270.373 274.37V263.461H272.497V274.37H270.373ZM271.446 261.778C271.076 261.778 270.759 261.655 270.494 261.408C270.233 261.158 270.103 260.859 270.103 260.514C270.103 260.163 270.233 259.865 270.494 259.619C270.759 259.368 271.076 259.242 271.446 259.242C271.815 259.242 272.13 259.368 272.39 259.619C272.655 259.865 272.788 260.163 272.788 260.514C272.788 260.859 272.655 261.158 272.39 261.408C272.13 261.655 271.815 261.778 271.446 261.778ZM280.149 274.59C279.093 274.59 278.184 274.351 277.422 273.873C276.664 273.39 276.082 272.725 275.674 271.877C275.267 271.03 275.064 270.059 275.064 268.965C275.064 267.857 275.272 266.88 275.689 266.032C276.105 265.18 276.692 264.515 277.45 264.036C278.208 263.558 279.1 263.319 280.127 263.319C280.956 263.319 281.695 263.473 282.343 263.781C282.992 264.084 283.515 264.51 283.913 265.059C284.315 265.608 284.555 266.25 284.63 266.984H282.564C282.45 266.472 282.19 266.032 281.782 265.663C281.38 265.293 280.84 265.109 280.163 265.109C279.571 265.109 279.053 265.265 278.608 265.578C278.167 265.885 277.824 266.326 277.578 266.899C277.332 267.467 277.208 268.139 277.208 268.916C277.208 269.711 277.329 270.398 277.571 270.975C277.812 271.553 278.153 272 278.593 272.318C279.038 272.635 279.562 272.793 280.163 272.793C280.565 272.793 280.93 272.72 281.257 272.573C281.588 272.422 281.865 272.206 282.088 271.927C282.315 271.648 282.474 271.311 282.564 270.918H284.63C284.555 271.624 284.325 272.254 283.941 272.808C283.558 273.362 283.044 273.797 282.4 274.114C281.761 274.432 281.011 274.59 280.149 274.59ZM289.225 267.893V274.37H287.101V259.825H289.196V265.237H289.331C289.587 264.649 289.978 264.183 290.503 263.837C291.029 263.492 291.715 263.319 292.563 263.319C293.311 263.319 293.964 263.473 294.523 263.781C295.087 264.088 295.522 264.548 295.83 265.158C296.142 265.765 296.299 266.522 296.299 267.431V274.37H294.175V267.687C294.175 266.887 293.969 266.266 293.557 265.826C293.145 265.381 292.572 265.158 291.839 265.158C291.337 265.158 290.887 265.265 290.489 265.478C290.096 265.691 289.786 266.004 289.559 266.416C289.336 266.823 289.225 267.315 289.225 267.893ZM302.507 274.612C301.816 274.612 301.191 274.484 300.632 274.228C300.074 273.968 299.631 273.591 299.304 273.099C298.982 272.606 298.821 272.003 298.821 271.288C298.821 270.672 298.94 270.166 299.176 269.768C299.413 269.37 299.733 269.055 300.135 268.823C300.538 268.591 300.987 268.416 301.485 268.298C301.982 268.179 302.488 268.089 303.004 268.028C303.658 267.952 304.188 267.89 304.595 267.843C305.003 267.791 305.298 267.708 305.483 267.595C305.668 267.481 305.76 267.296 305.76 267.041V266.991C305.76 266.371 305.585 265.89 305.235 265.549C304.889 265.208 304.373 265.038 303.686 265.038C302.971 265.038 302.408 265.196 301.996 265.514C301.589 265.826 301.307 266.174 301.151 266.558L299.155 266.103C299.392 265.44 299.737 264.905 300.192 264.498C300.651 264.086 301.179 263.788 301.776 263.603C302.372 263.414 303 263.319 303.658 263.319C304.093 263.319 304.555 263.371 305.043 263.475C305.535 263.575 305.994 263.759 306.421 264.029C306.851 264.299 307.204 264.685 307.479 265.187C307.753 265.684 307.891 266.33 307.891 267.126V274.37H305.817V272.879H305.732C305.594 273.153 305.388 273.423 305.114 273.688C304.839 273.953 304.486 274.174 304.056 274.349C303.625 274.524 303.109 274.612 302.507 274.612ZM302.969 272.907C303.556 272.907 304.058 272.791 304.475 272.559C304.896 272.327 305.216 272.024 305.433 271.65C305.656 271.271 305.767 270.866 305.767 270.435V269.029C305.691 269.105 305.545 269.176 305.327 269.242C305.114 269.304 304.87 269.358 304.595 269.406C304.321 269.448 304.053 269.488 303.793 269.526C303.532 269.56 303.315 269.588 303.139 269.612C302.727 269.664 302.351 269.751 302.01 269.874C301.674 269.997 301.404 270.175 301.2 270.407C301.002 270.634 300.902 270.937 300.902 271.316C300.902 271.842 301.096 272.239 301.485 272.509C301.873 272.774 302.368 272.907 302.969 272.907ZM310.919 274.37V263.461H312.972V265.194H313.085C313.284 264.607 313.635 264.145 314.137 263.809C314.643 263.468 315.216 263.298 315.855 263.298C315.988 263.298 316.144 263.302 316.324 263.312C316.509 263.321 316.653 263.333 316.757 263.347V265.379C316.672 265.355 316.521 265.329 316.303 265.301C316.085 265.267 315.867 265.251 315.649 265.251C315.147 265.251 314.7 265.357 314.307 265.57C313.919 265.779 313.611 266.07 313.384 266.444C313.156 266.813 313.043 267.235 313.043 267.708V274.37H310.919ZM322.488 274.583C321.608 274.583 320.822 274.358 320.13 273.908C319.444 273.454 318.904 272.808 318.511 271.97C318.123 271.127 317.929 270.116 317.929 268.937C317.929 267.758 318.125 266.749 318.518 265.911C318.916 265.073 319.46 264.432 320.152 263.987C320.843 263.542 321.626 263.319 322.502 263.319C323.18 263.319 323.724 263.433 324.136 263.66C324.553 263.882 324.875 264.143 325.102 264.441C325.334 264.739 325.514 265.002 325.642 265.229H325.769V259.825H327.893V274.37H325.819V272.673H325.642C325.514 272.905 325.329 273.17 325.088 273.468C324.851 273.766 324.524 274.027 324.108 274.249C323.691 274.472 323.151 274.583 322.488 274.583ZM322.957 272.772C323.568 272.772 324.084 272.611 324.505 272.289C324.931 271.962 325.253 271.51 325.471 270.933C325.694 270.355 325.805 269.683 325.805 268.916C325.805 268.158 325.696 267.495 325.478 266.927C325.26 266.359 324.941 265.916 324.519 265.599C324.098 265.282 323.577 265.123 322.957 265.123C322.318 265.123 321.785 265.289 321.359 265.62C320.933 265.952 320.611 266.404 320.393 266.977C320.18 267.55 320.073 268.196 320.073 268.916C320.073 269.645 320.182 270.301 320.4 270.883C320.618 271.465 320.94 271.927 321.366 272.268C321.797 272.604 322.327 272.772 322.957 272.772Z" fill="white"/>
<path d="M810.011 349.645H807.682L812.916 335.099H815.452L820.686 349.645H818.356L814.244 337.741H814.131L810.011 349.645ZM810.402 343.949H817.959V345.795H810.402V343.949ZM824.94 335.099V349.645H822.816V335.099H824.94ZM832.698 349.865C831.623 349.865 830.698 349.635 829.921 349.176C829.149 348.712 828.553 348.061 828.131 347.223C827.715 346.38 827.506 345.393 827.506 344.261C827.506 343.144 827.715 342.159 828.131 341.306C828.553 340.454 829.14 339.789 829.893 339.311C830.65 338.833 831.536 338.593 832.549 338.593C833.165 338.593 833.761 338.695 834.339 338.899C834.916 339.102 835.435 339.422 835.894 339.858C836.354 340.293 836.716 340.859 836.981 341.555C837.246 342.246 837.379 343.087 837.379 344.076V344.829H828.707V343.238H835.298C835.298 342.68 835.184 342.185 834.957 341.754C834.729 341.318 834.41 340.975 833.998 340.724C833.591 340.473 833.113 340.348 832.563 340.348C831.967 340.348 831.446 340.494 831.001 340.788C830.56 341.077 830.22 341.456 829.978 341.924C829.741 342.388 829.623 342.893 829.623 343.437V344.68C829.623 345.409 829.751 346.029 830.006 346.541C830.267 347.052 830.629 347.443 831.093 347.713C831.557 347.978 832.099 348.11 832.72 348.11C833.122 348.11 833.489 348.054 833.82 347.94C834.152 347.822 834.438 347.646 834.68 347.414C834.921 347.182 835.106 346.896 835.234 346.555L837.244 346.917C837.083 347.509 836.794 348.028 836.377 348.473C835.965 348.913 835.447 349.256 834.822 349.502C834.202 349.744 833.494 349.865 832.698 349.865ZM841.888 345.944L841.874 343.352H842.243L846.59 338.735H849.132L844.175 343.991H843.841L841.888 345.944ZM839.935 349.645V335.099H842.058V349.645H839.935ZM846.824 349.645L842.918 344.46L844.381 342.975L849.431 349.645H846.824ZM859.442 341.399L857.518 341.74C857.437 341.493 857.309 341.259 857.134 341.037C856.964 340.814 856.732 340.632 856.438 340.49C856.144 340.348 855.778 340.277 855.337 340.277C854.736 340.277 854.234 340.412 853.832 340.681C853.429 340.947 853.228 341.29 853.228 341.711C853.228 342.076 853.363 342.369 853.633 342.592C853.903 342.815 854.338 342.997 854.939 343.139L856.672 343.537C857.676 343.769 858.424 344.126 858.917 344.609C859.409 345.092 859.655 345.719 859.655 346.491C859.655 347.145 859.466 347.727 859.087 348.238C858.713 348.745 858.19 349.143 857.518 349.431C856.85 349.72 856.076 349.865 855.195 349.865C853.974 349.865 852.977 349.604 852.205 349.083C851.433 348.558 850.96 347.812 850.785 346.846L852.837 346.534C852.965 347.069 853.228 347.474 853.626 347.748C854.023 348.018 854.542 348.153 855.181 348.153C855.877 348.153 856.433 348.009 856.85 347.72C857.267 347.426 857.475 347.069 857.475 346.647C857.475 346.306 857.347 346.02 857.091 345.788C856.841 345.556 856.455 345.381 855.934 345.262L854.087 344.858C853.069 344.626 852.316 344.256 851.829 343.75C851.346 343.243 851.104 342.601 851.104 341.825C851.104 341.181 851.284 340.618 851.644 340.135C852.004 339.652 852.501 339.275 853.135 339.005C853.77 338.731 854.497 338.593 855.316 338.593C856.495 338.593 857.423 338.849 858.1 339.36C858.777 339.867 859.225 340.547 859.442 341.399ZM865.365 349.886C864.674 349.886 864.049 349.758 863.49 349.502C862.931 349.242 862.489 348.866 862.162 348.373C861.84 347.881 861.679 347.277 861.679 346.562C861.679 345.947 861.797 345.44 862.034 345.042C862.271 344.645 862.59 344.33 862.993 344.098C863.395 343.866 863.845 343.69 864.342 343.572C864.839 343.454 865.346 343.364 865.862 343.302C866.516 343.226 867.046 343.165 867.453 343.118C867.86 343.065 868.156 342.983 868.341 342.869C868.525 342.755 868.618 342.571 868.618 342.315V342.265C868.618 341.645 868.443 341.164 868.092 340.824C867.747 340.483 867.23 340.312 866.544 340.312C865.829 340.312 865.266 340.471 864.854 340.788C864.446 341.1 864.165 341.449 864.008 341.832L862.013 341.377C862.249 340.715 862.595 340.18 863.05 339.772C863.509 339.36 864.037 339.062 864.633 338.877C865.23 338.688 865.857 338.593 866.516 338.593C866.951 338.593 867.413 338.645 867.9 338.75C868.393 338.849 868.852 339.034 869.278 339.304C869.709 339.574 870.062 339.959 870.337 340.461C870.611 340.958 870.748 341.605 870.748 342.4V349.645H868.675V348.153H868.589C868.452 348.428 868.246 348.698 867.972 348.963C867.697 349.228 867.344 349.448 866.913 349.623C866.482 349.798 865.966 349.886 865.365 349.886ZM865.827 348.181C866.414 348.181 866.916 348.065 867.332 347.833C867.754 347.601 868.073 347.298 868.291 346.924C868.514 346.546 868.625 346.141 868.625 345.71V344.304C868.549 344.379 868.402 344.45 868.185 344.517C867.972 344.578 867.728 344.633 867.453 344.68C867.178 344.723 866.911 344.763 866.65 344.801C866.39 344.834 866.172 344.862 865.997 344.886C865.585 344.938 865.209 345.026 864.868 345.149C864.532 345.272 864.262 345.449 864.058 345.681C863.859 345.909 863.76 346.212 863.76 346.591C863.76 347.116 863.954 347.514 864.342 347.784C864.73 348.049 865.225 348.181 865.827 348.181ZM875.901 343.167V349.645H873.777V338.735H875.815V340.511H875.95C876.201 339.933 876.594 339.469 877.129 339.119C877.669 338.769 878.348 338.593 879.168 338.593C879.911 338.593 880.562 338.75 881.121 339.062C881.679 339.37 882.113 339.829 882.42 340.44C882.728 341.051 882.882 341.806 882.882 342.706V349.645H880.759V342.961C880.759 342.171 880.553 341.553 880.141 341.108C879.729 340.658 879.163 340.433 878.443 340.433C877.951 340.433 877.513 340.539 877.129 340.752C876.75 340.966 876.45 341.278 876.227 341.69C876.009 342.097 875.901 342.59 875.901 343.167ZM890.014 349.858C889.133 349.858 888.347 349.633 887.656 349.183C886.969 348.728 886.43 348.082 886.037 347.244C885.648 346.401 885.454 345.39 885.454 344.211C885.454 343.032 885.651 342.024 886.044 341.186C886.441 340.348 886.986 339.706 887.677 339.261C888.369 338.816 889.152 338.593 890.028 338.593C890.705 338.593 891.25 338.707 891.662 338.934C892.078 339.157 892.4 339.417 892.628 339.716C892.86 340.014 893.039 340.277 893.167 340.504H893.295V335.099H895.419V349.645H893.345V347.947H893.167C893.039 348.179 892.855 348.444 892.613 348.743C892.377 349.041 892.05 349.301 891.633 349.524C891.217 349.746 890.677 349.858 890.014 349.858ZM890.483 348.047C891.093 348.047 891.61 347.886 892.031 347.564C892.457 347.237 892.779 346.785 892.997 346.207C893.219 345.629 893.331 344.957 893.331 344.19C893.331 343.432 893.222 342.77 893.004 342.201C892.786 341.633 892.467 341.19 892.045 340.873C891.624 340.556 891.103 340.397 890.483 340.397C889.843 340.397 889.311 340.563 888.885 340.895C888.459 341.226 888.137 341.678 887.919 342.251C887.706 342.824 887.599 343.47 887.599 344.19C887.599 344.919 887.708 345.575 887.926 346.157C888.144 346.74 888.466 347.201 888.892 347.542C889.323 347.878 889.853 348.047 890.483 348.047ZM903.351 349.865C902.277 349.865 901.351 349.635 900.574 349.176C899.803 348.712 899.206 348.061 898.785 347.223C898.368 346.38 898.16 345.393 898.16 344.261C898.16 343.144 898.368 342.159 898.785 341.306C899.206 340.454 899.793 339.789 900.546 339.311C901.304 338.833 902.189 338.593 903.202 338.593C903.818 338.593 904.414 338.695 904.992 338.899C905.57 339.102 906.088 339.422 906.547 339.858C907.007 340.293 907.369 340.859 907.634 341.555C907.899 342.246 908.032 343.087 908.032 344.076V344.829H899.36V343.238H905.951C905.951 342.68 905.837 342.185 905.61 341.754C905.383 341.318 905.063 340.975 904.651 340.724C904.244 340.473 903.766 340.348 903.216 340.348C902.62 340.348 902.099 340.494 901.654 340.788C901.214 341.077 900.873 341.456 900.631 341.924C900.394 342.388 900.276 342.893 900.276 343.437V344.68C900.276 345.409 900.404 346.029 900.66 346.541C900.92 347.052 901.282 347.443 901.746 347.713C902.21 347.978 902.752 348.11 903.373 348.11C903.775 348.11 904.142 348.054 904.473 347.94C904.805 347.822 905.091 347.646 905.333 347.414C905.574 347.182 905.759 346.896 905.887 346.555L907.897 346.917C907.736 347.509 907.447 348.028 907.03 348.473C906.618 348.913 906.1 349.256 905.475 349.502C904.855 349.744 904.147 349.865 903.351 349.865ZM910.588 349.645V338.735H912.64V340.468H912.754C912.953 339.881 913.303 339.42 913.805 339.083C914.312 338.743 914.885 338.572 915.524 338.572C915.657 338.572 915.813 338.577 915.993 338.586C916.177 338.596 916.322 338.608 916.426 338.622V340.653C916.341 340.629 916.189 340.603 915.971 340.575C915.754 340.542 915.536 340.525 915.318 340.525C914.816 340.525 914.369 340.632 913.976 340.845C913.587 341.053 913.28 341.344 913.052 341.718C912.825 342.088 912.711 342.509 912.711 342.983V349.645H910.588Z" fill="white"/>
</g>
<path d="M733.371 276.703L757.085 329.468L768.989 307.143L790.786 293.272L733.371 276.703Z" fill="#08C15B" fill-opacity="0.4" stroke="#42B85C" stroke-width="2.5" stroke-linejoin="round"/>
<path d="M434.493 211.719L377.799 223.225L396.954 239.755L405.681 264.073L434.493 211.719Z" fill="#055DF5" fill-opacity="0.4" stroke="#055DF5" stroke-width="2.5" stroke-linejoin="round"/>
<path d="M511.062 475.104L492.268 482.294L473.475 489.485L488.51 498.636L497.28 514.325L511.062 475.104Z" fill="#FFBE00" fill-opacity="0.4" stroke="#F3B500" stroke-width="2.5" stroke-linejoin="round"/>
<path d="M738.192 598.428L790.448 568.252V547.649L738.192 577.826V598.428Z" fill="#CEE0F2"/>
<path d="M738.191 598.429L686.259 568.436V547.834L738.191 577.826V598.429Z" fill="#6BA2D6"/>
<path d="M738.191 577.827L790.447 547.65L738.514 517.681L686.259 547.834L738.191 577.827Z" fill="#5493D2"/>
<path d="M738.192 574.595L790.448 544.419V523.816L738.192 553.97V574.595Z" fill="#CEE0F2"/>
<path d="M738.191 574.595L686.259 544.603V524.001L738.191 553.97V574.595Z" fill="#6BA2D6"/>
<path d="M738.191 553.97L790.447 523.816L738.514 493.824L686.259 524.001L738.191 553.97Z" fill="#CEE0F2"/>
<path d="M738.236 547.741L779.625 523.84L738.49 500.1L697.101 524.001L738.236 547.741Z" fill="#5493D2"/>
<path d="M738.236 538.236L779.626 514.358V493.732L738.236 517.634V538.236Z" fill="#CEE0F2"/>
<path d="M738.236 538.236L697.101 514.496V493.894L738.236 517.634V538.236Z" fill="#6BA2D6"/>
<path d="M738.236 517.634L779.625 493.732L738.49 469.992L697.101 493.894L738.236 517.634Z" fill="#CEE0F2"/>
<path d="M721.441 493.917L738.306 503.653L755.286 493.848L738.422 484.112L721.441 493.917Z" fill="#EBF2F9"/>
<defs>
<filter id="filter0_d_186_1617" x="203.51" y="161.098" width="753.107" height="422.853" filterUnits="userSpaceOnUse" color-interpolation-filters="sRGB">
<feFlood flood-opacity="0" result="BackgroundImageFix"/>
<feColorMatrix in="SourceAlpha" type="matrix" values="0 0 0 0 0 0 0 0 0 0 0 0 0 0 0 0 0 0 127 0" result="hardAlpha"/>
<feOffset dy="2"/>
<feGaussianBlur stdDeviation="2"/>
<feComposite in2="hardAlpha" operator="out"/>
<feColorMatrix type="matrix" values="0 0 0 0 0.0823529 0 0 0 0 0.105882 0 0 0 0 0.141176 0 0 0 0.5 0"/>
<feBlend mode="normal" in2="BackgroundImageFix" result="effect1_dropShadow_186_1617"/>
<feBlend mode="normal" in="SourceGraphic" in2="effect1_dropShadow_186_1617" result="shape"/>
</filter>
<filter id="filter1_d_186_1617" x="407.467" y="163.098" width="337.886" height="424.853" filterUnits="userSpaceOnUse" color-interpolation-filters="sRGB">
<feFlood flood-opacity="0" result="BackgroundImageFix"/>
<feColorMatrix in="SourceAlpha" type="matrix" values="0 0 0 0 0 0 0 0 0 0 0 0 0 0 0 0 0 0 127 0" result="hardAlpha"/>
<feOffset dx="2" dy="6"/>
<feGaussianBlur stdDeviation="2"/>
<feComposite in2="hardAlpha" operator="out"/>
<feColorMatrix type="matrix" values="0 0 0 0 0.0862745 0 0 0 0 0.0941176 0 0 0 0 0.109804 0 0 0 0.15 0"/>
<feBlend mode="normal" in2="BackgroundImageFix" result="effect1_dropShadow_186_1617"/>
<feBlend mode="normal" in="SourceGraphic" in2="effect1_dropShadow_186_1617" result="shape"/>
</filter>
<filter id="filter2_d_186_1617" x="304.226" y="503.494" width="182.689" height="67.8369" filterUnits="userSpaceOnUse" color-interpolation-filters="sRGB">
<feFlood flood-opacity="0" result="BackgroundImageFix"/>
<feColorMatrix in="SourceAlpha" type="matrix" values="0 0 0 0 0 0 0 0 0 0 0 0 0 0 0 0 0 0 127 0" result="hardAlpha"/>
<feOffset dx="2" dy="6"/>
<feGaussianBlur stdDeviation="2"/>
<feComposite in2="hardAlpha" operator="out"/>
<feColorMatrix type="matrix" values="0 0 0 0 0.0862745 0 0 0 0 0.0941176 0 0 0 0 0.109804 0 0 0 0.15 0"/>
<feBlend mode="normal" in2="BackgroundImageFix" result="effect1_dropShadow_186_1617"/>
<feBlend mode="normal" in="SourceGraphic" in2="effect1_dropShadow_186_1617" result="shape"/>
</filter>
<filter id="filter3_d_186_1617" x="205.51" y="238.411" width="182.689" height="67.8369" filterUnits="userSpaceOnUse" color-interpolation-filters="sRGB">
<feFlood flood-opacity="0" result="BackgroundImageFix"/>
<feColorMatrix in="SourceAlpha" type="matrix" values="0 0 0 0 0 0 0 0 0 0 0 0 0 0 0 0 0 0 127 0" result="hardAlpha"/>
<feOffset dx="2" dy="6"/>
<feGaussianBlur stdDeviation="2"/>
<feComposite in2="hardAlpha" operator="out"/>
<feColorMatrix type="matrix" values="0 0 0 0 0.0862745 0 0 0 0 0.0941176 0 0 0 0 0.109804 0 0 0 0.15 0"/>
<feBlend mode="normal" in2="BackgroundImageFix" result="effect1_dropShadow_186_1617"/>
<feBlend mode="normal" in="SourceGraphic" in2="effect1_dropShadow_186_1617" result="shape"/>
</filter>
<filter id="filter4_d_186_1617" x="775.929" y="313.688" width="182.689" height="67.8369" filterUnits="userSpaceOnUse" color-interpolation-filters="sRGB">
<feFlood flood-opacity="0" result="BackgroundImageFix"/>
<feColorMatrix in="SourceAlpha" type="matrix" values="0 0 0 0 0 0 0 0 0 0 0 0 0 0 0 0 0 0 127 0" result="hardAlpha"/>
<feOffset dx="2" dy="6"/>
<feGaussianBlur stdDeviation="2"/>
<feComposite in2="hardAlpha" operator="out"/>
<feColorMatrix type="matrix" values="0 0 0 0 0.0862745 0 0 0 0 0.0941176 0 0 0 0 0.109804 0 0 0 0.15 0"/>
<feBlend mode="normal" in2="BackgroundImageFix" result="effect1_dropShadow_186_1617"/>
<feBlend mode="normal" in="SourceGraphic" in2="effect1_dropShadow_186_1617" result="shape"/>
</filter>
<linearGradient id="paint0_linear_186_1617" x1="539.23" y1="-21.2981" x2="883.071" y2="198.872" gradientUnits="userSpaceOnUse">
<stop offset="1.86066e-08" stop-color="#4E5E6E"/>
<stop offset="1" stop-color="#4E5E6E" stop-opacity="0"/>
</linearGradient>
<linearGradient id="paint1_linear_186_1617" x1="375.042" y1="479.42" x2="410.42" y2="567.635" gradientUnits="userSpaceOnUse">
<stop offset="1.86066e-08" stop-color="#4E5E6E"/>
<stop offset="1" stop-color="#4E5E6E" stop-opacity="0"/>
</linearGradient>
<linearGradient id="paint2_linear_186_1617" x1="276.327" y1="214.337" x2="311.704" y2="302.552" gradientUnits="userSpaceOnUse">
<stop offset="1.86066e-08" stop-color="#4E5E6E"/>
<stop offset="1" stop-color="#4E5E6E" stop-opacity="0"/>
</linearGradient>
<linearGradient id="paint3_linear_186_1617" x1="846.745" y1="289.613" x2="882.123" y2="377.828" gradientUnits="userSpaceOnUse">
<stop offset="1.86066e-08" stop-color="#4E5E6E"/>
<stop offset="1" stop-color="#4E5E6E" stop-opacity="0"/>
</linearGradient>
</defs>
</svg>
