<svg width="32" height="32" viewBox="0 0 32 32" fill="none" xmlns="http://www.w3.org/2000/svg">
<rect width="32" height="32" fill="#055DF5"/>
<path d="M26.5643 16.0126V16.0426C26.5665 18.0587 26.0779 20.0451 25.1405 21.8301L24.6826 22.6208C23.5637 24.4214 22.0041 25.9071 20.1513 26.9373C18.2984 27.9674 16.2135 28.5082 14.0935 28.5084V22.293C15.7525 22.293 17.3436 21.6339 18.5167 20.4608C19.6899 19.2877 20.3489 17.6966 20.3489 16.0376V16.0076L26.5643 16.0126Z" fill="white"/>
<path d="M25.4281 3.4917L11.1208 28.4908H3.21143L17.5188 3.4917H25.4281Z" fill="white"/>
<path d="M25.1205 13.9354H24.9729V13.1099H24.6602V12.9773H25.4332V13.1099H25.1205V13.9354Z" fill="white"/>
<path d="M25.9983 13.9354L25.6956 13.2024V13.9354H25.5605V12.9773H25.7407L26.0634 13.7553L26.3836 12.9773H26.5637V13.9354H26.4336V13.2024L26.1284 13.9354H25.9983Z" fill="white"/>
</svg>
