<svg width="127" height="21" viewBox="0 0 127 21" fill="none" xmlns="http://www.w3.org/2000/svg">
<path d="M61.3401 0.469141V3.09594H48.5276V8.26713H59.9069V10.8628H48.5276V20.2078H45.9005V0.469141H61.3401ZM79.2193 12.7103C79.2193 12.9223 79.1613 17.8974 74.1432 17.8974C69.4728 17.8974 69.0773 13.9258 69.0673 12.7103V0.469141H66.4401V12.7103C66.4401 16.2819 68.4577 20.4526 74.1432 20.4526C79.8284 20.4526 81.8462 16.2817 81.8462 12.7103V0.469141H79.2193V12.7103ZM99.6117 12.6786L104.236 20.2076H101.068L96.6342 12.9476H91.5819V20.2076H88.9555V0.46952H97.411C102.235 0.46952 104.395 3.6033 104.395 6.70874C104.395 11.1608 100.857 12.3857 99.6117 12.6786ZM97.4113 10.321C99.3998 10.321 101.77 9.69423 101.77 6.70861C101.77 3.54421 99.0394 3.07162 97.4113 3.07162H91.5819V10.321H97.4113ZM35.0787 0.469141V16.1556H34.5052L25.235 0.469141H21.836V20.2076H24.4627V5.01718H25.0359L33.8863 20.2075H37.705V0.469141H35.0787ZM0.614258 0.469141V2.90569H6.44741V17.7717H0.614258V20.2076H14.9068V17.7717H9.07395V2.90569H14.9068V0.469141H0.614258ZM126.606 20.2075H123.844L121.68 14.2255H114.039L111.878 20.2075H109.117L116.288 0.452637H119.435L126.606 20.2075ZM120.756 11.6699L118.17 4.52405H117.544L114.962 11.6699H120.756Z" fill="#A7A9AC"/>
</svg>
