<svg width="159" height="26" viewBox="0 0 159 26" fill="none" xmlns="http://www.w3.org/2000/svg">
<path d="M76.5215 0.473267V3.75676H60.506V10.2207H74.7301V13.4653H60.506V25.1466H57.222V0.473267H76.5215ZM98.8705 15.7748C98.8705 16.0397 98.7981 22.2586 92.5255 22.2586C86.6875 22.2586 86.1931 17.2941 86.1805 15.7748V0.473267H82.8966V15.7748C82.8966 20.2393 85.4186 25.4526 92.5255 25.4526C99.632 25.4526 102.154 20.239 102.154 15.7748V0.473267H98.8705V15.7748ZM124.361 15.7351L130.141 25.1463H126.182L120.639 16.0713H114.324V25.1463H111.041V0.473741H121.61C127.64 0.473741 130.34 4.39097 130.34 8.27276C130.34 13.8378 125.918 15.3689 124.361 15.7351ZM121.611 12.7881C124.096 12.7881 127.059 12.0046 127.059 8.27261C127.059 4.31711 123.646 3.72637 121.611 3.72637H114.324V12.7881H121.611ZM43.6948 0.473267V20.0813H42.9779L31.3902 0.473267H27.1414V25.1463H30.4248V6.15831H31.1413L42.2043 25.1462H46.9777V0.473267H43.6948ZM0.614258 0.473267V3.51895H7.90569V22.1014H0.614258V25.1463H18.48V22.1014H11.1889V3.51895H18.48V0.473267H0.614258ZM158.103 25.1462H154.652L151.946 17.6687H142.395L139.693 25.1462H136.242L145.206 0.452637H149.14L158.103 25.1462ZM150.791 14.4742L147.559 5.5419H146.776L143.549 14.4742H150.791Z" fill="#A7A9AC"/>
</svg>
