<svg width="153" height="230" viewBox="0 0 153 230" fill="none" xmlns="http://www.w3.org/2000/svg">
<g opacity="0.8" clip-path="url(#clip0_1345_5844)">
<g style="mix-blend-mode:soft-light" opacity="0.56">
<path d="M-445.306 -435.796V-424.306M-445.306 -424.306V-412.816M-445.306 -424.306H-456.796M-445.306 -424.306H-433.815M-445.306 -129.388V-117.898M-445.306 -117.898V-106.408M-445.306 -117.898H-456.796M-445.306 -117.898H-433.815M-445.306 177.019V188.51M-445.306 188.51V200M-445.306 188.51H-456.796M-445.306 188.51H-433.815M-138.898 -435.796V-424.306M-138.898 -424.306V-412.816M-138.898 -424.306H-150.388M-138.898 -424.306H-127.407M-138.898 -129.388V-117.898M-138.898 -117.898V-106.408M-138.898 -117.898H-150.388M-138.898 -117.898H-127.407M-138.898 177.019V188.51M-138.898 188.51V200M-138.898 188.51H-150.388M-138.898 188.51H-127.407M167.51 -435.796V-424.306M167.51 -424.306V-412.816M167.51 -424.306H156.02M167.51 -424.306H179M167.51 -129.388V-117.898M167.51 -117.898V-106.408M167.51 -117.898H156.02M167.51 -117.898H179M167.51 177.019V188.51M167.51 188.51V200M167.51 188.51H156.02M167.51 188.51H179M473.918 -435.796V-424.306M473.918 -424.306V-412.816M473.918 -424.306H462.428M473.918 -424.306H485.408M473.918 -129.388V-117.898M473.918 -117.898V-106.408M473.918 -117.898H462.428M473.918 -117.898H485.408M473.918 177.019V188.51M473.918 188.51V200M473.918 188.51H462.428M473.918 188.51H485.408M780.326 -435.796V-424.306M780.326 -424.306V-412.816M780.326 -424.306H768.836M780.326 -424.306H791.816M780.326 -129.388V-117.898M780.326 -117.898V-106.408M780.326 -117.898H768.836M780.326 -117.898H791.816M780.326 177.019V188.51M780.326 188.51V200M780.326 188.51H768.836M780.326 188.51H791.816M1086.73 -435.796V-424.306M1086.73 -424.306V-412.816M1086.73 -424.306H1075.24M1086.73 -424.306H1098.22M1086.73 -129.388V-117.898M1086.73 -117.898V-106.408M1086.73 -117.898H1075.24M1086.73 -117.898H1098.22M1086.73 177.019V188.51M1086.73 188.51V200M1086.73 188.51H1075.24M1086.73 188.51H1098.22M-445.306 -589V-577.51M-445.306 -577.51V-566.019M-445.306 -577.51H-456.796M-445.306 -577.51H-433.815M-445.306 -282.592V-271.102M-445.306 -271.102V-259.612M-445.306 -271.102H-456.796M-445.306 -271.102H-433.815M-445.306 23.8155V35.3058M-445.306 35.3058V46.7961M-445.306 35.3058H-456.796M-445.306 35.3058H-433.815M-138.898 -589V-577.51M-138.898 -577.51V-566.019M-138.898 -577.51H-150.388M-138.898 -577.51H-127.407M-138.898 -282.592V-271.102M-138.898 -271.102V-259.612M-138.898 -271.102H-150.388M-138.898 -271.102H-127.407M-138.898 23.8155V35.3058M-138.898 35.3058V46.7961M-138.898 35.3058H-150.388M-138.898 35.3058H-127.407M167.51 -589V-577.51M167.51 -577.51V-566.019M167.51 -577.51H156.02M167.51 -577.51H179M167.51 -282.592V-271.102M167.51 -271.102V-259.612M167.51 -271.102H156.02M167.51 -271.102H179M167.51 23.8155V35.3058M167.51 35.3058V46.7961M167.51 35.3058H156.02M167.51 35.3058H179M473.918 -589V-577.51M473.918 -577.51V-566.019M473.918 -577.51H462.428M473.918 -577.51H485.408M473.918 -282.592V-271.102M473.918 -271.102V-259.612M473.918 -271.102H462.428M473.918 -271.102H485.408M473.918 23.8155V35.3058M473.918 35.3058V46.7961M473.918 35.3058H462.428M473.918 35.3058H485.408M780.326 -589V-577.51M780.326 -577.51V-566.019M780.326 -577.51H768.836M780.326 -577.51H791.816M780.326 -282.592V-271.102M780.326 -271.102V-259.612M780.326 -271.102H768.836M780.326 -271.102H791.816M780.326 23.8155V35.3058M780.326 35.3058V46.7961M780.326 35.3058H768.836M780.326 35.3058H791.816M1086.73 -589V-577.51M1086.73 -577.51V-566.019M1086.73 -577.51H1075.24M1086.73 -577.51H1098.22M1086.73 -282.592V-271.102M1086.73 -271.102V-259.612M1086.73 -271.102H1075.24M1086.73 -271.102H1098.22M1086.73 23.8155V35.3058M1086.73 35.3058V46.7961M1086.73 35.3058H1075.24M1086.73 35.3058H1098.22M-598.51 -435.796V-424.306M-598.51 -424.306V-412.816M-598.51 -424.306H-610M-598.51 -424.306H-587.019M-598.51 -129.388V-117.898M-598.51 -117.898V-106.408M-598.51 -117.898H-610M-598.51 -117.898H-587.019M-598.51 177.019V188.51M-598.51 188.51V200M-598.51 188.51H-610M-598.51 188.51H-587.019M-292.102 -435.796V-424.306M-292.102 -424.306V-412.816M-292.102 -424.306H-303.592M-292.102 -424.306H-280.611M-292.102 -129.388V-117.898M-292.102 -117.898V-106.408M-292.102 -117.898H-303.592M-292.102 -117.898H-280.611M-292.102 177.019V188.51M-292.102 188.51V200M-292.102 188.51H-303.592M-292.102 188.51H-280.611M14.3061 -435.796V-424.306M14.3061 -424.306V-412.816M14.3061 -424.306H2.81582M14.3061 -424.306H25.7964M14.3061 -129.388V-117.898M14.3061 -117.898V-106.408M14.3061 -117.898H2.81582M14.3061 -117.898H25.7964M14.3061 177.019V188.51M14.3061 188.51V200M14.3061 188.51H2.81582M14.3061 188.51H25.7964M320.714 -435.796V-424.306M320.714 -424.306V-412.816M320.714 -424.306H309.224M320.714 -424.306H332.204M320.714 -129.388V-117.898M320.714 -117.898V-106.408M320.714 -117.898H309.224M320.714 -117.898H332.204M320.714 177.019V188.51M320.714 188.51V200M320.714 188.51H309.224M320.714 188.51H332.204M627.122 -435.796V-424.306M627.122 -424.306V-412.816M627.122 -424.306H615.632M627.122 -424.306H638.612M627.122 -129.388V-117.898M627.122 -117.898V-106.408M627.122 -117.898H615.632M627.122 -117.898H638.612M627.122 177.019V188.51M627.122 188.51V200M627.122 188.51H615.632M627.122 188.51H638.612M933.53 -435.796V-424.306M933.53 -424.306V-412.816M933.53 -424.306H922.039M933.53 -424.306H945.02M933.53 -129.388V-117.898M933.53 -117.898V-106.408M933.53 -117.898H922.039M933.53 -117.898H945.02M933.53 177.019V188.51M933.53 188.51V200M933.53 188.51H922.039M933.53 188.51H945.02M-598.51 -589V-577.51M-598.51 -577.51V-566.019M-598.51 -577.51H-610M-598.51 -577.51H-587.019M-598.51 -282.592V-271.102M-598.51 -271.102V-259.612M-598.51 -271.102H-610M-598.51 -271.102H-587.019M-598.51 23.8155V35.3058M-598.51 35.3058V46.7961M-598.51 35.3058H-610M-598.51 35.3058H-587.019M-292.102 -589V-577.51M-292.102 -577.51V-566.019M-292.102 -577.51H-303.592M-292.102 -577.51H-280.611M-292.102 -282.592V-271.102M-292.102 -271.102V-259.612M-292.102 -271.102H-303.592M-292.102 -271.102H-280.611M-292.102 23.8155V35.3058M-292.102 35.3058V46.7961M-292.102 35.3058H-303.592M-292.102 35.3058H-280.611M14.3061 -589V-577.51M14.3061 -577.51V-566.019M14.3061 -577.51H2.81582M14.3061 -577.51H25.7964M14.3061 -282.592V-271.102M14.3061 -271.102V-259.612M14.3061 -271.102H2.81582M14.3061 -271.102H25.7964M14.3061 23.8155V35.3058M14.3061 35.3058V46.7961M14.3061 35.3058H2.81582M14.3061 35.3058H25.7964M320.714 -589V-577.51M320.714 -577.51V-566.019M320.714 -577.51H309.224M320.714 -577.51H332.204M320.714 -282.592V-271.102M320.714 -271.102V-259.612M320.714 -271.102H309.224M320.714 -271.102H332.204M320.714 23.8155V35.3058M320.714 35.3058V46.7961M320.714 35.3058H309.224M320.714 35.3058H332.204M627.122 -589V-577.51M627.122 -577.51V-566.019M627.122 -577.51H615.632M627.122 -577.51H638.612M627.122 -282.592V-271.102M627.122 -271.102V-259.612M627.122 -271.102H615.632M627.122 -271.102H638.612M627.122 23.8155V35.3058M627.122 35.3058V46.7961M627.122 35.3058H615.632M627.122 35.3058H638.612M933.53 -589V-577.51M933.53 -577.51V-566.019M933.53 -577.51H922.039M933.53 -577.51H945.02M933.53 -282.592V-271.102M933.53 -271.102V-259.612M933.53 -271.102H922.039M933.53 -271.102H945.02M933.53 23.8155V35.3058M933.53 35.3058V46.7961M933.53 35.3058H922.039M933.53 35.3058H945.02" stroke="url(#paint0_radial_1345_5844)" stroke-opacity="0.72" stroke-width="0.876789"/>
</g>
<g style="mix-blend-mode:soft-light" opacity="0.7">
<path d="M-560.208 -577.509H-598.509V-539.208M-560.208 -577.509V-539.208M-560.208 -577.509H-521.907M-560.208 -539.208H-598.509M-560.208 -539.208V-500.907M-560.208 -539.208H-521.907M-598.509 -539.208V-500.907M-560.208 -500.907H-598.509M-560.208 -500.907V-462.606M-560.208 -500.907H-521.907M-598.509 -500.907V-462.606M-560.208 -462.606H-598.509M-560.208 -462.606V-424.305M-560.208 -462.606H-521.907M-598.509 -462.606V-424.305M-560.208 -424.305H-598.509M-560.208 -424.305V-386.004M-560.208 -424.305H-521.907M-598.509 -424.305V-386.004M-560.208 -386.004H-598.509M-560.208 -386.004V-347.703M-560.208 -386.004H-521.907M-598.509 -386.004V-347.703M-560.208 -347.703H-598.509M-560.208 -347.703V-309.402M-560.208 -347.703H-521.907M-598.509 -347.703V-309.402M-560.208 -309.402H-598.509M-560.208 -309.402V-271.101M-560.208 -309.402H-521.907M-598.509 -309.402V-271.101M-560.208 -271.101H-598.509M-560.208 -271.101V-232.8M-560.208 -271.101H-521.907M-598.509 -271.101V-232.8M-560.208 -232.8H-598.509M-560.208 -232.8V-194.499M-560.208 -232.8H-521.907M-598.509 -232.8V-194.499M-560.208 -194.499H-598.509M-560.208 -194.499V-156.198M-560.208 -194.499H-521.907M-598.509 -194.499V-156.198M-560.208 -156.198H-598.509M-560.208 -156.198V-117.897M-560.208 -156.198H-521.907M-598.509 -156.198V-117.897M-560.208 -117.897H-598.509M-560.208 -117.897V-79.5963M-560.208 -117.897H-521.907M-598.509 -117.897V-79.5963M-560.208 -79.5963H-598.509M-560.208 -79.5963V-41.2953M-560.208 -79.5963H-521.907M-598.509 -79.5963V-41.2953M-560.208 -41.2953H-598.509M-560.208 -41.2953V-2.99435M-560.208 -41.2953H-521.907M-598.509 -41.2953V-2.99435M-560.208 -2.99435H-598.509M-560.208 -2.99435V35.3066M-560.208 -2.99435H-521.907M-598.509 -2.99435V35.3066M-560.208 35.3066H-598.509M-560.208 35.3066V73.6076M-560.208 35.3066H-521.907M-598.509 35.3066V73.6076M-560.208 73.6076H-598.509M-560.208 73.6076V111.909M-560.208 73.6076H-521.907M-598.509 73.6076V111.909M-560.208 111.909H-598.509M-560.208 111.909V150.21M-560.208 111.909H-521.907M-598.509 111.909V150.21M-560.208 150.21H-598.509M-560.208 150.21V188.511M-560.208 150.21H-521.907M-598.509 150.21V188.511H-560.208M-560.208 188.511H-521.907M-521.907 -577.509V-539.208M-521.907 -577.509H-483.606M-521.907 -539.208V-500.907M-521.907 -539.208H-483.606M-521.907 -500.907V-462.606M-521.907 -500.907H-483.606M-521.907 -462.606V-424.305M-521.907 -462.606H-483.606M-521.907 -424.305V-386.004M-521.907 -424.305H-483.606M-521.907 -386.004V-347.703M-521.907 -386.004H-483.606M-521.907 -347.703V-309.402M-521.907 -347.703H-483.606M-521.907 -309.402V-271.101M-521.907 -309.402H-483.606M-521.907 -271.101V-232.8M-521.907 -271.101H-483.606M-521.907 -232.8V-194.499M-521.907 -232.8H-483.606M-521.907 -194.499V-156.198M-521.907 -194.499H-483.606M-521.907 -156.198V-117.897M-521.907 -156.198H-483.606M-521.907 -117.897V-79.5963M-521.907 -117.897H-483.606M-521.907 -79.5963V-41.2953M-521.907 -79.5963H-483.606M-521.907 -41.2953V-2.99435M-521.907 -41.2953H-483.606M-521.907 -2.99435V35.3066M-521.907 -2.99435H-483.606M-521.907 35.3066V73.6076M-521.907 35.3066H-483.606M-521.907 73.6076V111.909M-521.907 73.6076H-483.606M-521.907 111.909V150.21M-521.907 111.909H-483.606M-521.907 150.21V188.511M-521.907 150.21H-483.606M-521.907 188.511H-483.606M-483.606 -577.509V-539.208M-483.606 -577.509H-445.305M-483.606 -539.208V-500.907M-483.606 -539.208H-445.305M-483.606 -500.907V-462.606M-483.606 -500.907H-445.305M-483.606 -462.606V-424.305M-483.606 -462.606H-445.305M-483.606 -424.305V-386.004M-483.606 -424.305H-445.305M-483.606 -386.004V-347.703M-483.606 -386.004H-445.305M-483.606 -347.703V-309.402M-483.606 -347.703H-445.305M-483.606 -309.402V-271.101M-483.606 -309.402H-445.305M-483.606 -271.101V-232.8M-483.606 -271.101H-445.305M-483.606 -232.8V-194.499M-483.606 -232.8H-445.305M-483.606 -194.499V-156.198M-483.606 -194.499H-445.305M-483.606 -156.198V-117.897M-483.606 -156.198H-445.305M-483.606 -117.897V-79.5963M-483.606 -117.897H-445.305M-483.606 -79.5963V-41.2953M-483.606 -79.5963H-445.305M-483.606 -41.2953V-2.99435M-483.606 -41.2953H-445.305M-483.606 -2.99435V35.3066M-483.606 -2.99435H-445.305M-483.606 35.3066V73.6076M-483.606 35.3066H-445.305M-483.606 73.6076V111.909M-483.606 73.6076H-445.305M-483.606 111.909V150.21M-483.606 111.909H-445.305M-483.606 150.21V188.511M-483.606 150.21H-445.305M-483.606 188.511H-445.305M-445.305 -577.509V-539.208M-445.305 -577.509H-407.004M-445.305 -539.208V-500.907M-445.305 -539.208H-407.004M-445.305 -500.907V-462.606M-445.305 -500.907H-407.004M-445.305 -462.606V-424.305M-445.305 -462.606H-407.004M-445.305 -424.305V-386.004M-445.305 -424.305H-407.004M-445.305 -386.004V-347.703M-445.305 -386.004H-407.004M-445.305 -347.703V-309.402M-445.305 -347.703H-407.004M-445.305 -309.402V-271.101M-445.305 -309.402H-407.004M-445.305 -271.101V-232.8M-445.305 -271.101H-407.004M-445.305 -232.8V-194.499M-445.305 -232.8H-407.004M-445.305 -194.499V-156.198M-445.305 -194.499H-407.004M-445.305 -156.198V-117.897M-445.305 -156.198H-407.004M-445.305 -117.897V-79.5963M-445.305 -117.897H-407.004M-445.305 -79.5963V-41.2953M-445.305 -79.5963H-407.004M-445.305 -41.2953V-2.99435M-445.305 -41.2953H-407.004M-445.305 -2.99435V35.3066M-445.305 -2.99435H-407.004M-445.305 35.3066V73.6076M-445.305 35.3066H-407.004M-445.305 73.6076V111.909M-445.305 73.6076H-407.004M-445.305 111.909V150.21M-445.305 111.909H-407.004M-445.305 150.21V188.511M-445.305 150.21H-407.004M-445.305 188.511H-407.004M-407.004 -577.509V-539.208M-407.004 -577.509H-368.703M-407.004 -539.208V-500.907M-407.004 -539.208H-368.703M-407.004 -500.907V-462.606M-407.004 -500.907H-368.703M-407.004 -462.606V-424.305M-407.004 -462.606H-368.703M-407.004 -424.305V-386.004M-407.004 -424.305H-368.703M-407.004 -386.004V-347.703M-407.004 -386.004H-368.703M-407.004 -347.703V-309.402M-407.004 -347.703H-368.703M-407.004 -309.402V-271.101M-407.004 -309.402H-368.703M-407.004 -271.101V-232.8M-407.004 -271.101H-368.703M-407.004 -232.8V-194.499M-407.004 -232.8H-368.703M-407.004 -194.499V-156.198M-407.004 -194.499H-368.703M-407.004 -156.198V-117.897M-407.004 -156.198H-368.703M-407.004 -117.897V-79.5963M-407.004 -117.897H-368.703M-407.004 -79.5963V-41.2953M-407.004 -79.5963H-368.703M-407.004 -41.2953V-2.99435M-407.004 -41.2953H-368.703M-407.004 -2.99435V35.3066M-407.004 -2.99435H-368.703M-407.004 35.3066V73.6076M-407.004 35.3066H-368.703M-407.004 73.6076V111.909M-407.004 73.6076H-368.703M-407.004 111.909V150.21M-407.004 111.909H-368.703M-407.004 150.21V188.511M-407.004 150.21H-368.703M-407.004 188.511H-368.703M-368.703 -577.509V-539.208M-368.703 -577.509H-330.402M-368.703 -539.208V-500.907M-368.703 -539.208H-330.402M-368.703 -500.907V-462.606M-368.703 -500.907H-330.402M-368.703 -462.606V-424.305M-368.703 -462.606H-330.402M-368.703 -424.305V-386.004M-368.703 -424.305H-330.402M-368.703 -386.004V-347.703M-368.703 -386.004H-330.402M-368.703 -347.703V-309.402M-368.703 -347.703H-330.402M-368.703 -309.402V-271.101M-368.703 -309.402H-330.402M-368.703 -271.101V-232.8M-368.703 -271.101H-330.402M-368.703 -232.8V-194.499M-368.703 -232.8H-330.402M-368.703 -194.499V-156.198M-368.703 -194.499H-330.402M-368.703 -156.198V-117.897M-368.703 -156.198H-330.402M-368.703 -117.897V-79.5963M-368.703 -117.897H-330.402M-368.703 -79.5963V-41.2953M-368.703 -79.5963H-330.402M-368.703 -41.2953V-2.99435M-368.703 -41.2953H-330.402M-368.703 -2.99435V35.3066M-368.703 -2.99435H-330.402M-368.703 35.3066V73.6076M-368.703 35.3066H-330.402M-368.703 73.6076V111.909M-368.703 73.6076H-330.402M-368.703 111.909V150.21M-368.703 111.909H-330.402M-368.703 150.21V188.511M-368.703 150.21H-330.402M-368.703 188.511H-330.402M-330.402 -577.509V-539.208M-330.402 -577.509H-292.101M-330.402 -539.208V-500.907M-330.402 -539.208H-292.101M-330.402 -500.907V-462.606M-330.402 -500.907H-292.101M-330.402 -462.606V-424.305M-330.402 -462.606H-292.101M-330.402 -424.305V-386.004M-330.402 -424.305H-292.101M-330.402 -386.004V-347.703M-330.402 -386.004H-292.101M-330.402 -347.703V-309.402M-330.402 -347.703H-292.101M-330.402 -309.402V-271.101M-330.402 -309.402H-292.101M-330.402 -271.101V-232.8M-330.402 -271.101H-292.101M-330.402 -232.8V-194.499M-330.402 -232.8H-292.101M-330.402 -194.499V-156.198M-330.402 -194.499H-292.101M-330.402 -156.198V-117.897M-330.402 -156.198H-292.101M-330.402 -117.897V-79.5963M-330.402 -117.897H-292.101M-330.402 -79.5963V-41.2953M-330.402 -79.5963H-292.101M-330.402 -41.2953V-2.99435M-330.402 -41.2953H-292.101M-330.402 -2.99435V35.3066M-330.402 -2.99435H-292.101M-330.402 35.3066V73.6076M-330.402 35.3066H-292.101M-330.402 73.6076V111.909M-330.402 73.6076H-292.101M-330.402 111.909V150.21M-330.402 111.909H-292.101M-330.402 150.21V188.511M-330.402 150.21H-292.101M-330.402 188.511H-292.101M-292.101 -577.509V-539.208M-292.101 -577.509H-253.8M-292.101 -539.208V-500.907M-292.101 -539.208H-253.8M-292.101 -500.907V-462.606M-292.101 -500.907H-253.8M-292.101 -462.606V-424.305M-292.101 -462.606H-253.8M-292.101 -424.305V-386.004M-292.101 -424.305H-253.8M-292.101 -386.004V-347.703M-292.101 -386.004H-253.8M-292.101 -347.703V-309.402M-292.101 -347.703H-253.8M-292.101 -309.402V-271.101M-292.101 -309.402H-253.8M-292.101 -271.101V-232.8M-292.101 -271.101H-253.8M-292.101 -232.8V-194.499M-292.101 -232.8H-253.8M-292.101 -194.499V-156.198M-292.101 -194.499H-253.8M-292.101 -156.198V-117.897M-292.101 -156.198H-253.8M-292.101 -117.897V-79.5963M-292.101 -117.897H-253.8M-292.101 -79.5963V-41.2953M-292.101 -79.5963H-253.8M-292.101 -41.2953V-2.99435M-292.101 -41.2953H-253.8M-292.101 -2.99435V35.3066M-292.101 -2.99435H-253.8M-292.101 35.3066V73.6076M-292.101 35.3066H-253.8M-292.101 73.6076V111.909M-292.101 73.6076H-253.8M-292.101 111.909V150.21M-292.101 111.909H-253.8M-292.101 150.21V188.511M-292.101 150.21H-253.8M-292.101 188.511H-253.8M-253.8 -577.509V-539.208M-253.8 -577.509H-215.499M-253.8 -539.208V-500.907M-253.8 -539.208H-215.499M-253.8 -500.907V-462.606M-253.8 -500.907H-215.499M-253.8 -462.606V-424.305M-253.8 -462.606H-215.499M-253.8 -424.305V-386.004M-253.8 -424.305H-215.499M-253.8 -386.004V-347.703M-253.8 -386.004H-215.499M-253.8 -347.703V-309.402M-253.8 -347.703H-215.499M-253.8 -309.402V-271.101M-253.8 -309.402H-215.499M-253.8 -271.101V-232.8M-253.8 -271.101H-215.499M-253.8 -232.8V-194.499M-253.8 -232.8H-215.499M-253.8 -194.499V-156.198M-253.8 -194.499H-215.499M-253.8 -156.198V-117.897M-253.8 -156.198H-215.499M-253.8 -117.897V-79.5963M-253.8 -117.897H-215.499M-253.8 -79.5963V-41.2953M-253.8 -79.5963H-215.499M-253.8 -41.2953V-2.99435M-253.8 -41.2953H-215.499M-253.8 -2.99435V35.3066M-253.8 -2.99435H-215.499M-253.8 35.3066V73.6076M-253.8 35.3066H-215.499M-253.8 73.6076V111.909M-253.8 73.6076H-215.499M-253.8 111.909V150.21M-253.8 111.909H-215.499M-253.8 150.21V188.511M-253.8 150.21H-215.499M-253.8 188.511H-215.499M-215.499 -577.509V-539.208M-215.499 -577.509H-177.198M-215.499 -539.208V-500.907M-215.499 -539.208H-177.198M-215.499 -500.907V-462.606M-215.499 -500.907H-177.198M-215.499 -462.606V-424.305M-215.499 -462.606H-177.198M-215.499 -424.305V-386.004M-215.499 -424.305H-177.198M-215.499 -386.004V-347.703M-215.499 -386.004H-177.198M-215.499 -347.703V-309.402M-215.499 -347.703H-177.198M-215.499 -309.402V-271.101M-215.499 -309.402H-177.198M-215.499 -271.101V-232.8M-215.499 -271.101H-177.198M-215.499 -232.8V-194.499M-215.499 -232.8H-177.198M-215.499 -194.499V-156.198M-215.499 -194.499H-177.198M-215.499 -156.198V-117.897M-215.499 -156.198H-177.198M-215.499 -117.897V-79.5963M-215.499 -117.897H-177.198M-215.499 -79.5963V-41.2953M-215.499 -79.5963H-177.198M-215.499 -41.2953V-2.99435M-215.499 -41.2953H-177.198M-215.499 -2.99435V35.3066M-215.499 -2.99435H-177.198M-215.499 35.3066V73.6076M-215.499 35.3066H-177.198M-215.499 73.6076V111.909M-215.499 73.6076H-177.198M-215.499 111.909V150.21M-215.499 111.909H-177.198M-215.499 150.21V188.511M-215.499 150.21H-177.198M-215.499 188.511H-177.198M-177.198 -577.509V-539.208M-177.198 -577.509H-138.897M-177.198 -539.208V-500.907M-177.198 -539.208H-138.897M-177.198 -500.907V-462.606M-177.198 -500.907H-138.897M-177.198 -462.606V-424.305M-177.198 -462.606H-138.897M-177.198 -424.305V-386.004M-177.198 -424.305H-138.897M-177.198 -386.004V-347.703M-177.198 -386.004H-138.897M-177.198 -347.703V-309.402M-177.198 -347.703H-138.897M-177.198 -309.402V-271.101M-177.198 -309.402H-138.897M-177.198 -271.101V-232.8M-177.198 -271.101H-138.897M-177.198 -232.8V-194.499M-177.198 -232.8H-138.897M-177.198 -194.499V-156.198M-177.198 -194.499H-138.897M-177.198 -156.198V-117.897M-177.198 -156.198H-138.897M-177.198 -117.897V-79.5963M-177.198 -117.897H-138.897M-177.198 -79.5963V-41.2953M-177.198 -79.5963H-138.897M-177.198 -41.2953V-2.99435M-177.198 -41.2953H-138.897M-177.198 -2.99435V35.3066M-177.198 -2.99435H-138.897M-177.198 35.3066V73.6076M-177.198 35.3066H-138.897M-177.198 73.6076V111.909M-177.198 73.6076H-138.897M-177.198 111.909V150.21M-177.198 111.909H-138.897M-177.198 150.21V188.511M-177.198 150.21H-138.897M-177.198 188.511H-138.897M-138.897 -577.509V-539.208M-138.897 -577.509H-100.596M-138.897 -539.208V-500.907M-138.897 -539.208H-100.596M-138.897 -500.907V-462.606M-138.897 -500.907H-100.596M-138.897 -462.606V-424.305M-138.897 -462.606H-100.596M-138.897 -424.305V-386.004M-138.897 -424.305H-100.596M-138.897 -386.004V-347.703M-138.897 -386.004H-100.596M-138.897 -347.703V-309.402M-138.897 -347.703H-100.596M-138.897 -309.402V-271.101M-138.897 -309.402H-100.596M-138.897 -271.101V-232.8M-138.897 -271.101H-100.596M-138.897 -232.8V-194.499M-138.897 -232.8H-100.596M-138.897 -194.499V-156.198M-138.897 -194.499H-100.596M-138.897 -156.198V-117.897M-138.897 -156.198H-100.596M-138.897 -117.897V-79.5963M-138.897 -117.897H-100.596M-138.897 -79.5963V-41.2953M-138.897 -79.5963H-100.596M-138.897 -41.2953V-2.99435M-138.897 -41.2953H-100.596M-138.897 -2.99435V35.3066M-138.897 -2.99435H-100.596M-138.897 35.3066V73.6076M-138.897 35.3066H-100.596M-138.897 73.6076V111.909M-138.897 73.6076H-100.596M-138.897 111.909V150.21M-138.897 111.909H-100.596M-138.897 150.21V188.511M-138.897 150.21H-100.596M-138.897 188.511H-100.596M-100.596 -577.509V-539.208M-100.596 -577.509H-62.2955M-100.596 -539.208V-500.907M-100.596 -539.208H-62.2955M-100.596 -500.907V-462.606M-100.596 -500.907H-62.2955M-100.596 -462.606V-424.305M-100.596 -462.606H-62.2955M-100.596 -424.305V-386.004M-100.596 -424.305H-62.2955M-100.596 -386.004V-347.703M-100.596 -386.004H-62.2955M-100.596 -347.703V-309.402M-100.596 -347.703H-62.2955M-100.596 -309.402V-271.101M-100.596 -309.402H-62.2955M-100.596 -271.101V-232.8M-100.596 -271.101H-62.2955M-100.596 -232.8V-194.499M-100.596 -232.8H-62.2955M-100.596 -194.499V-156.198M-100.596 -194.499H-62.2955M-100.596 -156.198V-117.897M-100.596 -156.198H-62.2955M-100.596 -117.897V-79.5963M-100.596 -117.897H-62.2955M-100.596 -79.5963V-41.2953M-100.596 -79.5963H-62.2955M-100.596 -41.2953V-2.99435M-100.596 -41.2953H-62.2955M-100.596 -2.99435V35.3066M-100.596 -2.99435H-62.2955M-100.596 35.3066V73.6076M-100.596 35.3066H-62.2955M-100.596 73.6076V111.909M-100.596 73.6076H-62.2955M-100.596 111.909V150.21M-100.596 111.909H-62.2955M-100.596 150.21V188.511M-100.596 150.21H-62.2955M-100.596 188.511H-62.2955M-62.2955 -577.509V-539.208M-62.2955 -577.509H-23.9945M-62.2955 -539.208V-500.907M-62.2955 -539.208H-23.9945M-62.2955 -500.907V-462.606M-62.2955 -500.907H-23.9945M-62.2955 -462.606V-424.305M-62.2955 -462.606H-23.9945M-62.2955 -424.305V-386.004M-62.2955 -424.305H-23.9945M-62.2955 -386.004V-347.703M-62.2955 -386.004H-23.9945M-62.2955 -347.703V-309.402M-62.2955 -347.703H-23.9945M-62.2955 -309.402V-271.101M-62.2955 -309.402H-23.9945M-62.2955 -271.101V-232.8M-62.2955 -271.101H-23.9945M-62.2955 -232.8V-194.499M-62.2955 -232.8H-23.9945M-62.2955 -194.499V-156.198M-62.2955 -194.499H-23.9945M-62.2955 -156.198V-117.897M-62.2955 -156.198H-23.9945M-62.2955 -117.897V-79.5963M-62.2955 -117.897H-23.9945M-62.2955 -79.5963V-41.2953M-62.2955 -79.5963H-23.9945M-62.2955 -41.2953V-2.99435M-62.2955 -41.2953H-23.9945M-62.2955 -2.99435V35.3066M-62.2955 -2.99435H-23.9945M-62.2955 35.3066V73.6076M-62.2955 35.3066H-23.9945M-62.2955 73.6076V111.909M-62.2955 73.6076H-23.9945M-62.2955 111.909V150.21M-62.2955 111.909H-23.9945M-62.2955 150.21V188.511M-62.2955 150.21H-23.9945M-62.2955 188.511H-23.9945M-23.9945 -577.509V-539.208M-23.9945 -577.509H14.3065M-23.9945 -539.208V-500.907M-23.9945 -539.208H14.3065M-23.9945 -500.907V-462.606M-23.9945 -500.907H14.3065M-23.9945 -462.606V-424.305M-23.9945 -462.606H14.3065M-23.9945 -424.305V-386.004M-23.9945 -424.305H14.3065M-23.9945 -386.004V-347.703M-23.9945 -386.004H14.3065M-23.9945 -347.703V-309.402M-23.9945 -347.703H14.3065M-23.9945 -309.402V-271.101M-23.9945 -309.402H14.3065M-23.9945 -271.101V-232.8M-23.9945 -271.101H14.3065M-23.9945 -232.8V-194.499M-23.9945 -232.8H14.3065M-23.9945 -194.499V-156.198M-23.9945 -194.499H14.3065M-23.9945 -156.198V-117.897M-23.9945 -156.198H14.3065M-23.9945 -117.897V-79.5963M-23.9945 -117.897H14.3065M-23.9945 -79.5963V-41.2953M-23.9945 -79.5963H14.3065M-23.9945 -41.2953V-2.99435M-23.9945 -41.2953H14.3065M-23.9945 -2.99435V35.3066M-23.9945 -2.99435H14.3065M-23.9945 35.3066V73.6076M-23.9945 35.3066H14.3065M-23.9945 73.6076V111.909M-23.9945 73.6076H14.3065M-23.9945 111.909V150.21M-23.9945 111.909H14.3065M-23.9945 150.21V188.511M-23.9945 150.21H14.3065M-23.9945 188.511H14.3065M14.3065 -577.509V-539.208M14.3065 -577.509H52.6075M14.3065 -539.208V-500.907M14.3065 -539.208H52.6075M14.3065 -500.907V-462.606M14.3065 -500.907H52.6075M14.3065 -462.606V-424.305M14.3065 -462.606H52.6075M14.3065 -424.305V-386.004M14.3065 -424.305H52.6075M14.3065 -386.004V-347.703M14.3065 -386.004H52.6075M14.3065 -347.703V-309.402M14.3065 -347.703H52.6075M14.3065 -309.402V-271.101M14.3065 -309.402H52.6075M14.3065 -271.101V-232.8M14.3065 -271.101H52.6075M14.3065 -232.8V-194.499M14.3065 -232.8H52.6075M14.3065 -194.499V-156.198M14.3065 -194.499H52.6075M14.3065 -156.198V-117.897M14.3065 -156.198H52.6075M14.3065 -117.897V-79.5963M14.3065 -117.897H52.6075M14.3065 -79.5963V-41.2953M14.3065 -79.5963H52.6075M14.3065 -41.2953V-2.99435M14.3065 -41.2953H52.6075M14.3065 -2.99435V35.3066M14.3065 -2.99435H52.6075M14.3065 35.3066V73.6076M14.3065 35.3066H52.6075M14.3065 73.6076V111.909M14.3065 73.6076H52.6075M14.3065 111.909V150.21M14.3065 111.909H52.6075M14.3065 150.21V188.511M14.3065 150.21H52.6075M14.3065 188.511H52.6075M52.6075 -577.509V-539.208M52.6075 -577.509H90.9085M52.6075 -539.208V-500.907M52.6075 -539.208H90.9085M52.6075 -500.907V-462.606M52.6075 -500.907H90.9085M52.6075 -462.606V-424.305M52.6075 -462.606H90.9085M52.6075 -424.305V-386.004M52.6075 -424.305H90.9085M52.6075 -386.004V-347.703M52.6075 -386.004H90.9085M52.6075 -347.703V-309.402M52.6075 -347.703H90.9085M52.6075 -309.402V-271.101M52.6075 -309.402H90.9085M52.6075 -271.101V-232.8M52.6075 -271.101H90.9085M52.6075 -232.8V-194.499M52.6075 -232.8H90.9085M52.6075 -194.499V-156.198M52.6075 -194.499H90.9085M52.6075 -156.198V-117.897M52.6075 -156.198H90.9085M52.6075 -117.897V-79.5963M52.6075 -117.897H90.9085M52.6075 -79.5963V-41.2953M52.6075 -79.5963H90.9085M52.6075 -41.2953V-2.99435M52.6075 -41.2953H90.9085M52.6075 -2.99435V35.3066M52.6075 -2.99435H90.9085M52.6075 35.3066V73.6076M52.6075 35.3066H90.9085M52.6075 73.6076V111.909M52.6075 73.6076H90.9085M52.6075 111.909V150.21M52.6075 111.909H90.9085M52.6075 150.21V188.511M52.6075 150.21H90.9085M52.6075 188.511H90.9085M90.9085 -577.509V-539.208M90.9085 -577.509H129.209M90.9085 -539.208V-500.907M90.9085 -539.208H129.209M90.9085 -500.907V-462.606M90.9085 -500.907H129.209M90.9085 -462.606V-424.305M90.9085 -462.606H129.209M90.9085 -424.305V-386.004M90.9085 -424.305H129.209M90.9085 -386.004V-347.703M90.9085 -386.004H129.209M90.9085 -347.703V-309.402M90.9085 -347.703H129.209M90.9085 -309.402V-271.101M90.9085 -309.402H129.209M90.9085 -271.101V-232.8M90.9085 -271.101H129.209M90.9085 -232.8V-194.499M90.9085 -232.8H129.209M90.9085 -194.499V-156.198M90.9085 -194.499H129.209M90.9085 -156.198V-117.897M90.9085 -156.198H129.209M90.9085 -117.897V-79.5963M90.9085 -117.897H129.209M90.9085 -79.5963V-41.2953M90.9085 -79.5963H129.209M90.9085 -41.2953V-2.99435M90.9085 -41.2953H129.209M90.9085 -2.99435V35.3066M90.9085 -2.99435H129.209M90.9085 35.3066V73.6076M90.9085 35.3066H129.209M90.9085 73.6076V111.909M90.9085 73.6076H129.209M90.9085 111.909V150.21M90.9085 111.909H129.209M90.9085 150.21V188.511M90.9085 150.21H129.209M90.9085 188.511H129.209M129.209 -577.509V-539.208M129.209 -577.509H167.51M129.209 -539.208V-500.907M129.209 -539.208H167.51M129.209 -500.907V-462.606M129.209 -500.907H167.51M129.209 -462.606V-424.305M129.209 -462.606H167.51M129.209 -424.305V-386.004M129.209 -424.305H167.51M129.209 -386.004V-347.703M129.209 -386.004H167.51M129.209 -347.703V-309.402M129.209 -347.703H167.51M129.209 -309.402V-271.101M129.209 -309.402H167.51M129.209 -271.101V-232.8M129.209 -271.101H167.51M129.209 -232.8V-194.499M129.209 -232.8H167.51M129.209 -194.499V-156.198M129.209 -194.499H167.51M129.209 -156.198V-117.897M129.209 -156.198H167.51M129.209 -117.897V-79.5963M129.209 -117.897H167.51M129.209 -79.5963V-41.2953M129.209 -79.5963H167.51M129.209 -41.2953V-2.99435M129.209 -41.2953H167.51M129.209 -2.99435V35.3066M129.209 -2.99435H167.51M129.209 35.3066V73.6076M129.209 35.3066H167.51M129.209 73.6076V111.909M129.209 73.6076H167.51M129.209 111.909V150.21M129.209 111.909H167.51M129.209 150.21V188.511M129.209 150.21H167.51M129.209 188.511H167.51M167.51 -577.509V-539.208M167.51 -577.509H205.811M167.51 -539.208V-500.907M167.51 -539.208H205.811M167.51 -500.907V-462.606M167.51 -500.907H205.811M167.51 -462.606V-424.305M167.51 -462.606H205.811M167.51 -424.305V-386.004M167.51 -424.305H205.811M167.51 -386.004V-347.703M167.51 -386.004H205.811M167.51 -347.703V-309.402M167.51 -347.703H205.811M167.51 -309.402V-271.101M167.51 -309.402H205.811M167.51 -271.101V-232.8M167.51 -271.101H205.811M167.51 -232.8V-194.499M167.51 -232.8H205.811M167.51 -194.499V-156.198M167.51 -194.499H205.811M167.51 -156.198V-117.897M167.51 -156.198H205.811M167.51 -117.897V-79.5963M167.51 -117.897H205.811M167.51 -79.5963V-41.2953M167.51 -79.5963H205.811M167.51 -41.2953V-2.99435M167.51 -41.2953H205.811M167.51 -2.99435V35.3066M167.51 -2.99435H205.811M167.51 35.3066V73.6076M167.51 35.3066H205.811M167.51 73.6076V111.909M167.51 73.6076H205.811M167.51 111.909V150.21M167.51 111.909H205.811M167.51 150.21V188.511M167.51 150.21H205.811M167.51 188.511H205.811M205.811 -577.509V-539.208M205.811 -577.509H244.112M205.811 -539.208V-500.907M205.811 -539.208H244.112M205.811 -500.907V-462.606M205.811 -500.907H244.112M205.811 -462.606V-424.305M205.811 -462.606H244.112M205.811 -424.305V-386.004M205.811 -424.305H244.112M205.811 -386.004V-347.703M205.811 -386.004H244.112M205.811 -347.703V-309.402M205.811 -347.703H244.112M205.811 -309.402V-271.101M205.811 -309.402H244.112M205.811 -271.101V-232.8M205.811 -271.101H244.112M205.811 -232.8V-194.499M205.811 -232.8H244.112M205.811 -194.499V-156.198M205.811 -194.499H244.112M205.811 -156.198V-117.897M205.811 -156.198H244.112M205.811 -117.897V-79.5963M205.811 -117.897H244.112M205.811 -79.5963V-41.2953M205.811 -79.5963H244.112M205.811 -41.2953V-2.99435M205.811 -41.2953H244.112M205.811 -2.99435V35.3066M205.811 -2.99435H244.112M205.811 35.3066V73.6076M205.811 35.3066H244.112M205.811 73.6076V111.909M205.811 73.6076H244.112M205.811 111.909V150.21M205.811 111.909H244.112M205.811 150.21V188.511M205.811 150.21H244.112M205.811 188.511H244.112M244.112 -577.509V-539.208M244.112 -577.509H282.413M244.112 -539.208V-500.907M244.112 -539.208H282.413M244.112 -500.907V-462.606M244.112 -500.907H282.413M244.112 -462.606V-424.305M244.112 -462.606H282.413M244.112 -424.305V-386.004M244.112 -424.305H282.413M244.112 -386.004V-347.703M244.112 -386.004H282.413M244.112 -347.703V-309.402M244.112 -347.703H282.413M244.112 -309.402V-271.101M244.112 -309.402H282.413M244.112 -271.101V-232.8M244.112 -271.101H282.413M244.112 -232.8V-194.499M244.112 -232.8H282.413M244.112 -194.499V-156.198M244.112 -194.499H282.413M244.112 -156.198V-117.897M244.112 -156.198H282.413M244.112 -117.897V-79.5963M244.112 -117.897H282.413M244.112 -79.5963V-41.2953M244.112 -79.5963H282.413M244.112 -41.2953V-2.99435M244.112 -41.2953H282.413M244.112 -2.99435V35.3066M244.112 -2.99435H282.413M244.112 35.3066V73.6076M244.112 35.3066H282.413M244.112 73.6076V111.909M244.112 73.6076H282.413M244.112 111.909V150.21M244.112 111.909H282.413M244.112 150.21V188.511M244.112 150.21H282.413M244.112 188.511H282.413M282.413 -577.509V-539.208M282.413 -577.509H320.714M282.413 -539.208V-500.907M282.413 -539.208H320.714M282.413 -500.907V-462.606M282.413 -500.907H320.714M282.413 -462.606V-424.305M282.413 -462.606H320.714M282.413 -424.305V-386.004M282.413 -424.305H320.714M282.413 -386.004V-347.703M282.413 -386.004H320.714M282.413 -347.703V-309.402M282.413 -347.703H320.714M282.413 -309.402V-271.101M282.413 -309.402H320.714M282.413 -271.101V-232.8M282.413 -271.101H320.714M282.413 -232.8V-194.499M282.413 -232.8H320.714M282.413 -194.499V-156.198M282.413 -194.499H320.714M282.413 -156.198V-117.897M282.413 -156.198H320.714M282.413 -117.897V-79.5963M282.413 -117.897H320.714M282.413 -79.5963V-41.2953M282.413 -79.5963H320.714M282.413 -41.2953V-2.99435M282.413 -41.2953H320.714M282.413 -2.99435V35.3066M282.413 -2.99435H320.714M282.413 35.3066V73.6076M282.413 35.3066H320.714M282.413 73.6076V111.909M282.413 73.6076H320.714M282.413 111.909V150.21M282.413 111.909H320.714M282.413 150.21V188.511M282.413 150.21H320.714M282.413 188.511H320.714M320.714 -577.509V-539.208M320.714 -577.509H359.015M320.714 -539.208V-500.907M320.714 -539.208H359.015M320.714 -500.907V-462.606M320.714 -500.907H359.015M320.714 -462.606V-424.305M320.714 -462.606H359.015M320.714 -424.305V-386.004M320.714 -424.305H359.015M320.714 -386.004V-347.703M320.714 -386.004H359.015M320.714 -347.703V-309.402M320.714 -347.703H359.015M320.714 -309.402V-271.101M320.714 -309.402H359.015M320.714 -271.101V-232.8M320.714 -271.101H359.015M320.714 -232.8V-194.499M320.714 -232.8H359.015M320.714 -194.499V-156.198M320.714 -194.499H359.015M320.714 -156.198V-117.897M320.714 -156.198H359.015M320.714 -117.897V-79.5963M320.714 -117.897H359.015M320.714 -79.5963V-41.2953M320.714 -79.5963H359.015M320.714 -41.2953V-2.99435M320.714 -41.2953H359.015M320.714 -2.99435V35.3066M320.714 -2.99435H359.015M320.714 35.3066V73.6076M320.714 35.3066H359.015M320.714 73.6076V111.909M320.714 73.6076H359.015M320.714 111.909V150.21M320.714 111.909H359.015M320.714 150.21V188.511M320.714 150.21H359.015M320.714 188.511H359.015M359.015 -577.509V-539.208M359.015 -577.509H397.316M359.015 -539.208V-500.907M359.015 -539.208H397.316M359.015 -500.907V-462.606M359.015 -500.907H397.316M359.015 -462.606V-424.305M359.015 -462.606H397.316M359.015 -424.305V-386.004M359.015 -424.305H397.316M359.015 -386.004V-347.703M359.015 -386.004H397.316M359.015 -347.703V-309.402M359.015 -347.703H397.316M359.015 -309.402V-271.101M359.015 -309.402H397.316M359.015 -271.101V-232.8M359.015 -271.101H397.316M359.015 -232.8V-194.499M359.015 -232.8H397.316M359.015 -194.499V-156.198M359.015 -194.499H397.316M359.015 -156.198V-117.897M359.015 -156.198H397.316M359.015 -117.897V-79.5963M359.015 -117.897H397.316M359.015 -79.5963V-41.2953M359.015 -79.5963H397.316M359.015 -41.2953V-2.99435M359.015 -41.2953H397.316M359.015 -2.99435V35.3066M359.015 -2.99435H397.316M359.015 35.3066V73.6076M359.015 35.3066H397.316M359.015 73.6076V111.909M359.015 73.6076H397.316M359.015 111.909V150.21M359.015 111.909H397.316M359.015 150.21V188.511M359.015 150.21H397.316M359.015 188.511H397.316M397.316 -577.509V-539.208M397.316 -577.509H435.617M397.316 -539.208V-500.907M397.316 -539.208H435.617M397.316 -500.907V-462.606M397.316 -500.907H435.617M397.316 -462.606V-424.305M397.316 -462.606H435.617M397.316 -424.305V-386.004M397.316 -424.305H435.617M397.316 -386.004V-347.703M397.316 -386.004H435.617M397.316 -347.703V-309.402M397.316 -347.703H435.617M397.316 -309.402V-271.101M397.316 -309.402H435.617M397.316 -271.101V-232.8M397.316 -271.101H435.617M397.316 -232.8V-194.499M397.316 -232.8H435.617M397.316 -194.499V-156.198M397.316 -194.499H435.617M397.316 -156.198V-117.897M397.316 -156.198H435.617M397.316 -117.897V-79.5963M397.316 -117.897H435.617M397.316 -79.5963V-41.2953M397.316 -79.5963H435.617M397.316 -41.2953V-2.99435M397.316 -41.2953H435.617M397.316 -2.99435V35.3066M397.316 -2.99435H435.617M397.316 35.3066V73.6076M397.316 35.3066H435.617M397.316 73.6076V111.909M397.316 73.6076H435.617M397.316 111.909V150.21M397.316 111.909H435.617M397.316 150.21V188.511M397.316 150.21H435.617M397.316 188.511H435.617M435.617 -577.509V-539.208M435.617 -577.509H473.918M435.617 -539.208V-500.907M435.617 -539.208H473.918M435.617 -500.907V-462.606M435.617 -500.907H473.918M435.617 -462.606V-424.305M435.617 -462.606H473.918M435.617 -424.305V-386.004M435.617 -424.305H473.918M435.617 -386.004V-347.703M435.617 -386.004H473.918M435.617 -347.703V-309.402M435.617 -347.703H473.918M435.617 -309.402V-271.101M435.617 -309.402H473.918M435.617 -271.101V-232.8M435.617 -271.101H473.918M435.617 -232.8V-194.499M435.617 -232.8H473.918M435.617 -194.499V-156.198M435.617 -194.499H473.918M435.617 -156.198V-117.897M435.617 -156.198H473.918M435.617 -117.897V-79.5963M435.617 -117.897H473.918M435.617 -79.5963V-41.2953M435.617 -79.5963H473.918M435.617 -41.2953V-2.99435M435.617 -41.2953H473.918M435.617 -2.99435V35.3066M435.617 -2.99435H473.918M435.617 35.3066V73.6076M435.617 35.3066H473.918M435.617 73.6076V111.909M435.617 73.6076H473.918M435.617 111.909V150.21M435.617 111.909H473.918M435.617 150.21V188.511M435.617 150.21H473.918M435.617 188.511H473.918M473.918 -577.509V-539.208M473.918 -577.509H512.219M473.918 -539.208V-500.907M473.918 -539.208H512.219M473.918 -500.907V-462.606M473.918 -500.907H512.219M473.918 -462.606V-424.305M473.918 -462.606H512.219M473.918 -424.305V-386.004M473.918 -424.305H512.219M473.918 -386.004V-347.703M473.918 -386.004H512.219M473.918 -347.703V-309.402M473.918 -347.703H512.219M473.918 -309.402V-271.101M473.918 -309.402H512.219M473.918 -271.101V-232.8M473.918 -271.101H512.219M473.918 -232.8V-194.499M473.918 -232.8H512.219M473.918 -194.499V-156.198M473.918 -194.499H512.219M473.918 -156.198V-117.897M473.918 -156.198H512.219M473.918 -117.897V-79.5963M473.918 -117.897H512.219M473.918 -79.5963V-41.2953M473.918 -79.5963H512.219M473.918 -41.2953V-2.99435M473.918 -41.2953H512.219M473.918 -2.99435V35.3066M473.918 -2.99435H512.219M473.918 35.3066V73.6076M473.918 35.3066H512.219M473.918 73.6076V111.909M473.918 73.6076H512.219M473.918 111.909V150.21M473.918 111.909H512.219M473.918 150.21V188.511M473.918 150.21H512.219M473.918 188.511H512.219M512.219 -577.509V-539.208M512.219 -577.509H550.52M512.219 -539.208V-500.907M512.219 -539.208H550.52M512.219 -500.907V-462.606M512.219 -500.907H550.52M512.219 -462.606V-424.305M512.219 -462.606H550.52M512.219 -424.305V-386.004M512.219 -424.305H550.52M512.219 -386.004V-347.703M512.219 -386.004H550.52M512.219 -347.703V-309.402M512.219 -347.703H550.52M512.219 -309.402V-271.101M512.219 -309.402H550.52M512.219 -271.101V-232.8M512.219 -271.101H550.52M512.219 -232.8V-194.499M512.219 -232.8H550.52M512.219 -194.499V-156.198M512.219 -194.499H550.52M512.219 -156.198V-117.897M512.219 -156.198H550.52M512.219 -117.897V-79.5963M512.219 -117.897H550.52M512.219 -79.5963V-41.2953M512.219 -79.5963H550.52M512.219 -41.2953V-2.99435M512.219 -41.2953H550.52M512.219 -2.99435V35.3066M512.219 -2.99435H550.52M512.219 35.3066V73.6076M512.219 35.3066H550.52M512.219 73.6076V111.909M512.219 73.6076H550.52M512.219 111.909V150.21M512.219 111.909H550.52M512.219 150.21V188.511M512.219 150.21H550.52M512.219 188.511H550.52M550.52 -577.509V-539.208M550.52 -577.509H588.821M550.52 -539.208V-500.907M550.52 -539.208H588.821M550.52 -500.907V-462.606M550.52 -500.907H588.821M550.52 -462.606V-424.305M550.52 -462.606H588.821M550.52 -424.305V-386.004M550.52 -424.305H588.821M550.52 -386.004V-347.703M550.52 -386.004H588.821M550.52 -347.703V-309.402M550.52 -347.703H588.821M550.52 -309.402V-271.101M550.52 -309.402H588.821M550.52 -271.101V-232.8M550.52 -271.101H588.821M550.52 -232.8V-194.499M550.52 -232.8H588.821M550.52 -194.499V-156.198M550.52 -194.499H588.821M550.52 -156.198V-117.897M550.52 -156.198H588.821M550.52 -117.897V-79.5963M550.52 -117.897H588.821M550.52 -79.5963V-41.2953M550.52 -79.5963H588.821M550.52 -41.2953V-2.99435M550.52 -41.2953H588.821M550.52 -2.99435V35.3066M550.52 -2.99435H588.821M550.52 35.3066V73.6076M550.52 35.3066H588.821M550.52 73.6076V111.909M550.52 73.6076H588.821M550.52 111.909V150.21M550.52 111.909H588.821M550.52 150.21V188.511M550.52 150.21H588.821M550.52 188.511H588.821M588.821 -577.509V-539.208M588.821 -577.509H627.122M588.821 -539.208V-500.907M588.821 -539.208H627.122M588.821 -500.907V-462.606M588.821 -500.907H627.122M588.821 -462.606V-424.305M588.821 -462.606H627.122M588.821 -424.305V-386.004M588.821 -424.305H627.122M588.821 -386.004V-347.703M588.821 -386.004H627.122M588.821 -347.703V-309.402M588.821 -347.703H627.122M588.821 -309.402V-271.101M588.821 -309.402H627.122M588.821 -271.101V-232.8M588.821 -271.101H627.122M588.821 -232.8V-194.499M588.821 -232.8H627.122M588.821 -194.499V-156.198M588.821 -194.499H627.122M588.821 -156.198V-117.897M588.821 -156.198H627.122M588.821 -117.897V-79.5963M588.821 -117.897H627.122M588.821 -79.5963V-41.2953M588.821 -79.5963H627.122M588.821 -41.2953V-2.99435M588.821 -41.2953H627.122M588.821 -2.99435V35.3066M588.821 -2.99435H627.122M588.821 35.3066V73.6076M588.821 35.3066H627.122M588.821 73.6076V111.909M588.821 73.6076H627.122M588.821 111.909V150.21M588.821 111.909H627.122M588.821 150.21V188.511M588.821 150.21H627.122M588.821 188.511H627.122M627.122 -577.509V-539.208M627.122 -577.509H665.423M627.122 -539.208V-500.907M627.122 -539.208H665.423M627.122 -500.907V-462.606M627.122 -500.907H665.423M627.122 -462.606V-424.305M627.122 -462.606H665.423M627.122 -424.305V-386.004M627.122 -424.305H665.423M627.122 -386.004V-347.703M627.122 -386.004H665.423M627.122 -347.703V-309.402M627.122 -347.703H665.423M627.122 -309.402V-271.101M627.122 -309.402H665.423M627.122 -271.101V-232.8M627.122 -271.101H665.423M627.122 -232.8V-194.499M627.122 -232.8H665.423M627.122 -194.499V-156.198M627.122 -194.499H665.423M627.122 -156.198V-117.897M627.122 -156.198H665.423M627.122 -117.897V-79.5963M627.122 -117.897H665.423M627.122 -79.5963V-41.2953M627.122 -79.5963H665.423M627.122 -41.2953V-2.99435M627.122 -41.2953H665.423M627.122 -2.99435V35.3066M627.122 -2.99435H665.423M627.122 35.3066V73.6076M627.122 35.3066H665.423M627.122 73.6076V111.909M627.122 73.6076H665.423M627.122 111.909V150.21M627.122 111.909H665.423M627.122 150.21V188.511M627.122 150.21H665.423M627.122 188.511H665.423M665.423 -577.509V-539.208M665.423 -577.509H703.724M665.423 -539.208V-500.907M665.423 -539.208H703.724M665.423 -500.907V-462.606M665.423 -500.907H703.724M665.423 -462.606V-424.305M665.423 -462.606H703.724M665.423 -424.305V-386.004M665.423 -424.305H703.724M665.423 -386.004V-347.703M665.423 -386.004H703.724M665.423 -347.703V-309.402M665.423 -347.703H703.724M665.423 -309.402V-271.101M665.423 -309.402H703.724M665.423 -271.101V-232.8M665.423 -271.101H703.724M665.423 -232.8V-194.499M665.423 -232.8H703.724M665.423 -194.499V-156.198M665.423 -194.499H703.724M665.423 -156.198V-117.897M665.423 -156.198H703.724M665.423 -117.897V-79.5963M665.423 -117.897H703.724M665.423 -79.5963V-41.2953M665.423 -79.5963H703.724M665.423 -41.2953V-2.99435M665.423 -41.2953H703.724M665.423 -2.99435V35.3066M665.423 -2.99435H703.724M665.423 35.3066V73.6076M665.423 35.3066H703.724M665.423 73.6076V111.909M665.423 73.6076H703.724M665.423 111.909V150.21M665.423 111.909H703.724M665.423 150.21V188.511M665.423 150.21H703.724M665.423 188.511H703.724M703.724 -577.509V-539.208M703.724 -577.509H742.025M703.724 -539.208V-500.907M703.724 -539.208H742.025M703.724 -500.907V-462.606M703.724 -500.907H742.025M703.724 -462.606V-424.305M703.724 -462.606H742.025M703.724 -424.305V-386.004M703.724 -424.305H742.025M703.724 -386.004V-347.703M703.724 -386.004H742.025M703.724 -347.703V-309.402M703.724 -347.703H742.025M703.724 -309.402V-271.101M703.724 -309.402H742.025M703.724 -271.101V-232.8M703.724 -271.101H742.025M703.724 -232.8V-194.499M703.724 -232.8H742.025M703.724 -194.499V-156.198M703.724 -194.499H742.025M703.724 -156.198V-117.897M703.724 -156.198H742.025M703.724 -117.897V-79.5963M703.724 -117.897H742.025M703.724 -79.5963V-41.2953M703.724 -79.5963H742.025M703.724 -41.2953V-2.99435M703.724 -41.2953H742.025M703.724 -2.99435V35.3066M703.724 -2.99435H742.025M703.724 35.3066V73.6076M703.724 35.3066H742.025M703.724 73.6076V111.909M703.724 73.6076H742.025M703.724 111.909V150.21M703.724 111.909H742.025M703.724 150.21V188.511M703.724 150.21H742.025M703.724 188.511H742.025M742.025 -577.509V-539.208M742.025 -577.509H780.326M742.025 -539.208V-500.907M742.025 -539.208H780.326M742.025 -500.907V-462.606M742.025 -500.907H780.326M742.025 -462.606V-424.305M742.025 -462.606H780.326M742.025 -424.305V-386.004M742.025 -424.305H780.326M742.025 -386.004V-347.703M742.025 -386.004H780.326M742.025 -347.703V-309.402M742.025 -347.703H780.326M742.025 -309.402V-271.101M742.025 -309.402H780.326M742.025 -271.101V-232.8M742.025 -271.101H780.326M742.025 -232.8V-194.499M742.025 -232.8H780.326M742.025 -194.499V-156.198M742.025 -194.499H780.326M742.025 -156.198V-117.897M742.025 -156.198H780.326M742.025 -117.897V-79.5963M742.025 -117.897H780.326M742.025 -79.5963V-41.2953M742.025 -79.5963H780.326M742.025 -41.2953V-2.99435M742.025 -41.2953H780.326M742.025 -2.99435V35.3066M742.025 -2.99435H780.326M742.025 35.3066V73.6076M742.025 35.3066H780.326M742.025 73.6076V111.909M742.025 73.6076H780.326M742.025 111.909V150.21M742.025 111.909H780.326M742.025 150.21V188.511M742.025 150.21H780.326M742.025 188.511H780.326M780.326 -577.509V-539.208M780.326 -577.509H818.627M780.326 -539.208V-500.907M780.326 -539.208H818.627M780.326 -500.907V-462.606M780.326 -500.907H818.627M780.326 -462.606V-424.305M780.326 -462.606H818.627M780.326 -424.305V-386.004M780.326 -424.305H818.627M780.326 -386.004V-347.703M780.326 -386.004H818.627M780.326 -347.703V-309.402M780.326 -347.703H818.627M780.326 -309.402V-271.101M780.326 -309.402H818.627M780.326 -271.101V-232.8M780.326 -271.101H818.627M780.326 -232.8V-194.499M780.326 -232.8H818.627M780.326 -194.499V-156.198M780.326 -194.499H818.627M780.326 -156.198V-117.897M780.326 -156.198H818.627M780.326 -117.897V-79.5963M780.326 -117.897H818.627M780.326 -79.5963V-41.2953M780.326 -79.5963H818.627M780.326 -41.2953V-2.99435M780.326 -41.2953H818.627M780.326 -2.99435V35.3066M780.326 -2.99435H818.627M780.326 35.3066V73.6076M780.326 35.3066H818.627M780.326 73.6076V111.909M780.326 73.6076H818.627M780.326 111.909V150.21M780.326 111.909H818.627M780.326 150.21V188.511M780.326 150.21H818.627M780.326 188.511H818.627M818.627 -577.509V-539.208M818.627 -577.509H856.928M818.627 -539.208V-500.907M818.627 -539.208H856.928M818.627 -500.907V-462.606M818.627 -500.907H856.928M818.627 -462.606V-424.305M818.627 -462.606H856.928M818.627 -424.305V-386.004M818.627 -424.305H856.928M818.627 -386.004V-347.703M818.627 -386.004H856.928M818.627 -347.703V-309.402M818.627 -347.703H856.928M818.627 -309.402V-271.101M818.627 -309.402H856.928M818.627 -271.101V-232.8M818.627 -271.101H856.928M818.627 -232.8V-194.499M818.627 -232.8H856.928M818.627 -194.499V-156.198M818.627 -194.499H856.928M818.627 -156.198V-117.897M818.627 -156.198H856.928M818.627 -117.897V-79.5963M818.627 -117.897H856.928M818.627 -79.5963V-41.2953M818.627 -79.5963H856.928M818.627 -41.2953V-2.99435M818.627 -41.2953H856.928M818.627 -2.99435V35.3066M818.627 -2.99435H856.928M818.627 35.3066V73.6076M818.627 35.3066H856.928M818.627 73.6076V111.909M818.627 73.6076H856.928M818.627 111.909V150.21M818.627 111.909H856.928M818.627 150.21V188.511M818.627 150.21H856.928M818.627 188.511H856.928M856.928 -577.509V-539.208M856.928 -577.509H895.229M856.928 -539.208V-500.907M856.928 -539.208H895.229M856.928 -500.907V-462.606M856.928 -500.907H895.229M856.928 -462.606V-424.305M856.928 -462.606H895.229M856.928 -424.305V-386.004M856.928 -424.305H895.229M856.928 -386.004V-347.703M856.928 -386.004H895.229M856.928 -347.703V-309.402M856.928 -347.703H895.229M856.928 -309.402V-271.101M856.928 -309.402H895.229M856.928 -271.101V-232.8M856.928 -271.101H895.229M856.928 -232.8V-194.499M856.928 -232.8H895.229M856.928 -194.499V-156.198M856.928 -194.499H895.229M856.928 -156.198V-117.897M856.928 -156.198H895.229M856.928 -117.897V-79.5963M856.928 -117.897H895.229M856.928 -79.5963V-41.2953M856.928 -79.5963H895.229M856.928 -41.2953V-2.99435M856.928 -41.2953H895.229M856.928 -2.99435V35.3066M856.928 -2.99435H895.229M856.928 35.3066V73.6076M856.928 35.3066H895.229M856.928 73.6076V111.909M856.928 73.6076H895.229M856.928 111.909V150.21M856.928 111.909H895.229M856.928 150.21V188.511M856.928 150.21H895.229M856.928 188.511H895.229M895.229 -577.509V-539.208M895.229 -577.509H933.53M895.229 -539.208V-500.907M895.229 -539.208H933.53M895.229 -500.907V-462.606M895.229 -500.907H933.53M895.229 -462.606V-424.305M895.229 -462.606H933.53M895.229 -424.305V-386.004M895.229 -424.305H933.53M895.229 -386.004V-347.703M895.229 -386.004H933.53M895.229 -347.703V-309.402M895.229 -347.703H933.53M895.229 -309.402V-271.101M895.229 -309.402H933.53M895.229 -271.101V-232.8M895.229 -271.101H933.53M895.229 -232.8V-194.499M895.229 -232.8H933.53M895.229 -194.499V-156.198M895.229 -194.499H933.53M895.229 -156.198V-117.897M895.229 -156.198H933.53M895.229 -117.897V-79.5963M895.229 -117.897H933.53M895.229 -79.5963V-41.2953M895.229 -79.5963H933.53M895.229 -41.2953V-2.99435M895.229 -41.2953H933.53M895.229 -2.99435V35.3066M895.229 -2.99435H933.53M895.229 35.3066V73.6076M895.229 35.3066H933.53M895.229 73.6076V111.909M895.229 73.6076H933.53M895.229 111.909V150.21M895.229 111.909H933.53M895.229 150.21V188.511M895.229 150.21H933.53M895.229 188.511H933.53M933.53 -577.509V-539.208M933.53 -577.509H971.831M933.53 -539.208V-500.907M933.53 -539.208H971.831M933.53 -500.907V-462.606M933.53 -500.907H971.831M933.53 -462.606V-424.305M933.53 -462.606H971.831M933.53 -424.305V-386.004M933.53 -424.305H971.831M933.53 -386.004V-347.703M933.53 -386.004H971.831M933.53 -347.703V-309.402M933.53 -347.703H971.831M933.53 -309.402V-271.101M933.53 -309.402H971.831M933.53 -271.101V-232.8M933.53 -271.101H971.831M933.53 -232.8V-194.499M933.53 -232.8H971.831M933.53 -194.499V-156.198M933.53 -194.499H971.831M933.53 -156.198V-117.897M933.53 -156.198H971.831M933.53 -117.897V-79.5963M933.53 -117.897H971.831M933.53 -79.5963V-41.2953M933.53 -79.5963H971.831M933.53 -41.2953V-2.99435M933.53 -41.2953H971.831M933.53 -2.99435V35.3066M933.53 -2.99435H971.831M933.53 35.3066V73.6076M933.53 35.3066H971.831M933.53 73.6076V111.909M933.53 73.6076H971.831M933.53 111.909V150.21M933.53 111.909H971.831M933.53 150.21V188.511M933.53 150.21H971.831M933.53 188.511H971.831M971.831 -577.509V-539.208M971.831 -577.509H1010.13M971.831 -539.208V-500.907M971.831 -539.208H1010.13M971.831 -500.907V-462.606M971.831 -500.907H1010.13M971.831 -462.606V-424.305M971.831 -462.606H1010.13M971.831 -424.305V-386.004M971.831 -424.305H1010.13M971.831 -386.004V-347.703M971.831 -386.004H1010.13M971.831 -347.703V-309.402M971.831 -347.703H1010.13M971.831 -309.402V-271.101M971.831 -309.402H1010.13M971.831 -271.101V-232.8M971.831 -271.101H1010.13M971.831 -232.8V-194.499M971.831 -232.8H1010.13M971.831 -194.499V-156.198M971.831 -194.499H1010.13M971.831 -156.198V-117.897M971.831 -156.198H1010.13M971.831 -117.897V-79.5963M971.831 -117.897H1010.13M971.831 -79.5963V-41.2953M971.831 -79.5963H1010.13M971.831 -41.2953V-2.99435M971.831 -41.2953H1010.13M971.831 -2.99435V35.3066M971.831 -2.99435H1010.13M971.831 35.3066V73.6076M971.831 35.3066H1010.13M971.831 73.6076V111.909M971.831 73.6076H1010.13M971.831 111.909V150.21M971.831 111.909H1010.13M971.831 150.21V188.511M971.831 150.21H1010.13M971.831 188.511H1010.13M1010.13 -577.509V-539.208M1010.13 -577.509H1048.43M1010.13 -539.208V-500.907M1010.13 -539.208H1048.43M1010.13 -500.907V-462.606M1010.13 -500.907H1048.43M1010.13 -462.606V-424.305M1010.13 -462.606H1048.43M1010.13 -424.305V-386.004M1010.13 -424.305H1048.43M1010.13 -386.004V-347.703M1010.13 -386.004H1048.43M1010.13 -347.703V-309.402M1010.13 -347.703H1048.43M1010.13 -309.402V-271.101M1010.13 -309.402H1048.43M1010.13 -271.101V-232.8M1010.13 -271.101H1048.43M1010.13 -232.8V-194.499M1010.13 -232.8H1048.43M1010.13 -194.499V-156.198M1010.13 -194.499H1048.43M1010.13 -156.198V-117.897M1010.13 -156.198H1048.43M1010.13 -117.897V-79.5963M1010.13 -117.897H1048.43M1010.13 -79.5963V-41.2953M1010.13 -79.5963H1048.43M1010.13 -41.2953V-2.99435M1010.13 -41.2953H1048.43M1010.13 -2.99435V35.3066M1010.13 -2.99435H1048.43M1010.13 35.3066V73.6076M1010.13 35.3066H1048.43M1010.13 73.6076V111.909M1010.13 73.6076H1048.43M1010.13 111.909V150.21M1010.13 111.909H1048.43M1010.13 150.21V188.511M1010.13 150.21H1048.43M1010.13 188.511H1048.43M1048.43 -577.509V-539.208M1048.43 -577.509H1086.73V-539.208M1048.43 -539.208V-500.907M1048.43 -539.208H1086.73M1048.43 -500.907V-462.606M1048.43 -500.907H1086.73M1048.43 -462.606V-424.305M1048.43 -462.606H1086.73M1048.43 -424.305V-386.004M1048.43 -424.305H1086.73M1048.43 -386.004V-347.703M1048.43 -386.004H1086.73M1048.43 -347.703V-309.402M1048.43 -347.703H1086.73M1048.43 -309.402V-271.101M1048.43 -309.402H1086.73M1048.43 -271.101V-232.8M1048.43 -271.101H1086.73M1048.43 -232.8V-194.499M1048.43 -232.8H1086.73M1048.43 -194.499V-156.198M1048.43 -194.499H1086.73M1048.43 -156.198V-117.897M1048.43 -156.198H1086.73M1048.43 -117.897V-79.5963M1048.43 -117.897H1086.73M1048.43 -79.5963V-41.2953M1048.43 -79.5963H1086.73M1048.43 -41.2953V-2.99435M1048.43 -41.2953H1086.73M1048.43 -2.99435V35.3066M1048.43 -2.99435H1086.73M1048.43 35.3066V73.6076M1048.43 35.3066H1086.73M1048.43 73.6076V111.909M1048.43 73.6076H1086.73M1048.43 111.909V150.21M1048.43 111.909H1086.73M1048.43 150.21V188.511M1048.43 150.21H1086.73M1048.43 188.511H1086.73V150.21M1086.73 -539.208V-500.907M1086.73 -500.907V-462.606M1086.73 -462.606V-424.305M1086.73 -424.305V-386.004M1086.73 -386.004V-347.703M1086.73 -347.703V-309.402M1086.73 -309.402V-271.101M1086.73 -271.101V-232.8M1086.73 -232.8V-194.499M1086.73 -194.499V-156.198M1086.73 -156.198V-117.897M1086.73 -117.897V-79.5963M1086.73 -79.5963V-41.2953M1086.73 -41.2953V-2.99435M1086.73 -2.99435V35.3066M1086.73 35.3066V73.6076M1086.73 73.6076V111.909M1086.73 111.909V150.21" stroke="url(#paint1_radial_1345_5844)" stroke-opacity="0.72" stroke-width="0.478762"/>
</g>
</g>
<defs>
<radialGradient id="paint0_radial_1345_5844" cx="0" cy="0" r="1" gradientUnits="userSpaceOnUse" gradientTransform="translate(244.112 -194.5) rotate(90) scale(394.5 689.71)">
<stop offset="0.665789" stop-color="white"/>
<stop offset="1" stop-color="white" stop-opacity="0.2"/>
</radialGradient>
<radialGradient id="paint1_radial_1345_5844" cx="0" cy="0" r="1" gradientUnits="userSpaceOnUse" gradientTransform="translate(244.113 -218.995) rotate(90) scale(432.695 768.7)">
<stop offset="0.665789" stop-color="white"/>
<stop offset="1" stop-color="white" stop-opacity="0.2"/>
</radialGradient>
<clipPath id="clip0_1345_5844">
<rect width="153" height="230" fill="white"/>
</clipPath>
</defs>
</svg>
