<svg width="153" height="230" viewBox="0 0 153 230" fill="none" xmlns="http://www.w3.org/2000/svg">
<g opacity="0.8" clip-path="url(#clip0_1345_5844)">
<g style="mix-blend-mode:soft-light" opacity="0.56">
<path d="M-445.306 665.796V654.306M-445.306 654.306V642.816M-445.306 654.306H-456.796M-445.306 654.306H-433.815M-445.306 359.388V347.898M-445.306 347.898V336.408M-445.306 347.898H-456.796M-445.306 347.898H-433.815M-445.306 52.9806V41.4903M-445.306 41.4903V30M-445.306 41.4903H-456.796M-445.306 41.4903H-433.815M-138.898 665.796V654.306M-138.898 654.306V642.816M-138.898 654.306H-150.388M-138.898 654.306H-127.407M-138.898 359.388V347.898M-138.898 347.898V336.408M-138.898 347.898H-150.388M-138.898 347.898H-127.407M-138.898 52.9806V41.4903M-138.898 41.4903V30M-138.898 41.4903H-150.388M-138.898 41.4903H-127.407M167.51 665.796V654.306M167.51 654.306V642.816M167.51 654.306H156.02M167.51 654.306H179M167.51 359.388V347.898M167.51 347.898V336.408M167.51 347.898H156.02M167.51 347.898H179M167.51 52.9806V41.4903M167.51 41.4903V30M167.51 41.4903H156.02M167.51 41.4903H179M473.918 665.796V654.306M473.918 654.306V642.816M473.918 654.306H462.428M473.918 654.306H485.408M473.918 359.388V347.898M473.918 347.898V336.408M473.918 347.898H462.428M473.918 347.898H485.408M473.918 52.9806V41.4903M473.918 41.4903V30M473.918 41.4903H462.428M473.918 41.4903H485.408M780.326 665.796V654.306M780.326 654.306V642.816M780.326 654.306H768.836M780.326 654.306H791.816M780.326 359.388V347.898M780.326 347.898V336.408M780.326 347.898H768.836M780.326 347.898H791.816M780.326 52.9806V41.4903M780.326 41.4903V30M780.326 41.4903H768.836M780.326 41.4903H791.816M1086.73 665.796V654.306M1086.73 654.306V642.816M1086.73 654.306H1075.24M1086.73 654.306H1098.22M1086.73 359.388V347.898M1086.73 347.898V336.408M1086.73 347.898H1075.24M1086.73 347.898H1098.22M1086.73 52.9806V41.4903M1086.73 41.4903V30M1086.73 41.4903H1075.24M1086.73 41.4903H1098.22M-445.306 819V807.51M-445.306 807.51V796.019M-445.306 807.51H-456.796M-445.306 807.51H-433.815M-445.306 512.592V501.102M-445.306 501.102V489.612M-445.306 501.102H-456.796M-445.306 501.102H-433.815M-445.306 206.185V194.694M-445.306 194.694V183.204M-445.306 194.694H-456.796M-445.306 194.694H-433.815M-138.898 819V807.51M-138.898 807.51V796.019M-138.898 807.51H-150.388M-138.898 807.51H-127.407M-138.898 512.592V501.102M-138.898 501.102V489.612M-138.898 501.102H-150.388M-138.898 501.102H-127.407M-138.898 206.185V194.694M-138.898 194.694V183.204M-138.898 194.694H-150.388M-138.898 194.694H-127.407M167.51 819V807.51M167.51 807.51V796.019M167.51 807.51H156.02M167.51 807.51H179M167.51 512.592V501.102M167.51 501.102V489.612M167.51 501.102H156.02M167.51 501.102H179M167.51 206.185V194.694M167.51 194.694V183.204M167.51 194.694H156.02M167.51 194.694H179M473.918 819V807.51M473.918 807.51V796.019M473.918 807.51H462.428M473.918 807.51H485.408M473.918 512.592V501.102M473.918 501.102V489.612M473.918 501.102H462.428M473.918 501.102H485.408M473.918 206.185V194.694M473.918 194.694V183.204M473.918 194.694H462.428M473.918 194.694H485.408M780.326 819V807.51M780.326 807.51V796.019M780.326 807.51H768.836M780.326 807.51H791.816M780.326 512.592V501.102M780.326 501.102V489.612M780.326 501.102H768.836M780.326 501.102H791.816M780.326 206.185V194.694M780.326 194.694V183.204M780.326 194.694H768.836M780.326 194.694H791.816M1086.73 819V807.51M1086.73 807.51V796.019M1086.73 807.51H1075.24M1086.73 807.51H1098.22M1086.73 512.592V501.102M1086.73 501.102V489.612M1086.73 501.102H1075.24M1086.73 501.102H1098.22M1086.73 206.185V194.694M1086.73 194.694V183.204M1086.73 194.694H1075.24M1086.73 194.694H1098.22M-598.51 665.796V654.306M-598.51 654.306V642.816M-598.51 654.306H-610M-598.51 654.306H-587.019M-598.51 359.388V347.898M-598.51 347.898V336.408M-598.51 347.898H-610M-598.51 347.898H-587.019M-598.51 52.9806V41.4903M-598.51 41.4903V30M-598.51 41.4903H-610M-598.51 41.4903H-587.019M-292.102 665.796V654.306M-292.102 654.306V642.816M-292.102 654.306H-303.592M-292.102 654.306H-280.611M-292.102 359.388V347.898M-292.102 347.898V336.408M-292.102 347.898H-303.592M-292.102 347.898H-280.611M-292.102 52.9806V41.4903M-292.102 41.4903V30M-292.102 41.4903H-303.592M-292.102 41.4903H-280.611M14.3061 665.796V654.306M14.3061 654.306V642.816M14.3061 654.306H2.81582M14.3061 654.306H25.7964M14.3061 359.388V347.898M14.3061 347.898V336.408M14.3061 347.898H2.81582M14.3061 347.898H25.7964M14.3061 52.9806V41.4903M14.3061 41.4903V30M14.3061 41.4903H2.81582M14.3061 41.4903H25.7964M320.714 665.796V654.306M320.714 654.306V642.816M320.714 654.306H309.224M320.714 654.306H332.204M320.714 359.388V347.898M320.714 347.898V336.408M320.714 347.898H309.224M320.714 347.898H332.204M320.714 52.9806V41.4903M320.714 41.4903V30M320.714 41.4903H309.224M320.714 41.4903H332.204M627.122 665.796V654.306M627.122 654.306V642.816M627.122 654.306H615.632M627.122 654.306H638.612M627.122 359.388V347.898M627.122 347.898V336.408M627.122 347.898H615.632M627.122 347.898H638.612M627.122 52.9806V41.4903M627.122 41.4903V30M627.122 41.4903H615.632M627.122 41.4903H638.612M933.53 665.796V654.306M933.53 654.306V642.816M933.53 654.306H922.039M933.53 654.306H945.02M933.53 359.388V347.898M933.53 347.898V336.408M933.53 347.898H922.039M933.53 347.898H945.02M933.53 52.9806V41.4903M933.53 41.4903V30M933.53 41.4903H922.039M933.53 41.4903H945.02M-598.51 819V807.51M-598.51 807.51V796.019M-598.51 807.51H-610M-598.51 807.51H-587.019M-598.51 512.592V501.102M-598.51 501.102V489.612M-598.51 501.102H-610M-598.51 501.102H-587.019M-598.51 206.185V194.694M-598.51 194.694V183.204M-598.51 194.694H-610M-598.51 194.694H-587.019M-292.102 819V807.51M-292.102 807.51V796.019M-292.102 807.51H-303.592M-292.102 807.51H-280.611M-292.102 512.592V501.102M-292.102 501.102V489.612M-292.102 501.102H-303.592M-292.102 501.102H-280.611M-292.102 206.185V194.694M-292.102 194.694V183.204M-292.102 194.694H-303.592M-292.102 194.694H-280.611M14.3061 819V807.51M14.3061 807.51V796.019M14.3061 807.51H2.81582M14.3061 807.51H25.7964M14.3061 512.592V501.102M14.3061 501.102V489.612M14.3061 501.102H2.81582M14.3061 501.102H25.7964M14.3061 206.185V194.694M14.3061 194.694V183.204M14.3061 194.694H2.81582M14.3061 194.694H25.7964M320.714 819V807.51M320.714 807.51V796.019M320.714 807.51H309.224M320.714 807.51H332.204M320.714 512.592V501.102M320.714 501.102V489.612M320.714 501.102H309.224M320.714 501.102H332.204M320.714 206.185V194.694M320.714 194.694V183.204M320.714 194.694H309.224M320.714 194.694H332.204M627.122 819V807.51M627.122 807.51V796.019M627.122 807.51H615.632M627.122 807.51H638.612M627.122 512.592V501.102M627.122 501.102V489.612M627.122 501.102H615.632M627.122 501.102H638.612M627.122 206.185V194.694M627.122 194.694V183.204M627.122 194.694H615.632M627.122 194.694H638.612M933.53 819V807.51M933.53 807.51V796.019M933.53 807.51H922.039M933.53 807.51H945.02M933.53 512.592V501.102M933.53 501.102V489.612M933.53 501.102H922.039M933.53 501.102H945.02M933.53 206.185V194.694M933.53 194.694V183.204M933.53 194.694H922.039M933.53 194.694H945.02" stroke="url(#paint0_radial_1345_5844)" stroke-opacity="0.72" stroke-width="0.876789"/>
</g>
<g style="mix-blend-mode:soft-light" opacity="0.7">
<path d="M-560.208 807.509H-598.509V769.208M-560.208 807.509V769.208M-560.208 807.509H-521.907M-560.208 769.208H-598.509M-560.208 769.208V730.907M-560.208 769.208H-521.907M-598.509 769.208V730.907M-560.208 730.907H-598.509M-560.208 730.907V692.606M-560.208 730.907H-521.907M-598.509 730.907V692.606M-560.208 692.606H-598.509M-560.208 692.606V654.305M-560.208 692.606H-521.907M-598.509 692.606V654.305M-560.208 654.305H-598.509M-560.208 654.305V616.004M-560.208 654.305H-521.907M-598.509 654.305V616.004M-560.208 616.004H-598.509M-560.208 616.004V577.703M-560.208 616.004H-521.907M-598.509 616.004V577.703M-560.208 577.703H-598.509M-560.208 577.703V539.402M-560.208 577.703H-521.907M-598.509 577.703V539.402M-560.208 539.402H-598.509M-560.208 539.402V501.101M-560.208 539.402H-521.907M-598.509 539.402V501.101M-560.208 501.101H-598.509M-560.208 501.101V462.8M-560.208 501.101H-521.907M-598.509 501.101V462.8M-560.208 462.8H-598.509M-560.208 462.8V424.499M-560.208 462.8H-521.907M-598.509 462.8V424.499M-560.208 424.499H-598.509M-560.208 424.499V386.198M-560.208 424.499H-521.907M-598.509 424.499V386.198M-560.208 386.198H-598.509M-560.208 386.198V347.897M-560.208 386.198H-521.907M-598.509 386.198V347.897M-560.208 347.897H-598.509M-560.208 347.897V309.596M-560.208 347.897H-521.907M-598.509 347.897V309.596M-560.208 309.596H-598.509M-560.208 309.596V271.295M-560.208 309.596H-521.907M-598.509 309.596V271.295M-560.208 271.295H-598.509M-560.208 271.295V232.994M-560.208 271.295H-521.907M-598.509 271.295V232.994M-560.208 232.994H-598.509M-560.208 232.994V194.693M-560.208 232.994H-521.907M-598.509 232.994V194.693M-560.208 194.693H-598.509M-560.208 194.693V156.393M-560.208 194.693H-521.907M-598.509 194.693V156.393M-560.208 156.393H-598.509M-560.208 156.393V118.092M-560.208 156.393H-521.907M-598.509 156.393V118.092M-560.208 118.092H-598.509M-560.208 118.092V79.7906M-560.208 118.092H-521.907M-598.509 118.092V79.7906M-560.208 79.7906H-598.509M-560.208 79.7906V41.4896M-560.208 79.7906H-521.907M-598.509 79.7906V41.4896H-560.208M-560.208 41.4896H-521.907M-521.907 807.509V769.208M-521.907 807.509H-483.606M-521.907 769.208V730.907M-521.907 769.208H-483.606M-521.907 730.907V692.606M-521.907 730.907H-483.606M-521.907 692.606V654.305M-521.907 692.606H-483.606M-521.907 654.305V616.004M-521.907 654.305H-483.606M-521.907 616.004V577.703M-521.907 616.004H-483.606M-521.907 577.703V539.402M-521.907 577.703H-483.606M-521.907 539.402V501.101M-521.907 539.402H-483.606M-521.907 501.101V462.8M-521.907 501.101H-483.606M-521.907 462.8V424.499M-521.907 462.8H-483.606M-521.907 424.499V386.198M-521.907 424.499H-483.606M-521.907 386.198V347.897M-521.907 386.198H-483.606M-521.907 347.897V309.596M-521.907 347.897H-483.606M-521.907 309.596V271.295M-521.907 309.596H-483.606M-521.907 271.295V232.994M-521.907 271.295H-483.606M-521.907 232.994V194.693M-521.907 232.994H-483.606M-521.907 194.693V156.393M-521.907 194.693H-483.606M-521.907 156.393V118.092M-521.907 156.393H-483.606M-521.907 118.092V79.7906M-521.907 118.092H-483.606M-521.907 79.7906V41.4896M-521.907 79.7906H-483.606M-521.907 41.4896H-483.606M-483.606 807.509V769.208M-483.606 807.509H-445.305M-483.606 769.208V730.907M-483.606 769.208H-445.305M-483.606 730.907V692.606M-483.606 730.907H-445.305M-483.606 692.606V654.305M-483.606 692.606H-445.305M-483.606 654.305V616.004M-483.606 654.305H-445.305M-483.606 616.004V577.703M-483.606 616.004H-445.305M-483.606 577.703V539.402M-483.606 577.703H-445.305M-483.606 539.402V501.101M-483.606 539.402H-445.305M-483.606 501.101V462.8M-483.606 501.101H-445.305M-483.606 462.8V424.499M-483.606 462.8H-445.305M-483.606 424.499V386.198M-483.606 424.499H-445.305M-483.606 386.198V347.897M-483.606 386.198H-445.305M-483.606 347.897V309.596M-483.606 347.897H-445.305M-483.606 309.596V271.295M-483.606 309.596H-445.305M-483.606 271.295V232.994M-483.606 271.295H-445.305M-483.606 232.994V194.693M-483.606 232.994H-445.305M-483.606 194.693V156.393M-483.606 194.693H-445.305M-483.606 156.393V118.092M-483.606 156.393H-445.305M-483.606 118.092V79.7906M-483.606 118.092H-445.305M-483.606 79.7906V41.4896M-483.606 79.7906H-445.305M-483.606 41.4896H-445.305M-445.305 807.509V769.208M-445.305 807.509H-407.004M-445.305 769.208V730.907M-445.305 769.208H-407.004M-445.305 730.907V692.606M-445.305 730.907H-407.004M-445.305 692.606V654.305M-445.305 692.606H-407.004M-445.305 654.305V616.004M-445.305 654.305H-407.004M-445.305 616.004V577.703M-445.305 616.004H-407.004M-445.305 577.703V539.402M-445.305 577.703H-407.004M-445.305 539.402V501.101M-445.305 539.402H-407.004M-445.305 501.101V462.8M-445.305 501.101H-407.004M-445.305 462.8V424.499M-445.305 462.8H-407.004M-445.305 424.499V386.198M-445.305 424.499H-407.004M-445.305 386.198V347.897M-445.305 386.198H-407.004M-445.305 347.897V309.596M-445.305 347.897H-407.004M-445.305 309.596V271.295M-445.305 309.596H-407.004M-445.305 271.295V232.994M-445.305 271.295H-407.004M-445.305 232.994V194.693M-445.305 232.994H-407.004M-445.305 194.693V156.393M-445.305 194.693H-407.004M-445.305 156.393V118.092M-445.305 156.393H-407.004M-445.305 118.092V79.7906M-445.305 118.092H-407.004M-445.305 79.7906V41.4896M-445.305 79.7906H-407.004M-445.305 41.4896H-407.004M-407.004 807.509V769.208M-407.004 807.509H-368.703M-407.004 769.208V730.907M-407.004 769.208H-368.703M-407.004 730.907V692.606M-407.004 730.907H-368.703M-407.004 692.606V654.305M-407.004 692.606H-368.703M-407.004 654.305V616.004M-407.004 654.305H-368.703M-407.004 616.004V577.703M-407.004 616.004H-368.703M-407.004 577.703V539.402M-407.004 577.703H-368.703M-407.004 539.402V501.101M-407.004 539.402H-368.703M-407.004 501.101V462.8M-407.004 501.101H-368.703M-407.004 462.8V424.499M-407.004 462.8H-368.703M-407.004 424.499V386.198M-407.004 424.499H-368.703M-407.004 386.198V347.897M-407.004 386.198H-368.703M-407.004 347.897V309.596M-407.004 347.897H-368.703M-407.004 309.596V271.295M-407.004 309.596H-368.703M-407.004 271.295V232.994M-407.004 271.295H-368.703M-407.004 232.994V194.693M-407.004 232.994H-368.703M-407.004 194.693V156.393M-407.004 194.693H-368.703M-407.004 156.393V118.092M-407.004 156.393H-368.703M-407.004 118.092V79.7906M-407.004 118.092H-368.703M-407.004 79.7906V41.4896M-407.004 79.7906H-368.703M-407.004 41.4896H-368.703M-368.703 807.509V769.208M-368.703 807.509H-330.402M-368.703 769.208V730.907M-368.703 769.208H-330.402M-368.703 730.907V692.606M-368.703 730.907H-330.402M-368.703 692.606V654.305M-368.703 692.606H-330.402M-368.703 654.305V616.004M-368.703 654.305H-330.402M-368.703 616.004V577.703M-368.703 616.004H-330.402M-368.703 577.703V539.402M-368.703 577.703H-330.402M-368.703 539.402V501.101M-368.703 539.402H-330.402M-368.703 501.101V462.8M-368.703 501.101H-330.402M-368.703 462.8V424.499M-368.703 462.8H-330.402M-368.703 424.499V386.198M-368.703 424.499H-330.402M-368.703 386.198V347.897M-368.703 386.198H-330.402M-368.703 347.897V309.596M-368.703 347.897H-330.402M-368.703 309.596V271.295M-368.703 309.596H-330.402M-368.703 271.295V232.994M-368.703 271.295H-330.402M-368.703 232.994V194.693M-368.703 232.994H-330.402M-368.703 194.693V156.393M-368.703 194.693H-330.402M-368.703 156.393V118.092M-368.703 156.393H-330.402M-368.703 118.092V79.7906M-368.703 118.092H-330.402M-368.703 79.7906V41.4896M-368.703 79.7906H-330.402M-368.703 41.4896H-330.402M-330.402 807.509V769.208M-330.402 807.509H-292.101M-330.402 769.208V730.907M-330.402 769.208H-292.101M-330.402 730.907V692.606M-330.402 730.907H-292.101M-330.402 692.606V654.305M-330.402 692.606H-292.101M-330.402 654.305V616.004M-330.402 654.305H-292.101M-330.402 616.004V577.703M-330.402 616.004H-292.101M-330.402 577.703V539.402M-330.402 577.703H-292.101M-330.402 539.402V501.101M-330.402 539.402H-292.101M-330.402 501.101V462.8M-330.402 501.101H-292.101M-330.402 462.8V424.499M-330.402 462.8H-292.101M-330.402 424.499V386.198M-330.402 424.499H-292.101M-330.402 386.198V347.897M-330.402 386.198H-292.101M-330.402 347.897V309.596M-330.402 347.897H-292.101M-330.402 309.596V271.295M-330.402 309.596H-292.101M-330.402 271.295V232.994M-330.402 271.295H-292.101M-330.402 232.994V194.693M-330.402 232.994H-292.101M-330.402 194.693V156.393M-330.402 194.693H-292.101M-330.402 156.393V118.092M-330.402 156.393H-292.101M-330.402 118.092V79.7906M-330.402 118.092H-292.101M-330.402 79.7906V41.4896M-330.402 79.7906H-292.101M-330.402 41.4896H-292.101M-292.101 807.509V769.208M-292.101 807.509H-253.8M-292.101 769.208V730.907M-292.101 769.208H-253.8M-292.101 730.907V692.606M-292.101 730.907H-253.8M-292.101 692.606V654.305M-292.101 692.606H-253.8M-292.101 654.305V616.004M-292.101 654.305H-253.8M-292.101 616.004V577.703M-292.101 616.004H-253.8M-292.101 577.703V539.402M-292.101 577.703H-253.8M-292.101 539.402V501.101M-292.101 539.402H-253.8M-292.101 501.101V462.8M-292.101 501.101H-253.8M-292.101 462.8V424.499M-292.101 462.8H-253.8M-292.101 424.499V386.198M-292.101 424.499H-253.8M-292.101 386.198V347.897M-292.101 386.198H-253.8M-292.101 347.897V309.596M-292.101 347.897H-253.8M-292.101 309.596V271.295M-292.101 309.596H-253.8M-292.101 271.295V232.994M-292.101 271.295H-253.8M-292.101 232.994V194.693M-292.101 232.994H-253.8M-292.101 194.693V156.393M-292.101 194.693H-253.8M-292.101 156.393V118.092M-292.101 156.393H-253.8M-292.101 118.092V79.7906M-292.101 118.092H-253.8M-292.101 79.7906V41.4896M-292.101 79.7906H-253.8M-292.101 41.4896H-253.8M-253.8 807.509V769.208M-253.8 807.509H-215.499M-253.8 769.208V730.907M-253.8 769.208H-215.499M-253.8 730.907V692.606M-253.8 730.907H-215.499M-253.8 692.606V654.305M-253.8 692.606H-215.499M-253.8 654.305V616.004M-253.8 654.305H-215.499M-253.8 616.004V577.703M-253.8 616.004H-215.499M-253.8 577.703V539.402M-253.8 577.703H-215.499M-253.8 539.402V501.101M-253.8 539.402H-215.499M-253.8 501.101V462.8M-253.8 501.101H-215.499M-253.8 462.8V424.499M-253.8 462.8H-215.499M-253.8 424.499V386.198M-253.8 424.499H-215.499M-253.8 386.198V347.897M-253.8 386.198H-215.499M-253.8 347.897V309.596M-253.8 347.897H-215.499M-253.8 309.596V271.295M-253.8 309.596H-215.499M-253.8 271.295V232.994M-253.8 271.295H-215.499M-253.8 232.994V194.693M-253.8 232.994H-215.499M-253.8 194.693V156.393M-253.8 194.693H-215.499M-253.8 156.393V118.092M-253.8 156.393H-215.499M-253.8 118.092V79.7906M-253.8 118.092H-215.499M-253.8 79.7906V41.4896M-253.8 79.7906H-215.499M-253.8 41.4896H-215.499M-215.499 807.509V769.208M-215.499 807.509H-177.198M-215.499 769.208V730.907M-215.499 769.208H-177.198M-215.499 730.907V692.606M-215.499 730.907H-177.198M-215.499 692.606V654.305M-215.499 692.606H-177.198M-215.499 654.305V616.004M-215.499 654.305H-177.198M-215.499 616.004V577.703M-215.499 616.004H-177.198M-215.499 577.703V539.402M-215.499 577.703H-177.198M-215.499 539.402V501.101M-215.499 539.402H-177.198M-215.499 501.101V462.8M-215.499 501.101H-177.198M-215.499 462.8V424.499M-215.499 462.8H-177.198M-215.499 424.499V386.198M-215.499 424.499H-177.198M-215.499 386.198V347.897M-215.499 386.198H-177.198M-215.499 347.897V309.596M-215.499 347.897H-177.198M-215.499 309.596V271.295M-215.499 309.596H-177.198M-215.499 271.295V232.994M-215.499 271.295H-177.198M-215.499 232.994V194.693M-215.499 232.994H-177.198M-215.499 194.693V156.393M-215.499 194.693H-177.198M-215.499 156.393V118.092M-215.499 156.393H-177.198M-215.499 118.092V79.7906M-215.499 118.092H-177.198M-215.499 79.7906V41.4896M-215.499 79.7906H-177.198M-215.499 41.4896H-177.198M-177.198 807.509V769.208M-177.198 807.509H-138.897M-177.198 769.208V730.907M-177.198 769.208H-138.897M-177.198 730.907V692.606M-177.198 730.907H-138.897M-177.198 692.606V654.305M-177.198 692.606H-138.897M-177.198 654.305V616.004M-177.198 654.305H-138.897M-177.198 616.004V577.703M-177.198 616.004H-138.897M-177.198 577.703V539.402M-177.198 577.703H-138.897M-177.198 539.402V501.101M-177.198 539.402H-138.897M-177.198 501.101V462.8M-177.198 501.101H-138.897M-177.198 462.8V424.499M-177.198 462.8H-138.897M-177.198 424.499V386.198M-177.198 424.499H-138.897M-177.198 386.198V347.897M-177.198 386.198H-138.897M-177.198 347.897V309.596M-177.198 347.897H-138.897M-177.198 309.596V271.295M-177.198 309.596H-138.897M-177.198 271.295V232.994M-177.198 271.295H-138.897M-177.198 232.994V194.693M-177.198 232.994H-138.897M-177.198 194.693V156.393M-177.198 194.693H-138.897M-177.198 156.393V118.092M-177.198 156.393H-138.897M-177.198 118.092V79.7906M-177.198 118.092H-138.897M-177.198 79.7906V41.4896M-177.198 79.7906H-138.897M-177.198 41.4896H-138.897M-138.897 807.509V769.208M-138.897 807.509H-100.596M-138.897 769.208V730.907M-138.897 769.208H-100.596M-138.897 730.907V692.606M-138.897 730.907H-100.596M-138.897 692.606V654.305M-138.897 692.606H-100.596M-138.897 654.305V616.004M-138.897 654.305H-100.596M-138.897 616.004V577.703M-138.897 616.004H-100.596M-138.897 577.703V539.402M-138.897 577.703H-100.596M-138.897 539.402V501.101M-138.897 539.402H-100.596M-138.897 501.101V462.8M-138.897 501.101H-100.596M-138.897 462.8V424.499M-138.897 462.8H-100.596M-138.897 424.499V386.198M-138.897 424.499H-100.596M-138.897 386.198V347.897M-138.897 386.198H-100.596M-138.897 347.897V309.596M-138.897 347.897H-100.596M-138.897 309.596V271.295M-138.897 309.596H-100.596M-138.897 271.295V232.994M-138.897 271.295H-100.596M-138.897 232.994V194.693M-138.897 232.994H-100.596M-138.897 194.693V156.393M-138.897 194.693H-100.596M-138.897 156.393V118.092M-138.897 156.393H-100.596M-138.897 118.092V79.7906M-138.897 118.092H-100.596M-138.897 79.7906V41.4896M-138.897 79.7906H-100.596M-138.897 41.4896H-100.596M-100.596 807.509V769.208M-100.596 807.509H-62.2955M-100.596 769.208V730.907M-100.596 769.208H-62.2955M-100.596 730.907V692.606M-100.596 730.907H-62.2955M-100.596 692.606V654.305M-100.596 692.606H-62.2955M-100.596 654.305V616.004M-100.596 654.305H-62.2955M-100.596 616.004V577.703M-100.596 616.004H-62.2955M-100.596 577.703V539.402M-100.596 577.703H-62.2955M-100.596 539.402V501.101M-100.596 539.402H-62.2955M-100.596 501.101V462.8M-100.596 501.101H-62.2955M-100.596 462.8V424.499M-100.596 462.8H-62.2955M-100.596 424.499V386.198M-100.596 424.499H-62.2955M-100.596 386.198V347.897M-100.596 386.198H-62.2955M-100.596 347.897V309.596M-100.596 347.897H-62.2955M-100.596 309.596V271.295M-100.596 309.596H-62.2955M-100.596 271.295V232.994M-100.596 271.295H-62.2955M-100.596 232.994V194.693M-100.596 232.994H-62.2955M-100.596 194.693V156.393M-100.596 194.693H-62.2955M-100.596 156.393V118.092M-100.596 156.393H-62.2955M-100.596 118.092V79.7906M-100.596 118.092H-62.2955M-100.596 79.7906V41.4896M-100.596 79.7906H-62.2955M-100.596 41.4896H-62.2955M-62.2955 807.509V769.208M-62.2955 807.509H-23.9945M-62.2955 769.208V730.907M-62.2955 769.208H-23.9945M-62.2955 730.907V692.606M-62.2955 730.907H-23.9945M-62.2955 692.606V654.305M-62.2955 692.606H-23.9945M-62.2955 654.305V616.004M-62.2955 654.305H-23.9945M-62.2955 616.004V577.703M-62.2955 616.004H-23.9945M-62.2955 577.703V539.402M-62.2955 577.703H-23.9945M-62.2955 539.402V501.101M-62.2955 539.402H-23.9945M-62.2955 501.101V462.8M-62.2955 501.101H-23.9945M-62.2955 462.8V424.499M-62.2955 462.8H-23.9945M-62.2955 424.499V386.198M-62.2955 424.499H-23.9945M-62.2955 386.198V347.897M-62.2955 386.198H-23.9945M-62.2955 347.897V309.596M-62.2955 347.897H-23.9945M-62.2955 309.596V271.295M-62.2955 309.596H-23.9945M-62.2955 271.295V232.994M-62.2955 271.295H-23.9945M-62.2955 232.994V194.693M-62.2955 232.994H-23.9945M-62.2955 194.693V156.393M-62.2955 194.693H-23.9945M-62.2955 156.393V118.092M-62.2955 156.393H-23.9945M-62.2955 118.092V79.7906M-62.2955 118.092H-23.9945M-62.2955 79.7906V41.4896M-62.2955 79.7906H-23.9945M-62.2955 41.4896H-23.9945M-23.9945 807.509V769.208M-23.9945 807.509H14.3065M-23.9945 769.208V730.907M-23.9945 769.208H14.3065M-23.9945 730.907V692.606M-23.9945 730.907H14.3065M-23.9945 692.606V654.305M-23.9945 692.606H14.3065M-23.9945 654.305V616.004M-23.9945 654.305H14.3065M-23.9945 616.004V577.703M-23.9945 616.004H14.3065M-23.9945 577.703V539.402M-23.9945 577.703H14.3065M-23.9945 539.402V501.101M-23.9945 539.402H14.3065M-23.9945 501.101V462.8M-23.9945 501.101H14.3065M-23.9945 462.8V424.499M-23.9945 462.8H14.3065M-23.9945 424.499V386.198M-23.9945 424.499H14.3065M-23.9945 386.198V347.897M-23.9945 386.198H14.3065M-23.9945 347.897V309.596M-23.9945 347.897H14.3065M-23.9945 309.596V271.295M-23.9945 309.596H14.3065M-23.9945 271.295V232.994M-23.9945 271.295H14.3065M-23.9945 232.994V194.693M-23.9945 232.994H14.3065M-23.9945 194.693V156.393M-23.9945 194.693H14.3065M-23.9945 156.393V118.092M-23.9945 156.393H14.3065M-23.9945 118.092V79.7906M-23.9945 118.092H14.3065M-23.9945 79.7906V41.4896M-23.9945 79.7906H14.3065M-23.9945 41.4896H14.3065M14.3065 807.509V769.208M14.3065 807.509H52.6075M14.3065 769.208V730.907M14.3065 769.208H52.6075M14.3065 730.907V692.606M14.3065 730.907H52.6075M14.3065 692.606V654.305M14.3065 692.606H52.6075M14.3065 654.305V616.004M14.3065 654.305H52.6075M14.3065 616.004V577.703M14.3065 616.004H52.6075M14.3065 577.703V539.402M14.3065 577.703H52.6075M14.3065 539.402V501.101M14.3065 539.402H52.6075M14.3065 501.101V462.8M14.3065 501.101H52.6075M14.3065 462.8V424.499M14.3065 462.8H52.6075M14.3065 424.499V386.198M14.3065 424.499H52.6075M14.3065 386.198V347.897M14.3065 386.198H52.6075M14.3065 347.897V309.596M14.3065 347.897H52.6075M14.3065 309.596V271.295M14.3065 309.596H52.6075M14.3065 271.295V232.994M14.3065 271.295H52.6075M14.3065 232.994V194.693M14.3065 232.994H52.6075M14.3065 194.693V156.393M14.3065 194.693H52.6075M14.3065 156.393V118.092M14.3065 156.393H52.6075M14.3065 118.092V79.7906M14.3065 118.092H52.6075M14.3065 79.7906V41.4896M14.3065 79.7906H52.6075M14.3065 41.4896H52.6075M52.6075 807.509V769.208M52.6075 807.509H90.9085M52.6075 769.208V730.907M52.6075 769.208H90.9085M52.6075 730.907V692.606M52.6075 730.907H90.9085M52.6075 692.606V654.305M52.6075 692.606H90.9085M52.6075 654.305V616.004M52.6075 654.305H90.9085M52.6075 616.004V577.703M52.6075 616.004H90.9085M52.6075 577.703V539.402M52.6075 577.703H90.9085M52.6075 539.402V501.101M52.6075 539.402H90.9085M52.6075 501.101V462.8M52.6075 501.101H90.9085M52.6075 462.8V424.499M52.6075 462.8H90.9085M52.6075 424.499V386.198M52.6075 424.499H90.9085M52.6075 386.198V347.897M52.6075 386.198H90.9085M52.6075 347.897V309.596M52.6075 347.897H90.9085M52.6075 309.596V271.295M52.6075 309.596H90.9085M52.6075 271.295V232.994M52.6075 271.295H90.9085M52.6075 232.994V194.693M52.6075 232.994H90.9085M52.6075 194.693V156.393M52.6075 194.693H90.9085M52.6075 156.393V118.092M52.6075 156.393H90.9085M52.6075 118.092V79.7906M52.6075 118.092H90.9085M52.6075 79.7906V41.4896M52.6075 79.7906H90.9085M52.6075 41.4896H90.9085M90.9085 807.509V769.208M90.9085 807.509H129.209M90.9085 769.208V730.907M90.9085 769.208H129.209M90.9085 730.907V692.606M90.9085 730.907H129.209M90.9085 692.606V654.305M90.9085 692.606H129.209M90.9085 654.305V616.004M90.9085 654.305H129.209M90.9085 616.004V577.703M90.9085 616.004H129.209M90.9085 577.703V539.402M90.9085 577.703H129.209M90.9085 539.402V501.101M90.9085 539.402H129.209M90.9085 501.101V462.8M90.9085 501.101H129.209M90.9085 462.8V424.499M90.9085 462.8H129.209M90.9085 424.499V386.198M90.9085 424.499H129.209M90.9085 386.198V347.897M90.9085 386.198H129.209M90.9085 347.897V309.596M90.9085 347.897H129.209M90.9085 309.596V271.295M90.9085 309.596H129.209M90.9085 271.295V232.994M90.9085 271.295H129.209M90.9085 232.994V194.693M90.9085 232.994H129.209M90.9085 194.693V156.393M90.9085 194.693H129.209M90.9085 156.393V118.092M90.9085 156.393H129.209M90.9085 118.092V79.7906M90.9085 118.092H129.209M90.9085 79.7906V41.4896M90.9085 79.7906H129.209M90.9085 41.4896H129.209M129.209 807.509V769.208M129.209 807.509H167.51M129.209 769.208V730.907M129.209 769.208H167.51M129.209 730.907V692.606M129.209 730.907H167.51M129.209 692.606V654.305M129.209 692.606H167.51M129.209 654.305V616.004M129.209 654.305H167.51M129.209 616.004V577.703M129.209 616.004H167.51M129.209 577.703V539.402M129.209 577.703H167.51M129.209 539.402V501.101M129.209 539.402H167.51M129.209 501.101V462.8M129.209 501.101H167.51M129.209 462.8V424.499M129.209 462.8H167.51M129.209 424.499V386.198M129.209 424.499H167.51M129.209 386.198V347.897M129.209 386.198H167.51M129.209 347.897V309.596M129.209 347.897H167.51M129.209 309.596V271.295M129.209 309.596H167.51M129.209 271.295V232.994M129.209 271.295H167.51M129.209 232.994V194.693M129.209 232.994H167.51M129.209 194.693V156.393M129.209 194.693H167.51M129.209 156.393V118.092M129.209 156.393H167.51M129.209 118.092V79.7906M129.209 118.092H167.51M129.209 79.7906V41.4896M129.209 79.7906H167.51M129.209 41.4896H167.51M167.51 807.509V769.208M167.51 807.509H205.811M167.51 769.208V730.907M167.51 769.208H205.811M167.51 730.907V692.606M167.51 730.907H205.811M167.51 692.606V654.305M167.51 692.606H205.811M167.51 654.305V616.004M167.51 654.305H205.811M167.51 616.004V577.703M167.51 616.004H205.811M167.51 577.703V539.402M167.51 577.703H205.811M167.51 539.402V501.101M167.51 539.402H205.811M167.51 501.101V462.8M167.51 501.101H205.811M167.51 462.8V424.499M167.51 462.8H205.811M167.51 424.499V386.198M167.51 424.499H205.811M167.51 386.198V347.897M167.51 386.198H205.811M167.51 347.897V309.596M167.51 347.897H205.811M167.51 309.596V271.295M167.51 309.596H205.811M167.51 271.295V232.994M167.51 271.295H205.811M167.51 232.994V194.693M167.51 232.994H205.811M167.51 194.693V156.393M167.51 194.693H205.811M167.51 156.393V118.092M167.51 156.393H205.811M167.51 118.092V79.7906M167.51 118.092H205.811M167.51 79.7906V41.4896M167.51 79.7906H205.811M167.51 41.4896H205.811M205.811 807.509V769.208M205.811 807.509H244.112M205.811 769.208V730.907M205.811 769.208H244.112M205.811 730.907V692.606M205.811 730.907H244.112M205.811 692.606V654.305M205.811 692.606H244.112M205.811 654.305V616.004M205.811 654.305H244.112M205.811 616.004V577.703M205.811 616.004H244.112M205.811 577.703V539.402M205.811 577.703H244.112M205.811 539.402V501.101M205.811 539.402H244.112M205.811 501.101V462.8M205.811 501.101H244.112M205.811 462.8V424.499M205.811 462.8H244.112M205.811 424.499V386.198M205.811 424.499H244.112M205.811 386.198V347.897M205.811 386.198H244.112M205.811 347.897V309.596M205.811 347.897H244.112M205.811 309.596V271.295M205.811 309.596H244.112M205.811 271.295V232.994M205.811 271.295H244.112M205.811 232.994V194.693M205.811 232.994H244.112M205.811 194.693V156.393M205.811 194.693H244.112M205.811 156.393V118.092M205.811 156.393H244.112M205.811 118.092V79.7906M205.811 118.092H244.112M205.811 79.7906V41.4896M205.811 79.7906H244.112M205.811 41.4896H244.112M244.112 807.509V769.208M244.112 807.509H282.413M244.112 769.208V730.907M244.112 769.208H282.413M244.112 730.907V692.606M244.112 730.907H282.413M244.112 692.606V654.305M244.112 692.606H282.413M244.112 654.305V616.004M244.112 654.305H282.413M244.112 616.004V577.703M244.112 616.004H282.413M244.112 577.703V539.402M244.112 577.703H282.413M244.112 539.402V501.101M244.112 539.402H282.413M244.112 501.101V462.8M244.112 501.101H282.413M244.112 462.8V424.499M244.112 462.8H282.413M244.112 424.499V386.198M244.112 424.499H282.413M244.112 386.198V347.897M244.112 386.198H282.413M244.112 347.897V309.596M244.112 347.897H282.413M244.112 309.596V271.295M244.112 309.596H282.413M244.112 271.295V232.994M244.112 271.295H282.413M244.112 232.994V194.693M244.112 232.994H282.413M244.112 194.693V156.393M244.112 194.693H282.413M244.112 156.393V118.092M244.112 156.393H282.413M244.112 118.092V79.7906M244.112 118.092H282.413M244.112 79.7906V41.4896M244.112 79.7906H282.413M244.112 41.4896H282.413M282.413 807.509V769.208M282.413 807.509H320.714M282.413 769.208V730.907M282.413 769.208H320.714M282.413 730.907V692.606M282.413 730.907H320.714M282.413 692.606V654.305M282.413 692.606H320.714M282.413 654.305V616.004M282.413 654.305H320.714M282.413 616.004V577.703M282.413 616.004H320.714M282.413 577.703V539.402M282.413 577.703H320.714M282.413 539.402V501.101M282.413 539.402H320.714M282.413 501.101V462.8M282.413 501.101H320.714M282.413 462.8V424.499M282.413 462.8H320.714M282.413 424.499V386.198M282.413 424.499H320.714M282.413 386.198V347.897M282.413 386.198H320.714M282.413 347.897V309.596M282.413 347.897H320.714M282.413 309.596V271.295M282.413 309.596H320.714M282.413 271.295V232.994M282.413 271.295H320.714M282.413 232.994V194.693M282.413 232.994H320.714M282.413 194.693V156.393M282.413 194.693H320.714M282.413 156.393V118.092M282.413 156.393H320.714M282.413 118.092V79.7906M282.413 118.092H320.714M282.413 79.7906V41.4896M282.413 79.7906H320.714M282.413 41.4896H320.714M320.714 807.509V769.208M320.714 807.509H359.015M320.714 769.208V730.907M320.714 769.208H359.015M320.714 730.907V692.606M320.714 730.907H359.015M320.714 692.606V654.305M320.714 692.606H359.015M320.714 654.305V616.004M320.714 654.305H359.015M320.714 616.004V577.703M320.714 616.004H359.015M320.714 577.703V539.402M320.714 577.703H359.015M320.714 539.402V501.101M320.714 539.402H359.015M320.714 501.101V462.8M320.714 501.101H359.015M320.714 462.8V424.499M320.714 462.8H359.015M320.714 424.499V386.198M320.714 424.499H359.015M320.714 386.198V347.897M320.714 386.198H359.015M320.714 347.897V309.596M320.714 347.897H359.015M320.714 309.596V271.295M320.714 309.596H359.015M320.714 271.295V232.994M320.714 271.295H359.015M320.714 232.994V194.693M320.714 232.994H359.015M320.714 194.693V156.393M320.714 194.693H359.015M320.714 156.393V118.092M320.714 156.393H359.015M320.714 118.092V79.7906M320.714 118.092H359.015M320.714 79.7906V41.4896M320.714 79.7906H359.015M320.714 41.4896H359.015M359.015 807.509V769.208M359.015 807.509H397.316M359.015 769.208V730.907M359.015 769.208H397.316M359.015 730.907V692.606M359.015 730.907H397.316M359.015 692.606V654.305M359.015 692.606H397.316M359.015 654.305V616.004M359.015 654.305H397.316M359.015 616.004V577.703M359.015 616.004H397.316M359.015 577.703V539.402M359.015 577.703H397.316M359.015 539.402V501.101M359.015 539.402H397.316M359.015 501.101V462.8M359.015 501.101H397.316M359.015 462.8V424.499M359.015 462.8H397.316M359.015 424.499V386.198M359.015 424.499H397.316M359.015 386.198V347.897M359.015 386.198H397.316M359.015 347.897V309.596M359.015 347.897H397.316M359.015 309.596V271.295M359.015 309.596H397.316M359.015 271.295V232.994M359.015 271.295H397.316M359.015 232.994V194.693M359.015 232.994H397.316M359.015 194.693V156.393M359.015 194.693H397.316M359.015 156.393V118.092M359.015 156.393H397.316M359.015 118.092V79.7906M359.015 118.092H397.316M359.015 79.7906V41.4896M359.015 79.7906H397.316M359.015 41.4896H397.316M397.316 807.509V769.208M397.316 807.509H435.617M397.316 769.208V730.907M397.316 769.208H435.617M397.316 730.907V692.606M397.316 730.907H435.617M397.316 692.606V654.305M397.316 692.606H435.617M397.316 654.305V616.004M397.316 654.305H435.617M397.316 616.004V577.703M397.316 616.004H435.617M397.316 577.703V539.402M397.316 577.703H435.617M397.316 539.402V501.101M397.316 539.402H435.617M397.316 501.101V462.8M397.316 501.101H435.617M397.316 462.8V424.499M397.316 462.8H435.617M397.316 424.499V386.198M397.316 424.499H435.617M397.316 386.198V347.897M397.316 386.198H435.617M397.316 347.897V309.596M397.316 347.897H435.617M397.316 309.596V271.295M397.316 309.596H435.617M397.316 271.295V232.994M397.316 271.295H435.617M397.316 232.994V194.693M397.316 232.994H435.617M397.316 194.693V156.393M397.316 194.693H435.617M397.316 156.393V118.092M397.316 156.393H435.617M397.316 118.092V79.7906M397.316 118.092H435.617M397.316 79.7906V41.4896M397.316 79.7906H435.617M397.316 41.4896H435.617M435.617 807.509V769.208M435.617 807.509H473.918M435.617 769.208V730.907M435.617 769.208H473.918M435.617 730.907V692.606M435.617 730.907H473.918M435.617 692.606V654.305M435.617 692.606H473.918M435.617 654.305V616.004M435.617 654.305H473.918M435.617 616.004V577.703M435.617 616.004H473.918M435.617 577.703V539.402M435.617 577.703H473.918M435.617 539.402V501.101M435.617 539.402H473.918M435.617 501.101V462.8M435.617 501.101H473.918M435.617 462.8V424.499M435.617 462.8H473.918M435.617 424.499V386.198M435.617 424.499H473.918M435.617 386.198V347.897M435.617 386.198H473.918M435.617 347.897V309.596M435.617 347.897H473.918M435.617 309.596V271.295M435.617 309.596H473.918M435.617 271.295V232.994M435.617 271.295H473.918M435.617 232.994V194.693M435.617 232.994H473.918M435.617 194.693V156.393M435.617 194.693H473.918M435.617 156.393V118.092M435.617 156.393H473.918M435.617 118.092V79.7906M435.617 118.092H473.918M435.617 79.7906V41.4896M435.617 79.7906H473.918M435.617 41.4896H473.918M473.918 807.509V769.208M473.918 807.509H512.219M473.918 769.208V730.907M473.918 769.208H512.219M473.918 730.907V692.606M473.918 730.907H512.219M473.918 692.606V654.305M473.918 692.606H512.219M473.918 654.305V616.004M473.918 654.305H512.219M473.918 616.004V577.703M473.918 616.004H512.219M473.918 577.703V539.402M473.918 577.703H512.219M473.918 539.402V501.101M473.918 539.402H512.219M473.918 501.101V462.8M473.918 501.101H512.219M473.918 462.8V424.499M473.918 462.8H512.219M473.918 424.499V386.198M473.918 424.499H512.219M473.918 386.198V347.897M473.918 386.198H512.219M473.918 347.897V309.596M473.918 347.897H512.219M473.918 309.596V271.295M473.918 309.596H512.219M473.918 271.295V232.994M473.918 271.295H512.219M473.918 232.994V194.693M473.918 232.994H512.219M473.918 194.693V156.393M473.918 194.693H512.219M473.918 156.393V118.092M473.918 156.393H512.219M473.918 118.092V79.7906M473.918 118.092H512.219M473.918 79.7906V41.4896M473.918 79.7906H512.219M473.918 41.4896H512.219M512.219 807.509V769.208M512.219 807.509H550.52M512.219 769.208V730.907M512.219 769.208H550.52M512.219 730.907V692.606M512.219 730.907H550.52M512.219 692.606V654.305M512.219 692.606H550.52M512.219 654.305V616.004M512.219 654.305H550.52M512.219 616.004V577.703M512.219 616.004H550.52M512.219 577.703V539.402M512.219 577.703H550.52M512.219 539.402V501.101M512.219 539.402H550.52M512.219 501.101V462.8M512.219 501.101H550.52M512.219 462.8V424.499M512.219 462.8H550.52M512.219 424.499V386.198M512.219 424.499H550.52M512.219 386.198V347.897M512.219 386.198H550.52M512.219 347.897V309.596M512.219 347.897H550.52M512.219 309.596V271.295M512.219 309.596H550.52M512.219 271.295V232.994M512.219 271.295H550.52M512.219 232.994V194.693M512.219 232.994H550.52M512.219 194.693V156.393M512.219 194.693H550.52M512.219 156.393V118.092M512.219 156.393H550.52M512.219 118.092V79.7906M512.219 118.092H550.52M512.219 79.7906V41.4896M512.219 79.7906H550.52M512.219 41.4896H550.52M550.52 807.509V769.208M550.52 807.509H588.821M550.52 769.208V730.907M550.52 769.208H588.821M550.52 730.907V692.606M550.52 730.907H588.821M550.52 692.606V654.305M550.52 692.606H588.821M550.52 654.305V616.004M550.52 654.305H588.821M550.52 616.004V577.703M550.52 616.004H588.821M550.52 577.703V539.402M550.52 577.703H588.821M550.52 539.402V501.101M550.52 539.402H588.821M550.52 501.101V462.8M550.52 501.101H588.821M550.52 462.8V424.499M550.52 462.8H588.821M550.52 424.499V386.198M550.52 424.499H588.821M550.52 386.198V347.897M550.52 386.198H588.821M550.52 347.897V309.596M550.52 347.897H588.821M550.52 309.596V271.295M550.52 309.596H588.821M550.52 271.295V232.994M550.52 271.295H588.821M550.52 232.994V194.693M550.52 232.994H588.821M550.52 194.693V156.393M550.52 194.693H588.821M550.52 156.393V118.092M550.52 156.393H588.821M550.52 118.092V79.7906M550.52 118.092H588.821M550.52 79.7906V41.4896M550.52 79.7906H588.821M550.52 41.4896H588.821M588.821 807.509V769.208M588.821 807.509H627.122M588.821 769.208V730.907M588.821 769.208H627.122M588.821 730.907V692.606M588.821 730.907H627.122M588.821 692.606V654.305M588.821 692.606H627.122M588.821 654.305V616.004M588.821 654.305H627.122M588.821 616.004V577.703M588.821 616.004H627.122M588.821 577.703V539.402M588.821 577.703H627.122M588.821 539.402V501.101M588.821 539.402H627.122M588.821 501.101V462.8M588.821 501.101H627.122M588.821 462.8V424.499M588.821 462.8H627.122M588.821 424.499V386.198M588.821 424.499H627.122M588.821 386.198V347.897M588.821 386.198H627.122M588.821 347.897V309.596M588.821 347.897H627.122M588.821 309.596V271.295M588.821 309.596H627.122M588.821 271.295V232.994M588.821 271.295H627.122M588.821 232.994V194.693M588.821 232.994H627.122M588.821 194.693V156.393M588.821 194.693H627.122M588.821 156.393V118.092M588.821 156.393H627.122M588.821 118.092V79.7906M588.821 118.092H627.122M588.821 79.7906V41.4896M588.821 79.7906H627.122M588.821 41.4896H627.122M627.122 807.509V769.208M627.122 807.509H665.423M627.122 769.208V730.907M627.122 769.208H665.423M627.122 730.907V692.606M627.122 730.907H665.423M627.122 692.606V654.305M627.122 692.606H665.423M627.122 654.305V616.004M627.122 654.305H665.423M627.122 616.004V577.703M627.122 616.004H665.423M627.122 577.703V539.402M627.122 577.703H665.423M627.122 539.402V501.101M627.122 539.402H665.423M627.122 501.101V462.8M627.122 501.101H665.423M627.122 462.8V424.499M627.122 462.8H665.423M627.122 424.499V386.198M627.122 424.499H665.423M627.122 386.198V347.897M627.122 386.198H665.423M627.122 347.897V309.596M627.122 347.897H665.423M627.122 309.596V271.295M627.122 309.596H665.423M627.122 271.295V232.994M627.122 271.295H665.423M627.122 232.994V194.693M627.122 232.994H665.423M627.122 194.693V156.393M627.122 194.693H665.423M627.122 156.393V118.092M627.122 156.393H665.423M627.122 118.092V79.7906M627.122 118.092H665.423M627.122 79.7906V41.4896M627.122 79.7906H665.423M627.122 41.4896H665.423M665.423 807.509V769.208M665.423 807.509H703.724M665.423 769.208V730.907M665.423 769.208H703.724M665.423 730.907V692.606M665.423 730.907H703.724M665.423 692.606V654.305M665.423 692.606H703.724M665.423 654.305V616.004M665.423 654.305H703.724M665.423 616.004V577.703M665.423 616.004H703.724M665.423 577.703V539.402M665.423 577.703H703.724M665.423 539.402V501.101M665.423 539.402H703.724M665.423 501.101V462.8M665.423 501.101H703.724M665.423 462.8V424.499M665.423 462.8H703.724M665.423 424.499V386.198M665.423 424.499H703.724M665.423 386.198V347.897M665.423 386.198H703.724M665.423 347.897V309.596M665.423 347.897H703.724M665.423 309.596V271.295M665.423 309.596H703.724M665.423 271.295V232.994M665.423 271.295H703.724M665.423 232.994V194.693M665.423 232.994H703.724M665.423 194.693V156.393M665.423 194.693H703.724M665.423 156.393V118.092M665.423 156.393H703.724M665.423 118.092V79.7906M665.423 118.092H703.724M665.423 79.7906V41.4896M665.423 79.7906H703.724M665.423 41.4896H703.724M703.724 807.509V769.208M703.724 807.509H742.025M703.724 769.208V730.907M703.724 769.208H742.025M703.724 730.907V692.606M703.724 730.907H742.025M703.724 692.606V654.305M703.724 692.606H742.025M703.724 654.305V616.004M703.724 654.305H742.025M703.724 616.004V577.703M703.724 616.004H742.025M703.724 577.703V539.402M703.724 577.703H742.025M703.724 539.402V501.101M703.724 539.402H742.025M703.724 501.101V462.8M703.724 501.101H742.025M703.724 462.8V424.499M703.724 462.8H742.025M703.724 424.499V386.198M703.724 424.499H742.025M703.724 386.198V347.897M703.724 386.198H742.025M703.724 347.897V309.596M703.724 347.897H742.025M703.724 309.596V271.295M703.724 309.596H742.025M703.724 271.295V232.994M703.724 271.295H742.025M703.724 232.994V194.693M703.724 232.994H742.025M703.724 194.693V156.393M703.724 194.693H742.025M703.724 156.393V118.092M703.724 156.393H742.025M703.724 118.092V79.7906M703.724 118.092H742.025M703.724 79.7906V41.4896M703.724 79.7906H742.025M703.724 41.4896H742.025M742.025 807.509V769.208M742.025 807.509H780.326M742.025 769.208V730.907M742.025 769.208H780.326M742.025 730.907V692.606M742.025 730.907H780.326M742.025 692.606V654.305M742.025 692.606H780.326M742.025 654.305V616.004M742.025 654.305H780.326M742.025 616.004V577.703M742.025 616.004H780.326M742.025 577.703V539.402M742.025 577.703H780.326M742.025 539.402V501.101M742.025 539.402H780.326M742.025 501.101V462.8M742.025 501.101H780.326M742.025 462.8V424.499M742.025 462.8H780.326M742.025 424.499V386.198M742.025 424.499H780.326M742.025 386.198V347.897M742.025 386.198H780.326M742.025 347.897V309.596M742.025 347.897H780.326M742.025 309.596V271.295M742.025 309.596H780.326M742.025 271.295V232.994M742.025 271.295H780.326M742.025 232.994V194.693M742.025 232.994H780.326M742.025 194.693V156.393M742.025 194.693H780.326M742.025 156.393V118.092M742.025 156.393H780.326M742.025 118.092V79.7906M742.025 118.092H780.326M742.025 79.7906V41.4896M742.025 79.7906H780.326M742.025 41.4896H780.326M780.326 807.509V769.208M780.326 807.509H818.627M780.326 769.208V730.907M780.326 769.208H818.627M780.326 730.907V692.606M780.326 730.907H818.627M780.326 692.606V654.305M780.326 692.606H818.627M780.326 654.305V616.004M780.326 654.305H818.627M780.326 616.004V577.703M780.326 616.004H818.627M780.326 577.703V539.402M780.326 577.703H818.627M780.326 539.402V501.101M780.326 539.402H818.627M780.326 501.101V462.8M780.326 501.101H818.627M780.326 462.8V424.499M780.326 462.8H818.627M780.326 424.499V386.198M780.326 424.499H818.627M780.326 386.198V347.897M780.326 386.198H818.627M780.326 347.897V309.596M780.326 347.897H818.627M780.326 309.596V271.295M780.326 309.596H818.627M780.326 271.295V232.994M780.326 271.295H818.627M780.326 232.994V194.693M780.326 232.994H818.627M780.326 194.693V156.393M780.326 194.693H818.627M780.326 156.393V118.092M780.326 156.393H818.627M780.326 118.092V79.7906M780.326 118.092H818.627M780.326 79.7906V41.4896M780.326 79.7906H818.627M780.326 41.4896H818.627M818.627 807.509V769.208M818.627 807.509H856.928M818.627 769.208V730.907M818.627 769.208H856.928M818.627 730.907V692.606M818.627 730.907H856.928M818.627 692.606V654.305M818.627 692.606H856.928M818.627 654.305V616.004M818.627 654.305H856.928M818.627 616.004V577.703M818.627 616.004H856.928M818.627 577.703V539.402M818.627 577.703H856.928M818.627 539.402V501.101M818.627 539.402H856.928M818.627 501.101V462.8M818.627 501.101H856.928M818.627 462.8V424.499M818.627 462.8H856.928M818.627 424.499V386.198M818.627 424.499H856.928M818.627 386.198V347.897M818.627 386.198H856.928M818.627 347.897V309.596M818.627 347.897H856.928M818.627 309.596V271.295M818.627 309.596H856.928M818.627 271.295V232.994M818.627 271.295H856.928M818.627 232.994V194.693M818.627 232.994H856.928M818.627 194.693V156.393M818.627 194.693H856.928M818.627 156.393V118.092M818.627 156.393H856.928M818.627 118.092V79.7906M818.627 118.092H856.928M818.627 79.7906V41.4896M818.627 79.7906H856.928M818.627 41.4896H856.928M856.928 807.509V769.208M856.928 807.509H895.229M856.928 769.208V730.907M856.928 769.208H895.229M856.928 730.907V692.606M856.928 730.907H895.229M856.928 692.606V654.305M856.928 692.606H895.229M856.928 654.305V616.004M856.928 654.305H895.229M856.928 616.004V577.703M856.928 616.004H895.229M856.928 577.703V539.402M856.928 577.703H895.229M856.928 539.402V501.101M856.928 539.402H895.229M856.928 501.101V462.8M856.928 501.101H895.229M856.928 462.8V424.499M856.928 462.8H895.229M856.928 424.499V386.198M856.928 424.499H895.229M856.928 386.198V347.897M856.928 386.198H895.229M856.928 347.897V309.596M856.928 347.897H895.229M856.928 309.596V271.295M856.928 309.596H895.229M856.928 271.295V232.994M856.928 271.295H895.229M856.928 232.994V194.693M856.928 232.994H895.229M856.928 194.693V156.393M856.928 194.693H895.229M856.928 156.393V118.092M856.928 156.393H895.229M856.928 118.092V79.7906M856.928 118.092H895.229M856.928 79.7906V41.4896M856.928 79.7906H895.229M856.928 41.4896H895.229M895.229 807.509V769.208M895.229 807.509H933.53M895.229 769.208V730.907M895.229 769.208H933.53M895.229 730.907V692.606M895.229 730.907H933.53M895.229 692.606V654.305M895.229 692.606H933.53M895.229 654.305V616.004M895.229 654.305H933.53M895.229 616.004V577.703M895.229 616.004H933.53M895.229 577.703V539.402M895.229 577.703H933.53M895.229 539.402V501.101M895.229 539.402H933.53M895.229 501.101V462.8M895.229 501.101H933.53M895.229 462.8V424.499M895.229 462.8H933.53M895.229 424.499V386.198M895.229 424.499H933.53M895.229 386.198V347.897M895.229 386.198H933.53M895.229 347.897V309.596M895.229 347.897H933.53M895.229 309.596V271.295M895.229 309.596H933.53M895.229 271.295V232.994M895.229 271.295H933.53M895.229 232.994V194.693M895.229 232.994H933.53M895.229 194.693V156.393M895.229 194.693H933.53M895.229 156.393V118.092M895.229 156.393H933.53M895.229 118.092V79.7906M895.229 118.092H933.53M895.229 79.7906V41.4896M895.229 79.7906H933.53M895.229 41.4896H933.53M933.53 807.509V769.208M933.53 807.509H971.831M933.53 769.208V730.907M933.53 769.208H971.831M933.53 730.907V692.606M933.53 730.907H971.831M933.53 692.606V654.305M933.53 692.606H971.831M933.53 654.305V616.004M933.53 654.305H971.831M933.53 616.004V577.703M933.53 616.004H971.831M933.53 577.703V539.402M933.53 577.703H971.831M933.53 539.402V501.101M933.53 539.402H971.831M933.53 501.101V462.8M933.53 501.101H971.831M933.53 462.8V424.499M933.53 462.8H971.831M933.53 424.499V386.198M933.53 424.499H971.831M933.53 386.198V347.897M933.53 386.198H971.831M933.53 347.897V309.596M933.53 347.897H971.831M933.53 309.596V271.295M933.53 309.596H971.831M933.53 271.295V232.994M933.53 271.295H971.831M933.53 232.994V194.693M933.53 232.994H971.831M933.53 194.693V156.393M933.53 194.693H971.831M933.53 156.393V118.092M933.53 156.393H971.831M933.53 118.092V79.7906M933.53 118.092H971.831M933.53 79.7906V41.4896M933.53 79.7906H971.831M933.53 41.4896H971.831M971.831 807.509V769.208M971.831 807.509H1010.13M971.831 769.208V730.907M971.831 769.208H1010.13M971.831 730.907V692.606M971.831 730.907H1010.13M971.831 692.606V654.305M971.831 692.606H1010.13M971.831 654.305V616.004M971.831 654.305H1010.13M971.831 616.004V577.703M971.831 616.004H1010.13M971.831 577.703V539.402M971.831 577.703H1010.13M971.831 539.402V501.101M971.831 539.402H1010.13M971.831 501.101V462.8M971.831 501.101H1010.13M971.831 462.8V424.499M971.831 462.8H1010.13M971.831 424.499V386.198M971.831 424.499H1010.13M971.831 386.198V347.897M971.831 386.198H1010.13M971.831 347.897V309.596M971.831 347.897H1010.13M971.831 309.596V271.295M971.831 309.596H1010.13M971.831 271.295V232.994M971.831 271.295H1010.13M971.831 232.994V194.693M971.831 232.994H1010.13M971.831 194.693V156.393M971.831 194.693H1010.13M971.831 156.393V118.092M971.831 156.393H1010.13M971.831 118.092V79.7906M971.831 118.092H1010.13M971.831 79.7906V41.4896M971.831 79.7906H1010.13M971.831 41.4896H1010.13M1010.13 807.509V769.208M1010.13 807.509H1048.43M1010.13 769.208V730.907M1010.13 769.208H1048.43M1010.13 730.907V692.606M1010.13 730.907H1048.43M1010.13 692.606V654.305M1010.13 692.606H1048.43M1010.13 654.305V616.004M1010.13 654.305H1048.43M1010.13 616.004V577.703M1010.13 616.004H1048.43M1010.13 577.703V539.402M1010.13 577.703H1048.43M1010.13 539.402V501.101M1010.13 539.402H1048.43M1010.13 501.101V462.8M1010.13 501.101H1048.43M1010.13 462.8V424.499M1010.13 462.8H1048.43M1010.13 424.499V386.198M1010.13 424.499H1048.43M1010.13 386.198V347.897M1010.13 386.198H1048.43M1010.13 347.897V309.596M1010.13 347.897H1048.43M1010.13 309.596V271.295M1010.13 309.596H1048.43M1010.13 271.295V232.994M1010.13 271.295H1048.43M1010.13 232.994V194.693M1010.13 232.994H1048.43M1010.13 194.693V156.393M1010.13 194.693H1048.43M1010.13 156.393V118.092M1010.13 156.393H1048.43M1010.13 118.092V79.7906M1010.13 118.092H1048.43M1010.13 79.7906V41.4896M1010.13 79.7906H1048.43M1010.13 41.4896H1048.43M1048.43 807.509V769.208M1048.43 807.509H1086.73V769.208M1048.43 769.208V730.907M1048.43 769.208H1086.73M1048.43 730.907V692.606M1048.43 730.907H1086.73M1048.43 692.606V654.305M1048.43 692.606H1086.73M1048.43 654.305V616.004M1048.43 654.305H1086.73M1048.43 616.004V577.703M1048.43 616.004H1086.73M1048.43 577.703V539.402M1048.43 577.703H1086.73M1048.43 539.402V501.101M1048.43 539.402H1086.73M1048.43 501.101V462.8M1048.43 501.101H1086.73M1048.43 462.8V424.499M1048.43 462.8H1086.73M1048.43 424.499V386.198M1048.43 424.499H1086.73M1048.43 386.198V347.897M1048.43 386.198H1086.73M1048.43 347.897V309.596M1048.43 347.897H1086.73M1048.43 309.596V271.295M1048.43 309.596H1086.73M1048.43 271.295V232.994M1048.43 271.295H1086.73M1048.43 232.994V194.693M1048.43 232.994H1086.73M1048.43 194.693V156.393M1048.43 194.693H1086.73M1048.43 156.393V118.092M1048.43 156.393H1086.73M1048.43 118.092V79.7906M1048.43 118.092H1086.73M1048.43 79.7906V41.4896M1048.43 79.7906H1086.73M1048.43 41.4896H1086.73V79.7906M1086.73 769.208V730.907M1086.73 730.907V692.606M1086.73 692.606V654.305M1086.73 654.305V616.004M1086.73 616.004V577.703M1086.73 577.703V539.402M1086.73 539.402V501.101M1086.73 501.101V462.8M1086.73 462.8V424.499M1086.73 424.499V386.198M1086.73 386.198V347.897M1086.73 347.897V309.596M1086.73 309.596V271.295M1086.73 271.295V232.994M1086.73 232.994V194.693M1086.73 194.693V156.393M1086.73 156.393V118.092M1086.73 118.092V79.7906" stroke="url(#paint1_radial_1345_5844)" stroke-opacity="0.72" stroke-width="0.478762"/>
</g>
</g>
<defs>
<radialGradient id="paint0_radial_1345_5844" cx="0" cy="0" r="1" gradientUnits="userSpaceOnUse" gradientTransform="translate(244.112 424.5) rotate(-90) scale(394.5 689.71)">
<stop offset="0.665789" stop-color="white"/>
<stop offset="1" stop-color="white" stop-opacity="0.2"/>
</radialGradient>
<radialGradient id="paint1_radial_1345_5844" cx="0" cy="0" r="1" gradientUnits="userSpaceOnUse" gradientTransform="translate(244.113 448.995) rotate(-90) scale(432.695 768.7)">
<stop offset="0.665789" stop-color="white"/>
<stop offset="1" stop-color="white" stop-opacity="0.2"/>
</radialGradient>
<clipPath id="clip0_1345_5844">
<rect width="153" height="230" fill="white"/>
</clipPath>
</defs>
</svg>
