<svg width="384" height="216" viewBox="0 0 384 216" fill="none" xmlns="http://www.w3.org/2000/svg">
<g clip-path="url(#clip0_882_7844)">
<path d="M-4 -105.034H1090.46V579H-4V-105.034Z" fill="url(#paint0_radial_882_7844)" fill-opacity="0.09"/>
<g style="mix-blend-mode:soft-light">
<path d="M187.895 -82.1448V-72.1056M187.895 -72.1056V-62.0665M187.895 -72.1056H177.855M187.895 -72.1056H197.934M187.895 185.566V195.605M187.895 195.605V205.644M187.895 195.605H177.855M187.895 195.605H197.934M187.895 453.276V463.316M187.895 463.316V473.355M187.895 463.316H177.855M187.895 463.316H197.934M455.605 -82.1448V-72.1056M455.605 -72.1056V-62.0665M455.605 -72.1056H445.566M455.605 -72.1056H465.644M455.605 185.566V195.605M455.605 195.605V205.644M455.605 195.605H445.566M455.605 195.605H465.644M455.605 453.276V463.316M455.605 463.316V473.355M455.605 463.316H445.566M455.605 463.316H465.644M723.316 -82.1448V-72.1056M723.316 -72.1056V-62.0665M723.316 -72.1056H713.277M723.316 -72.1056H733.355M723.316 185.566V195.605M723.316 195.605V205.644M723.316 195.605H713.277M723.316 195.605H733.355M723.316 453.276V463.316M723.316 463.316V473.355M723.316 463.316H713.277M723.316 463.316H733.355M991.027 -82.1448V-72.1056M991.027 -72.1056V-62.0665M991.027 -72.1056H980.987M991.027 -72.1056H1001.07M991.027 185.566V195.605M991.027 195.605V205.644M991.027 195.605H980.987M991.027 195.605H1001.07M991.027 453.276V463.316M991.027 463.316V473.355M991.027 463.316H980.987M991.027 463.316H1001.07M1258.74 -82.1448V-72.1056M1258.74 -72.1056V-62.0665M1258.74 -72.1056H1248.7M1258.74 -72.1056H1268.78M1258.74 185.566V195.605M1258.74 195.605V205.644M1258.74 195.605H1248.7M1258.74 195.605H1268.78M1258.74 453.276V463.316M1258.74 463.316V473.355M1258.74 463.316H1248.7M1258.74 463.316H1268.78M1526.45 -82.1448V-72.1056M1526.45 -72.1056V-62.0665M1526.45 -72.1056H1516.41M1526.45 -72.1056H1536.49M1526.45 185.566V195.605M1526.45 195.605V205.644M1526.45 195.605H1516.41M1526.45 195.605H1536.49M1526.45 453.276V463.316M1526.45 463.316V473.355M1526.45 463.316H1516.41M1526.45 463.316H1536.49M187.895 -216V-205.961M187.895 -205.961V-195.922M187.895 -205.961H177.855M187.895 -205.961H197.934M187.895 51.7107V61.7498M187.895 61.7498V71.7889M187.895 61.7498H177.855M187.895 61.7498H197.934M187.895 319.421V329.46M187.895 329.46V339.499M187.895 329.46H177.855M187.895 329.46H197.934M455.605 -216V-205.961M455.605 -205.961V-195.922M455.605 -205.961H445.566M455.605 -205.961H465.644M455.605 51.7107V61.7498M455.605 61.7498V71.7889M455.605 61.7498H445.566M455.605 61.7498H465.644M455.605 319.421V329.46M455.605 329.46V339.499M455.605 329.46H445.566M455.605 329.46H465.644M723.316 -216V-205.961M723.316 -205.961V-195.922M723.316 -205.961H713.277M723.316 -205.961H733.355M723.316 51.7107V61.7498M723.316 61.7498V71.7889M723.316 61.7498H713.277M723.316 61.7498H733.355M723.316 319.421V329.46M723.316 329.46V339.499M723.316 329.46H713.277M723.316 329.46H733.355M991.027 -216V-205.961M991.027 -205.961V-195.922M991.027 -205.961H980.987M991.027 -205.961H1001.07M991.027 51.7107V61.7498M991.027 61.7498V71.7889M991.027 61.7498H980.987M991.027 61.7498H1001.07M991.027 319.421V329.46M991.027 329.46V339.499M991.027 329.46H980.987M991.027 329.46H1001.07M1258.74 -216V-205.961M1258.74 -205.961V-195.922M1258.74 -205.961H1248.7M1258.74 -205.961H1268.78M1258.74 51.7107V61.7498M1258.74 61.7498V71.7889M1258.74 61.7498H1248.7M1258.74 61.7498H1268.78M1258.74 319.421V329.46M1258.74 329.46V339.499M1258.74 329.46H1248.7M1258.74 329.46H1268.78M1526.45 -216V-205.961M1526.45 -205.961V-195.922M1526.45 -205.961H1516.41M1526.45 -205.961H1536.49M1526.45 51.7107V61.7498M1526.45 61.7498V71.7889M1526.45 61.7498H1516.41M1526.45 61.7498H1536.49M1526.45 319.421V329.46M1526.45 329.46V339.499M1526.45 329.46H1516.41M1526.45 329.46H1536.49M54.0392 -82.1448V-72.1056M54.0392 -72.1056V-62.0665M54.0392 -72.1056H44M54.0392 -72.1056H64.0783M54.0392 185.566V195.605M54.0392 195.605V205.644M54.0392 195.605H44M54.0392 195.605H64.0783M54.0392 453.276V463.316M54.0392 463.316V473.355M54.0392 463.316H44M54.0392 463.316H64.0783M321.75 -82.1448V-72.1056M321.75 -72.1056V-62.0665M321.75 -72.1056H311.711M321.75 -72.1056H331.789M321.75 185.566V195.605M321.75 195.605V205.644M321.75 195.605H311.711M321.75 195.605H331.789M321.75 453.276V463.316M321.75 463.316V473.355M321.75 463.316H311.711M321.75 463.316H331.789M589.461 -82.1448V-72.1056M589.461 -72.1056V-62.0665M589.461 -72.1056H579.421M589.461 -72.1056H599.5M589.461 185.566V195.605M589.461 195.605V205.644M589.461 195.605H579.421M589.461 195.605H599.5M589.461 453.276V463.316M589.461 463.316V473.355M589.461 463.316H579.421M589.461 463.316H599.5M857.171 -82.1448V-72.1056M857.171 -72.1056V-62.0665M857.171 -72.1056H847.132M857.171 -72.1056H867.21M857.171 185.566V195.605M857.171 195.605V205.644M857.171 195.605H847.132M857.171 195.605H867.21M857.171 453.276V463.316M857.171 463.316V473.355M857.171 463.316H847.132M857.171 463.316H867.21M1124.88 -82.1448V-72.1056M1124.88 -72.1056V-62.0665M1124.88 -72.1056H1114.84M1124.88 -72.1056H1134.92M1124.88 185.566V195.605M1124.88 195.605V205.644M1124.88 195.605H1114.84M1124.88 195.605H1134.92M1124.88 453.276V463.316M1124.88 463.316V473.355M1124.88 463.316H1114.84M1124.88 463.316H1134.92M1392.59 -82.1448V-72.1056M1392.59 -72.1056V-62.0665M1392.59 -72.1056H1382.55M1392.59 -72.1056H1402.63M1392.59 185.566V195.605M1392.59 195.605V205.644M1392.59 195.605H1382.55M1392.59 195.605H1402.63M1392.59 453.276V463.316M1392.59 463.316V473.355M1392.59 463.316H1382.55M1392.59 463.316H1402.63M54.0392 -216V-205.961M54.0392 -205.961V-195.922M54.0392 -205.961H44M54.0392 -205.961H64.0783M54.0392 51.7107V61.7498M54.0392 61.7498V71.7889M54.0392 61.7498H44M54.0392 61.7498H64.0783M54.0392 319.421V329.46M54.0392 329.46V339.499M54.0392 329.46H44M54.0392 329.46H64.0783M321.75 -216V-205.961M321.75 -205.961V-195.922M321.75 -205.961H311.711M321.75 -205.961H331.789M321.75 51.7107V61.7498M321.75 61.7498V71.7889M321.75 61.7498H311.711M321.75 61.7498H331.789M321.75 319.421V329.46M321.75 329.46V339.499M321.75 329.46H311.711M321.75 329.46H331.789M589.461 -216V-205.961M589.461 -205.961V-195.922M589.461 -205.961H579.421M589.461 -205.961H599.5M589.461 51.7107V61.7498M589.461 61.7498V71.7889M589.461 61.7498H579.421M589.461 61.7498H599.5M589.461 319.421V329.46M589.461 329.46V339.499M589.461 329.46H579.421M589.461 329.46H599.5M857.171 -216V-205.961M857.171 -205.961V-195.922M857.171 -205.961H847.132M857.171 -205.961H867.21M857.171 51.7107V61.7498M857.171 61.7498V71.7889M857.171 61.7498H847.132M857.171 61.7498H867.21M857.171 319.421V329.46M857.171 329.46V339.499M857.171 329.46H847.132M857.171 329.46H867.21M1124.88 -216V-205.961M1124.88 -205.961V-195.922M1124.88 -205.961H1114.84M1124.88 -205.961H1134.92M1124.88 51.7107V61.7498M1124.88 61.7498V71.7889M1124.88 61.7498H1114.84M1124.88 61.7498H1134.92M1124.88 319.421V329.46M1124.88 329.46V339.499M1124.88 329.46H1114.84M1124.88 329.46H1134.92M1392.59 -216V-205.961M1392.59 -205.961V-195.922M1392.59 -205.961H1382.55M1392.59 -205.961H1402.63M1392.59 51.7107V61.7498M1392.59 61.7498V71.7889M1392.59 61.7498H1382.55M1392.59 61.7498H1402.63M1392.59 319.421V329.46M1392.59 329.46V339.499M1392.59 329.46H1382.55M1392.59 329.46H1402.63" stroke="url(#paint1_radial_882_7844)" stroke-width="0.760038"/>
</g>
<g style="mix-blend-mode:soft-light" opacity="0.48">
<path d="M154.503 -205.96H121.039V-172.497M154.503 -205.96V-172.497M154.503 -205.96H187.967M154.503 -172.497H121.039M154.503 -172.497V-139.033M154.503 -172.497H187.967M121.039 -172.497V-139.033M154.503 -139.033H121.039M154.503 -139.033V-105.569M154.503 -139.033H187.967M121.039 -139.033V-105.569M154.503 -105.569H121.039M154.503 -105.569V-72.1051M154.503 -105.569H187.967M121.039 -105.569V-72.1051M154.503 -72.1051H121.039M154.503 -72.1051V-38.6413M154.503 -72.1051H187.967M121.039 -72.1051V-38.6413M154.503 -38.6413H121.039M154.503 -38.6413V-5.17748M154.503 -38.6413H187.967M121.039 -38.6413V-5.17748M154.503 -5.17748H121.039M154.503 -5.17748V28.2864M154.503 -5.17748H187.967M121.039 -5.17748V28.2864M154.503 28.2864H121.039M154.503 28.2864V61.7502M154.503 28.2864H187.967M121.039 28.2864V61.7502M154.503 61.7502H121.039M154.503 61.7502V95.214M154.503 61.7502H187.967M121.039 61.7502V95.214M154.503 95.214H121.039M154.503 95.214V128.678M154.503 95.214H187.967M121.039 95.214V128.678M154.503 128.678H121.039M154.503 128.678V162.142M154.503 128.678H187.967M121.039 128.678V162.142M154.503 162.142H121.039M154.503 162.142V195.605M154.503 162.142H187.967M121.039 162.142V195.605M154.503 195.605H121.039M154.503 195.605V229.069M154.503 195.605H187.967M121.039 195.605V229.069M154.503 229.069H121.039M154.503 229.069V262.533M154.503 229.069H187.967M121.039 229.069V262.533M154.503 262.533H121.039M154.503 262.533V295.997M154.503 262.533H187.967M121.039 262.533V295.997M154.503 295.997H121.039M154.503 295.997V329.461M154.503 295.997H187.967M121.039 295.997V329.461M154.503 329.461H121.039M154.503 329.461V362.925M154.503 329.461H187.967M121.039 329.461V362.925M154.503 362.925H121.039M154.503 362.925V396.388M154.503 362.925H187.967M121.039 362.925V396.388M154.503 396.388H121.039M154.503 396.388V429.852M154.503 396.388H187.967M121.039 396.388V429.852M154.503 429.852H121.039M154.503 429.852V463.316M154.503 429.852H187.967M121.039 429.852V463.316H154.503M154.503 463.316H187.967M187.967 -205.96V-172.497M187.967 -205.96H221.431M187.967 -172.497V-139.033M187.967 -172.497H221.431M187.967 -139.033V-105.569M187.967 -139.033H221.431M187.967 -105.569V-72.1051M187.967 -105.569H221.431M187.967 -72.1051V-38.6413M187.967 -72.1051H221.431M187.967 -38.6413V-5.17748M187.967 -38.6413H221.431M187.967 -5.17748V28.2864M187.967 -5.17748H221.431M187.967 28.2864V61.7502M187.967 28.2864H221.431M187.967 61.7502V95.214M187.967 61.7502H221.431M187.967 95.214V128.678M187.967 95.214H221.431M187.967 128.678V162.142M187.967 128.678H221.431M187.967 162.142V195.605M187.967 162.142H221.431M187.967 195.605V229.069M187.967 195.605H221.431M187.967 229.069V262.533M187.967 229.069H221.431M187.967 262.533V295.997M187.967 262.533H221.431M187.967 295.997V329.461M187.967 295.997H221.431M187.967 329.461V362.925M187.967 329.461H221.431M187.967 362.925V396.388M187.967 362.925H221.431M187.967 396.388V429.852M187.967 396.388H221.431M187.967 429.852V463.316M187.967 429.852H221.431M187.967 463.316H221.431M221.431 -205.96V-172.497M221.431 -205.96H254.894M221.431 -172.497V-139.033M221.431 -172.497H254.894M221.431 -139.033V-105.569M221.431 -139.033H254.894M221.431 -105.569V-72.1051M221.431 -105.569H254.894M221.431 -72.1051V-38.6413M221.431 -72.1051H254.894M221.431 -38.6413V-5.17748M221.431 -38.6413H254.894M221.431 -5.17748V28.2864M221.431 -5.17748H254.894M221.431 28.2864V61.7502M221.431 28.2864H254.894M221.431 61.7502V95.214M221.431 61.7502H254.894M221.431 95.214V128.678M221.431 95.214H254.894M221.431 128.678V162.142M221.431 128.678H254.894M221.431 162.142V195.605M221.431 162.142H254.894M221.431 195.605V229.069M221.431 195.605H254.894M221.431 229.069V262.533M221.431 229.069H254.894M221.431 262.533V295.997M221.431 262.533H254.894M221.431 295.997V329.461M221.431 295.997H254.894M221.431 329.461V362.925M221.431 329.461H254.894M221.431 362.925V396.388M221.431 362.925H254.894M221.431 396.388V429.852M221.431 396.388H254.894M221.431 429.852V463.316M221.431 429.852H254.894M221.431 463.316H254.894M254.894 -205.96V-172.497M254.894 -205.96H288.358M254.894 -172.497V-139.033M254.894 -172.497H288.358M254.894 -139.033V-105.569M254.894 -139.033H288.358M254.894 -105.569V-72.1051M254.894 -105.569H288.358M254.894 -72.1051V-38.6413M254.894 -72.1051H288.358M254.894 -38.6413V-5.17748M254.894 -38.6413H288.358M254.894 -5.17748V28.2864M254.894 -5.17748H288.358M254.894 28.2864V61.7502M254.894 28.2864H288.358M254.894 61.7502V95.214M254.894 61.7502H288.358M254.894 95.214V128.678M254.894 95.214H288.358M254.894 128.678V162.142M254.894 128.678H288.358M254.894 162.142V195.605M254.894 162.142H288.358M254.894 195.605V229.069M254.894 195.605H288.358M254.894 229.069V262.533M254.894 229.069H288.358M254.894 262.533V295.997M254.894 262.533H288.358M254.894 295.997V329.461M254.894 295.997H288.358M254.894 329.461V362.925M254.894 329.461H288.358M254.894 362.925V396.388M254.894 362.925H288.358M254.894 396.388V429.852M254.894 396.388H288.358M254.894 429.852V463.316M254.894 429.852H288.358M254.894 463.316H288.358M288.358 -205.96V-172.497M288.358 -205.96H321.822M288.358 -172.497V-139.033M288.358 -172.497H321.822M288.358 -139.033V-105.569M288.358 -139.033H321.822M288.358 -105.569V-72.1051M288.358 -105.569H321.822M288.358 -72.1051V-38.6413M288.358 -72.1051H321.822M288.358 -38.6413V-5.17748M288.358 -38.6413H321.822M288.358 -5.17748V28.2864M288.358 -5.17748H321.822M288.358 28.2864V61.7502M288.358 28.2864H321.822M288.358 61.7502V95.214M288.358 61.7502H321.822M288.358 95.214V128.678M288.358 95.214H321.822M288.358 128.678V162.142M288.358 128.678H321.822M288.358 162.142V195.605M288.358 162.142H321.822M288.358 195.605V229.069M288.358 195.605H321.822M288.358 229.069V262.533M288.358 229.069H321.822M288.358 262.533V295.997M288.358 262.533H321.822M288.358 295.997V329.461M288.358 295.997H321.822M288.358 329.461V362.925M288.358 329.461H321.822M288.358 362.925V396.388M288.358 362.925H321.822M288.358 396.388V429.852M288.358 396.388H321.822M288.358 429.852V463.316M288.358 429.852H321.822M288.358 463.316H321.822M321.822 -205.96V-172.497M321.822 -205.96H355.286M321.822 -172.497V-139.033M321.822 -172.497H355.286M321.822 -139.033V-105.569M321.822 -139.033H355.286M321.822 -105.569V-72.1051M321.822 -105.569H355.286M321.822 -72.1051V-38.6413M321.822 -72.1051H355.286M321.822 -38.6413V-5.17748M321.822 -38.6413H355.286M321.822 -5.17748V28.2864M321.822 -5.17748H355.286M321.822 28.2864V61.7502M321.822 28.2864H355.286M321.822 61.7502V95.214M321.822 61.7502H355.286M321.822 95.214V128.678M321.822 95.214H355.286M321.822 128.678V162.142M321.822 128.678H355.286M321.822 162.142V195.605M321.822 162.142H355.286M321.822 195.605V229.069M321.822 195.605H355.286M321.822 229.069V262.533M321.822 229.069H355.286M321.822 262.533V295.997M321.822 262.533H355.286M321.822 295.997V329.461M321.822 295.997H355.286M321.822 329.461V362.925M321.822 329.461H355.286M321.822 362.925V396.388M321.822 362.925H355.286M321.822 396.388V429.852M321.822 396.388H355.286M321.822 429.852V463.316M321.822 429.852H355.286M321.822 463.316H355.286M355.286 -205.96V-172.497M355.286 -205.96H388.75M355.286 -172.497V-139.033M355.286 -172.497H388.75M355.286 -139.033V-105.569M355.286 -139.033H388.75M355.286 -105.569V-72.1051M355.286 -105.569H388.75M355.286 -72.1051V-38.6413M355.286 -72.1051H388.75M355.286 -38.6413V-5.17748M355.286 -38.6413H388.75M355.286 -5.17748V28.2864M355.286 -5.17748H388.75M355.286 28.2864V61.7502M355.286 28.2864H388.75M355.286 61.7502V95.214M355.286 61.7502H388.75M355.286 95.214V128.678M355.286 95.214H388.75M355.286 128.678V162.142M355.286 128.678H388.75M355.286 162.142V195.605M355.286 162.142H388.75M355.286 195.605V229.069M355.286 195.605H388.75M355.286 229.069V262.533M355.286 229.069H388.75M355.286 262.533V295.997M355.286 262.533H388.75M355.286 295.997V329.461M355.286 295.997H388.75M355.286 329.461V362.925M355.286 329.461H388.75M355.286 362.925V396.388M355.286 362.925H388.75M355.286 396.388V429.852M355.286 396.388H388.75M355.286 429.852V463.316M355.286 429.852H388.75M355.286 463.316H388.75M388.75 -205.96V-172.497M388.75 -205.96H422.214M388.75 -172.497V-139.033M388.75 -172.497H422.214M388.75 -139.033V-105.569M388.75 -139.033H422.214M388.75 -105.569V-72.1051M388.75 -105.569H422.214M388.75 -72.1051V-38.6413M388.75 -72.1051H422.214M388.75 -38.6413V-5.17748M388.75 -38.6413H422.214M388.75 -5.17748V28.2864M388.75 -5.17748H422.214M388.75 28.2864V61.7502M388.75 28.2864H422.214M388.75 61.7502V95.214M388.75 61.7502H422.214M388.75 95.214V128.678M388.75 95.214H422.214M388.75 128.678V162.142M388.75 128.678H422.214M388.75 162.142V195.605M388.75 162.142H422.214M388.75 195.605V229.069M388.75 195.605H422.214M388.75 229.069V262.533M388.75 229.069H422.214M388.75 262.533V295.997M388.75 262.533H422.214M388.75 295.997V329.461M388.75 295.997H422.214M388.75 329.461V362.925M388.75 329.461H422.214M388.75 362.925V396.388M388.75 362.925H422.214M388.75 396.388V429.852M388.75 396.388H422.214M388.75 429.852V463.316M388.75 429.852H422.214M388.75 463.316H422.214M422.214 -205.96V-172.497M422.214 -205.96H455.677M422.214 -172.497V-139.033M422.214 -172.497H455.677M422.214 -139.033V-105.569M422.214 -139.033H455.677M422.214 -105.569V-72.1051M422.214 -105.569H455.677M422.214 -72.1051V-38.6413M422.214 -72.1051H455.677M422.214 -38.6413V-5.17748M422.214 -38.6413H455.677M422.214 -5.17748V28.2864M422.214 -5.17748H455.677M422.214 28.2864V61.7502M422.214 28.2864H455.677M422.214 61.7502V95.214M422.214 61.7502H455.677M422.214 95.214V128.678M422.214 95.214H455.677M422.214 128.678V162.142M422.214 128.678H455.677M422.214 162.142V195.605M422.214 162.142H455.677M422.214 195.605V229.069M422.214 195.605H455.677M422.214 229.069V262.533M422.214 229.069H455.677M422.214 262.533V295.997M422.214 262.533H455.677M422.214 295.997V329.461M422.214 295.997H455.677M422.214 329.461V362.925M422.214 329.461H455.677M422.214 362.925V396.388M422.214 362.925H455.677M422.214 396.388V429.852M422.214 396.388H455.677M422.214 429.852V463.316M422.214 429.852H455.677M422.214 463.316H455.677M455.677 -205.96V-172.497M455.677 -205.96H489.141M455.677 -172.497V-139.033M455.677 -172.497H489.141M455.677 -139.033V-105.569M455.677 -139.033H489.141M455.677 -105.569V-72.1051M455.677 -105.569H489.141M455.677 -72.1051V-38.6413M455.677 -72.1051H489.141M455.677 -38.6413V-5.17748M455.677 -38.6413H489.141M455.677 -5.17748V28.2864M455.677 -5.17748H489.141M455.677 28.2864V61.7502M455.677 28.2864H489.141M455.677 61.7502V95.214M455.677 61.7502H489.141M455.677 95.214V128.678M455.677 95.214H489.141M455.677 128.678V162.142M455.677 128.678H489.141M455.677 162.142V195.605M455.677 162.142H489.141M455.677 195.605V229.069M455.677 195.605H489.141M455.677 229.069V262.533M455.677 229.069H489.141M455.677 262.533V295.997M455.677 262.533H489.141M455.677 295.997V329.461M455.677 295.997H489.141M455.677 329.461V362.925M455.677 329.461H489.141M455.677 362.925V396.388M455.677 362.925H489.141M455.677 396.388V429.852M455.677 396.388H489.141M455.677 429.852V463.316M455.677 429.852H489.141M455.677 463.316H489.141M489.141 -205.96V-172.497M489.141 -205.96H522.605M489.141 -172.497V-139.033M489.141 -172.497H522.605M489.141 -139.033V-105.569M489.141 -139.033H522.605M489.141 -105.569V-72.1051M489.141 -105.569H522.605M489.141 -72.1051V-38.6413M489.141 -72.1051H522.605M489.141 -38.6413V-5.17748M489.141 -38.6413H522.605M489.141 -5.17748V28.2864M489.141 -5.17748H522.605M489.141 28.2864V61.7502M489.141 28.2864H522.605M489.141 61.7502V95.214M489.141 61.7502H522.605M489.141 95.214V128.678M489.141 95.214H522.605M489.141 128.678V162.142M489.141 128.678H522.605M489.141 162.142V195.605M489.141 162.142H522.605M489.141 195.605V229.069M489.141 195.605H522.605M489.141 229.069V262.533M489.141 229.069H522.605M489.141 262.533V295.997M489.141 262.533H522.605M489.141 295.997V329.461M489.141 295.997H522.605M489.141 329.461V362.925M489.141 329.461H522.605M489.141 362.925V396.388M489.141 362.925H522.605M489.141 396.388V429.852M489.141 396.388H522.605M489.141 429.852V463.316M489.141 429.852H522.605M489.141 463.316H522.605M522.605 -205.96V-172.497M522.605 -205.96H556.069M522.605 -172.497V-139.033M522.605 -172.497H556.069M522.605 -139.033V-105.569M522.605 -139.033H556.069M522.605 -105.569V-72.1051M522.605 -105.569H556.069M522.605 -72.1051V-38.6413M522.605 -72.1051H556.069M522.605 -38.6413V-5.17748M522.605 -38.6413H556.069M522.605 -5.17748V28.2864M522.605 -5.17748H556.069M522.605 28.2864V61.7502M522.605 28.2864H556.069M522.605 61.7502V95.214M522.605 61.7502H556.069M522.605 95.214V128.678M522.605 95.214H556.069M522.605 128.678V162.142M522.605 128.678H556.069M522.605 162.142V195.605M522.605 162.142H556.069M522.605 195.605V229.069M522.605 195.605H556.069M522.605 229.069V262.533M522.605 229.069H556.069M522.605 262.533V295.997M522.605 262.533H556.069M522.605 295.997V329.461M522.605 295.997H556.069M522.605 329.461V362.925M522.605 329.461H556.069M522.605 362.925V396.388M522.605 362.925H556.069M522.605 396.388V429.852M522.605 396.388H556.069M522.605 429.852V463.316M522.605 429.852H556.069M522.605 463.316H556.069M556.069 -205.96V-172.497M556.069 -205.96H589.533M556.069 -172.497V-139.033M556.069 -172.497H589.533M556.069 -139.033V-105.569M556.069 -139.033H589.533M556.069 -105.569V-72.1051M556.069 -105.569H589.533M556.069 -72.1051V-38.6413M556.069 -72.1051H589.533M556.069 -38.6413V-5.17748M556.069 -38.6413H589.533M556.069 -5.17748V28.2864M556.069 -5.17748H589.533M556.069 28.2864V61.7502M556.069 28.2864H589.533M556.069 61.7502V95.214M556.069 61.7502H589.533M556.069 95.214V128.678M556.069 95.214H589.533M556.069 128.678V162.142M556.069 128.678H589.533M556.069 162.142V195.605M556.069 162.142H589.533M556.069 195.605V229.069M556.069 195.605H589.533M556.069 229.069V262.533M556.069 229.069H589.533M556.069 262.533V295.997M556.069 262.533H589.533M556.069 295.997V329.461M556.069 295.997H589.533M556.069 329.461V362.925M556.069 329.461H589.533M556.069 362.925V396.388M556.069 362.925H589.533M556.069 396.388V429.852M556.069 396.388H589.533M556.069 429.852V463.316M556.069 429.852H589.533M556.069 463.316H589.533M589.533 -205.96V-172.497M589.533 -205.96H622.997M589.533 -172.497V-139.033M589.533 -172.497H622.997M589.533 -139.033V-105.569M589.533 -139.033H622.997M589.533 -105.569V-72.1051M589.533 -105.569H622.997M589.533 -72.1051V-38.6413M589.533 -72.1051H622.997M589.533 -38.6413V-5.17748M589.533 -38.6413H622.997M589.533 -5.17748V28.2864M589.533 -5.17748H622.997M589.533 28.2864V61.7502M589.533 28.2864H622.997M589.533 61.7502V95.214M589.533 61.7502H622.997M589.533 95.214V128.678M589.533 95.214H622.997M589.533 128.678V162.142M589.533 128.678H622.997M589.533 162.142V195.605M589.533 162.142H622.997M589.533 195.605V229.069M589.533 195.605H622.997M589.533 229.069V262.533M589.533 229.069H622.997M589.533 262.533V295.997M589.533 262.533H622.997M589.533 295.997V329.461M589.533 295.997H622.997M589.533 329.461V362.925M589.533 329.461H622.997M589.533 362.925V396.388M589.533 362.925H622.997M589.533 396.388V429.852M589.533 396.388H622.997M589.533 429.852V463.316M589.533 429.852H622.997M589.533 463.316H622.997M622.997 -205.96V-172.497M622.997 -205.96H656.46M622.997 -172.497V-139.033M622.997 -172.497H656.46M622.997 -139.033V-105.569M622.997 -139.033H656.46M622.997 -105.569V-72.1051M622.997 -105.569H656.46M622.997 -72.1051V-38.6413M622.997 -72.1051H656.46M622.997 -38.6413V-5.17748M622.997 -38.6413H656.46M622.997 -5.17748V28.2864M622.997 -5.17748H656.46M622.997 28.2864V61.7502M622.997 28.2864H656.46M622.997 61.7502V95.214M622.997 61.7502H656.46M622.997 95.214V128.678M622.997 95.214H656.46M622.997 128.678V162.142M622.997 128.678H656.46M622.997 162.142V195.605M622.997 162.142H656.46M622.997 195.605V229.069M622.997 195.605H656.46M622.997 229.069V262.533M622.997 229.069H656.46M622.997 262.533V295.997M622.997 262.533H656.46M622.997 295.997V329.461M622.997 295.997H656.46M622.997 329.461V362.925M622.997 329.461H656.46M622.997 362.925V396.388M622.997 362.925H656.46M622.997 396.388V429.852M622.997 396.388H656.46M622.997 429.852V463.316M622.997 429.852H656.46M622.997 463.316H656.46M656.46 -205.96V-172.497M656.46 -205.96H689.924M656.46 -172.497V-139.033M656.46 -172.497H689.924M656.46 -139.033V-105.569M656.46 -139.033H689.924M656.46 -105.569V-72.1051M656.46 -105.569H689.924M656.46 -72.1051V-38.6413M656.46 -72.1051H689.924M656.46 -38.6413V-5.17748M656.46 -38.6413H689.924M656.46 -5.17748V28.2864M656.46 -5.17748H689.924M656.46 28.2864V61.7502M656.46 28.2864H689.924M656.46 61.7502V95.214M656.46 61.7502H689.924M656.46 95.214V128.678M656.46 95.214H689.924M656.46 128.678V162.142M656.46 128.678H689.924M656.46 162.142V195.605M656.46 162.142H689.924M656.46 195.605V229.069M656.46 195.605H689.924M656.46 229.069V262.533M656.46 229.069H689.924M656.46 262.533V295.997M656.46 262.533H689.924M656.46 295.997V329.461M656.46 295.997H689.924M656.46 329.461V362.925M656.46 329.461H689.924M656.46 362.925V396.388M656.46 362.925H689.924M656.46 396.388V429.852M656.46 396.388H689.924M656.46 429.852V463.316M656.46 429.852H689.924M656.46 463.316H689.924M689.924 -205.96V-172.497M689.924 -205.96H723.388M689.924 -172.497V-139.033M689.924 -172.497H723.388M689.924 -139.033V-105.569M689.924 -139.033H723.388M689.924 -105.569V-72.1051M689.924 -105.569H723.388M689.924 -72.1051V-38.6413M689.924 -72.1051H723.388M689.924 -38.6413V-5.17748M689.924 -38.6413H723.388M689.924 -5.17748V28.2864M689.924 -5.17748H723.388M689.924 28.2864V61.7502M689.924 28.2864H723.388M689.924 61.7502V95.214M689.924 61.7502H723.388M689.924 95.214V128.678M689.924 95.214H723.388M689.924 128.678V162.142M689.924 128.678H723.388M689.924 162.142V195.605M689.924 162.142H723.388M689.924 195.605V229.069M689.924 195.605H723.388M689.924 229.069V262.533M689.924 229.069H723.388M689.924 262.533V295.997M689.924 262.533H723.388M689.924 295.997V329.461M689.924 295.997H723.388M689.924 329.461V362.925M689.924 329.461H723.388M689.924 362.925V396.388M689.924 362.925H723.388M689.924 396.388V429.852M689.924 396.388H723.388M689.924 429.852V463.316M689.924 429.852H723.388M689.924 463.316H723.388M723.388 -205.96V-172.497M723.388 -205.96H756.852M723.388 -172.497V-139.033M723.388 -172.497H756.852M723.388 -139.033V-105.569M723.388 -139.033H756.852M723.388 -105.569V-72.1051M723.388 -105.569H756.852M723.388 -72.1051V-38.6413M723.388 -72.1051H756.852M723.388 -38.6413V-5.17748M723.388 -38.6413H756.852M723.388 -5.17748V28.2864M723.388 -5.17748H756.852M723.388 28.2864V61.7502M723.388 28.2864H756.852M723.388 61.7502V95.214M723.388 61.7502H756.852M723.388 95.214V128.678M723.388 95.214H756.852M723.388 128.678V162.142M723.388 128.678H756.852M723.388 162.142V195.605M723.388 162.142H756.852M723.388 195.605V229.069M723.388 195.605H756.852M723.388 229.069V262.533M723.388 229.069H756.852M723.388 262.533V295.997M723.388 262.533H756.852M723.388 295.997V329.461M723.388 295.997H756.852M723.388 329.461V362.925M723.388 329.461H756.852M723.388 362.925V396.388M723.388 362.925H756.852M723.388 396.388V429.852M723.388 396.388H756.852M723.388 429.852V463.316M723.388 429.852H756.852M723.388 463.316H756.852M756.852 -205.96V-172.497M756.852 -205.96H790.316M756.852 -172.497V-139.033M756.852 -172.497H790.316M756.852 -139.033V-105.569M756.852 -139.033H790.316M756.852 -105.569V-72.1051M756.852 -105.569H790.316M756.852 -72.1051V-38.6413M756.852 -72.1051H790.316M756.852 -38.6413V-5.17748M756.852 -38.6413H790.316M756.852 -5.17748V28.2864M756.852 -5.17748H790.316M756.852 28.2864V61.7502M756.852 28.2864H790.316M756.852 61.7502V95.214M756.852 61.7502H790.316M756.852 95.214V128.678M756.852 95.214H790.316M756.852 128.678V162.142M756.852 128.678H790.316M756.852 162.142V195.605M756.852 162.142H790.316M756.852 195.605V229.069M756.852 195.605H790.316M756.852 229.069V262.533M756.852 229.069H790.316M756.852 262.533V295.997M756.852 262.533H790.316M756.852 295.997V329.461M756.852 295.997H790.316M756.852 329.461V362.925M756.852 329.461H790.316M756.852 362.925V396.388M756.852 362.925H790.316M756.852 396.388V429.852M756.852 396.388H790.316M756.852 429.852V463.316M756.852 429.852H790.316M756.852 463.316H790.316M790.316 -205.96V-172.497M790.316 -205.96H823.78M790.316 -172.497V-139.033M790.316 -172.497H823.78M790.316 -139.033V-105.569M790.316 -139.033H823.78M790.316 -105.569V-72.1051M790.316 -105.569H823.78M790.316 -72.1051V-38.6413M790.316 -72.1051H823.78M790.316 -38.6413V-5.17748M790.316 -38.6413H823.78M790.316 -5.17748V28.2864M790.316 -5.17748H823.78M790.316 28.2864V61.7502M790.316 28.2864H823.78M790.316 61.7502V95.214M790.316 61.7502H823.78M790.316 95.214V128.678M790.316 95.214H823.78M790.316 128.678V162.142M790.316 128.678H823.78M790.316 162.142V195.605M790.316 162.142H823.78M790.316 195.605V229.069M790.316 195.605H823.78M790.316 229.069V262.533M790.316 229.069H823.78M790.316 262.533V295.997M790.316 262.533H823.78M790.316 295.997V329.461M790.316 295.997H823.78M790.316 329.461V362.925M790.316 329.461H823.78M790.316 362.925V396.388M790.316 362.925H823.78M790.316 396.388V429.852M790.316 396.388H823.78M790.316 429.852V463.316M790.316 429.852H823.78M790.316 463.316H823.78M823.78 -205.96V-172.497M823.78 -205.96H857.243M823.78 -172.497V-139.033M823.78 -172.497H857.243M823.78 -139.033V-105.569M823.78 -139.033H857.243M823.78 -105.569V-72.1051M823.78 -105.569H857.243M823.78 -72.1051V-38.6413M823.78 -72.1051H857.243M823.78 -38.6413V-5.17748M823.78 -38.6413H857.243M823.78 -5.17748V28.2864M823.78 -5.17748H857.243M823.78 28.2864V61.7502M823.78 28.2864H857.243M823.78 61.7502V95.214M823.78 61.7502H857.243M823.78 95.214V128.678M823.78 95.214H857.243M823.78 128.678V162.142M823.78 128.678H857.243M823.78 162.142V195.605M823.78 162.142H857.243M823.78 195.605V229.069M823.78 195.605H857.243M823.78 229.069V262.533M823.78 229.069H857.243M823.78 262.533V295.997M823.78 262.533H857.243M823.78 295.997V329.461M823.78 295.997H857.243M823.78 329.461V362.925M823.78 329.461H857.243M823.78 362.925V396.388M823.78 362.925H857.243M823.78 396.388V429.852M823.78 396.388H857.243M823.78 429.852V463.316M823.78 429.852H857.243M823.78 463.316H857.243M857.243 -205.96V-172.497M857.243 -205.96H890.707M857.243 -172.497V-139.033M857.243 -172.497H890.707M857.243 -139.033V-105.569M857.243 -139.033H890.707M857.243 -105.569V-72.1051M857.243 -105.569H890.707M857.243 -72.1051V-38.6413M857.243 -72.1051H890.707M857.243 -38.6413V-5.17748M857.243 -38.6413H890.707M857.243 -5.17748V28.2864M857.243 -5.17748H890.707M857.243 28.2864V61.7502M857.243 28.2864H890.707M857.243 61.7502V95.214M857.243 61.7502H890.707M857.243 95.214V128.678M857.243 95.214H890.707M857.243 128.678V162.142M857.243 128.678H890.707M857.243 162.142V195.605M857.243 162.142H890.707M857.243 195.605V229.069M857.243 195.605H890.707M857.243 229.069V262.533M857.243 229.069H890.707M857.243 262.533V295.997M857.243 262.533H890.707M857.243 295.997V329.461M857.243 295.997H890.707M857.243 329.461V362.925M857.243 329.461H890.707M857.243 362.925V396.388M857.243 362.925H890.707M857.243 396.388V429.852M857.243 396.388H890.707M857.243 429.852V463.316M857.243 429.852H890.707M857.243 463.316H890.707M890.707 -205.96V-172.497M890.707 -205.96H924.171M890.707 -172.497V-139.033M890.707 -172.497H924.171M890.707 -139.033V-105.569M890.707 -139.033H924.171M890.707 -105.569V-72.1051M890.707 -105.569H924.171M890.707 -72.1051V-38.6413M890.707 -72.1051H924.171M890.707 -38.6413V-5.17748M890.707 -38.6413H924.171M890.707 -5.17748V28.2864M890.707 -5.17748H924.171M890.707 28.2864V61.7502M890.707 28.2864H924.171M890.707 61.7502V95.214M890.707 61.7502H924.171M890.707 95.214V128.678M890.707 95.214H924.171M890.707 128.678V162.142M890.707 128.678H924.171M890.707 162.142V195.605M890.707 162.142H924.171M890.707 195.605V229.069M890.707 195.605H924.171M890.707 229.069V262.533M890.707 229.069H924.171M890.707 262.533V295.997M890.707 262.533H924.171M890.707 295.997V329.461M890.707 295.997H924.171M890.707 329.461V362.925M890.707 329.461H924.171M890.707 362.925V396.388M890.707 362.925H924.171M890.707 396.388V429.852M890.707 396.388H924.171M890.707 429.852V463.316M890.707 429.852H924.171M890.707 463.316H924.171M924.171 -205.96V-172.497M924.171 -205.96H957.635M924.171 -172.497V-139.033M924.171 -172.497H957.635M924.171 -139.033V-105.569M924.171 -139.033H957.635M924.171 -105.569V-72.1051M924.171 -105.569H957.635M924.171 -72.1051V-38.6413M924.171 -72.1051H957.635M924.171 -38.6413V-5.17748M924.171 -38.6413H957.635M924.171 -5.17748V28.2864M924.171 -5.17748H957.635M924.171 28.2864V61.7502M924.171 28.2864H957.635M924.171 61.7502V95.214M924.171 61.7502H957.635M924.171 95.214V128.678M924.171 95.214H957.635M924.171 128.678V162.142M924.171 128.678H957.635M924.171 162.142V195.605M924.171 162.142H957.635M924.171 195.605V229.069M924.171 195.605H957.635M924.171 229.069V262.533M924.171 229.069H957.635M924.171 262.533V295.997M924.171 262.533H957.635M924.171 295.997V329.461M924.171 295.997H957.635M924.171 329.461V362.925M924.171 329.461H957.635M924.171 362.925V396.388M924.171 362.925H957.635M924.171 396.388V429.852M924.171 396.388H957.635M924.171 429.852V463.316M924.171 429.852H957.635M924.171 463.316H957.635M957.635 -205.96V-172.497M957.635 -205.96H991.099M957.635 -172.497V-139.033M957.635 -172.497H991.099M957.635 -139.033V-105.569M957.635 -139.033H991.099M957.635 -105.569V-72.1051M957.635 -105.569H991.099M957.635 -72.1051V-38.6413M957.635 -72.1051H991.099M957.635 -38.6413V-5.17748M957.635 -38.6413H991.099M957.635 -5.17748V28.2864M957.635 -5.17748H991.099M957.635 28.2864V61.7502M957.635 28.2864H991.099M957.635 61.7502V95.214M957.635 61.7502H991.099M957.635 95.214V128.678M957.635 95.214H991.099M957.635 128.678V162.142M957.635 128.678H991.099M957.635 162.142V195.605M957.635 162.142H991.099M957.635 195.605V229.069M957.635 195.605H991.099M957.635 229.069V262.533M957.635 229.069H991.099M957.635 262.533V295.997M957.635 262.533H991.099M957.635 295.997V329.461M957.635 295.997H991.099M957.635 329.461V362.925M957.635 329.461H991.099M957.635 362.925V396.388M957.635 362.925H991.099M957.635 396.388V429.852M957.635 396.388H991.099M957.635 429.852V463.316M957.635 429.852H991.099M957.635 463.316H991.099M991.099 -205.96V-172.497M991.099 -205.96H1024.56M991.099 -172.497V-139.033M991.099 -172.497H1024.56M991.099 -139.033V-105.569M991.099 -139.033H1024.56M991.099 -105.569V-72.1051M991.099 -105.569H1024.56M991.099 -72.1051V-38.6413M991.099 -72.1051H1024.56M991.099 -38.6413V-5.17748M991.099 -38.6413H1024.56M991.099 -5.17748V28.2864M991.099 -5.17748H1024.56M991.099 28.2864V61.7502M991.099 28.2864H1024.56M991.099 61.7502V95.214M991.099 61.7502H1024.56M991.099 95.214V128.678M991.099 95.214H1024.56M991.099 128.678V162.142M991.099 128.678H1024.56M991.099 162.142V195.605M991.099 162.142H1024.56M991.099 195.605V229.069M991.099 195.605H1024.56M991.099 229.069V262.533M991.099 229.069H1024.56M991.099 262.533V295.997M991.099 262.533H1024.56M991.099 295.997V329.461M991.099 295.997H1024.56M991.099 329.461V362.925M991.099 329.461H1024.56M991.099 362.925V396.388M991.099 362.925H1024.56M991.099 396.388V429.852M991.099 396.388H1024.56M991.099 429.852V463.316M991.099 429.852H1024.56M991.099 463.316H1024.56M1024.56 -205.96V-172.497M1024.56 -205.96H1058.03M1024.56 -172.497V-139.033M1024.56 -172.497H1058.03M1024.56 -139.033V-105.569M1024.56 -139.033H1058.03M1024.56 -105.569V-72.1051M1024.56 -105.569H1058.03M1024.56 -72.1051V-38.6413M1024.56 -72.1051H1058.03M1024.56 -38.6413V-5.17748M1024.56 -38.6413H1058.03M1024.56 -5.17748V28.2864M1024.56 -5.17748H1058.03M1024.56 28.2864V61.7502M1024.56 28.2864H1058.03M1024.56 61.7502V95.214M1024.56 61.7502H1058.03M1024.56 95.214V128.678M1024.56 95.214H1058.03M1024.56 128.678V162.142M1024.56 128.678H1058.03M1024.56 162.142V195.605M1024.56 162.142H1058.03M1024.56 195.605V229.069M1024.56 195.605H1058.03M1024.56 229.069V262.533M1024.56 229.069H1058.03M1024.56 262.533V295.997M1024.56 262.533H1058.03M1024.56 295.997V329.461M1024.56 295.997H1058.03M1024.56 329.461V362.925M1024.56 329.461H1058.03M1024.56 362.925V396.388M1024.56 362.925H1058.03M1024.56 396.388V429.852M1024.56 396.388H1058.03M1024.56 429.852V463.316M1024.56 429.852H1058.03M1024.56 463.316H1058.03M1058.03 -205.96V-172.497M1058.03 -205.96H1091.49M1058.03 -172.497V-139.033M1058.03 -172.497H1091.49M1058.03 -139.033V-105.569M1058.03 -139.033H1091.49M1058.03 -105.569V-72.1051M1058.03 -105.569H1091.49M1058.03 -72.1051V-38.6413M1058.03 -72.1051H1091.49M1058.03 -38.6413V-5.17748M1058.03 -38.6413H1091.49M1058.03 -5.17748V28.2864M1058.03 -5.17748H1091.49M1058.03 28.2864V61.7502M1058.03 28.2864H1091.49M1058.03 61.7502V95.214M1058.03 61.7502H1091.49M1058.03 95.214V128.678M1058.03 95.214H1091.49M1058.03 128.678V162.142M1058.03 128.678H1091.49M1058.03 162.142V195.605M1058.03 162.142H1091.49M1058.03 195.605V229.069M1058.03 195.605H1091.49M1058.03 229.069V262.533M1058.03 229.069H1091.49M1058.03 262.533V295.997M1058.03 262.533H1091.49M1058.03 295.997V329.461M1058.03 295.997H1091.49M1058.03 329.461V362.925M1058.03 329.461H1091.49M1058.03 362.925V396.388M1058.03 362.925H1091.49M1058.03 396.388V429.852M1058.03 396.388H1091.49M1058.03 429.852V463.316M1058.03 429.852H1091.49M1058.03 463.316H1091.49M1091.49 -205.96V-172.497M1091.49 -205.96H1124.95M1091.49 -172.497V-139.033M1091.49 -172.497H1124.95M1091.49 -139.033V-105.569M1091.49 -139.033H1124.95M1091.49 -105.569V-72.1051M1091.49 -105.569H1124.95M1091.49 -72.1051V-38.6413M1091.49 -72.1051H1124.95M1091.49 -38.6413V-5.17748M1091.49 -38.6413H1124.95M1091.49 -5.17748V28.2864M1091.49 -5.17748H1124.95M1091.49 28.2864V61.7502M1091.49 28.2864H1124.95M1091.49 61.7502V95.214M1091.49 61.7502H1124.95M1091.49 95.214V128.678M1091.49 95.214H1124.95M1091.49 128.678V162.142M1091.49 128.678H1124.95M1091.49 162.142V195.605M1091.49 162.142H1124.95M1091.49 195.605V229.069M1091.49 195.605H1124.95M1091.49 229.069V262.533M1091.49 229.069H1124.95M1091.49 262.533V295.997M1091.49 262.533H1124.95M1091.49 295.997V329.461M1091.49 295.997H1124.95M1091.49 329.461V362.925M1091.49 329.461H1124.95M1091.49 362.925V396.388M1091.49 362.925H1124.95M1091.49 396.388V429.852M1091.49 396.388H1124.95M1091.49 429.852V463.316M1091.49 429.852H1124.95M1091.49 463.316H1124.95M1124.95 -205.96V-172.497M1124.95 -205.96H1158.42M1124.95 -172.497V-139.033M1124.95 -172.497H1158.42M1124.95 -139.033V-105.569M1124.95 -139.033H1158.42M1124.95 -105.569V-72.1051M1124.95 -105.569H1158.42M1124.95 -72.1051V-38.6413M1124.95 -72.1051H1158.42M1124.95 -38.6413V-5.17748M1124.95 -38.6413H1158.42M1124.95 -5.17748V28.2864M1124.95 -5.17748H1158.42M1124.95 28.2864V61.7502M1124.95 28.2864H1158.42M1124.95 61.7502V95.214M1124.95 61.7502H1158.42M1124.95 95.214V128.678M1124.95 95.214H1158.42M1124.95 128.678V162.142M1124.95 128.678H1158.42M1124.95 162.142V195.605M1124.95 162.142H1158.42M1124.95 195.605V229.069M1124.95 195.605H1158.42M1124.95 229.069V262.533M1124.95 229.069H1158.42M1124.95 262.533V295.997M1124.95 262.533H1158.42M1124.95 295.997V329.461M1124.95 295.997H1158.42M1124.95 329.461V362.925M1124.95 329.461H1158.42M1124.95 362.925V396.388M1124.95 362.925H1158.42M1124.95 396.388V429.852M1124.95 396.388H1158.42M1124.95 429.852V463.316M1124.95 429.852H1158.42M1124.95 463.316H1158.42M1158.42 -205.96V-172.497M1158.42 -205.96H1191.88M1158.42 -172.497V-139.033M1158.42 -172.497H1191.88M1158.42 -139.033V-105.569M1158.42 -139.033H1191.88M1158.42 -105.569V-72.1051M1158.42 -105.569H1191.88M1158.42 -72.1051V-38.6413M1158.42 -72.1051H1191.88M1158.42 -38.6413V-5.17748M1158.42 -38.6413H1191.88M1158.42 -5.17748V28.2864M1158.42 -5.17748H1191.88M1158.42 28.2864V61.7502M1158.42 28.2864H1191.88M1158.42 61.7502V95.214M1158.42 61.7502H1191.88M1158.42 95.214V128.678M1158.42 95.214H1191.88M1158.42 128.678V162.142M1158.42 128.678H1191.88M1158.42 162.142V195.605M1158.42 162.142H1191.88M1158.42 195.605V229.069M1158.42 195.605H1191.88M1158.42 229.069V262.533M1158.42 229.069H1191.88M1158.42 262.533V295.997M1158.42 262.533H1191.88M1158.42 295.997V329.461M1158.42 295.997H1191.88M1158.42 329.461V362.925M1158.42 329.461H1191.88M1158.42 362.925V396.388M1158.42 362.925H1191.88M1158.42 396.388V429.852M1158.42 396.388H1191.88M1158.42 429.852V463.316M1158.42 429.852H1191.88M1158.42 463.316H1191.88M1191.88 -205.96V-172.497M1191.88 -205.96H1225.35M1191.88 -172.497V-139.033M1191.88 -172.497H1225.35M1191.88 -139.033V-105.569M1191.88 -139.033H1225.35M1191.88 -105.569V-72.1051M1191.88 -105.569H1225.35M1191.88 -72.1051V-38.6413M1191.88 -72.1051H1225.35M1191.88 -38.6413V-5.17748M1191.88 -38.6413H1225.35M1191.88 -5.17748V28.2864M1191.88 -5.17748H1225.35M1191.88 28.2864V61.7502M1191.88 28.2864H1225.35M1191.88 61.7502V95.214M1191.88 61.7502H1225.35M1191.88 95.214V128.678M1191.88 95.214H1225.35M1191.88 128.678V162.142M1191.88 128.678H1225.35M1191.88 162.142V195.605M1191.88 162.142H1225.35M1191.88 195.605V229.069M1191.88 195.605H1225.35M1191.88 229.069V262.533M1191.88 229.069H1225.35M1191.88 262.533V295.997M1191.88 262.533H1225.35M1191.88 295.997V329.461M1191.88 295.997H1225.35M1191.88 329.461V362.925M1191.88 329.461H1225.35M1191.88 362.925V396.388M1191.88 362.925H1225.35M1191.88 396.388V429.852M1191.88 396.388H1225.35M1191.88 429.852V463.316M1191.88 429.852H1225.35M1191.88 463.316H1225.35M1225.35 -205.96V-172.497M1225.35 -205.96H1258.81M1225.35 -172.497V-139.033M1225.35 -172.497H1258.81M1225.35 -139.033V-105.569M1225.35 -139.033H1258.81M1225.35 -105.569V-72.1051M1225.35 -105.569H1258.81M1225.35 -72.1051V-38.6413M1225.35 -72.1051H1258.81M1225.35 -38.6413V-5.17748M1225.35 -38.6413H1258.81M1225.35 -5.17748V28.2864M1225.35 -5.17748H1258.81M1225.35 28.2864V61.7502M1225.35 28.2864H1258.81M1225.35 61.7502V95.214M1225.35 61.7502H1258.81M1225.35 95.214V128.678M1225.35 95.214H1258.81M1225.35 128.678V162.142M1225.35 128.678H1258.81M1225.35 162.142V195.605M1225.35 162.142H1258.81M1225.35 195.605V229.069M1225.35 195.605H1258.81M1225.35 229.069V262.533M1225.35 229.069H1258.81M1225.35 262.533V295.997M1225.35 262.533H1258.81M1225.35 295.997V329.461M1225.35 295.997H1258.81M1225.35 329.461V362.925M1225.35 329.461H1258.81M1225.35 362.925V396.388M1225.35 362.925H1258.81M1225.35 396.388V429.852M1225.35 396.388H1258.81M1225.35 429.852V463.316M1225.35 429.852H1258.81M1225.35 463.316H1258.81M1258.81 -205.96V-172.497M1258.81 -205.96H1292.27M1258.81 -172.497V-139.033M1258.81 -172.497H1292.27M1258.81 -139.033V-105.569M1258.81 -139.033H1292.27M1258.81 -105.569V-72.1051M1258.81 -105.569H1292.27M1258.81 -72.1051V-38.6413M1258.81 -72.1051H1292.27M1258.81 -38.6413V-5.17748M1258.81 -38.6413H1292.27M1258.81 -5.17748V28.2864M1258.81 -5.17748H1292.27M1258.81 28.2864V61.7502M1258.81 28.2864H1292.27M1258.81 61.7502V95.214M1258.81 61.7502H1292.27M1258.81 95.214V128.678M1258.81 95.214H1292.27M1258.81 128.678V162.142M1258.81 128.678H1292.27M1258.81 162.142V195.605M1258.81 162.142H1292.27M1258.81 195.605V229.069M1258.81 195.605H1292.27M1258.81 229.069V262.533M1258.81 229.069H1292.27M1258.81 262.533V295.997M1258.81 262.533H1292.27M1258.81 295.997V329.461M1258.81 295.997H1292.27M1258.81 329.461V362.925M1258.81 329.461H1292.27M1258.81 362.925V396.388M1258.81 362.925H1292.27M1258.81 396.388V429.852M1258.81 396.388H1292.27M1258.81 429.852V463.316M1258.81 429.852H1292.27M1258.81 463.316H1292.27M1292.27 -205.96V-172.497M1292.27 -205.96H1325.74M1292.27 -172.497V-139.033M1292.27 -172.497H1325.74M1292.27 -139.033V-105.569M1292.27 -139.033H1325.74M1292.27 -105.569V-72.1051M1292.27 -105.569H1325.74M1292.27 -72.1051V-38.6413M1292.27 -72.1051H1325.74M1292.27 -38.6413V-5.17748M1292.27 -38.6413H1325.74M1292.27 -5.17748V28.2864M1292.27 -5.17748H1325.74M1292.27 28.2864V61.7502M1292.27 28.2864H1325.74M1292.27 61.7502V95.214M1292.27 61.7502H1325.74M1292.27 95.214V128.678M1292.27 95.214H1325.74M1292.27 128.678V162.142M1292.27 128.678H1325.74M1292.27 162.142V195.605M1292.27 162.142H1325.74M1292.27 195.605V229.069M1292.27 195.605H1325.74M1292.27 229.069V262.533M1292.27 229.069H1325.74M1292.27 262.533V295.997M1292.27 262.533H1325.74M1292.27 295.997V329.461M1292.27 295.997H1325.74M1292.27 329.461V362.925M1292.27 329.461H1325.74M1292.27 362.925V396.388M1292.27 362.925H1325.74M1292.27 396.388V429.852M1292.27 396.388H1325.74M1292.27 429.852V463.316M1292.27 429.852H1325.74M1292.27 463.316H1325.74M1325.74 -205.96V-172.497M1325.74 -205.96H1359.2M1325.74 -172.497V-139.033M1325.74 -172.497H1359.2M1325.74 -139.033V-105.569M1325.74 -139.033H1359.2M1325.74 -105.569V-72.1051M1325.74 -105.569H1359.2M1325.74 -72.1051V-38.6413M1325.74 -72.1051H1359.2M1325.74 -38.6413V-5.17748M1325.74 -38.6413H1359.2M1325.74 -5.17748V28.2864M1325.74 -5.17748H1359.2M1325.74 28.2864V61.7502M1325.74 28.2864H1359.2M1325.74 61.7502V95.214M1325.74 61.7502H1359.2M1325.74 95.214V128.678M1325.74 95.214H1359.2M1325.74 128.678V162.142M1325.74 128.678H1359.2M1325.74 162.142V195.605M1325.74 162.142H1359.2M1325.74 195.605V229.069M1325.74 195.605H1359.2M1325.74 229.069V262.533M1325.74 229.069H1359.2M1325.74 262.533V295.997M1325.74 262.533H1359.2M1325.74 295.997V329.461M1325.74 295.997H1359.2M1325.74 329.461V362.925M1325.74 329.461H1359.2M1325.74 362.925V396.388M1325.74 362.925H1359.2M1325.74 396.388V429.852M1325.74 396.388H1359.2M1325.74 429.852V463.316M1325.74 429.852H1359.2M1325.74 463.316H1359.2M1359.2 -205.96V-172.497M1359.2 -205.96H1392.66M1359.2 -172.497V-139.033M1359.2 -172.497H1392.66M1359.2 -139.033V-105.569M1359.2 -139.033H1392.66M1359.2 -105.569V-72.1051M1359.2 -105.569H1392.66M1359.2 -72.1051V-38.6413M1359.2 -72.1051H1392.66M1359.2 -38.6413V-5.17748M1359.2 -38.6413H1392.66M1359.2 -5.17748V28.2864M1359.2 -5.17748H1392.66M1359.2 28.2864V61.7502M1359.2 28.2864H1392.66M1359.2 61.7502V95.214M1359.2 61.7502H1392.66M1359.2 95.214V128.678M1359.2 95.214H1392.66M1359.2 128.678V162.142M1359.2 128.678H1392.66M1359.2 162.142V195.605M1359.2 162.142H1392.66M1359.2 195.605V229.069M1359.2 195.605H1392.66M1359.2 229.069V262.533M1359.2 229.069H1392.66M1359.2 262.533V295.997M1359.2 262.533H1392.66M1359.2 295.997V329.461M1359.2 295.997H1392.66M1359.2 329.461V362.925M1359.2 329.461H1392.66M1359.2 362.925V396.388M1359.2 362.925H1392.66M1359.2 396.388V429.852M1359.2 396.388H1392.66M1359.2 429.852V463.316M1359.2 429.852H1392.66M1359.2 463.316H1392.66M1392.66 -205.96V-172.497M1392.66 -205.96H1426.13M1392.66 -172.497V-139.033M1392.66 -172.497H1426.13M1392.66 -139.033V-105.569M1392.66 -139.033H1426.13M1392.66 -105.569V-72.1051M1392.66 -105.569H1426.13M1392.66 -72.1051V-38.6413M1392.66 -72.1051H1426.13M1392.66 -38.6413V-5.17748M1392.66 -38.6413H1426.13M1392.66 -5.17748V28.2864M1392.66 -5.17748H1426.13M1392.66 28.2864V61.7502M1392.66 28.2864H1426.13M1392.66 61.7502V95.214M1392.66 61.7502H1426.13M1392.66 95.214V128.678M1392.66 95.214H1426.13M1392.66 128.678V162.142M1392.66 128.678H1426.13M1392.66 162.142V195.605M1392.66 162.142H1426.13M1392.66 195.605V229.069M1392.66 195.605H1426.13M1392.66 229.069V262.533M1392.66 229.069H1426.13M1392.66 262.533V295.997M1392.66 262.533H1426.13M1392.66 295.997V329.461M1392.66 295.997H1426.13M1392.66 329.461V362.925M1392.66 329.461H1426.13M1392.66 362.925V396.388M1392.66 362.925H1426.13M1392.66 396.388V429.852M1392.66 396.388H1426.13M1392.66 429.852V463.316M1392.66 429.852H1426.13M1392.66 463.316H1426.13M1426.13 -205.96V-172.497M1426.13 -205.96H1459.59M1426.13 -172.497V-139.033M1426.13 -172.497H1459.59M1426.13 -139.033V-105.569M1426.13 -139.033H1459.59M1426.13 -105.569V-72.1051M1426.13 -105.569H1459.59M1426.13 -72.1051V-38.6413M1426.13 -72.1051H1459.59M1426.13 -38.6413V-5.17748M1426.13 -38.6413H1459.59M1426.13 -5.17748V28.2864M1426.13 -5.17748H1459.59M1426.13 28.2864V61.7502M1426.13 28.2864H1459.59M1426.13 61.7502V95.214M1426.13 61.7502H1459.59M1426.13 95.214V128.678M1426.13 95.214H1459.59M1426.13 128.678V162.142M1426.13 128.678H1459.59M1426.13 162.142V195.605M1426.13 162.142H1459.59M1426.13 195.605V229.069M1426.13 195.605H1459.59M1426.13 229.069V262.533M1426.13 229.069H1459.59M1426.13 262.533V295.997M1426.13 262.533H1459.59M1426.13 295.997V329.461M1426.13 295.997H1459.59M1426.13 329.461V362.925M1426.13 329.461H1459.59M1426.13 362.925V396.388M1426.13 362.925H1459.59M1426.13 396.388V429.852M1426.13 396.388H1459.59M1426.13 429.852V463.316M1426.13 429.852H1459.59M1426.13 463.316H1459.59M1459.59 -205.96V-172.497M1459.59 -205.96H1493.06M1459.59 -172.497V-139.033M1459.59 -172.497H1493.06M1459.59 -139.033V-105.569M1459.59 -139.033H1493.06M1459.59 -105.569V-72.1051M1459.59 -105.569H1493.06M1459.59 -72.1051V-38.6413M1459.59 -72.1051H1493.06M1459.59 -38.6413V-5.17748M1459.59 -38.6413H1493.06M1459.59 -5.17748V28.2864M1459.59 -5.17748H1493.06M1459.59 28.2864V61.7502M1459.59 28.2864H1493.06M1459.59 61.7502V95.214M1459.59 61.7502H1493.06M1459.59 95.214V128.678M1459.59 95.214H1493.06M1459.59 128.678V162.142M1459.59 128.678H1493.06M1459.59 162.142V195.605M1459.59 162.142H1493.06M1459.59 195.605V229.069M1459.59 195.605H1493.06M1459.59 229.069V262.533M1459.59 229.069H1493.06M1459.59 262.533V295.997M1459.59 262.533H1493.06M1459.59 295.997V329.461M1459.59 295.997H1493.06M1459.59 329.461V362.925M1459.59 329.461H1493.06M1459.59 362.925V396.388M1459.59 362.925H1493.06M1459.59 396.388V429.852M1459.59 396.388H1493.06M1459.59 429.852V463.316M1459.59 429.852H1493.06M1459.59 463.316H1493.06M1493.06 -205.96V-172.497M1493.06 -205.96H1526.52M1493.06 -172.497V-139.033M1493.06 -172.497H1526.52M1493.06 -139.033V-105.569M1493.06 -139.033H1526.52M1493.06 -105.569V-72.1051M1493.06 -105.569H1526.52M1493.06 -72.1051V-38.6413M1493.06 -72.1051H1526.52M1493.06 -38.6413V-5.17748M1493.06 -38.6413H1526.52M1493.06 -5.17748V28.2864M1493.06 -5.17748H1526.52M1493.06 28.2864V61.7502M1493.06 28.2864H1526.52M1493.06 61.7502V95.214M1493.06 61.7502H1526.52M1493.06 95.214V128.678M1493.06 95.214H1526.52M1493.06 128.678V162.142M1493.06 128.678H1526.52M1493.06 162.142V195.605M1493.06 162.142H1526.52M1493.06 195.605V229.069M1493.06 195.605H1526.52M1493.06 229.069V262.533M1493.06 229.069H1526.52M1493.06 262.533V295.997M1493.06 262.533H1526.52M1493.06 295.997V329.461M1493.06 295.997H1526.52M1493.06 329.461V362.925M1493.06 329.461H1526.52M1493.06 362.925V396.388M1493.06 362.925H1526.52M1493.06 396.388V429.852M1493.06 396.388H1526.52M1493.06 429.852V463.316M1493.06 429.852H1526.52M1493.06 463.316H1526.52M1526.52 -205.96V-172.497M1526.52 -205.96H1559.98M1526.52 -172.497V-139.033M1526.52 -172.497H1559.98M1526.52 -139.033V-105.569M1526.52 -139.033H1559.98M1526.52 -105.569V-72.1051M1526.52 -105.569H1559.98M1526.52 -72.1051V-38.6413M1526.52 -72.1051H1559.98M1526.52 -38.6413V-5.17748M1526.52 -38.6413H1559.98M1526.52 -5.17748V28.2864M1526.52 -5.17748H1559.98M1526.52 28.2864V61.7502M1526.52 28.2864H1559.98M1526.52 61.7502V95.214M1526.52 61.7502H1559.98M1526.52 95.214V128.678M1526.52 95.214H1559.98M1526.52 128.678V162.142M1526.52 128.678H1559.98M1526.52 162.142V195.605M1526.52 162.142H1559.98M1526.52 195.605V229.069M1526.52 195.605H1559.98M1526.52 229.069V262.533M1526.52 229.069H1559.98M1526.52 262.533V295.997M1526.52 262.533H1559.98M1526.52 295.997V329.461M1526.52 295.997H1559.98M1526.52 329.461V362.925M1526.52 329.461H1559.98M1526.52 362.925V396.388M1526.52 362.925H1559.98M1526.52 396.388V429.852M1526.52 396.388H1559.98M1526.52 429.852V463.316M1526.52 429.852H1559.98M1526.52 463.316H1559.98M1559.98 -205.96V-172.497M1559.98 -205.96H1593.45V-172.497M1559.98 -172.497V-139.033M1559.98 -172.497H1593.45M1559.98 -139.033V-105.569M1559.98 -139.033H1593.45M1559.98 -105.569V-72.1051M1559.98 -105.569H1593.45M1559.98 -72.1051V-38.6413M1559.98 -72.1051H1593.45M1559.98 -38.6413V-5.17748M1559.98 -38.6413H1593.45M1559.98 -5.17748V28.2864M1559.98 -5.17748H1593.45M1559.98 28.2864V61.7502M1559.98 28.2864H1593.45M1559.98 61.7502V95.214M1559.98 61.7502H1593.45M1559.98 95.214V128.678M1559.98 95.214H1593.45M1559.98 128.678V162.142M1559.98 128.678H1593.45M1559.98 162.142V195.605M1559.98 162.142H1593.45M1559.98 195.605V229.069M1559.98 195.605H1593.45M1559.98 229.069V262.533M1559.98 229.069H1593.45M1559.98 262.533V295.997M1559.98 262.533H1593.45M1559.98 295.997V329.461M1559.98 295.997H1593.45M1559.98 329.461V362.925M1559.98 329.461H1593.45M1559.98 362.925V396.388M1559.98 362.925H1593.45M1559.98 396.388V429.852M1559.98 396.388H1593.45M1559.98 429.852V463.316M1559.98 429.852H1593.45M1559.98 463.316H1593.45V429.852M1593.45 -172.497V-139.033M1593.45 -139.033V-105.569M1593.45 -105.569V-72.1051M1593.45 -72.1051V-38.6413M1593.45 -38.6413V-5.17748M1593.45 -5.17748V28.2864M1593.45 28.2864V61.7502M1593.45 61.7502V95.214M1593.45 95.214V128.678M1593.45 128.678V162.142M1593.45 162.142V195.605M1593.45 195.605V229.069M1593.45 229.069V262.533M1593.45 262.533V295.997M1593.45 295.997V329.461M1593.45 329.461V362.925M1593.45 362.925V396.388M1593.45 396.388V429.852" stroke="url(#paint2_radial_882_7844)"/>
</g>
</g>
<defs>
<radialGradient id="paint0_radial_882_7844" cx="0" cy="0" r="1" gradientUnits="userSpaceOnUse" gradientTransform="translate(492.5 -65.5) rotate(148.735) scale(553.948 828.869)">
<stop stop-color="white"/>
<stop offset="1" stop-color="#06051C" stop-opacity="0"/>
</radialGradient>
<radialGradient id="paint1_radial_882_7844" cx="0" cy="0" r="1" gradientUnits="userSpaceOnUse" gradientTransform="translate(790.244 128.677) rotate(90) scale(344.677 602.605)">
<stop offset="0.665789" stop-color="white"/>
<stop offset="1" stop-color="white" stop-opacity="0.2"/>
</radialGradient>
<radialGradient id="paint2_radial_882_7844" cx="0" cy="0" r="1" gradientUnits="userSpaceOnUse" gradientTransform="translate(857.244 107.276) rotate(90) scale(378.049 671.619)">
<stop offset="0.665789" stop-color="white"/>
<stop offset="1" stop-color="white" stop-opacity="0.2"/>
</radialGradient>
<clipPath id="clip0_882_7844">
<rect width="384" height="216" fill="white"/>
</clipPath>
</defs>
</svg>
