<svg width="87" height="25" viewBox="0 0 87 25" fill="none" xmlns="http://www.w3.org/2000/svg">
<path d="M22.7202 24.656H19.1182V7.133H22.7202V24.656Z" fill="#A7A9AC"/>
<path d="M35.7356 6.78912C37.7241 6.78912 39.3485 7.48613 40.6071 8.88017C41.8639 10.2741 42.4942 12.0466 42.4942 14.1956V24.6543H38.8921V14.7441C38.8921 13.3953 38.4575 12.2801 37.5882 11.4002C36.719 10.5204 35.6451 10.0805 34.3647 10.0805C32.9232 10.0805 31.7461 10.5204 30.8315 11.4002C29.917 12.2801 29.4588 13.3953 29.4588 14.7441V24.6543H25.8568V7.1331H29.4588V11.6591C29.9387 10.151 30.7337 8.96166 31.8439 8.0926C32.9522 7.22362 34.2507 6.78912 35.7374 6.78912H35.7356Z" fill="#A7A9AC"/>
<path d="M53.7239 6.78912C56.5364 6.78912 58.8236 7.79568 60.5838 9.80706C62.3441 11.8203 63.0649 14.2535 62.7444 17.1121H48.2349C48.4866 18.5297 49.1385 19.6793 50.1907 20.5591C51.2429 21.439 52.5106 21.879 53.9974 21.879C55.1401 21.879 56.1633 21.5984 57.067 21.0389C57.9706 20.4795 58.6733 19.7191 59.1767 18.7578L62.1956 20.0957C61.4187 21.5821 60.3086 22.7696 58.8689 23.6622C57.4292 24.5547 55.7703 25.0001 53.8941 25.0001C51.2646 25.0001 49.0571 24.1311 47.2733 22.3949C45.4895 20.6587 44.5967 18.4971 44.5967 15.9136C44.5967 13.3301 45.4714 11.1649 47.2207 9.41426C48.9701 7.66536 51.136 6.79094 53.7221 6.79094L53.7239 6.78912ZM53.7239 9.9103C52.3964 9.9103 51.2483 10.3158 50.2758 11.1286C49.3034 11.9397 48.6568 12.9971 48.3381 14.3005H59.1097C58.8127 12.9971 58.1771 11.9397 57.2064 11.1286C56.2339 10.3177 55.0731 9.9103 53.7239 9.9103Z" fill="#A7A9AC"/>
<path d="M72.7029 6.78912C74.8072 6.78912 76.5222 7.33768 77.8477 8.43476C79.1735 9.5319 79.8383 11.1106 79.8383 13.1672V24.6561H76.236V19.9925C75.1603 23.3309 72.9999 25.0001 69.7528 25.0001C68.2424 25.0001 66.9856 24.5493 65.9787 23.6459C64.9719 22.7425 64.4702 21.5603 64.4702 20.0975C64.4702 18.383 65.0751 17.0959 66.2884 16.2395C67.4999 15.3831 69.0447 14.8509 70.919 14.6445L74.3146 14.3005C75.5949 14.1865 76.236 13.6144 76.236 12.5861C76.236 11.7406 75.9101 11.0654 75.2581 10.5639C74.6061 10.0605 73.755 9.80888 72.7029 9.80888C71.6507 9.80888 70.718 10.0841 69.9756 10.6326C69.233 11.1812 68.7586 11.9814 68.5521 13.0332L64.9845 12.1751C65.305 10.5294 66.1616 9.22051 67.5579 8.24829C68.9523 7.27793 70.6673 6.79094 72.7029 6.79094V6.78912ZM70.919 22.0835C72.4059 22.0835 73.6626 21.5856 74.6913 20.5917C75.7199 19.5978 76.2342 18.4373 76.2342 17.1103V16.1508C75.9608 16.6088 75.2961 16.8931 74.244 17.0071L70.9172 17.4181C70.048 17.5339 69.3561 17.7892 68.8418 18.1893C68.3275 18.5894 68.0704 19.1325 68.0704 19.8187C68.0704 20.5048 68.3275 21.0534 68.8418 21.4643C69.3561 21.8753 70.048 22.0817 70.9172 22.0817L70.919 22.0835Z" fill="#A7A9AC"/>
<path d="M16.6373 24.656H0V7.133H3.80664V21.2615H16.6373V24.656Z" fill="#A7A9AC"/>
<path d="M83.234 6.78906C85.1088 6.78906 86.629 5.26928 86.629 3.39453C86.629 1.51978 85.1088 0 83.234 0C81.3585 0 79.8383 1.51978 79.8383 3.39453C79.8383 5.26928 81.3585 6.78906 83.234 6.78906Z" fill="#A7A9AC"/>
</svg>
