<svg width="24" height="24" viewBox="0 0 24 24" fill="none" xmlns="http://www.w3.org/2000/svg">
<g clip-path="url(#clip0_913_3817)">
<g clip-path="url(#clip1_913_3817)">
<path d="M3 4.32012C3 3.61127 3.59583 3.03589 4.33031 3.03589H19.6697C20.4045 3.03589 21 3.61127 21 4.32012V19.6799C21 20.3889 20.4045 20.9639 19.6697 20.9639H4.33031C3.5959 20.9639 3 20.389 3 19.6801V4.31991V4.32012Z" fill="#0E76A8"/>
<path d="M8.46948 18.0393V9.96798H5.77595V18.0393H8.46977H8.46948ZM7.12328 8.86617C8.06237 8.86617 8.64702 8.24639 8.64702 7.47183C8.62945 6.67963 8.06237 6.07715 7.14114 6.07715C6.21927 6.07715 5.61719 6.67963 5.61719 7.47176C5.61719 8.24632 6.20162 8.8661 7.10563 8.8661H7.12307L7.12328 8.86617ZM9.96039 18.0393H12.6537V13.5324C12.6537 13.2915 12.6713 13.05 12.7424 12.8779C12.9371 12.3957 13.3802 11.8966 14.1245 11.8966C15.0989 11.8966 15.4889 12.6367 15.4889 13.7218V18.0393H18.1822V13.4115C18.1822 10.9324 16.8535 9.77876 15.0815 9.77876C13.6286 9.77876 12.9905 10.5876 12.636 11.1384H12.6539V9.96826H9.96053C9.99569 10.7254 9.96032 18.0396 9.96032 18.0396L9.96039 18.0393Z" fill="white"/>
</g>
</g>
<defs>
<clipPath id="clip0_913_3817">
<rect width="18" height="18" fill="white" transform="translate(3 3)"/>
</clipPath>
<clipPath id="clip1_913_3817">
<rect width="18" height="18" fill="white" transform="translate(3 3)"/>
</clipPath>
</defs>
</svg>
