<svg width="281" height="300" viewBox="0 0 281 300" fill="none" xmlns="http://www.w3.org/2000/svg">
<path d="M280.239 150.15V150.51C280.266 174.688 274.406 198.508 263.165 219.914L257.674 229.396C244.256 250.989 225.554 268.805 203.334 281.159C181.115 293.513 156.112 299.998 130.689 300V225.465C150.584 225.465 169.665 217.562 183.733 203.494C197.801 189.426 205.704 170.345 205.704 150.45V150.09L280.239 150.15Z" fill="white"/>
<path d="M266.615 0L95.0409 299.79H0.191895L171.766 0H266.615Z" fill="white"/>
<path d="M262.924 125.242H261.154V115.342H257.404V113.752H266.674V115.342H262.924V125.242Z" fill="white"/>
<path d="M273.456 125.242L269.826 116.452V125.242H268.206V113.752H270.366L274.236 123.082L278.075 113.752H280.236V125.242H278.676V116.452L275.016 125.242H273.456Z" fill="white"/>
</svg>
