<svg width="148" height="20" viewBox="0 0 148 20" fill="none" xmlns="http://www.w3.org/2000/svg">
<path d="M7.49038 20C6.32372 20 5.24038 19.8426 4.24038 19.5278C3.24038 19.213 2.39779 18.7407 1.71261 18.1111C1.02742 17.4815 0.536681 16.6944 0.240385 15.75C-0.0373932 14.8056 -0.0744302 13.7037 0.129274 12.4444C0.277422 11.6481 0.434829 10.8519 0.601496 10.0556C0.786681 9.25926 0.971866 8.4537 1.15705 7.63889C1.76816 5.13889 2.87001 3.24074 4.46261 1.94445C6.0552 0.648149 8.20335 0 10.9071 0C12.0737 0 13.1478 0.166668 14.1293 0.500001C15.1293 0.814816 15.9719 1.2963 16.6571 1.94445C17.3608 2.59259 17.8515 3.38889 18.1293 4.33333C18.4256 5.27778 18.4626 6.37963 18.2404 7.63889C18.1108 8.4537 17.9533 9.25926 17.7682 10.0556C17.6015 10.8519 17.4256 11.6481 17.2404 12.4444C16.6108 14.9815 15.4996 16.8796 13.9071 18.1389C12.3145 19.3796 10.1756 20 7.49038 20ZM7.8515 16C8.8515 16 9.73113 15.7037 10.4904 15.1111C11.2496 14.5185 11.7867 13.5741 12.1015 12.2778C12.3052 11.463 12.4811 10.6944 12.6293 9.97222C12.7959 9.25 12.9441 8.5 13.0737 7.72222C13.3145 6.42593 13.2033 5.48148 12.7404 4.88889C12.2774 4.2963 11.5459 4 10.5459 4C9.54594 4 8.66631 4.2963 7.90705 4.88889C7.16631 5.48148 6.63853 6.42593 6.32372 7.72222C6.12001 8.5 5.93483 9.25 5.76816 9.97222C5.62001 10.6944 5.47187 11.463 5.32372 12.2778C5.1015 13.5741 5.21261 14.5185 5.65705 15.1111C6.1015 15.7037 6.83298 16 7.8515 16ZM21.1825 19.7222C20.9973 19.7222 20.8491 19.6574 20.738 19.5278C20.6269 19.3981 20.5899 19.2315 20.6269 19.0278L24.4602 0.972223C24.4973 0.76852 24.5991 0.601853 24.7658 0.472223C24.9325 0.342594 25.1084 0.277779 25.2936 0.277779H32.6825C33.8121 0.277779 34.8306 0.407409 35.738 0.666668C36.6639 0.925927 37.4325 1.32408 38.0436 1.86111C38.6547 2.39815 39.0806 3.07408 39.3213 3.88889C39.5621 4.68519 39.5713 5.62037 39.3491 6.69445C38.8862 8.82408 37.9417 10.3981 36.5158 11.4167C35.1084 12.4352 33.2102 12.9444 30.8213 12.9444H27.0713L25.7936 19.0278C25.7565 19.2315 25.6547 19.3981 25.488 19.5278C25.3399 19.6574 25.1639 19.7222 24.9602 19.7222H21.1825ZM27.7936 9.11111H30.988C31.7473 9.11111 32.4232 8.90741 33.0158 8.5C33.6269 8.09259 34.0251 7.47222 34.2102 6.63889C34.3028 6.15741 34.3213 5.73148 34.2658 5.36111C34.2102 4.99074 34.0158 4.69445 33.6825 4.47222C33.3676 4.25 32.8769 4.13889 32.2102 4.13889H28.8769L27.7936 9.11111ZM44.4819 19.7222C44.2782 19.7222 44.1208 19.6574 44.0097 19.5278C43.8986 19.3981 43.8616 19.2315 43.8986 19.0278L46.9819 4.63889H42.0375C41.8523 4.63889 41.7042 4.57408 41.593 4.44445C41.4819 4.2963 41.4449 4.12963 41.4819 3.94445L42.1208 0.972223C42.1579 0.76852 42.2505 0.601853 42.3986 0.472223C42.5653 0.342594 42.7505 0.277779 42.9542 0.277779H57.8984C58.1021 0.277779 58.2502 0.342594 58.3428 0.472223C58.4539 0.601853 58.491 0.76852 58.4539 0.972223L57.815 3.94445C57.778 4.12963 57.6762 4.2963 57.5095 4.44445C57.3616 4.57408 57.1856 4.63889 56.9819 4.63889H52.0375L48.9819 19.0278C48.9449 19.2315 48.843 19.3981 48.6764 19.5278C48.5282 19.6574 48.3523 19.7222 48.1486 19.7222H44.4819ZM59.0361 19.7222C58.8324 19.7222 58.675 19.6574 58.5639 19.5278C58.4528 19.3981 58.4157 19.2315 58.4528 19.0278L62.3139 0.972223C62.3509 0.76852 62.4528 0.601853 62.6194 0.472223C62.7861 0.342594 62.962 0.277779 63.1472 0.277779H66.8972C67.0824 0.277779 67.2305 0.342594 67.3417 0.472223C67.4528 0.601853 67.4898 0.76852 67.4528 0.972223L63.5917 19.0278C63.5546 19.2315 63.4528 19.3981 63.2861 19.5278C63.138 19.6574 62.9713 19.7222 62.7861 19.7222H59.0361ZM70.4314 19.7222C70.2277 19.7222 70.0702 19.6574 69.9591 19.5278C69.848 19.3981 69.811 19.2315 69.848 19.0278L73.6814 0.972223C73.7184 0.76852 73.8202 0.601853 73.9869 0.472223C74.1536 0.342594 74.3388 0.277779 74.5425 0.277779H77.5425C77.8388 0.277779 78.0425 0.361112 78.1536 0.527779C78.2832 0.675927 78.3665 0.796298 78.4036 0.88889L81.4036 9.66667L88.1814 0.88889C88.2369 0.796298 88.348 0.675927 88.5147 0.527779C88.6999 0.361112 88.9406 0.277779 89.2369 0.277779H92.2369C92.4406 0.277779 92.598 0.342594 92.7091 0.472223C92.8202 0.601853 92.8573 0.76852 92.8202 0.972223L88.9869 19.0278C88.9499 19.2315 88.848 19.3981 88.6814 19.5278C88.5147 19.6574 88.3295 19.7222 88.1258 19.7222H84.7925C84.6073 19.7222 84.4591 19.6574 84.348 19.5278C84.2369 19.3981 84.1999 19.2315 84.2369 19.0278L86.4036 8.77778L82.1536 14.4167C82.0239 14.5648 81.8665 14.713 81.6814 14.8611C81.5147 14.9907 81.3017 15.0556 81.0425 15.0556H79.598C79.3388 15.0556 79.1536 14.9907 79.0425 14.8611C78.9314 14.7315 78.848 14.5833 78.7925 14.4167L76.8202 8.52778L74.5702 19.0278C74.5332 19.2315 74.4314 19.3981 74.2647 19.5278C74.1165 19.6574 73.9499 19.7222 73.7647 19.7222H70.4314ZM94.9348 19.7222C94.7311 19.7222 94.5737 19.6574 94.4626 19.5278C94.3515 19.3981 94.3145 19.2315 94.3515 19.0278L98.2126 0.972223C98.2496 0.76852 98.3515 0.601853 98.5182 0.472223C98.6848 0.342594 98.8608 0.277779 99.0459 0.277779H102.796C102.981 0.277779 103.129 0.342594 103.24 0.472223C103.351 0.601853 103.389 0.76852 103.351 0.972223L99.4904 19.0278C99.4533 19.2315 99.3515 19.3981 99.1848 19.5278C99.0367 19.6574 98.87 19.7222 98.6848 19.7222H94.9348ZM112.496 20C110.644 20 109.126 19.7407 107.941 19.2222C106.774 18.7037 105.931 18.0185 105.413 17.1667C104.913 16.2963 104.737 15.3796 104.885 14.4167C104.922 14.2685 104.996 14.1389 105.107 14.0278C105.237 13.8981 105.385 13.8333 105.552 13.8333H109.107C109.367 13.8333 109.552 13.8796 109.663 13.9722C109.774 14.0648 109.885 14.1852 109.996 14.3333C110.07 14.6111 110.218 14.8796 110.441 15.1389C110.663 15.3981 110.968 15.6111 111.357 15.7778C111.765 15.9259 112.265 16 112.857 16C113.931 16 114.792 15.8333 115.441 15.5C116.089 15.1667 116.468 14.713 116.58 14.1389C116.691 13.7315 116.617 13.3981 116.357 13.1389C116.117 12.8611 115.681 12.6204 115.052 12.4167C114.441 12.1944 113.617 11.9722 112.58 11.75C111.228 11.4537 110.117 11.0463 109.246 10.5278C108.376 9.99074 107.765 9.31482 107.413 8.5C107.08 7.66667 107.033 6.67593 107.274 5.52778C107.644 3.82408 108.561 2.48148 110.024 1.5C111.487 0.500001 113.385 0 115.718 0C116.922 0 117.987 0.166668 118.913 0.500001C119.857 0.833335 120.644 1.27778 121.274 1.83333C121.904 2.38889 122.357 2.98148 122.635 3.61111C122.913 4.22222 123.005 4.82407 122.913 5.41667C122.894 5.56482 122.82 5.7037 122.691 5.83333C122.561 5.94445 122.413 6 122.246 6H118.524C118.339 6 118.172 5.96296 118.024 5.88889C117.894 5.81482 117.783 5.69445 117.691 5.52778C117.691 5.12037 117.478 4.76852 117.052 4.47222C116.626 4.15741 116.061 4 115.357 4C114.561 4 113.894 4.14815 113.357 4.44445C112.82 4.72222 112.487 5.15741 112.357 5.75C112.265 6.12037 112.311 6.44445 112.496 6.72222C112.7 7 113.07 7.24074 113.607 7.44445C114.163 7.64815 114.922 7.86111 115.885 8.08333C117.515 8.39815 118.792 8.82408 119.718 9.36111C120.644 9.87963 121.265 10.537 121.58 11.3333C121.913 12.1296 121.959 13.1019 121.718 14.25C121.311 16.1389 120.32 17.5741 118.746 18.5556C117.191 19.5185 115.107 20 112.496 20ZM125.138 19.7222C124.934 19.7222 124.777 19.6574 124.666 19.5278C124.555 19.3981 124.518 19.2315 124.555 19.0278L128.388 0.972223C128.425 0.76852 128.527 0.601853 128.694 0.472223C128.86 0.342594 129.045 0.277779 129.249 0.277779H132.249C132.545 0.277779 132.749 0.361112 132.86 0.527779C132.99 0.675927 133.073 0.796298 133.11 0.88889L136.11 9.66667L142.888 0.88889C142.944 0.796298 143.055 0.675927 143.221 0.527779C143.406 0.361112 143.647 0.277779 143.944 0.277779H146.944C147.147 0.277779 147.305 0.342594 147.416 0.472223C147.527 0.601853 147.564 0.76852 147.527 0.972223L143.694 19.0278C143.656 19.2315 143.555 19.3981 143.388 19.5278C143.221 19.6574 143.036 19.7222 142.832 19.7222H139.499C139.314 19.7222 139.166 19.6574 139.055 19.5278C138.944 19.3981 138.906 19.2315 138.944 19.0278L141.11 8.77778L136.86 14.4167C136.731 14.5648 136.573 14.713 136.388 14.8611C136.221 14.9907 136.008 15.0556 135.749 15.0556H134.305C134.045 15.0556 133.86 14.9907 133.749 14.8611C133.638 14.7315 133.555 14.5833 133.499 14.4167L131.527 8.52778L129.277 19.0278C129.24 19.2315 129.138 19.3981 128.971 19.5278C128.823 19.6574 128.656 19.7222 128.471 19.7222H125.138Z" fill="#A7A9AC"/>
</svg>
