<svg width="88" height="21" viewBox="0 0 88 21" fill="none" xmlns="http://www.w3.org/2000/svg">
<path d="M83.7694 13.4519C83.622 13.2565 83.5569 13.1639 83.4883 13.0748C80.6153 9.19035 77.7423 5.30937 74.8624 1.42839C74.7321 1.25355 74.547 0.999843 74.379 0.992986C73.2373 0.955273 72.0957 0.972414 70.954 0.972414V20.0516H74.7355V7.43842C74.9275 7.67841 75.0441 7.81555 75.1504 7.96297C78.0028 11.8611 80.8553 15.7592 83.7112 19.6539C83.8277 19.815 83.9991 20.0447 84.15 20.0516C85.2882 20.0859 86.4299 20.0687 87.5647 20.0687V1.0067H83.766C83.7694 5.14481 83.7694 9.24178 83.7694 13.4519ZM52.9856 12.6668H58.3751C58.2448 13.1502 58.2208 13.5924 58.0117 13.9147C57.662 14.4496 57.2643 15.0015 56.7603 15.3821C54.645 16.9694 52.2896 17.134 49.9172 16.1226C47.6201 15.1455 46.6122 13.2016 46.523 10.7846C46.4476 8.72066 47.0441 6.88645 48.7344 5.56307C51.1343 3.68087 54.8747 4.03057 56.9386 6.27962C57.0757 6.42704 57.3157 6.62932 57.4597 6.59846C58.6871 6.3139 59.9007 5.98477 61.1487 5.65907C61.0664 5.50479 61.0218 5.40537 60.9636 5.30937C58.9408 1.94266 54.9912 0.118738 50.9868 0.70157C46.7184 1.32554 43.6363 4.20542 42.7243 8.42239C41.8364 12.5194 43.5506 16.7157 47.0373 18.9202C50.3149 20.991 54.9432 21.1247 58.0425 18.3202C58.094 18.2722 58.166 18.2448 58.2688 18.1865V20.0413H61.4984V9.57433H52.9822C52.9856 10.5994 52.9856 11.604 52.9856 12.6668ZM31.0163 12.7353C34.7155 11.0691 34.9178 6.95502 33.7659 4.56198C32.679 2.30607 30.694 1.27412 28.3284 1.09241C26.0073 0.914133 23.6623 0.996415 21.3275 0.968987C20.9504 0.965559 20.5698 0.968987 20.1687 0.968987V20.0379H23.9571V13.5479C24.804 13.5479 25.6028 13.5719 26.3982 13.5376C26.8473 13.5205 27.1147 13.6439 27.3478 14.0587C28.4038 15.9375 29.5043 17.7923 30.598 19.647C30.694 19.8116 30.8654 20.0482 31.006 20.0516C32.3533 20.0825 33.6973 20.0687 35.1475 20.0687C33.6596 17.6071 32.2334 15.2518 30.7934 12.869C30.8928 12.8108 30.9511 12.7662 31.0163 12.7353ZM30.3786 7.61328C30.3031 8.86808 29.398 9.84518 28.0644 10.0817C27.8038 10.1297 27.533 10.1263 27.2656 10.1297C26.1822 10.1332 25.0954 10.1332 23.9811 10.1332V4.44884C25.4759 4.53112 26.9741 4.48655 28.4209 4.7334C29.7717 4.95624 30.4643 6.15962 30.3786 7.61328ZM36.8583 20.0276H40.6433V0.996415H36.8583V20.0276ZM64.2171 20.055H67.9541V0.999842H64.2171V20.055ZM17.474 5.23395C17.762 5.83735 17.978 6.44418 18.1391 7.06473C18.4579 8.2921 18.5642 9.54005 18.5402 10.8017C18.5162 12.0428 18.3448 13.2667 17.9608 14.453C17.5185 15.8141 16.8226 17.0346 15.8112 18.0768C14.7484 19.1739 13.4456 19.863 11.9371 20.1956C10.7886 20.4493 9.62974 20.4939 8.46065 20.3842C7.42869 20.2882 6.43445 20.0447 5.49849 19.599C4.42539 19.0882 3.54086 18.3614 2.81746 17.446C2.46008 16.9957 2.1445 16.5137 1.87464 16.0061C1.84379 15.9443 1.85065 15.9135 1.89864 15.8655C3.24944 14.5078 4.59681 13.1468 5.94419 11.7857L11.8171 5.86135C11.9062 5.77221 11.9919 5.68307 12.0811 5.59736C12.1154 5.56308 12.1222 5.53908 12.0914 5.49451C11.5462 4.78482 10.816 4.41113 9.91087 4.34941C9.36918 4.3117 8.83778 4.36656 8.33723 4.57912C7.61383 4.88768 7.10642 5.4088 6.77386 6.09106C6.52359 6.59846 6.3796 7.14015 6.24932 7.68527C6.05047 8.49781 5.96476 9.32406 5.95447 10.1572C5.95447 10.2257 5.93047 10.2772 5.88247 10.3252C4.40482 11.8131 2.9306 13.301 1.45638 14.789L1.43238 14.813C1.38781 14.8747 1.37067 14.8438 1.3501 14.7924C1.21639 14.4187 1.09982 14.0381 1.00725 13.6507C0.715837 12.4371 0.616413 11.2028 0.654126 9.95832C0.684981 8.91951 0.815261 7.89441 1.09639 6.88988C1.50095 5.42594 2.19006 4.106 3.23573 2.96776C4.31225 1.79524 5.6562 1.0547 7.22985 0.70157C8.2378 0.475294 9.25947 0.417009 10.2914 0.471864C11.296 0.526719 12.2731 0.708426 13.209 1.07527C14.577 1.61353 15.6672 2.48435 16.5277 3.6363C16.658 3.80772 16.778 3.986 16.898 4.16428C16.9391 4.22599 16.9323 4.25685 16.8809 4.30828C15.9998 5.19281 15.1221 6.08077 14.2444 6.9653C13.4113 7.80527 12.5748 8.63837 11.7485 9.48519C10.0789 11.1925 8.38865 12.8793 6.70872 14.5798C6.6813 14.6073 6.65044 14.6313 6.67444 14.6827C6.95214 15.2518 7.32241 15.7455 7.87782 16.0952C8.34408 16.3866 8.85835 16.5169 9.40689 16.5375C10.0377 16.5615 10.6377 16.4586 11.1862 16.1398C11.8651 15.7421 12.3108 15.1627 12.5748 14.4461C12.8867 13.5993 13.0925 12.7319 13.1816 11.8337C13.257 11.1034 13.2673 10.3732 13.233 9.63947C13.2296 9.55033 13.2536 9.48863 13.3187 9.42348C14.6867 8.04526 16.0546 6.66703 17.4191 5.2888C17.4294 5.29223 17.4466 5.26823 17.474 5.23395Z" fill="#A7A9AC"/>
</svg>
