<svg width="32" height="32" viewBox="0 0 32 32" fill="none" xmlns="http://www.w3.org/2000/svg">
<path d="M16 6C15.4747 6 14.9546 6.10346 14.4693 6.30448C13.984 6.5055 13.543 6.80014 13.1716 7.17157C12.8001 7.54301 12.5055 7.98396 12.3045 8.46927C12.1035 8.95457 12 9.47471 12 10C12 10.5253 12.1035 11.0454 12.3045 11.5307C12.5055 12.016 12.8001 12.457 13.1716 12.8284C13.543 13.1999 13.984 13.4945 14.4693 13.6955C14.6422 13.7671 14.8196 13.8264 15 13.873V20.3333C15 20.8856 15.4477 21.3333 16 21.3333C16.5523 21.3333 17 20.8856 17 20.3333V13.873C17.1804 13.8264 17.3578 13.7672 17.5307 13.6955C18.016 13.4945 18.457 13.1999 18.8284 12.8284C19.1999 12.457 19.4945 12.016 19.6955 11.5307C19.8965 11.0454 20 10.5253 20 10C20 9.47471 19.8965 8.95457 19.6955 8.46927C19.4945 7.98396 19.1999 7.54301 18.8284 7.17157C18.457 6.80014 18.016 6.5055 17.5307 6.30448C17.0454 6.10346 16.5253 6 16 6Z" fill="#51E0CF"/>
<path d="M12.2157 18.3099C12.755 18.1907 13.0956 17.657 12.9765 17.1177C12.8574 16.5784 12.3236 16.2378 11.7843 16.3569C10.2111 16.7044 8.82254 17.2725 7.80124 18.014C6.80016 18.7407 6 19.7558 6 21C6 21.8777 6.40438 22.6385 6.98287 23.2464C7.55645 23.8491 8.33918 24.3464 9.2299 24.7423C11.0139 25.5351 13.4083 26 16 26C18.5917 26 20.9861 25.5351 22.7701 24.7423C23.6608 24.3464 24.4435 23.8491 25.0171 23.2464C25.5956 22.6385 26 21.8777 26 21C26 19.7558 25.1998 18.7407 24.1988 18.014C23.1775 17.2725 21.7889 16.7044 20.2157 16.3569C19.6764 16.2378 19.1426 16.5784 19.0235 17.1177C18.9044 17.657 19.245 18.1907 19.7843 18.3099C21.1746 18.6169 22.286 19.0968 23.0238 19.6324C23.7819 20.1828 24 20.6738 24 21C24 21.2269 23.9007 21.5184 23.5683 21.8676C23.2311 22.222 22.6958 22.5867 21.9578 22.9146C20.4844 23.5695 18.3789 24 16 24C13.6211 24 11.5156 23.5695 10.0422 22.9146C9.30422 22.5867 8.76892 22.222 8.43166 21.8676C8.0993 21.5184 8 21.2269 8 21C8 20.6738 8.21812 20.1828 8.97618 19.6324C9.71402 19.0968 10.8254 18.6169 12.2157 18.3099Z" fill="#51E0CF"/>
</svg>
