<svg width="52" height="47" viewBox="0 0 52 47" fill="none" xmlns="http://www.w3.org/2000/svg">
<path d="M41.7477 25.9175C43.9782 19.3846 39.3706 11.8981 31.4562 9.19599C23.5419 6.49382 15.3179 9.5993 13.0874 16.1322C16.7371 12.7953 22.7197 11.7216 28.5316 13.706C36.4459 16.4081 41.0328 23.8363 38.8024 30.3692C38.886 30.2931 38.9684 30.2158 39.0496 30.1373C40.2579 28.9697 41.1901 27.5507 41.7477 25.9175Z" fill="#0038FC" fill-opacity="0.25" stroke="#055DF5" stroke-linejoin="round"/>
<path d="M20.7787 40.0633C8.3419 35.817 1.10129 24.0526 4.60634 13.7865L4.61544 13.7599C4.77627 13.2887 4.85536 13.057 5.17063 12.3558C5.49179 11.6413 6.10352 10.5797 6.10352 10.5797C6.10352 10.5797 4.98432 11.9735 4.15075 13.3916C3.2293 14.9592 2.17397 16.7359 1.66103 18.2382C-1.84402 28.5042 5.3966 40.2687 17.8334 44.5149C28.9091 48.2964 37.6004 45.565 44.7168 37.1564C45.9323 35.7202 47.7525 32.9897 47.7525 32.9897C47.2669 33.7164 46.7257 34.4025 46.1344 35.0459C40.5549 41.1173 30.5176 43.3884 20.7787 40.0633Z" fill="#0038FC" fill-opacity="0.25" stroke="#055DF5" stroke-linejoin="round"/>
<path fill-rule="evenodd" clip-rule="evenodd" d="M49.7406 28.9918C53.2457 18.7258 46.0051 6.96138 33.5683 2.71518C22.5086 -1.06088 11.0639 2.38023 6.20021 10.4081C6.20021 10.4081 5.58848 11.4698 5.26732 12.1842C4.95205 12.8855 4.87296 13.1172 4.71213 13.5884L4.70303 13.615C1.19798 23.881 8.43859 35.6455 20.8754 39.8917C30.6143 43.2168 40.6515 40.9457 46.2311 34.8743C46.8223 34.2309 47.3636 33.5448 47.8491 32.8182C48.6327 31.6454 49.2711 30.3669 49.7406 28.9918ZM31.2605 9.47456C39.1748 12.1767 43.7824 19.6632 41.552 26.1961C40.9943 27.8293 40.0622 29.2484 38.8539 30.416C38.7727 30.4943 38.6903 30.5716 38.6067 30.6478C34.9555 33.9727 28.9861 35.1136 23.1832 33.1324C15.2689 30.4302 10.6612 22.9437 12.8917 16.4108C15.1222 9.87787 23.3462 6.77242 31.2605 9.47456Z" fill="#0038FC" fill-opacity="0.25" stroke="#055DF5" stroke-linejoin="round"/>
</svg>
