<svg width="49" height="49" viewBox="0 0 49 49" fill="none" xmlns="http://www.w3.org/2000/svg">
<path d="M25.4816 25.8116L20.8957 30.3975L18.0677 27.5696L22.6536 22.9836C23.4356 22.2016 23.4356 20.9376 22.6536 20.1556C21.8717 19.3736 20.6077 19.3736 19.8257 20.1556L15.2397 24.7416L11.4818 20.9836C10.6998 20.2016 9.43579 20.2016 8.65379 20.9836C7.8718 21.7656 7.8718 23.0296 8.65379 23.8116L9.35779 24.5156L7.08981 26.7856C3.54985 30.3235 3.12585 35.8155 5.81382 39.8234L0.653877 44.9834C-0.128115 45.7654 -0.128115 47.0294 0.653877 47.8113C1.04387 48.2013 1.55587 48.3973 2.06786 48.3973C2.57986 48.3973 3.09185 48.2013 3.48185 47.8113L8.64179 42.6514C10.3718 43.8114 12.3778 44.3934 14.3837 44.3934C17.0257 44.3934 19.6677 43.3874 21.6777 41.3754L23.9476 39.1074L24.6516 39.8114C25.0416 40.2014 25.5536 40.3974 26.0656 40.3974C26.5776 40.3974 27.0896 40.2014 27.4796 39.8114C28.2616 39.0294 28.2616 37.7654 27.4796 36.9835L23.7216 33.2255L28.3076 28.6395C29.0896 27.8576 29.0896 26.5936 28.3076 25.8116C27.5256 25.0296 26.2636 25.0296 25.4816 25.8116ZM47.4814 0.983833C46.6994 0.201841 45.4354 0.201841 44.6534 0.983833L39.4935 6.14378C35.4855 3.45581 29.9956 3.8798 26.4556 7.41977L24.1856 9.68974L23.4796 8.98375C22.6976 8.20176 21.4337 8.20176 20.6517 8.98375C19.8697 9.76574 19.8697 11.0297 20.6517 11.8117L36.6515 27.8116C37.0415 28.2015 37.5535 28.3975 38.0655 28.3975C38.5775 28.3975 39.0895 28.2015 39.4795 27.8116C40.2615 27.0296 40.2615 25.7656 39.4795 24.9836L38.7735 24.2776L41.0435 22.0076C44.5834 18.4697 45.0074 12.9777 42.3194 8.96975L47.4794 3.8098C48.2614 3.02781 48.2614 1.76382 47.4794 0.981833L47.4814 0.983833Z" fill="#1A3F2A"/>
<path d="M20.5421 30.7511L20.8957 31.1046L21.2492 30.7511L25.8352 26.1651C26.4219 25.5784 27.3673 25.5784 27.954 26.1651C28.5408 26.7519 28.5408 27.6993 27.954 28.286L23.3681 32.8719L23.0145 33.2255L23.3681 33.579L27.126 37.337C27.7128 37.9237 27.7128 38.8711 27.126 39.4579C26.8334 39.7506 26.4501 39.8974 26.0656 39.8974C25.6811 39.8974 25.2979 39.7506 25.0052 39.4579L24.3012 38.7539L23.9478 38.4005L23.5942 38.7537L21.3243 41.0217L21.3239 41.022C19.4118 42.936 16.8989 43.8934 14.3837 43.8934C12.4742 43.8934 10.5656 43.3394 8.92025 42.2361L8.57887 42.0072L8.28824 42.2978L3.12829 47.4578C2.83561 47.7505 2.45235 47.8973 2.06786 47.8973C1.68337 47.8973 1.30011 47.7505 1.00743 47.4578C0.4207 46.8711 0.4207 45.9237 1.00743 45.3369L6.16738 40.177L6.45804 39.8863L6.22908 39.5449C3.6713 35.7311 4.07592 30.5047 7.44326 27.1392L7.44352 27.139L9.71149 24.869L10.0647 24.5154L9.71134 24.162L9.00735 23.458C8.42062 22.8713 8.42062 21.9239 9.00735 21.3372C9.59408 20.7504 10.5415 20.7504 11.1282 21.3372L14.8862 25.0951L15.2397 25.4487L15.5933 25.0951L20.1792 20.5092C20.766 19.9225 21.7134 19.9225 22.3001 20.5092C22.8868 21.0959 22.8868 22.0433 22.3001 22.6301L17.7141 27.216L17.3606 27.5696L17.7141 27.9231L20.5421 30.7511ZM45.007 1.33739C45.593 0.751324 46.539 0.750657 47.1258 1.33539C47.7126 1.92212 47.7126 2.86952 47.1258 3.45625L41.9659 8.6162L41.6752 8.90686L41.9042 9.24825C44.462 13.0621 44.0574 18.2885 40.69 21.654L40.6899 21.6541L38.4199 23.924L38.0664 24.2776L38.4199 24.6311L39.1259 25.3371C39.7126 25.9239 39.7126 26.8713 39.1259 27.458C38.8332 27.7507 38.45 27.8975 38.0655 27.8975C37.681 27.8975 37.2977 27.7507 37.0051 27.458L21.0052 11.4582C20.4185 10.8714 20.4185 9.92403 21.0052 9.3373C21.592 8.75057 22.5394 8.75057 23.1261 9.3373L23.8321 10.0433L24.1856 10.3968L24.5392 10.0433L26.8092 7.77332C30.1767 4.4058 35.4012 4.0013 39.215 6.55904L39.5564 6.78799L39.847 6.49733L45.007 1.33739Z" stroke="#42B85C"/>
</svg>
