<svg width="50" height="51" viewBox="0 0 50 51" fill="none" xmlns="http://www.w3.org/2000/svg">
<path d="M49.1074 25.656V27.977C49.1074 37.5483 44.3217 42.3339 34.7504 42.3339H33.554C32.8123 42.3339 32.0944 42.6929 31.6398 43.2911L28.0506 48.0767C26.4713 50.1824 23.887 50.1824 22.3078 48.0767L18.7185 43.2911C18.3117 42.7647 17.4504 42.3339 16.8043 42.3339H15.6079C6.03661 42.3339 1.25098 39.9411 1.25098 27.977V16.0129C1.25098 6.44164 6.03661 1.65601 15.6079 1.65601H34.7504C44.3217 1.65601 49.1074 6.44164 49.1074 16.0129" fill="#055DF5" fill-opacity="0.3"/>
<path d="M49.1073 25.656V27.977C49.1073 37.5483 44.3217 42.3339 34.7504 42.3339H33.554C32.8123 42.3339 32.0944 42.6929 31.6398 43.2911L28.0506 48.0767C26.4713 50.1824 23.887 50.1824 22.3078 48.0767L18.7185 43.2911C18.3117 42.7647 17.4504 42.3339 16.8043 42.3339H15.6079C6.03661 42.3339 1.25098 39.9411 1.25098 27.977V16.0129C1.25098 6.44164 6.03661 1.65601 15.6079 1.65601H34.7504C44.3217 1.65601 49.1073 6.44164 49.1073 16.0129" stroke="#055DF5" stroke-width="1.5" stroke-miterlimit="10" stroke-linecap="round" stroke-linejoin="round"/>
<path d="M15.6079 17.7598L10.8223 22.5454L15.6079 27.331" stroke="#055DF5" stroke-width="1.5" stroke-miterlimit="10" stroke-linecap="round" stroke-linejoin="round"/>
<path d="M34.7505 17.7598L39.5361 22.5454L34.7505 27.331" stroke="#055DF5" stroke-width="1.5" stroke-miterlimit="10" stroke-linecap="round" stroke-linejoin="round"/>
<path d="M27.5718 16.9701L22.7861 28.1207" stroke="#055DF5" stroke-width="1.5" stroke-miterlimit="10" stroke-linecap="round" stroke-linejoin="round"/>
</svg>
