<svg width="105" height="25" viewBox="0 0 105 25" fill="none" xmlns="http://www.w3.org/2000/svg">
<path fill-rule="evenodd" clip-rule="evenodd" d="M39.325 13.8726V9.05769H41.6719V14.0641C41.6719 14.5625 41.825 14.9619 42.1319 15.2637C42.4393 15.5649 42.8306 15.7155 43.3056 15.7155C43.7687 15.7155 44.1512 15.5618 44.4524 15.2549C44.7541 14.9475 44.9047 14.5505 44.9047 14.0641V9.05769H47.2511V13.8726C47.2511 15.0546 46.8774 16.0167 46.1296 16.7582C45.3823 17.4998 44.441 17.8709 43.3056 17.8709C42.1463 17.8709 41.1937 17.503 40.4465 16.7664C39.6986 16.0312 39.325 15.0665 39.325 13.8726ZM55.019 13.3685C55.019 12.6622 54.8111 12.0883 54.3934 11.6478C53.9763 11.2081 53.4433 10.9875 52.7943 10.9875C52.1686 10.9875 51.6495 11.1961 51.2381 11.6132C50.8273 12.0303 50.6212 12.6099 50.6212 13.3515C50.6212 14.0931 50.8273 14.6753 51.2387 15.098C51.6495 15.5214 52.1686 15.7325 52.7949 15.7325C53.4313 15.7325 53.9618 15.5126 54.3846 15.0722C54.808 14.6312 55.019 14.0641 55.019 13.3685ZM56.2098 10.1445C57.0037 10.9964 57.4006 12.0649 57.4006 13.3515C57.4006 14.6375 57.0037 15.7123 56.2098 16.5755C55.416 17.4387 54.4224 17.8709 53.229 17.8709C52.151 17.8709 51.2935 17.5231 50.6559 16.8275V20.7906H48.3096V9.05769H50.465V10.1357C51.056 9.28955 51.9771 8.86678 53.2284 8.86678C54.4224 8.86678 55.416 9.2927 56.2098 10.1445ZM60.6146 12.4997H64.5259C64.514 11.978 64.3313 11.5578 63.9778 11.2396C63.6243 10.9208 63.1871 10.7614 62.666 10.7614C62.1676 10.7614 61.7329 10.9176 61.3618 11.2308C60.9907 11.5433 60.7418 11.9667 60.6146 12.4997ZM66.6461 14.1504H60.6146C60.7532 14.6954 61.0342 15.1157 61.4576 15.4105C61.8797 15.7067 62.4052 15.8547 63.0308 15.8547C63.8764 15.8547 64.6759 15.5649 65.4294 14.9853L66.4029 16.5843C65.3715 17.4418 64.2241 17.8709 62.9609 17.8709C61.6397 17.8936 60.5188 17.462 59.5976 16.5755C58.6765 15.689 58.2273 14.6198 58.2506 13.3685C58.2273 12.1286 58.662 11.0625 59.5548 10.1704C60.4463 9.27821 61.5124 8.84347 62.753 8.86678C63.9349 8.86678 64.9052 9.24923 65.6638 10.0135C66.423 10.779 66.8023 11.7291 66.8023 12.8651C66.8023 13.2816 66.75 13.7107 66.6461 14.1504ZM73.1092 9.05769V11.1268H72.4835C71.7647 11.1268 71.1995 11.3177 70.7887 11.7001C70.3766 12.0826 70.1712 12.6389 70.1712 13.3685V17.6624H67.8249V9.05769H69.9803V10.0834C70.5827 9.3305 71.3709 8.95373 72.3443 8.95373C72.6341 8.95373 72.8893 8.98838 73.1092 9.05769ZM79.7632 17.6617H82.1102V4.41732H79.7632V17.663V17.6617ZM78.6436 4.41732V6.52108H78.0784C77.5341 6.52108 77.1365 6.62504 76.8876 6.83359C76.6388 7.04151 76.514 7.38426 76.514 7.85932V9.05832H78.6436V11.0398H76.514V17.663H74.1671V7.65014C74.1671 6.58409 74.4569 5.77888 75.0365 5.23388C75.6162 4.68951 76.4327 4.41669 77.4875 4.41669L78.6436 4.41732ZM83.2531 13.8726V9.05769H85.6001V14.0641C85.6001 14.5625 85.7532 14.9619 86.06 15.2637C86.3675 15.5649 86.7587 15.7155 87.2338 15.7155C87.6975 15.7155 88.08 15.5618 88.3805 15.2549C88.6829 14.9475 88.8329 14.5505 88.8329 14.0641V9.05769H91.1792V13.8726C91.1792 15.0546 90.8062 16.0167 90.0577 16.7582C89.3111 17.4998 88.3692 17.8709 87.2338 17.8709C86.0745 17.8709 85.1218 17.503 84.3746 16.7664C83.6267 16.0312 83.2531 15.0665 83.2531 13.8726ZM92.3228 17.6624H94.6697V9.05769H92.3228V17.6624ZM102.081 15.1069C102.492 14.6898 102.698 14.1107 102.698 13.3685C102.698 12.627 102.489 12.0448 102.072 11.622C101.655 11.1986 101.139 10.9875 100.525 10.9875C99.8872 10.9875 99.3573 11.2081 98.9346 11.6478C98.5112 12.0889 98.3001 12.6559 98.3001 13.3515C98.3001 14.0584 98.5086 14.6318 98.9257 15.0716C99.3428 15.5126 99.8759 15.7331 100.525 15.7331C101.15 15.7331 101.669 15.524 102.081 15.1069ZM102.663 4.41669H105.01V17.6624H102.855V16.602C102.263 17.4475 101.342 17.8709 100.091 17.8709C98.8848 17.8709 97.8887 17.445 97.1011 16.5932C96.3123 15.7413 95.9191 14.6664 95.9191 13.3685C95.9191 12.0706 96.3123 10.9964 97.1011 10.1445C97.8887 9.2927 98.8848 8.86678 100.091 8.86678C101.179 8.86678 102.038 9.2089 102.663 9.89251V4.41669ZM35.6549 11.0739L34.3507 10.5005C33.8403 10.2693 33.49 10.0633 33.2991 9.88306C33.1082 9.70413 33.0124 9.46975 33.0124 9.17992C33.0124 9.13645 33.0206 9.09801 33.025 9.05769H30.639C30.6365 9.11565 30.6308 9.17236 30.6308 9.23158C30.6308 10.6114 31.5576 11.7115 33.4125 12.5343L34.6462 13.0907C35.2258 13.3572 35.6133 13.5802 35.8111 13.7598C36.0077 13.9394 36.1066 14.192 36.1066 14.5159C36.1066 14.9103 35.9617 15.2196 35.6719 15.4458C35.3821 15.672 34.982 15.7848 34.4723 15.7848C33.4062 15.7848 32.4674 15.2285 31.6559 14.1164L30.0398 15.3324C30.4752 16.1042 31.108 16.7463 31.8733 17.193C32.6445 17.6447 33.5108 17.8709 34.4723 17.8709C35.6429 17.8709 36.6044 17.5553 37.3579 16.9233C38.1108 16.292 38.4876 15.4603 38.4876 14.4289C38.4876 13.664 38.2614 13.0239 37.8097 12.5085C37.3579 11.9925 36.639 11.5149 35.6549 11.0739ZM38.4876 5.64404H35.074V7.35087H36.7808V9.05769H38.4876V5.64404ZM94.6697 9.05769H97.2561V6.47068H94.6697V9.05769ZM19.3415 14.7799H14.7799V10.2183H10.2195V5.65854H19.3421V14.7805L19.3415 14.7799ZM5.6579 19.3415H10.2195V14.7799H5.6579V19.3415ZM7.26608e-08 2.73129V22.2674C-8.26797e-05 22.6263 0.0705195 22.9816 0.207774 23.3131C0.345029 23.6446 0.546248 23.9459 0.799939 24.1996C1.05363 24.4534 1.35482 24.6547 1.68632 24.792C2.01781 24.9293 2.37311 25 2.73192 25H22.2668C22.6257 25.0001 22.981 24.9295 23.3126 24.7922C23.6442 24.6549 23.9454 24.4536 24.1992 24.1998C24.453 23.9461 24.6542 23.6448 24.7915 23.3132C24.9288 22.9817 24.9995 22.6263 24.9994 22.2674V2.73192C24.9994 2.37306 24.9287 2.01771 24.7913 1.68617C24.6539 1.35464 24.4526 1.05342 24.1988 0.799717C23.9449 0.546018 23.6436 0.344812 23.312 0.207594C22.9804 0.0703759 22.6251 -0.000165239 22.2662 2.90643e-07H2.73192C2.00737 2.90643e-07 1.3125 0.287827 0.800162 0.800162C0.287827 1.3125 7.26608e-08 2.00674 7.26608e-08 2.73129Z" fill="#A7A9AC"/>
</svg>
