<svg width="147" height="31" viewBox="0 0 147 31" fill="none" xmlns="http://www.w3.org/2000/svg">
<path fill-rule="evenodd" clip-rule="evenodd" d="M0.488281 11.1593C0.488281 16.6153 4.92784 21.0493 10.3784 21.0493C15.829 21.0493 20.2685 16.6153 20.2685 11.1593C20.2685 5.70321 15.829 1.26912 10.3784 1.26912C4.92784 1.26912 0.488281 5.70321 0.488281 11.1593ZM3.78499 11.1593C3.78499 7.5219 6.74103 4.56583 10.3784 4.56583C14.0158 4.56583 16.9718 7.5219 16.9718 11.1593C16.9718 14.7966 14.0158 17.7526 10.3784 17.7526C6.74103 17.7526 3.78499 14.7966 3.78499 11.1593ZM19.785 23.8625L13.1916 30.456C12.8729 30.7802 12.4498 30.9395 12.0267 30.9395C11.6037 30.9395 11.1861 30.7802 10.8619 30.456C10.2191 29.8131 10.2191 28.7691 10.8619 28.1263L17.4553 21.5329C18.0982 20.89 19.1421 20.89 19.785 21.5329C20.4279 22.1757 20.4279 23.2197 19.785 23.8625ZM19.9388 2.91748C19.9388 1.82956 20.829 0.939453 21.9169 0.939453C23.0048 0.939453 23.8949 1.82956 23.8949 2.91748C23.8949 4.00539 23.0048 4.8955 21.9169 4.8955C20.829 4.8955 19.9388 4.00539 19.9388 2.91748ZM41.3373 9.74414V22.853H37.9913V9.74414H33.6599V6.58153H45.7145V9.74414H41.3373ZM50.6419 17.2611V22.853H47.5021V5.66479H50.6419V12.7005C51.2377 11.7838 52.4294 11.1421 53.9191 11.1421C56.6921 11.1421 58.3422 13.1589 58.3422 16.1382V22.853H55.2025V16.6653C55.2025 15.0152 54.492 14.0068 53.1857 14.0068C51.7419 14.0068 50.6419 15.0611 50.6419 17.2611ZM72.3676 19.1175C71.6802 21.4322 69.4112 23.1051 66.501 23.1051C62.9943 23.1051 60.4964 20.5842 60.4964 17.1007C60.4964 13.686 63.0404 11.1421 66.5237 11.1421C69.8927 11.1421 72.6659 13.5485 72.5054 17.857H63.5674C63.7051 19.2092 64.7135 20.3779 66.6615 20.3779C67.7615 20.3779 68.7238 19.8967 69.0903 19.1175H72.3676ZM63.6817 15.7944H69.0675C68.6783 14.2589 67.5094 13.686 66.4321 13.686C64.9884 13.686 63.98 14.5339 63.6817 15.7944ZM95.9732 13.113C96.7061 19.805 92.7874 23.1281 87.952 23.1281C82.9787 23.1281 79.3804 19.4383 79.3804 14.7173C79.3804 9.99624 82.9787 6.30649 87.9058 6.30649C91.3209 6.30649 94.4833 8.32326 95.5833 11.3943H91.779C90.9772 10.2025 89.4646 9.51497 87.9058 9.51497C84.789 9.51497 82.7266 11.8067 82.7266 14.7173C82.7266 17.6279 84.789 19.9196 87.952 19.9196C90.5874 19.9196 92.1689 18.4758 92.5353 16.2298H87.5621V13.113H95.9732ZM101.451 17.3758V22.853H98.3103V11.3943H101.451V13.2277C101.84 12.1047 103.009 11.2567 104.292 11.2567C104.613 11.2567 104.957 11.2796 105.347 11.3943V14.5798C104.865 14.4194 104.43 14.3277 103.925 14.3277C102.436 14.3277 101.451 15.4965 101.451 17.3758ZM114.903 21.5697C114.399 22.303 113.184 23.1051 111.603 23.1051C108.555 23.1051 106.217 20.3779 106.217 17.1236C106.217 13.8694 108.555 11.1421 111.603 11.1421C113.184 11.1421 114.399 11.9443 114.903 12.6776V11.3943H118.043V22.853H114.903V21.5697ZM109.38 17.1236C109.38 18.9112 110.548 20.2404 112.268 20.2404C113.986 20.2404 115.155 18.9112 115.155 17.1236C115.155 15.336 113.986 14.0068 112.268 14.0068C110.548 14.0068 109.38 15.336 109.38 17.1236ZM124.23 21.5697V27.6428H121.091V11.3943H124.23V12.6776C124.758 11.9443 125.972 11.1421 127.554 11.1421C130.602 11.1421 132.939 13.8694 132.939 17.1236C132.939 20.3779 130.602 23.1051 127.554 23.1051C125.972 23.1051 124.758 22.303 124.23 21.5697ZM123.978 17.1236C123.978 18.9112 125.147 20.2404 126.866 20.2404C128.585 20.2404 129.754 18.9112 129.754 17.1236C129.754 15.336 128.585 14.0068 126.866 14.0068C125.147 14.0068 123.978 15.336 123.978 17.1236ZM138.371 17.2611V22.853H135.231V5.66479H138.371V12.7005C138.967 11.7838 140.158 11.1421 141.648 11.1421C144.421 11.1421 146.071 13.1589 146.071 16.1382V22.853H142.931V16.6653C142.931 15.0152 142.221 14.0068 140.915 14.0068C139.471 14.0068 138.371 15.0611 138.371 17.2611Z" fill="#A7A9AC"/>
</svg>
