<svg width="256" height="256" viewBox="0 0 256 256" fill="none" xmlns="http://www.w3.org/2000/svg">
<rect width="256" height="256" fill="#055DF5"/>
<path d="M174.422 128.059V128.202C174.432 137.753 172.117 147.164 167.676 155.62L165.507 159.366C160.206 167.897 152.818 174.935 144.039 179.816C135.261 184.697 125.384 187.259 115.34 187.259V157.813C123.2 157.813 130.738 154.691 136.296 149.133C141.853 143.576 144.976 136.038 144.976 128.178V128.036L174.422 128.059Z" fill="white"/>
<path d="M169.04 68.7407L101.257 187.176H63.7859L131.568 68.7407H169.04Z" fill="white"/>
<path d="M167.582 118.219H166.882V114.308H165.401V113.68H169.063V114.308H167.582V118.219Z" fill="white"/>
<path d="M171.742 118.219L170.307 114.747V118.219H169.667V113.68H170.521L172.05 117.366L173.567 113.68H174.42V118.219H173.804V114.747L172.358 118.219H171.742Z" fill="white"/>
</svg>
