<svg width="1161" height="729" viewBox="0 0 1161 729" fill="none" xmlns="http://www.w3.org/2000/svg">
<rect x="0.822266" y="0.696289" width="1160" height="728" fill="#282C30" fill-opacity="0.2"/>
<mask id="mask0_186_1690" style="mask-type:alpha" maskUnits="userSpaceOnUse" x="351" y="0" width="691" height="729">
<rect x="351.312" y="0.696289" width="689.748" height="728" fill="#282C30"/>
</mask>
<g mask="url(#mask0_186_1690)">
<g filter="url(#filter0_d_186_1690)">
<path d="M1030.82 172.204C1030.82 128.021 995.005 92.2041 950.822 92.2041H386.825C375.779 92.2041 366.825 101.158 366.825 112.204V759.933H1030.82V172.204Z" fill="url(#paint0_linear_186_1690)" fill-opacity="0.5" shape-rendering="crispEdges"/>
<path d="M1030.82 172.204C1030.82 128.021 995.005 92.2041 950.822 92.2041H386.825C375.779 92.2041 366.825 101.158 366.825 112.204V759.933H1030.82V172.204Z" stroke="url(#paint1_linear_186_1690)" stroke-width="2" shape-rendering="crispEdges"/>
</g>
<g filter="url(#filter1_d_186_1690)">
<path d="M970.302 418.062C970.302 407.016 961.348 398.062 950.302 398.062H448.771C437.726 398.062 428.771 407.016 428.771 418.062V739.933C428.771 750.978 437.726 759.933 448.771 759.933H950.302C961.348 759.933 970.302 750.978 970.302 739.933V418.062Z" fill="#3B4C64" fill-opacity="0.3" shape-rendering="crispEdges"/>
<path d="M970.302 418.062C970.302 407.016 961.348 398.062 950.302 398.062H448.771C437.726 398.062 428.771 407.016 428.771 418.062V739.933C428.771 750.978 437.726 759.933 448.771 759.933H950.302C961.348 759.933 970.302 750.978 970.302 739.933V418.062Z" stroke="url(#paint2_linear_186_1690)" stroke-width="2" shape-rendering="crispEdges"/>
</g>
<g filter="url(#filter2_d_186_1690)">
<path d="M932.031 530.161C932.031 519.115 923.077 510.161 912.031 510.161H485.128C474.082 510.161 465.128 519.115 465.128 530.161V741.898C465.128 752.944 474.082 761.898 485.128 761.898H912.031C923.077 761.898 932.031 752.944 932.031 741.898V530.161Z" fill="#3B4C64" fill-opacity="0.3" shape-rendering="crispEdges"/>
<path d="M932.031 530.161C932.031 519.115 923.077 510.161 912.031 510.161H485.128C474.082 510.161 465.128 519.115 465.128 530.161V741.898C465.128 752.944 474.082 761.898 485.128 761.898H912.031C923.077 761.898 932.031 752.944 932.031 741.898V530.161Z" stroke="url(#paint3_linear_186_1690)" stroke-width="2" shape-rendering="crispEdges"/>
</g>
<g filter="url(#filter3_d_186_1690)">
<path d="M901.266 624.337C901.266 613.136 901.266 607.535 899.086 603.257C897.168 599.494 894.109 596.434 890.345 594.517C886.067 592.337 880.467 592.337 869.266 592.337H530.616C519.415 592.337 513.814 592.337 509.536 594.517C505.773 596.434 502.713 599.494 500.796 603.257C498.616 607.535 498.616 613.136 498.616 624.337V729.898C498.616 741.099 498.616 746.7 500.796 750.978C502.713 754.741 505.773 757.801 509.536 759.719C513.814 761.898 519.415 761.898 530.616 761.898H869.266C880.467 761.898 886.067 761.898 890.345 759.719C894.109 757.801 897.168 754.741 899.086 750.978C901.266 746.7 901.266 741.099 901.266 729.898V624.337Z" fill="#3B4C64" fill-opacity="0.3" shape-rendering="crispEdges"/>
<path d="M901.266 624.337C901.266 613.136 901.266 607.535 899.086 603.257C897.168 599.494 894.109 596.434 890.345 594.517C886.067 592.337 880.467 592.337 869.266 592.337H530.616C519.415 592.337 513.814 592.337 509.536 594.517C505.773 596.434 502.713 599.494 500.796 603.257C498.616 607.535 498.616 613.136 498.616 624.337V729.898C498.616 741.099 498.616 746.7 500.796 750.978C502.713 754.741 505.773 757.801 509.536 759.719C513.814 761.898 519.415 761.898 530.616 761.898H869.266C880.467 761.898 886.067 761.898 890.345 759.719C894.109 757.801 897.168 754.741 899.086 750.978C901.266 746.7 901.266 741.099 901.266 729.898V624.337Z" stroke="url(#paint4_linear_186_1690)" stroke-width="2" shape-rendering="crispEdges"/>
</g>
<g filter="url(#filter4_d_186_1690)">
<path d="M932.031 451.438C932.031 441.943 924.334 434.246 914.839 434.246H842.562C833.067 434.246 825.37 441.943 825.37 451.438V451.438C825.37 460.934 833.067 468.631 842.562 468.631H914.839C924.334 468.631 932.031 460.934 932.031 451.438V451.438Z" fill="#0067F8"/>
</g>
<g filter="url(#filter5_d_186_1690)">
<path d="M901.266 556.458C901.266 550.381 896.339 545.455 890.263 545.455H865.331C859.254 545.455 854.328 550.381 854.328 556.458V556.458C854.328 562.535 859.254 567.461 865.331 567.461H890.263C896.339 567.461 901.266 562.535 901.266 556.458V556.458Z" fill="#3B4C64" fill-opacity="0.3" shape-rendering="crispEdges"/>
<path d="M901.266 556.458C901.266 550.381 896.339 545.455 890.263 545.455H865.331C859.254 545.455 854.328 550.381 854.328 556.458V556.458C854.328 562.535 859.254 567.461 865.331 567.461H890.263C896.339 567.461 901.266 562.535 901.266 556.458V556.458Z" stroke="url(#paint5_linear_186_1690)" shape-rendering="crispEdges"/>
</g>
</g>
<g filter="url(#filter6_d_186_1690)">
<path d="M496.382 556.458C496.382 550.381 501.308 545.455 507.385 545.455H680.41C686.487 545.455 691.413 550.381 691.413 556.458V556.458C691.413 562.535 686.487 567.461 680.41 567.461H507.385C501.308 567.461 496.382 562.535 496.382 556.458V556.458Z" fill="#3B4C64" fill-opacity="0.2" shape-rendering="crispEdges"/>
<path d="M507.385 545.955H680.41C686.211 545.955 690.913 550.657 690.913 556.458C690.913 562.259 686.211 566.961 680.41 566.961H507.385C501.584 566.961 496.882 562.259 496.882 556.458C496.882 550.657 501.584 545.955 507.385 545.955Z" stroke="url(#paint6_linear_186_1690)" shape-rendering="crispEdges"/>
</g>
<g filter="url(#filter7_d_186_1690)">
<path d="M534.352 262.538C534.352 251.492 543.306 242.538 554.352 242.538H948.876C959.922 242.538 968.876 251.492 968.876 262.538V267.292C968.876 278.338 959.922 287.292 948.876 287.292H554.352C543.306 287.292 534.352 278.338 534.352 267.292V262.538Z" fill="#3B4C64" fill-opacity="0.2" shape-rendering="crispEdges"/>
<path d="M554.352 243.038H948.876C959.646 243.038 968.376 251.769 968.376 262.538V267.292C968.376 278.062 959.646 286.792 948.876 286.792H554.352C543.582 286.792 534.852 278.062 534.852 267.292V262.538C534.852 251.769 543.582 243.038 554.352 243.038Z" stroke="url(#paint7_linear_186_1690)" shape-rendering="crispEdges"/>
</g>
<g filter="url(#filter8_d_186_1690)">
<path d="M633.855 330.8C633.855 319.754 642.81 310.8 653.855 310.8H948.876C959.922 310.8 968.876 319.754 968.876 330.8V335.554C968.876 346.599 959.922 355.554 948.876 355.554H653.855C642.81 355.554 633.855 346.599 633.855 335.554V330.8Z" fill="#3B4C64" fill-opacity="0.2" shape-rendering="crispEdges"/>
<path d="M653.855 311.3H948.876C959.646 311.3 968.376 320.03 968.376 330.8V335.554C968.376 346.323 959.646 355.054 948.876 355.054H653.855C643.086 355.054 634.355 346.323 634.355 335.554V330.8C634.355 320.03 643.086 311.3 653.855 311.3Z" stroke="url(#paint8_linear_186_1690)" shape-rendering="crispEdges"/>
</g>
<path d="M439.476 200.644C437.63 200.644 436.044 200.393 434.718 199.891C433.392 199.399 432.327 198.736 431.522 197.903C430.717 197.069 430.158 196.146 429.846 195.133L434.476 194.011C434.685 194.437 434.988 194.858 435.385 195.275C435.783 195.701 436.318 196.051 436.991 196.326C437.672 196.61 438.529 196.752 439.562 196.752C441.02 196.752 442.227 196.397 443.184 195.687C444.14 194.986 444.618 193.831 444.618 192.221V188.087H444.363C444.098 188.618 443.709 189.162 443.198 189.721C442.696 190.28 442.028 190.748 441.195 191.127C440.371 191.506 439.334 191.695 438.084 191.695C436.408 191.695 434.888 191.302 433.525 190.516C432.171 189.721 431.091 188.537 430.286 186.965C429.491 185.384 429.093 183.405 429.093 181.028C429.093 178.632 429.491 176.61 430.286 174.962C431.091 173.305 432.175 172.05 433.539 171.198C434.903 170.336 436.422 169.906 438.099 169.906C439.377 169.906 440.428 170.123 441.252 170.559C442.085 170.985 442.748 171.501 443.241 172.107C443.733 172.704 444.107 173.267 444.363 173.798H444.647V170.19H449.718V192.363C449.718 194.228 449.273 195.772 448.383 196.994C447.492 198.215 446.276 199.129 444.732 199.735C443.189 200.341 441.437 200.644 439.476 200.644ZM439.519 187.661C440.608 187.661 441.536 187.396 442.303 186.866C443.07 186.335 443.653 185.573 444.05 184.579C444.448 183.585 444.647 182.391 444.647 180.999C444.647 179.626 444.448 178.424 444.05 177.391C443.662 176.359 443.084 175.559 442.317 174.991C441.56 174.413 440.627 174.124 439.519 174.124C438.373 174.124 437.417 174.423 436.65 175.019C435.883 175.616 435.305 176.435 434.917 177.477C434.528 178.509 434.334 179.683 434.334 180.999C434.334 182.335 434.528 183.504 434.917 184.508C435.314 185.502 435.897 186.279 436.664 186.837C437.44 187.387 438.392 187.661 439.519 187.661ZM465.047 192.434C462.859 192.434 460.97 191.979 459.379 191.07C457.798 190.152 456.581 188.854 455.729 187.178C454.876 185.493 454.45 183.509 454.45 181.227C454.45 178.982 454.876 177.013 455.729 175.317C456.59 173.613 457.793 172.287 459.337 171.34C460.88 170.384 462.694 169.906 464.777 169.906C466.122 169.906 467.391 170.123 468.584 170.559C469.786 170.985 470.847 171.648 471.766 172.548C472.694 173.447 473.423 174.593 473.953 175.985C474.483 177.368 474.749 179.015 474.749 180.928V182.505H456.865V179.039H469.82C469.81 178.054 469.597 177.178 469.18 176.411C468.764 175.635 468.181 175.024 467.433 174.579C466.695 174.134 465.833 173.911 464.848 173.911C463.797 173.911 462.874 174.167 462.078 174.678C461.283 175.18 460.662 175.843 460.217 176.667C459.782 177.481 459.559 178.376 459.55 179.352V182.377C459.55 183.646 459.782 184.735 460.246 185.644C460.71 186.544 461.358 187.235 462.192 187.718C463.025 188.192 464 188.428 465.118 188.428C465.866 188.428 466.543 188.324 467.149 188.116C467.755 187.898 468.281 187.581 468.726 187.164C469.171 186.747 469.507 186.231 469.734 185.616L474.535 186.156C474.232 187.424 473.655 188.532 472.803 189.479C471.96 190.417 470.88 191.146 469.564 191.667C468.248 192.178 466.742 192.434 465.047 192.434ZM490.394 170.19V174.167H477.851V170.19H490.394ZM480.948 164.962H486.09V185.445C486.09 186.137 486.194 186.667 486.402 187.036C486.62 187.396 486.904 187.642 487.254 187.775C487.605 187.907 487.993 187.974 488.419 187.974C488.741 187.974 489.035 187.95 489.3 187.903C489.574 187.855 489.783 187.813 489.925 187.775L490.791 191.795C490.517 191.889 490.124 191.994 489.612 192.107C489.11 192.221 488.495 192.287 487.766 192.306C486.478 192.344 485.318 192.15 484.286 191.724C483.253 191.288 482.434 190.616 481.828 189.707C481.232 188.798 480.938 187.661 480.948 186.298V164.962ZM495.79 192.008V162.917H506.699C508.934 162.917 510.809 163.334 512.324 164.167C513.849 165 514.999 166.146 515.776 167.604C516.562 169.053 516.955 170.701 516.955 172.548C516.955 174.413 516.562 176.07 515.776 177.519C514.99 178.968 513.83 180.109 512.296 180.942C510.762 181.766 508.872 182.178 506.628 182.178H499.398V177.846H505.918C507.225 177.846 508.295 177.619 509.128 177.164C509.961 176.71 510.577 176.085 510.975 175.289C511.382 174.494 511.585 173.58 511.585 172.548C511.585 171.515 511.382 170.606 510.975 169.82C510.577 169.034 509.957 168.424 509.114 167.988C508.281 167.543 507.206 167.32 505.889 167.32H501.06V192.008H495.79ZM527.593 192.448C526.21 192.448 524.965 192.202 523.857 191.71C522.758 191.208 521.887 190.469 521.243 189.494C520.609 188.518 520.292 187.316 520.292 185.886C520.292 184.655 520.519 183.637 520.973 182.832C521.428 182.027 522.048 181.383 522.834 180.9C523.62 180.417 524.506 180.052 525.49 179.806C526.485 179.55 527.512 179.366 528.573 179.252C529.851 179.12 530.888 179.001 531.684 178.897C532.479 178.783 533.057 178.613 533.417 178.386C533.786 178.149 533.971 177.784 533.971 177.292V177.207C533.971 176.137 533.653 175.308 533.019 174.721C532.384 174.134 531.471 173.84 530.277 173.84C529.018 173.84 528.019 174.115 527.28 174.664C526.551 175.213 526.059 175.862 525.803 176.61L521.002 175.928C521.381 174.603 522.006 173.495 522.877 172.604C523.748 171.705 524.813 171.032 526.073 170.587C527.332 170.133 528.724 169.906 530.249 169.906C531.3 169.906 532.347 170.029 533.388 170.275C534.43 170.521 535.382 170.928 536.243 171.496C537.105 172.055 537.796 172.817 538.317 173.783C538.847 174.749 539.113 175.957 539.113 177.406V192.008H534.169V189.011H533.999C533.686 189.617 533.246 190.185 532.678 190.715C532.119 191.236 531.414 191.657 530.561 191.979C529.719 192.292 528.729 192.448 527.593 192.448ZM528.928 188.67C529.96 188.67 530.855 188.466 531.613 188.059C532.37 187.642 532.953 187.093 533.36 186.411C533.776 185.729 533.985 184.986 533.985 184.181V181.61C533.824 181.743 533.549 181.866 533.161 181.979C532.782 182.093 532.356 182.192 531.882 182.278C531.409 182.363 530.94 182.439 530.476 182.505C530.012 182.571 529.61 182.628 529.269 182.675C528.502 182.78 527.815 182.95 527.209 183.187C526.603 183.424 526.125 183.755 525.775 184.181C525.424 184.598 525.249 185.138 525.249 185.8C525.249 186.747 525.595 187.462 526.286 187.945C526.977 188.428 527.858 188.67 528.928 188.67ZM544.683 192.008V170.19H549.825V192.008H544.683ZM547.268 167.093C546.454 167.093 545.753 166.823 545.166 166.283C544.579 165.734 544.285 165.076 544.285 164.309C544.285 163.532 544.579 162.874 545.166 162.335C545.753 161.785 546.454 161.511 547.268 161.511C548.092 161.511 548.793 161.785 549.371 162.335C549.958 162.874 550.251 163.532 550.251 164.309C550.251 165.076 549.958 165.734 549.371 166.283C548.793 166.823 548.092 167.093 547.268 167.093ZM555.513 192.008V170.19H560.499V173.826H560.726C561.124 172.567 561.805 171.596 562.771 170.914C563.747 170.223 564.859 169.877 566.109 169.877C566.393 169.877 566.711 169.891 567.061 169.92C567.421 169.939 567.719 169.972 567.956 170.019V174.749C567.738 174.674 567.392 174.607 566.919 174.55C566.455 174.484 566.005 174.451 565.57 174.451C564.632 174.451 563.789 174.655 563.041 175.062C562.303 175.46 561.72 176.013 561.294 176.724C560.868 177.434 560.655 178.253 560.655 179.181V192.008H555.513ZM573.051 180.147C573.051 176.596 573.519 173.334 574.457 170.36C575.404 167.377 576.81 164.621 578.676 162.093H583.519C582.8 163.031 582.127 164.181 581.502 165.545C580.877 166.899 580.333 168.386 579.869 170.005C579.414 171.615 579.054 173.286 578.789 175.019C578.533 176.752 578.406 178.461 578.406 180.147C578.406 182.391 578.628 184.664 579.073 186.965C579.528 189.266 580.139 191.397 580.906 193.357C581.682 195.327 582.553 196.937 583.519 198.187H578.676C576.81 195.658 575.404 192.907 574.457 189.934C573.519 186.951 573.051 183.689 573.051 180.147ZM597.09 180.147C597.09 183.689 596.617 186.951 595.67 189.934C594.732 192.907 593.331 195.658 591.465 198.187H586.622C587.351 197.249 588.023 196.103 588.639 194.749C589.264 193.395 589.804 191.908 590.258 190.289C590.722 188.67 591.082 186.994 591.338 185.261C591.603 183.528 591.735 181.823 591.735 180.147C591.735 177.903 591.508 175.63 591.054 173.329C590.608 171.028 589.998 168.892 589.221 166.923C588.454 164.953 587.588 163.343 586.622 162.093H591.465C593.331 164.621 594.732 167.377 595.67 170.36C596.617 173.334 597.09 176.596 597.09 180.147Z" fill="white" fill-opacity="0.8"/>
<path d="M475.366 446.184V444.309H488.457V446.184H482.968V461.764H480.855V446.184H475.366ZM490.327 461.764V448.673H492.27V450.65H492.407C492.645 450.002 493.077 449.477 493.702 449.073C494.327 448.67 495.032 448.468 495.816 448.468C495.963 448.468 496.148 448.471 496.37 448.477C496.591 448.482 496.759 448.491 496.872 448.502V450.548C496.804 450.531 496.648 450.505 496.404 450.471C496.165 450.431 495.912 450.411 495.645 450.411C495.009 450.411 494.441 450.545 493.941 450.812C493.446 451.073 493.054 451.437 492.765 451.903C492.48 452.363 492.338 452.889 492.338 453.48V461.764H490.327ZM503.349 462.07C502.519 462.07 501.767 461.914 501.09 461.602C500.414 461.284 499.877 460.826 499.48 460.23C499.082 459.627 498.883 458.9 498.883 458.048C498.883 457.298 499.031 456.69 499.326 456.224C499.622 455.752 500.017 455.383 500.511 455.116C501.005 454.849 501.551 454.65 502.147 454.519C502.75 454.383 503.355 454.275 503.963 454.195C504.758 454.093 505.403 454.017 505.897 453.965C506.397 453.909 506.761 453.815 506.988 453.684C507.221 453.553 507.338 453.326 507.338 453.002V452.934C507.338 452.093 507.107 451.44 506.647 450.974C506.193 450.508 505.502 450.275 504.576 450.275C503.616 450.275 502.863 450.485 502.318 450.906C501.772 451.326 501.389 451.775 501.167 452.252L499.258 451.57C499.599 450.775 500.054 450.156 500.622 449.713C501.196 449.264 501.821 448.951 502.497 448.775C503.179 448.593 503.849 448.502 504.508 448.502C504.929 448.502 505.411 448.553 505.957 448.656C506.508 448.752 507.039 448.954 507.551 449.261C508.068 449.568 508.497 450.031 508.838 450.65C509.179 451.269 509.349 452.099 509.349 453.139V461.764H507.338V459.991H507.235C507.099 460.275 506.872 460.579 506.554 460.903C506.235 461.227 505.812 461.502 505.284 461.73C504.755 461.957 504.11 462.07 503.349 462.07ZM503.656 460.264C504.451 460.264 505.122 460.107 505.667 459.795C506.218 459.482 506.633 459.079 506.911 458.585C507.196 458.09 507.338 457.57 507.338 457.025V455.184C507.252 455.286 507.065 455.38 506.775 455.465C506.491 455.545 506.161 455.616 505.786 455.678C505.417 455.735 505.056 455.786 504.704 455.832C504.357 455.872 504.076 455.906 503.86 455.934C503.338 456.002 502.849 456.113 502.394 456.267C501.946 456.414 501.582 456.639 501.304 456.94C501.031 457.235 500.894 457.639 500.894 458.15C500.894 458.849 501.153 459.377 501.67 459.735C502.193 460.088 502.855 460.264 503.656 460.264ZM515.271 453.889V461.764H513.26V448.673H515.203V450.718H515.374C515.681 450.053 516.146 449.519 516.771 449.116C517.396 448.707 518.203 448.502 519.192 448.502C520.078 448.502 520.854 448.684 521.519 449.048C522.183 449.406 522.7 449.951 523.07 450.684C523.439 451.411 523.624 452.332 523.624 453.445V461.764H521.612V453.582C521.612 452.553 521.345 451.752 520.811 451.178C520.277 450.599 519.544 450.309 518.612 450.309C517.97 450.309 517.396 450.448 516.891 450.727C516.391 451.005 515.996 451.411 515.706 451.945C515.416 452.48 515.271 453.127 515.271 453.889ZM536.812 451.605L535.005 452.116C534.891 451.815 534.724 451.522 534.502 451.238C534.286 450.948 533.991 450.71 533.616 450.522C533.241 450.335 532.761 450.241 532.176 450.241C531.374 450.241 530.707 450.426 530.173 450.795C529.644 451.159 529.38 451.622 529.38 452.184C529.38 452.684 529.562 453.079 529.926 453.369C530.289 453.659 530.857 453.9 531.63 454.093L533.573 454.57C534.744 454.855 535.616 455.289 536.19 455.874C536.764 456.454 537.051 457.201 537.051 458.116C537.051 458.866 536.835 459.536 536.403 460.127C535.977 460.718 535.38 461.184 534.613 461.525C533.846 461.866 532.954 462.036 531.937 462.036C530.602 462.036 529.497 461.747 528.622 461.167C527.747 460.588 527.193 459.741 526.96 458.627L528.869 458.15C529.051 458.855 529.394 459.383 529.9 459.735C530.411 460.088 531.079 460.264 531.903 460.264C532.84 460.264 533.585 460.065 534.136 459.667C534.693 459.264 534.971 458.781 534.971 458.218C534.971 457.764 534.812 457.383 534.494 457.076C534.176 456.764 533.687 456.531 533.028 456.377L530.846 455.866C529.647 455.582 528.766 455.142 528.204 454.545C527.647 453.943 527.369 453.19 527.369 452.286C527.369 451.548 527.576 450.894 527.991 450.326C528.411 449.758 528.982 449.312 529.704 448.988C530.431 448.664 531.255 448.502 532.176 448.502C533.471 448.502 534.488 448.786 535.227 449.355C535.971 449.923 536.499 450.673 536.812 451.605ZM544.171 462.07C543.341 462.07 542.588 461.914 541.912 461.602C541.236 461.284 540.699 460.826 540.301 460.23C539.903 459.627 539.705 458.9 539.705 458.048C539.705 457.298 539.852 456.69 540.148 456.224C540.443 455.752 540.838 455.383 541.332 455.116C541.827 454.849 542.372 454.65 542.969 454.519C543.571 454.383 544.176 454.275 544.784 454.195C545.58 454.093 546.224 454.017 546.719 453.965C547.219 453.909 547.582 453.815 547.81 453.684C548.043 453.553 548.159 453.326 548.159 453.002V452.934C548.159 452.093 547.929 451.44 547.469 450.974C547.014 450.508 546.324 450.275 545.398 450.275C544.438 450.275 543.685 450.485 543.139 450.906C542.594 451.326 542.21 451.775 541.989 452.252L540.08 451.57C540.421 450.775 540.875 450.156 541.443 449.713C542.017 449.264 542.642 448.951 543.318 448.775C544 448.593 544.671 448.502 545.33 448.502C545.75 448.502 546.233 448.553 546.778 448.656C547.33 448.752 547.861 448.954 548.372 449.261C548.889 449.568 549.318 450.031 549.659 450.65C550 451.269 550.171 452.099 550.171 453.139V461.764H548.159V459.991H548.057C547.921 460.275 547.693 460.579 547.375 460.903C547.057 461.227 546.634 461.502 546.105 461.73C545.577 461.957 544.932 462.07 544.171 462.07ZM544.477 460.264C545.273 460.264 545.943 460.107 546.489 459.795C547.04 459.482 547.455 459.079 547.733 458.585C548.017 458.09 548.159 457.57 548.159 457.025V455.184C548.074 455.286 547.886 455.38 547.597 455.465C547.313 455.545 546.983 455.616 546.608 455.678C546.239 455.735 545.878 455.786 545.526 455.832C545.179 455.872 544.898 455.906 544.682 455.934C544.159 456.002 543.671 456.113 543.216 456.267C542.767 456.414 542.403 456.639 542.125 456.94C541.852 457.235 541.716 457.639 541.716 458.15C541.716 458.849 541.974 459.377 542.492 459.735C543.014 460.088 543.676 460.264 544.477 460.264ZM559.4 462.036C558.173 462.036 557.116 461.747 556.229 461.167C555.343 460.588 554.661 459.789 554.184 458.772C553.707 457.755 553.468 456.593 553.468 455.286C553.468 453.957 553.712 452.784 554.201 451.767C554.695 450.744 555.383 449.945 556.264 449.372C557.15 448.792 558.184 448.502 559.366 448.502C560.286 448.502 561.116 448.673 561.854 449.014C562.593 449.355 563.198 449.832 563.67 450.445C564.141 451.059 564.434 451.775 564.548 452.593H562.536C562.383 451.997 562.042 451.468 561.514 451.008C560.991 450.542 560.286 450.309 559.4 450.309C558.616 450.309 557.928 450.514 557.337 450.923C556.752 451.326 556.295 451.897 555.965 452.636C555.641 453.369 555.479 454.23 555.479 455.218C555.479 456.23 555.639 457.11 555.957 457.86C556.281 458.61 556.735 459.193 557.32 459.607C557.911 460.022 558.604 460.23 559.4 460.23C559.923 460.23 560.397 460.139 560.823 459.957C561.249 459.775 561.61 459.514 561.906 459.173C562.201 458.832 562.411 458.423 562.536 457.945H564.548C564.434 458.718 564.153 459.414 563.704 460.034C563.261 460.647 562.673 461.136 561.94 461.499C561.212 461.857 560.366 462.036 559.4 462.036ZM573.421 448.673V450.377H566.637V448.673H573.421ZM568.614 445.536H570.626V458.014C570.626 458.582 570.708 459.008 570.873 459.292C571.043 459.57 571.259 459.758 571.521 459.855C571.788 459.945 572.069 459.991 572.364 459.991C572.586 459.991 572.768 459.98 572.91 459.957C573.052 459.928 573.165 459.906 573.251 459.889L573.66 461.695C573.523 461.747 573.333 461.798 573.089 461.849C572.844 461.906 572.535 461.934 572.16 461.934C571.592 461.934 571.035 461.812 570.489 461.568C569.95 461.323 569.501 460.951 569.143 460.451C568.79 459.951 568.614 459.32 568.614 458.559V445.536ZM576.687 461.764V448.673H578.698V461.764H576.687ZM577.709 446.491C577.317 446.491 576.979 446.357 576.695 446.09C576.417 445.823 576.278 445.502 576.278 445.127C576.278 444.752 576.417 444.431 576.695 444.164C576.979 443.897 577.317 443.764 577.709 443.764C578.101 443.764 578.437 443.897 578.715 444.164C578.999 444.431 579.141 444.752 579.141 445.127C579.141 445.502 578.999 445.823 578.715 446.09C578.437 446.357 578.101 446.491 577.709 446.491ZM587.94 462.036C586.758 462.036 585.721 461.755 584.829 461.193C583.943 460.63 583.25 459.843 582.75 458.832C582.256 457.82 582.008 456.639 582.008 455.286C582.008 453.923 582.256 452.732 582.75 451.715C583.25 450.698 583.943 449.909 584.829 449.346C585.721 448.784 586.758 448.502 587.94 448.502C589.122 448.502 590.156 448.784 591.042 449.346C591.935 449.909 592.628 450.698 593.122 451.715C593.622 452.732 593.872 453.923 593.872 455.286C593.872 456.639 593.622 457.82 593.122 458.832C592.628 459.843 591.935 460.63 591.042 461.193C590.156 461.755 589.122 462.036 587.94 462.036ZM587.94 460.23C588.838 460.23 589.577 459.999 590.156 459.539C590.736 459.079 591.165 458.474 591.443 457.724C591.721 456.974 591.861 456.161 591.861 455.286C591.861 454.411 591.721 453.596 591.443 452.84C591.165 452.085 590.736 451.474 590.156 451.008C589.577 450.542 588.838 450.309 587.94 450.309C587.042 450.309 586.304 450.542 585.724 451.008C585.145 451.474 584.716 452.085 584.437 452.84C584.159 453.596 584.02 454.411 584.02 455.286C584.02 456.161 584.159 456.974 584.437 457.724C584.716 458.474 585.145 459.079 585.724 459.539C586.304 459.999 587.042 460.23 587.94 460.23ZM599.194 453.889V461.764H597.182V448.673H599.125V450.718H599.296C599.603 450.053 600.069 449.519 600.694 449.116C601.319 448.707 602.125 448.502 603.114 448.502C604 448.502 604.776 448.684 605.441 449.048C606.106 449.406 606.623 449.951 606.992 450.684C607.361 451.411 607.546 452.332 607.546 453.445V461.764H605.535V453.582C605.535 452.553 605.268 451.752 604.733 451.178C604.199 450.599 603.466 450.309 602.535 450.309C601.893 450.309 601.319 450.448 600.813 450.727C600.313 451.005 599.918 451.411 599.628 451.945C599.339 452.48 599.194 453.127 599.194 453.889ZM633.451 453.036C633.451 454.877 633.119 456.468 632.454 457.809C631.789 459.15 630.878 460.184 629.718 460.911C628.559 461.639 627.235 462.002 625.747 462.002C624.258 462.002 622.934 461.639 621.775 460.911C620.616 460.184 619.704 459.15 619.039 457.809C618.375 456.468 618.042 454.877 618.042 453.036C618.042 451.195 618.375 449.605 619.039 448.264C619.704 446.923 620.616 445.889 621.775 445.161C622.934 444.434 624.258 444.07 625.747 444.07C627.235 444.07 628.559 444.434 629.718 445.161C630.878 445.889 631.789 446.923 632.454 448.264C633.119 449.605 633.451 451.195 633.451 453.036ZM631.406 453.036C631.406 451.525 631.153 450.249 630.647 449.21C630.147 448.17 629.468 447.383 628.61 446.849C627.758 446.315 626.804 446.048 625.747 446.048C624.69 446.048 623.733 446.315 622.875 446.849C622.022 447.383 621.343 448.17 620.838 449.21C620.338 450.249 620.088 451.525 620.088 453.036C620.088 454.548 620.338 455.823 620.838 456.863C621.343 457.903 622.022 458.69 622.875 459.224C623.733 459.758 624.69 460.025 625.747 460.025C626.804 460.025 627.758 459.758 628.61 459.224C629.468 458.69 630.147 457.903 630.647 456.863C631.153 455.823 631.406 454.548 631.406 453.036ZM647.677 448.673L642.836 461.764H640.791L635.95 448.673H638.132L641.745 459.105H641.882L645.495 448.673H647.677ZM655.592 462.036C654.331 462.036 653.242 461.758 652.328 461.201C651.419 460.639 650.717 459.855 650.223 458.849C649.734 457.838 649.49 456.661 649.49 455.32C649.49 453.98 649.734 452.798 650.223 451.775C650.717 450.747 651.404 449.945 652.285 449.372C653.171 448.792 654.206 448.502 655.387 448.502C656.069 448.502 656.742 448.616 657.407 448.843C658.072 449.07 658.677 449.44 659.223 449.951C659.768 450.457 660.203 451.127 660.527 451.963C660.85 452.798 661.012 453.826 661.012 455.048V455.9H650.921V454.161H658.967C658.967 453.423 658.819 452.764 658.524 452.184C658.234 451.605 657.819 451.147 657.279 450.812C656.745 450.477 656.115 450.309 655.387 450.309C654.586 450.309 653.893 450.508 653.308 450.906C652.728 451.298 652.282 451.809 651.97 452.44C651.657 453.07 651.501 453.747 651.501 454.468V455.627C651.501 456.616 651.671 457.454 652.012 458.142C652.359 458.823 652.839 459.343 653.453 459.701C654.066 460.053 654.779 460.23 655.592 460.23C656.12 460.23 656.598 460.156 657.024 460.008C657.456 459.855 657.828 459.627 658.14 459.326C658.453 459.019 658.694 458.639 658.865 458.184L660.808 458.73C660.603 459.389 660.26 459.968 659.777 460.468C659.294 460.963 658.697 461.349 657.987 461.627C657.277 461.9 656.478 462.036 655.592 462.036ZM664.312 461.764V448.673H666.255V450.65H666.392C666.63 450.002 667.062 449.477 667.687 449.073C668.312 448.67 669.017 448.468 669.801 448.468C669.948 448.468 670.133 448.471 670.355 448.477C670.576 448.482 670.744 448.491 670.857 448.502V450.548C670.789 450.531 670.633 450.505 670.389 450.471C670.15 450.431 669.897 450.411 669.63 450.411C668.994 450.411 668.426 450.545 667.926 450.812C667.431 451.073 667.039 451.437 666.75 451.903C666.465 452.363 666.323 452.889 666.323 453.48V461.764H664.312ZM673.482 461.764V448.673H675.425V450.65H675.561C675.8 450.002 676.232 449.477 676.857 449.073C677.482 448.67 678.186 448.468 678.97 448.468C679.118 448.468 679.303 448.471 679.524 448.477C679.746 448.482 679.914 448.491 680.027 448.502V450.548C679.959 450.531 679.803 450.505 679.558 450.471C679.32 450.431 679.067 450.411 678.8 450.411C678.164 450.411 677.595 450.545 677.095 450.812C676.601 451.073 676.209 451.437 675.919 451.903C675.635 452.363 675.493 452.889 675.493 453.48V461.764H673.482ZM682.651 461.764V448.673H684.663V461.764H682.651ZM683.674 446.491C683.282 446.491 682.944 446.357 682.66 446.09C682.381 445.823 682.242 445.502 682.242 445.127C682.242 444.752 682.381 444.431 682.66 444.164C682.944 443.897 683.282 443.764 683.674 443.764C684.066 443.764 684.401 443.897 684.68 444.164C684.964 444.431 685.106 444.752 685.106 445.127C685.106 445.502 684.964 445.823 684.68 446.09C684.401 446.357 684.066 446.491 683.674 446.491ZM693.53 462.036C692.439 462.036 691.476 461.761 690.641 461.21C689.805 460.653 689.152 459.869 688.68 458.857C688.209 457.84 687.973 456.639 687.973 455.252C687.973 453.877 688.209 452.684 688.68 451.673C689.152 450.661 689.808 449.88 690.649 449.329C691.49 448.778 692.462 448.502 693.564 448.502C694.416 448.502 695.09 448.644 695.584 448.928C696.084 449.207 696.465 449.525 696.726 449.883C696.993 450.235 697.2 450.525 697.348 450.752H697.519V444.309H699.53V461.764H697.587V459.752H697.348C697.2 459.991 696.99 460.292 696.717 460.656C696.445 461.014 696.055 461.335 695.55 461.619C695.044 461.897 694.371 462.036 693.53 462.036ZM693.803 460.23C694.609 460.23 695.291 460.019 695.848 459.599C696.405 459.173 696.828 458.585 697.118 457.835C697.408 457.079 697.553 456.207 697.553 455.218C697.553 454.241 697.411 453.386 697.126 452.653C696.842 451.914 696.422 451.34 695.865 450.931C695.308 450.517 694.621 450.309 693.803 450.309C692.95 450.309 692.24 450.528 691.672 450.965C691.109 451.397 690.686 451.985 690.402 452.73C690.124 453.468 689.984 454.298 689.984 455.218C689.984 456.15 690.126 456.997 690.411 457.758C690.7 458.514 691.126 459.116 691.689 459.565C692.257 460.008 692.962 460.23 693.803 460.23ZM709.222 462.036C707.96 462.036 706.872 461.758 705.957 461.201C705.048 460.639 704.347 459.855 703.852 458.849C703.364 457.838 703.119 456.661 703.119 455.32C703.119 453.98 703.364 452.798 703.852 451.775C704.347 450.747 705.034 449.945 705.915 449.372C706.801 448.792 707.835 448.502 709.017 448.502C709.699 448.502 710.372 448.616 711.037 448.843C711.702 449.07 712.307 449.44 712.852 449.951C713.398 450.457 713.832 451.127 714.156 451.963C714.48 452.798 714.642 453.826 714.642 455.048V455.9H704.551V454.161H712.597C712.597 453.423 712.449 452.764 712.153 452.184C711.864 451.605 711.449 451.147 710.909 450.812C710.375 450.477 709.744 450.309 709.017 450.309C708.216 450.309 707.523 450.508 706.937 450.906C706.358 451.298 705.912 451.809 705.599 452.44C705.287 453.07 705.131 453.747 705.131 454.468V455.627C705.131 456.616 705.301 457.454 705.642 458.142C705.989 458.823 706.469 459.343 707.082 459.701C707.696 460.053 708.409 460.23 709.222 460.23C709.75 460.23 710.227 460.156 710.653 460.008C711.085 459.855 711.457 459.627 711.77 459.326C712.082 459.019 712.324 458.639 712.494 458.184L714.437 458.73C714.233 459.389 713.889 459.968 713.406 460.468C712.923 460.963 712.327 461.349 711.616 461.627C710.906 461.9 710.108 462.036 709.222 462.036ZM727.214 451.605L725.408 452.116C725.294 451.815 725.126 451.522 724.905 451.238C724.689 450.948 724.393 450.71 724.018 450.522C723.643 450.335 723.163 450.241 722.578 450.241C721.777 450.241 721.109 450.426 720.575 450.795C720.047 451.159 719.783 451.622 719.783 452.184C719.783 452.684 719.964 453.079 720.328 453.369C720.692 453.659 721.26 453.9 722.033 454.093L723.976 454.57C725.146 454.855 726.018 455.289 726.592 455.874C727.166 456.454 727.453 457.201 727.453 458.116C727.453 458.866 727.237 459.536 726.805 460.127C726.379 460.718 725.783 461.184 725.016 461.525C724.249 461.866 723.356 462.036 722.339 462.036C721.004 462.036 719.899 461.747 719.024 461.167C718.149 460.588 717.595 459.741 717.362 458.627L719.271 458.15C719.453 458.855 719.797 459.383 720.302 459.735C720.814 460.088 721.481 460.264 722.305 460.264C723.243 460.264 723.987 460.065 724.538 459.667C725.095 459.264 725.374 458.781 725.374 458.218C725.374 457.764 725.214 457.383 724.896 457.076C724.578 456.764 724.089 456.531 723.43 456.377L721.249 455.866C720.05 455.582 719.169 455.142 718.606 454.545C718.05 453.943 717.771 453.19 717.771 452.286C717.771 451.548 717.979 450.894 718.393 450.326C718.814 449.758 719.385 449.312 720.106 448.988C720.834 448.664 721.658 448.502 722.578 448.502C723.874 448.502 724.891 448.786 725.629 449.355C726.374 449.923 726.902 450.673 727.214 451.605ZM732.187 461.9C731.766 461.9 731.405 461.749 731.104 461.448C730.803 461.147 730.653 460.786 730.653 460.366C730.653 459.945 730.803 459.585 731.104 459.284C731.405 458.982 731.766 458.832 732.187 458.832C732.607 458.832 732.968 458.982 733.269 459.284C733.57 459.585 733.721 459.945 733.721 460.366C733.721 460.644 733.65 460.9 733.508 461.133C733.371 461.366 733.187 461.553 732.954 461.695C732.726 461.832 732.471 461.9 732.187 461.9Z" fill="white" fill-opacity="0.8"/>
<path d="M860.258 453.166H861.985L863.201 454.751L863.775 455.456L865.712 457.984H863.917L862.621 456.296L862.178 455.683L860.258 453.166ZM866.087 451.12C866.087 452.363 865.86 453.431 865.405 454.325C864.951 455.215 864.328 455.901 863.536 456.382C862.748 456.859 861.852 457.098 860.848 457.098C859.841 457.098 858.941 456.859 858.15 456.382C857.362 455.901 856.74 455.213 856.286 454.319C855.831 453.425 855.604 452.359 855.604 451.12C855.604 449.878 855.831 448.812 856.286 447.921C856.74 447.027 857.362 446.342 858.15 445.865C858.941 445.384 859.841 445.143 860.848 445.143C861.852 445.143 862.748 445.384 863.536 445.865C864.328 446.342 864.951 447.027 865.405 447.921C865.86 448.812 866.087 449.878 866.087 451.12ZM864.348 451.12C864.348 450.173 864.195 449.376 863.888 448.728C863.585 448.077 863.168 447.584 862.638 447.251C862.112 446.914 861.515 446.745 860.848 446.745C860.178 446.745 859.579 446.914 859.053 447.251C858.526 447.584 858.11 448.077 857.803 448.728C857.5 449.376 857.348 450.173 857.348 451.12C857.348 452.067 857.5 452.867 857.803 453.518C858.11 454.166 858.526 454.658 859.053 454.995C859.579 455.329 860.178 455.495 860.848 455.495C861.515 455.495 862.112 455.329 862.638 454.995C863.168 454.658 863.585 454.166 863.888 453.518C864.195 452.867 864.348 452.067 864.348 451.12ZM873.828 453.319V448.211H875.533V456.938H873.862V455.427H873.771C873.57 455.893 873.248 456.281 872.805 456.592C872.366 456.899 871.819 457.052 871.163 457.052C870.603 457.052 870.106 456.929 869.675 456.683C869.247 456.433 868.909 456.063 868.663 455.575C868.421 455.086 868.3 454.482 868.3 453.762V448.211H869.998V453.558C869.998 454.152 870.163 454.626 870.493 454.978C870.822 455.331 871.25 455.507 871.777 455.507C872.095 455.507 872.411 455.427 872.726 455.268C873.044 455.109 873.307 454.868 873.516 454.546C873.728 454.224 873.832 453.815 873.828 453.319ZM881.737 457.115C880.877 457.115 880.136 456.931 879.515 456.563C878.898 456.192 878.42 455.671 878.083 455.001C877.75 454.327 877.583 453.537 877.583 452.632C877.583 451.738 877.75 450.95 878.083 450.268C878.42 449.586 878.89 449.054 879.492 448.671C880.098 448.289 880.807 448.098 881.617 448.098C882.11 448.098 882.587 448.179 883.049 448.342C883.511 448.505 883.926 448.76 884.293 449.109C884.661 449.457 884.951 449.91 885.163 450.467C885.375 451.02 885.481 451.692 885.481 452.484V453.086H878.543V451.813H883.816C883.816 451.367 883.725 450.971 883.543 450.626C883.362 450.277 883.106 450.003 882.776 449.802C882.451 449.601 882.068 449.501 881.629 449.501C881.151 449.501 880.735 449.618 880.379 449.853C880.026 450.084 879.754 450.387 879.56 450.762C879.371 451.134 879.276 451.537 879.276 451.973V452.967C879.276 453.55 879.379 454.046 879.583 454.456C879.792 454.865 880.081 455.177 880.453 455.393C880.824 455.605 881.257 455.711 881.754 455.711C882.076 455.711 882.369 455.666 882.634 455.575C882.899 455.48 883.129 455.34 883.322 455.154C883.515 454.969 883.663 454.74 883.765 454.467L885.373 454.757C885.244 455.23 885.013 455.645 884.68 456.001C884.35 456.353 883.935 456.628 883.435 456.825C882.939 457.018 882.373 457.115 881.737 457.115ZM887.526 456.938V448.211H889.168V449.598H889.259C889.418 449.128 889.698 448.759 890.1 448.49C890.505 448.217 890.963 448.081 891.475 448.081C891.581 448.081 891.706 448.084 891.85 448.092C891.997 448.099 892.113 448.109 892.196 448.12V449.745C892.128 449.726 892.007 449.706 891.833 449.683C891.658 449.656 891.484 449.643 891.31 449.643C890.908 449.643 890.55 449.728 890.236 449.899C889.925 450.065 889.679 450.298 889.497 450.598C889.316 450.893 889.225 451.23 889.225 451.609V456.938H887.526ZM895.166 460.211C894.912 460.211 894.681 460.19 894.473 460.149C894.264 460.111 894.109 460.069 894.007 460.024L894.416 458.632C894.727 458.715 895.003 458.751 895.246 458.74C895.488 458.728 895.702 458.637 895.888 458.467C896.077 458.296 896.244 458.018 896.388 457.632L896.598 457.052L893.405 448.211H895.223L897.433 454.984H897.524L899.734 448.211H901.558L897.961 458.103C897.795 458.558 897.583 458.942 897.325 459.257C897.067 459.575 896.761 459.813 896.405 459.973C896.049 460.132 895.636 460.211 895.166 460.211Z" fill="white"/>
<path d="M429.704 272.474H427.857L433.198 257.928H435.016L440.357 272.474H438.51L434.164 260.229H434.05L429.704 272.474ZM430.385 266.792H437.829V268.354H430.385V266.792ZM446.715 272.701C445.806 272.701 445.003 272.471 444.307 272.012C443.611 271.548 443.067 270.895 442.674 270.052C442.281 269.204 442.084 268.203 442.084 267.047C442.084 265.902 442.281 264.907 442.674 264.065C443.067 263.222 443.613 262.571 444.314 262.111C445.015 261.652 445.825 261.422 446.743 261.422C447.453 261.422 448.014 261.541 448.426 261.778C448.843 262.01 449.16 262.275 449.378 262.573C449.601 262.867 449.773 263.108 449.897 263.297H450.039V257.928H451.715V272.474H450.095V270.797H449.897C449.773 270.996 449.598 271.247 449.371 271.55C449.144 271.849 448.819 272.116 448.398 272.353C447.977 272.585 447.415 272.701 446.715 272.701ZM446.942 271.195C447.614 271.195 448.183 271.02 448.647 270.67C449.111 270.315 449.463 269.824 449.705 269.199C449.946 268.57 450.067 267.843 450.067 267.019C450.067 266.205 449.949 265.492 449.712 264.881C449.475 264.266 449.125 263.788 448.661 263.447C448.197 263.101 447.624 262.928 446.942 262.928C446.232 262.928 445.64 263.11 445.166 263.475C444.698 263.835 444.345 264.325 444.108 264.945C443.876 265.561 443.76 266.252 443.76 267.019C443.76 267.796 443.879 268.501 444.115 269.136C444.357 269.765 444.712 270.267 445.181 270.641C445.654 271.011 446.241 271.195 446.942 271.195ZM459.337 272.701C458.428 272.701 457.625 272.471 456.929 272.012C456.233 271.548 455.688 270.895 455.295 270.052C454.902 269.204 454.706 268.203 454.706 267.047C454.706 265.902 454.902 264.907 455.295 264.065C455.688 263.222 456.235 262.571 456.936 262.111C457.637 261.652 458.446 261.422 459.365 261.422C460.075 261.422 460.636 261.541 461.048 261.778C461.465 262.01 461.782 262.275 462 262.573C462.223 262.867 462.395 263.108 462.518 263.297H462.66V257.928H464.337V272.474H462.717V270.797H462.518C462.395 270.996 462.22 271.247 461.993 271.55C461.766 271.849 461.441 272.116 461.02 272.353C460.598 272.585 460.037 272.701 459.337 272.701ZM459.564 271.195C460.236 271.195 460.804 271.02 461.268 270.67C461.732 270.315 462.085 269.824 462.327 269.199C462.568 268.57 462.689 267.843 462.689 267.019C462.689 266.205 462.571 265.492 462.334 264.881C462.097 264.266 461.747 263.788 461.283 263.447C460.819 263.101 460.246 262.928 459.564 262.928C458.854 262.928 458.262 263.11 457.788 263.475C457.32 263.835 456.967 264.325 456.73 264.945C456.498 265.561 456.382 266.252 456.382 267.019C456.382 267.796 456.5 268.501 456.737 269.136C456.979 269.765 457.334 270.267 457.803 270.641C458.276 271.011 458.863 271.195 459.564 271.195ZM467.839 272.474V261.565H469.458V263.212H469.572C469.771 262.672 470.131 262.235 470.652 261.898C471.173 261.562 471.76 261.394 472.413 261.394C472.536 261.394 472.69 261.396 472.875 261.401C473.059 261.406 473.199 261.413 473.294 261.422V263.127C473.237 263.113 473.107 263.092 472.903 263.063C472.704 263.03 472.494 263.013 472.271 263.013C471.741 263.013 471.267 263.125 470.851 263.347C470.439 263.565 470.112 263.868 469.87 264.256C469.634 264.64 469.515 265.078 469.515 265.57V272.474H467.839ZM479.722 272.701C478.671 272.701 477.765 272.469 477.002 272.005C476.245 271.536 475.66 270.883 475.248 270.045C474.841 269.202 474.637 268.222 474.637 267.104C474.637 265.987 474.841 265.002 475.248 264.15C475.66 263.293 476.233 262.625 476.967 262.147C477.705 261.664 478.567 261.422 479.552 261.422C480.12 261.422 480.681 261.517 481.235 261.707C481.789 261.896 482.293 262.204 482.748 262.63C483.203 263.051 483.565 263.61 483.835 264.306C484.105 265.002 484.239 265.859 484.239 266.877V267.587H475.83V266.138H482.535C482.535 265.523 482.412 264.974 482.166 264.491C481.924 264.008 481.578 263.627 481.129 263.347C480.684 263.068 480.158 262.928 479.552 262.928C478.884 262.928 478.307 263.094 477.819 263.425C477.336 263.752 476.964 264.178 476.704 264.704C476.444 265.229 476.313 265.793 476.313 266.394V267.36C476.313 268.184 476.455 268.882 476.739 269.455C477.028 270.023 477.428 270.457 477.94 270.755C478.451 271.048 479.045 271.195 479.722 271.195C480.163 271.195 480.56 271.134 480.916 271.011C481.275 270.883 481.586 270.693 481.846 270.442C482.106 270.187 482.308 269.869 482.45 269.491L484.069 269.945C483.899 270.494 483.612 270.977 483.21 271.394C482.807 271.806 482.31 272.128 481.718 272.36C481.126 272.587 480.461 272.701 479.722 272.701ZM494.716 264.008L493.211 264.434C493.116 264.183 492.976 263.939 492.792 263.702C492.612 263.461 492.366 263.262 492.053 263.106C491.741 262.949 491.34 262.871 490.853 262.871C490.185 262.871 489.629 263.025 489.184 263.333C488.743 263.636 488.523 264.022 488.523 264.491C488.523 264.907 488.675 265.236 488.978 265.478C489.281 265.719 489.754 265.921 490.398 266.082L492.018 266.479C492.993 266.716 493.72 267.078 494.198 267.566C494.676 268.049 494.915 268.672 494.915 269.434C494.915 270.059 494.735 270.618 494.376 271.11C494.02 271.602 493.523 271.991 492.884 272.275C492.245 272.559 491.501 272.701 490.654 272.701C489.541 272.701 488.62 272.459 487.891 271.976C487.162 271.494 486.7 270.788 486.506 269.86L488.097 269.462C488.249 270.049 488.535 270.49 488.956 270.783C489.383 271.077 489.939 271.224 490.626 271.224C491.407 271.224 492.027 271.058 492.486 270.726C492.95 270.39 493.182 269.988 493.182 269.519C493.182 269.14 493.05 268.823 492.785 268.567C492.519 268.307 492.112 268.113 491.563 267.985L489.745 267.559C488.746 267.322 488.012 266.955 487.543 266.458C487.079 265.956 486.847 265.329 486.847 264.576C486.847 263.96 487.02 263.416 487.366 262.942C487.716 262.469 488.192 262.097 488.793 261.827C489.399 261.557 490.086 261.422 490.853 261.422C491.932 261.422 492.78 261.659 493.395 262.133C494.016 262.606 494.456 263.231 494.716 264.008ZM505.366 264.008L503.86 264.434C503.765 264.183 503.626 263.939 503.441 263.702C503.261 263.461 503.015 263.262 502.702 263.106C502.39 262.949 501.99 262.871 501.502 262.871C500.834 262.871 500.278 263.025 499.833 263.333C499.393 263.636 499.172 264.022 499.172 264.491C499.172 264.907 499.324 265.236 499.627 265.478C499.93 265.719 500.404 265.921 501.047 266.082L502.667 266.479C503.642 266.716 504.369 267.078 504.847 267.566C505.325 268.049 505.565 268.672 505.565 269.434C505.565 270.059 505.385 270.618 505.025 271.11C504.67 271.602 504.172 271.991 503.533 272.275C502.894 272.559 502.151 272.701 501.303 272.701C500.19 272.701 499.27 272.459 498.54 271.976C497.811 271.494 497.35 270.788 497.155 269.86L498.746 269.462C498.898 270.049 499.184 270.49 499.606 270.783C500.032 271.077 500.588 271.224 501.275 271.224C502.056 271.224 502.676 271.058 503.136 270.726C503.6 270.39 503.832 269.988 503.832 269.519C503.832 269.14 503.699 268.823 503.434 268.567C503.169 268.307 502.761 268.113 502.212 267.985L500.394 267.559C499.395 267.322 498.661 266.955 498.192 266.458C497.728 265.956 497.496 265.329 497.496 264.576C497.496 263.96 497.669 263.416 498.015 262.942C498.365 262.469 498.841 262.097 499.442 261.827C500.048 261.557 500.735 261.422 501.502 261.422C502.582 261.422 503.429 261.659 504.045 262.133C504.665 262.606 505.105 263.231 505.366 264.008Z" fill="white" fill-opacity="0.5"/>
<path d="M429.107 340.887V326.341H434.022C435.158 326.341 436.091 326.535 436.82 326.924C437.549 327.307 438.089 327.835 438.439 328.507C438.79 329.18 438.965 329.944 438.965 330.801C438.965 331.658 438.79 332.418 438.439 333.081C438.089 333.744 437.552 334.265 436.827 334.644C436.103 335.018 435.177 335.205 434.05 335.205H430.073V333.614H433.993C434.77 333.614 435.395 333.5 435.868 333.273C436.347 333.046 436.692 332.724 436.905 332.307C437.123 331.886 437.232 331.384 437.232 330.801C437.232 330.219 437.123 329.71 436.905 329.275C436.688 328.839 436.34 328.503 435.861 328.266C435.383 328.025 434.751 327.904 433.965 327.904H430.868V340.887H429.107ZM435.954 334.353L439.533 340.887H437.488L433.965 334.353H435.954ZM446.329 341.114C445.278 341.114 444.372 340.882 443.609 340.418C442.852 339.949 442.267 339.296 441.855 338.458C441.448 337.615 441.244 336.635 441.244 335.517C441.244 334.4 441.448 333.415 441.855 332.563C442.267 331.706 442.84 331.038 443.574 330.56C444.312 330.077 445.174 329.836 446.159 329.836C446.727 329.836 447.288 329.93 447.842 330.12C448.396 330.309 448.9 330.617 449.355 331.043C449.81 331.464 450.172 332.023 450.442 332.719C450.712 333.415 450.846 334.272 450.846 335.29V336H442.437V334.551H449.142C449.142 333.936 449.019 333.387 448.773 332.904C448.531 332.421 448.185 332.04 447.736 331.76C447.291 331.481 446.765 331.341 446.159 331.341C445.491 331.341 444.914 331.507 444.426 331.838C443.943 332.165 443.571 332.591 443.311 333.117C443.051 333.642 442.92 334.206 442.92 334.807V335.773C442.92 336.597 443.062 337.295 443.346 337.868C443.635 338.436 444.035 338.87 444.547 339.168C445.058 339.462 445.652 339.608 446.329 339.608C446.77 339.608 447.168 339.547 447.523 339.424C447.882 339.296 448.193 339.106 448.453 338.855C448.713 338.6 448.915 338.283 449.057 337.904L450.676 338.358C450.506 338.908 450.219 339.391 449.817 339.807C449.414 340.219 448.917 340.541 448.325 340.773C447.733 341 447.068 341.114 446.329 341.114ZM458.028 341.114C457.005 341.114 456.125 340.873 455.386 340.39C454.647 339.907 454.079 339.241 453.681 338.394C453.284 337.546 453.085 336.578 453.085 335.489C453.085 334.381 453.288 333.403 453.696 332.556C454.108 331.703 454.68 331.038 455.414 330.56C456.153 330.077 457.015 329.836 458 329.836C458.767 329.836 459.458 329.978 460.073 330.262C460.689 330.546 461.193 330.944 461.586 331.455C461.979 331.966 462.223 332.563 462.318 333.245H460.642C460.514 332.748 460.23 332.307 459.789 331.924C459.354 331.535 458.767 331.341 458.028 331.341C457.375 331.341 456.802 331.512 456.309 331.853C455.822 332.189 455.44 332.665 455.166 333.28C454.896 333.891 454.761 334.608 454.761 335.432C454.761 336.275 454.894 337.009 455.159 337.634C455.429 338.259 455.807 338.744 456.295 339.09C456.787 339.435 457.365 339.608 458.028 339.608C458.464 339.608 458.859 339.533 459.214 339.381C459.569 339.23 459.87 339.012 460.116 338.728C460.362 338.444 460.537 338.103 460.642 337.705H462.318C462.223 338.349 461.989 338.929 461.615 339.445C461.245 339.956 460.755 340.364 460.144 340.667C459.538 340.965 458.833 341.114 458.028 341.114ZM469.542 341.114C468.491 341.114 467.584 340.882 466.822 340.418C466.064 339.949 465.479 339.296 465.068 338.458C464.66 337.615 464.457 336.635 464.457 335.517C464.457 334.4 464.66 333.415 465.068 332.563C465.479 331.706 466.052 331.038 466.786 330.56C467.525 330.077 468.387 329.836 469.371 329.836C469.94 329.836 470.501 329.93 471.055 330.12C471.609 330.309 472.113 330.617 472.568 331.043C473.022 331.464 473.384 332.023 473.654 332.719C473.924 333.415 474.059 334.272 474.059 335.29V336H465.65V334.551H472.354C472.354 333.936 472.231 333.387 471.985 332.904C471.744 332.421 471.398 332.04 470.948 331.76C470.503 331.481 469.978 331.341 469.371 331.341C468.704 331.341 468.126 331.507 467.639 331.838C467.156 332.165 466.784 332.591 466.523 333.117C466.263 333.642 466.133 334.206 466.133 334.807V335.773C466.133 336.597 466.275 337.295 466.559 337.868C466.848 338.436 467.248 338.87 467.759 339.168C468.271 339.462 468.865 339.608 469.542 339.608C469.982 339.608 470.38 339.547 470.735 339.424C471.095 339.296 471.405 339.106 471.666 338.855C471.926 338.6 472.127 338.283 472.269 337.904L473.889 338.358C473.718 338.908 473.432 339.391 473.029 339.807C472.627 340.219 472.13 340.541 471.538 340.773C470.946 341 470.281 341.114 469.542 341.114ZM476.809 340.887V329.978H478.485V340.887H476.809ZM477.661 328.159C477.334 328.159 477.053 328.048 476.816 327.826C476.584 327.603 476.468 327.336 476.468 327.023C476.468 326.711 476.584 326.443 476.816 326.221C477.053 325.998 477.334 325.887 477.661 325.887C477.988 325.887 478.267 325.998 478.499 326.221C478.736 326.443 478.854 326.711 478.854 327.023C478.854 327.336 478.736 327.603 478.499 327.826C478.267 328.048 477.988 328.159 477.661 328.159ZM490.675 329.978L486.641 340.887H484.937L480.903 329.978H482.721L485.732 338.671H485.846L488.857 329.978H490.675ZM493.088 340.887V329.978H494.764V340.887H493.088ZM493.94 328.159C493.613 328.159 493.331 328.048 493.095 327.826C492.863 327.603 492.747 327.336 492.747 327.023C492.747 326.711 492.863 326.443 493.095 326.221C493.331 325.998 493.613 325.887 493.94 325.887C494.267 325.887 494.546 325.998 494.778 326.221C495.015 326.443 495.133 326.711 495.133 327.023C495.133 327.336 495.015 327.603 494.778 327.826C494.546 328.048 494.267 328.159 493.94 328.159ZM499.71 334.324V340.887H498.034V329.978H499.653V331.682H499.795C500.051 331.128 500.439 330.683 500.96 330.347C501.481 330.006 502.153 329.836 502.977 329.836C503.716 329.836 504.362 329.987 504.916 330.29C505.47 330.588 505.901 331.043 506.208 331.654C506.516 332.26 506.67 333.027 506.67 333.955V340.887H504.994V334.069C504.994 333.212 504.771 332.544 504.326 332.066C503.881 331.583 503.27 331.341 502.494 331.341C501.959 331.341 501.481 331.457 501.059 331.689C500.643 331.921 500.314 332.26 500.072 332.705C499.831 333.15 499.71 333.69 499.71 334.324ZM514.336 345.205C513.527 345.205 512.831 345.101 512.248 344.892C511.666 344.689 511.181 344.419 510.792 344.083C510.409 343.751 510.103 343.396 509.876 343.017L511.211 342.08C511.363 342.279 511.555 342.506 511.787 342.762C512.019 343.022 512.336 343.247 512.738 343.436C513.146 343.631 513.678 343.728 514.336 343.728C515.217 343.728 515.944 343.515 516.517 343.088C517.09 342.662 517.376 341.995 517.376 341.086V338.87H517.234C517.111 339.069 516.936 339.315 516.708 339.608C516.486 339.897 516.164 340.155 515.743 340.382C515.326 340.605 514.762 340.716 514.052 340.716C513.172 340.716 512.381 340.508 511.68 340.091C510.984 339.675 510.432 339.069 510.025 338.273C509.623 337.478 509.422 336.512 509.422 335.375C509.422 334.258 509.618 333.285 510.011 332.456C510.404 331.623 510.951 330.979 511.652 330.525C512.352 330.065 513.162 329.836 514.081 329.836C514.791 329.836 515.354 329.954 515.771 330.191C516.192 330.423 516.514 330.688 516.737 330.986C516.964 331.28 517.139 331.521 517.262 331.711H517.433V329.978H519.052V341.199C519.052 342.137 518.839 342.899 518.413 343.486C517.992 344.078 517.423 344.511 516.708 344.786C515.998 345.065 515.208 345.205 514.336 345.205ZM514.28 339.211C514.952 339.211 515.52 339.057 515.984 338.749C516.448 338.441 516.801 337.998 517.042 337.421C517.284 336.843 517.405 336.152 517.405 335.347C517.405 334.561 517.286 333.867 517.049 333.266C516.813 332.665 516.462 332.194 515.998 331.853C515.534 331.512 514.961 331.341 514.28 331.341C513.569 331.341 512.977 331.521 512.504 331.881C512.035 332.241 511.682 332.724 511.446 333.33C511.214 333.936 511.098 334.608 511.098 335.347C511.098 336.105 511.216 336.775 511.453 337.357C511.694 337.935 512.049 338.389 512.518 338.721C512.992 339.047 513.579 339.211 514.28 339.211ZM528.969 340.887H527.123L532.464 326.341H534.282L539.623 340.887H537.776L533.43 328.642H533.316L528.969 340.887ZM529.651 335.205H537.094V336.767H529.651V335.205ZM545.98 341.114C545.071 341.114 544.269 340.884 543.573 340.425C542.877 339.961 542.332 339.308 541.939 338.465C541.546 337.617 541.35 336.616 541.35 335.461C541.35 334.315 541.546 333.32 541.939 332.478C542.332 331.635 542.879 330.984 543.58 330.525C544.281 330.065 545.09 329.836 546.009 329.836C546.719 329.836 547.28 329.954 547.692 330.191C548.109 330.423 548.426 330.688 548.644 330.986C548.866 331.28 549.039 331.521 549.162 331.711H549.304V326.341H550.98V340.887H549.361V339.211H549.162C549.039 339.409 548.864 339.66 548.637 339.963C548.409 340.262 548.085 340.529 547.664 340.766C547.242 340.998 546.681 341.114 545.98 341.114ZM546.208 339.608C546.88 339.608 547.448 339.433 547.912 339.083C548.376 338.728 548.729 338.238 548.97 337.613C549.212 336.983 549.333 336.256 549.333 335.432C549.333 334.618 549.214 333.905 548.978 333.294C548.741 332.679 548.39 332.201 547.926 331.86C547.462 331.514 546.889 331.341 546.208 331.341C545.497 331.341 544.906 331.524 544.432 331.888C543.963 332.248 543.611 332.738 543.374 333.358C543.142 333.974 543.026 334.665 543.026 335.432C543.026 336.209 543.144 336.914 543.381 337.549C543.622 338.178 543.978 338.68 544.446 339.054C544.92 339.424 545.507 339.608 546.208 339.608ZM558.602 341.114C557.693 341.114 556.891 340.884 556.195 340.425C555.499 339.961 554.954 339.308 554.561 338.465C554.168 337.617 553.972 336.616 553.972 335.461C553.972 334.315 554.168 333.32 554.561 332.478C554.954 331.635 555.501 330.984 556.202 330.525C556.902 330.065 557.712 329.836 558.631 329.836C559.341 329.836 559.902 329.954 560.314 330.191C560.731 330.423 561.048 330.688 561.266 330.986C561.488 331.28 561.661 331.521 561.784 331.711H561.926V326.341H563.602V340.887H561.983V339.211H561.784C561.661 339.409 561.486 339.66 561.258 339.963C561.031 340.262 560.707 340.529 560.285 340.766C559.864 340.998 559.303 341.114 558.602 341.114ZM558.83 339.608C559.502 339.608 560.07 339.433 560.534 339.083C560.998 338.728 561.351 338.238 561.592 337.613C561.834 336.983 561.955 336.256 561.955 335.432C561.955 334.618 561.836 333.905 561.599 333.294C561.363 332.679 561.012 332.201 560.548 331.86C560.084 331.514 559.511 331.341 558.83 331.341C558.119 331.341 557.527 331.524 557.054 331.888C556.585 332.248 556.232 332.738 555.996 333.358C555.764 333.974 555.648 334.665 555.648 335.432C555.648 336.209 555.766 336.914 556.003 337.549C556.244 338.178 556.599 338.68 557.068 339.054C557.542 339.424 558.129 339.608 558.83 339.608ZM567.105 340.887V329.978H568.724V331.625H568.838C569.037 331.086 569.396 330.648 569.917 330.311C570.438 329.975 571.025 329.807 571.679 329.807C571.802 329.807 571.956 329.81 572.14 329.814C572.325 329.819 572.465 329.826 572.559 329.836V331.54C572.503 331.526 572.372 331.505 572.169 331.476C571.97 331.443 571.759 331.426 571.537 331.426C571.006 331.426 570.533 331.538 570.116 331.76C569.704 331.978 569.378 332.281 569.136 332.669C568.899 333.053 568.781 333.491 568.781 333.983V340.887H567.105ZM578.988 341.114C577.937 341.114 577.03 340.882 576.268 340.418C575.51 339.949 574.926 339.296 574.514 338.458C574.106 337.615 573.903 336.635 573.903 335.517C573.903 334.4 574.106 333.415 574.514 332.563C574.926 331.706 575.498 331.038 576.232 330.56C576.971 330.077 577.833 329.836 578.818 329.836C579.386 329.836 579.947 329.93 580.501 330.12C581.055 330.309 581.559 330.617 582.014 331.043C582.468 331.464 582.83 332.023 583.1 332.719C583.37 333.415 583.505 334.272 583.505 335.29V336H575.096V334.551H581.801C581.801 333.936 581.677 333.387 581.431 332.904C581.19 332.421 580.844 332.04 580.394 331.76C579.949 331.481 579.424 331.341 578.818 331.341C578.15 331.341 577.572 331.507 577.085 331.838C576.602 332.165 576.23 332.591 575.97 333.117C575.709 333.642 575.579 334.206 575.579 334.807V335.773C575.579 336.597 575.721 337.295 576.005 337.868C576.294 338.436 576.694 338.87 577.205 339.168C577.717 339.462 578.311 339.608 578.988 339.608C579.428 339.608 579.826 339.547 580.181 339.424C580.541 339.296 580.851 339.106 581.112 338.855C581.372 338.6 581.573 338.283 581.715 337.904L583.335 338.358C583.164 338.908 582.878 339.391 582.475 339.807C582.073 340.219 581.576 340.541 580.984 340.773C580.392 341 579.727 341.114 578.988 341.114ZM593.982 332.421L592.476 332.847C592.382 332.596 592.242 332.352 592.057 332.115C591.877 331.874 591.631 331.675 591.319 331.519C591.006 331.363 590.606 331.284 590.118 331.284C589.451 331.284 588.894 331.438 588.449 331.746C588.009 332.049 587.789 332.435 587.789 332.904C587.789 333.32 587.94 333.65 588.243 333.891C588.546 334.132 589.02 334.334 589.664 334.495L591.283 334.892C592.259 335.129 592.985 335.491 593.464 335.979C593.942 336.462 594.181 337.085 594.181 337.847C594.181 338.472 594.001 339.031 593.641 339.523C593.286 340.016 592.789 340.404 592.15 340.688C591.51 340.972 590.767 341.114 589.92 341.114C588.807 341.114 587.886 340.873 587.157 340.39C586.428 339.907 585.966 339.201 585.772 338.273L587.363 337.875C587.514 338.462 587.801 338.903 588.222 339.196C588.648 339.49 589.205 339.637 589.891 339.637C590.672 339.637 591.293 339.471 591.752 339.14C592.216 338.803 592.448 338.401 592.448 337.932C592.448 337.553 592.315 337.236 592.05 336.98C591.785 336.72 591.378 336.526 590.829 336.398L589.01 335.972C588.011 335.735 587.278 335.368 586.809 334.871C586.345 334.369 586.113 333.742 586.113 332.989C586.113 332.373 586.286 331.829 586.631 331.355C586.982 330.882 587.457 330.51 588.059 330.24C588.665 329.971 589.351 329.836 590.118 329.836C591.198 329.836 592.046 330.072 592.661 330.546C593.281 331.019 593.722 331.644 593.982 332.421ZM604.631 332.421L603.126 332.847C603.031 332.596 602.891 332.352 602.707 332.115C602.527 331.874 602.28 331.675 601.968 331.519C601.655 331.363 601.255 331.284 600.768 331.284C600.1 331.284 599.544 331.438 599.099 331.746C598.658 332.049 598.438 332.435 598.438 332.904C598.438 333.32 598.59 333.65 598.893 333.891C599.196 334.132 599.669 334.334 600.313 334.495L601.932 334.892C602.908 335.129 603.635 335.491 604.113 335.979C604.591 336.462 604.83 337.085 604.83 337.847C604.83 338.472 604.65 339.031 604.29 339.523C603.935 340.016 603.438 340.404 602.799 340.688C602.16 340.972 601.416 341.114 600.569 341.114C599.456 341.114 598.535 340.873 597.806 340.39C597.077 339.907 596.615 339.201 596.421 338.273L598.012 337.875C598.163 338.462 598.45 338.903 598.871 339.196C599.297 339.49 599.854 339.637 600.54 339.637C601.322 339.637 601.942 339.471 602.401 339.14C602.865 338.803 603.097 338.401 603.097 337.932C603.097 337.553 602.965 337.236 602.699 336.98C602.434 336.72 602.027 336.526 601.478 336.398L599.66 335.972C598.661 335.735 597.927 335.368 597.458 334.871C596.994 334.369 596.762 333.742 596.762 332.989C596.762 332.373 596.935 331.829 597.28 331.355C597.631 330.882 598.107 330.51 598.708 330.24C599.314 329.971 600.001 329.836 600.768 329.836C601.847 329.836 602.695 330.072 603.31 330.546C603.931 331.019 604.371 331.644 604.631 332.421Z" fill="white" fill-opacity="0.5"/>
<g filter="url(#filter9_d_186_1690)">
<path d="M282.279 102.204C282.279 96.6813 277.802 92.2041 272.279 92.2041H130.585C125.063 92.2041 120.585 96.6813 120.585 102.204V243.897C120.585 249.42 125.063 253.897 130.585 253.897H272.279C277.802 253.897 282.279 249.42 282.279 243.897V102.204Z" fill="#3B4C64" fill-opacity="0.2" shape-rendering="crispEdges"/>
<path d="M272.279 93.2041H130.585C125.615 93.2041 121.585 97.2335 121.585 102.204V243.897C121.585 248.868 125.615 252.897 130.585 252.897H272.279C277.25 252.897 281.279 248.868 281.279 243.897V102.204C281.279 97.2335 277.25 93.2041 272.279 93.2041Z" stroke="url(#paint9_linear_186_1690)" stroke-width="2" shape-rendering="crispEdges"/>
</g>
<path d="M238.772 173.091V173.187C238.779 179.635 237.217 185.987 234.219 191.695L232.755 194.223C229.177 199.982 224.189 204.733 218.264 208.027C212.339 211.322 205.672 213.051 198.892 213.051V193.175C204.197 193.175 209.286 191.068 213.037 187.316C216.789 183.565 218.896 178.477 218.896 173.171V173.075L238.772 173.091Z" fill="white"/>
<path d="M235.139 133.051L189.386 212.995H164.093L209.846 133.051H235.139Z" fill="white"/>
<path d="M234.155 166.449H233.683V163.809H232.683V163.385H235.155V163.809H234.155V166.449Z" fill="white"/>
<path d="M236.963 166.449L235.995 164.105V166.449H235.563V163.385H236.139L237.171 165.873L238.195 163.385H238.771V166.449H238.355V164.105L237.379 166.449H236.963Z" fill="white"/>
<defs>
<filter id="filter0_d_186_1690" x="363.825" y="91.2041" width="673.997" height="679.729" filterUnits="userSpaceOnUse" color-interpolation-filters="sRGB">
<feFlood flood-opacity="0" result="BackgroundImageFix"/>
<feColorMatrix in="SourceAlpha" type="matrix" values="0 0 0 0 0 0 0 0 0 0 0 0 0 0 0 0 0 0 127 0" result="hardAlpha"/>
<feOffset dx="2" dy="6"/>
<feGaussianBlur stdDeviation="2"/>
<feComposite in2="hardAlpha" operator="out"/>
<feColorMatrix type="matrix" values="0 0 0 0 0.0862745 0 0 0 0 0.0941176 0 0 0 0 0.109804 0 0 0 0.5 0"/>
<feBlend mode="normal" in2="BackgroundImageFix" result="effect1_dropShadow_186_1690"/>
<feBlend mode="normal" in="SourceGraphic" in2="effect1_dropShadow_186_1690" result="shape"/>
</filter>
<filter id="filter1_d_186_1690" x="425.771" y="397.062" width="551.531" height="373.871" filterUnits="userSpaceOnUse" color-interpolation-filters="sRGB">
<feFlood flood-opacity="0" result="BackgroundImageFix"/>
<feColorMatrix in="SourceAlpha" type="matrix" values="0 0 0 0 0 0 0 0 0 0 0 0 0 0 0 0 0 0 127 0" result="hardAlpha"/>
<feOffset dx="2" dy="6"/>
<feGaussianBlur stdDeviation="2"/>
<feComposite in2="hardAlpha" operator="out"/>
<feColorMatrix type="matrix" values="0 0 0 0 0.0862745 0 0 0 0 0.0941176 0 0 0 0 0.109804 0 0 0 0.5 0"/>
<feBlend mode="normal" in2="BackgroundImageFix" result="effect1_dropShadow_186_1690"/>
<feBlend mode="normal" in="SourceGraphic" in2="effect1_dropShadow_186_1690" result="shape"/>
</filter>
<filter id="filter2_d_186_1690" x="462.128" y="509.161" width="476.903" height="263.737" filterUnits="userSpaceOnUse" color-interpolation-filters="sRGB">
<feFlood flood-opacity="0" result="BackgroundImageFix"/>
<feColorMatrix in="SourceAlpha" type="matrix" values="0 0 0 0 0 0 0 0 0 0 0 0 0 0 0 0 0 0 127 0" result="hardAlpha"/>
<feOffset dx="2" dy="6"/>
<feGaussianBlur stdDeviation="2"/>
<feComposite in2="hardAlpha" operator="out"/>
<feColorMatrix type="matrix" values="0 0 0 0 0.0862745 0 0 0 0 0.0941176 0 0 0 0 0.109804 0 0 0 0.25 0"/>
<feBlend mode="normal" in2="BackgroundImageFix" result="effect1_dropShadow_186_1690"/>
<feBlend mode="normal" in="SourceGraphic" in2="effect1_dropShadow_186_1690" result="shape"/>
</filter>
<filter id="filter3_d_186_1690" x="495.616" y="591.337" width="412.65" height="181.562" filterUnits="userSpaceOnUse" color-interpolation-filters="sRGB">
<feFlood flood-opacity="0" result="BackgroundImageFix"/>
<feColorMatrix in="SourceAlpha" type="matrix" values="0 0 0 0 0 0 0 0 0 0 0 0 0 0 0 0 0 0 127 0" result="hardAlpha"/>
<feOffset dx="2" dy="6"/>
<feGaussianBlur stdDeviation="2"/>
<feComposite in2="hardAlpha" operator="out"/>
<feColorMatrix type="matrix" values="0 0 0 0 0.0862745 0 0 0 0 0.0941176 0 0 0 0 0.109804 0 0 0 0.15 0"/>
<feBlend mode="normal" in2="BackgroundImageFix" result="effect1_dropShadow_186_1690"/>
<feBlend mode="normal" in="SourceGraphic" in2="effect1_dropShadow_186_1690" result="shape"/>
</filter>
<filter id="filter4_d_186_1690" x="823.37" y="434.246" width="114.662" height="44.3848" filterUnits="userSpaceOnUse" color-interpolation-filters="sRGB">
<feFlood flood-opacity="0" result="BackgroundImageFix"/>
<feColorMatrix in="SourceAlpha" type="matrix" values="0 0 0 0 0 0 0 0 0 0 0 0 0 0 0 0 0 0 127 0" result="hardAlpha"/>
<feOffset dx="2" dy="6"/>
<feGaussianBlur stdDeviation="2"/>
<feComposite in2="hardAlpha" operator="out"/>
<feColorMatrix type="matrix" values="0 0 0 0 0.0862745 0 0 0 0 0.0941176 0 0 0 0 0.109804 0 0 0 0.1 0"/>
<feBlend mode="normal" in2="BackgroundImageFix" result="effect1_dropShadow_186_1690"/>
<feBlend mode="normal" in="SourceGraphic" in2="effect1_dropShadow_186_1690" result="shape"/>
</filter>
<filter id="filter5_d_186_1690" x="851.828" y="544.955" width="55.9375" height="33.0059" filterUnits="userSpaceOnUse" color-interpolation-filters="sRGB">
<feFlood flood-opacity="0" result="BackgroundImageFix"/>
<feColorMatrix in="SourceAlpha" type="matrix" values="0 0 0 0 0 0 0 0 0 0 0 0 0 0 0 0 0 0 127 0" result="hardAlpha"/>
<feOffset dx="2" dy="6"/>
<feGaussianBlur stdDeviation="2"/>
<feComposite in2="hardAlpha" operator="out"/>
<feColorMatrix type="matrix" values="0 0 0 0 0.0862745 0 0 0 0 0.0941176 0 0 0 0 0.109804 0 0 0 0.1 0"/>
<feBlend mode="normal" in2="BackgroundImageFix" result="effect1_dropShadow_186_1690"/>
<feBlend mode="normal" in="SourceGraphic" in2="effect1_dropShadow_186_1690" result="shape"/>
</filter>
<filter id="filter6_d_186_1690" x="494.382" y="545.455" width="203.031" height="32.0059" filterUnits="userSpaceOnUse" color-interpolation-filters="sRGB">
<feFlood flood-opacity="0" result="BackgroundImageFix"/>
<feColorMatrix in="SourceAlpha" type="matrix" values="0 0 0 0 0 0 0 0 0 0 0 0 0 0 0 0 0 0 127 0" result="hardAlpha"/>
<feOffset dx="2" dy="6"/>
<feGaussianBlur stdDeviation="2"/>
<feComposite in2="hardAlpha" operator="out"/>
<feColorMatrix type="matrix" values="0 0 0 0 0.0862745 0 0 0 0 0.0941176 0 0 0 0 0.109804 0 0 0 0.1 0"/>
<feBlend mode="normal" in2="BackgroundImageFix" result="effect1_dropShadow_186_1690"/>
<feBlend mode="normal" in="SourceGraphic" in2="effect1_dropShadow_186_1690" result="shape"/>
</filter>
<filter id="filter7_d_186_1690" x="532.352" y="242.538" width="442.524" height="54.7539" filterUnits="userSpaceOnUse" color-interpolation-filters="sRGB">
<feFlood flood-opacity="0" result="BackgroundImageFix"/>
<feColorMatrix in="SourceAlpha" type="matrix" values="0 0 0 0 0 0 0 0 0 0 0 0 0 0 0 0 0 0 127 0" result="hardAlpha"/>
<feOffset dx="2" dy="6"/>
<feGaussianBlur stdDeviation="2"/>
<feComposite in2="hardAlpha" operator="out"/>
<feColorMatrix type="matrix" values="0 0 0 0 0.0862745 0 0 0 0 0.0941176 0 0 0 0 0.109804 0 0 0 0.1 0"/>
<feBlend mode="normal" in2="BackgroundImageFix" result="effect1_dropShadow_186_1690"/>
<feBlend mode="normal" in="SourceGraphic" in2="effect1_dropShadow_186_1690" result="shape"/>
</filter>
<filter id="filter8_d_186_1690" x="631.855" y="310.8" width="343.021" height="54.7539" filterUnits="userSpaceOnUse" color-interpolation-filters="sRGB">
<feFlood flood-opacity="0" result="BackgroundImageFix"/>
<feColorMatrix in="SourceAlpha" type="matrix" values="0 0 0 0 0 0 0 0 0 0 0 0 0 0 0 0 0 0 127 0" result="hardAlpha"/>
<feOffset dx="2" dy="6"/>
<feGaussianBlur stdDeviation="2"/>
<feComposite in2="hardAlpha" operator="out"/>
<feColorMatrix type="matrix" values="0 0 0 0 0.0862745 0 0 0 0 0.0941176 0 0 0 0 0.109804 0 0 0 0.1 0"/>
<feBlend mode="normal" in2="BackgroundImageFix" result="effect1_dropShadow_186_1690"/>
<feBlend mode="normal" in="SourceGraphic" in2="effect1_dropShadow_186_1690" result="shape"/>
</filter>
<filter id="filter9_d_186_1690" x="118.585" y="92.2041" width="169.694" height="171.693" filterUnits="userSpaceOnUse" color-interpolation-filters="sRGB">
<feFlood flood-opacity="0" result="BackgroundImageFix"/>
<feColorMatrix in="SourceAlpha" type="matrix" values="0 0 0 0 0 0 0 0 0 0 0 0 0 0 0 0 0 0 127 0" result="hardAlpha"/>
<feOffset dx="2" dy="6"/>
<feGaussianBlur stdDeviation="2"/>
<feComposite in2="hardAlpha" operator="out"/>
<feColorMatrix type="matrix" values="0 0 0 0 0.0862745 0 0 0 0 0.0941176 0 0 0 0 0.109804 0 0 0 0.15 0"/>
<feBlend mode="normal" in2="BackgroundImageFix" result="effect1_dropShadow_186_1690"/>
<feBlend mode="normal" in="SourceGraphic" in2="effect1_dropShadow_186_1690" result="shape"/>
</filter>
<linearGradient id="paint0_linear_186_1690" x1="1283.13" y1="228.103" x2="909.442" y2="-124.704" gradientUnits="userSpaceOnUse">
<stop offset="0.015" stop-color="#36475E" stop-opacity="0.1"/>
<stop offset="0.525666" stop-color="#232B36" stop-opacity="0.3"/>
<stop offset="1" stop-color="#4B5D75" stop-opacity="0"/>
</linearGradient>
<linearGradient id="paint1_linear_186_1690" x1="627.582" y1="-207.647" x2="1225.22" y2="271.511" gradientUnits="userSpaceOnUse">
<stop offset="1.86066e-08" stop-color="#4E5E6E"/>
<stop offset="1" stop-color="#4E5E6E" stop-opacity="0"/>
</linearGradient>
<linearGradient id="paint2_linear_186_1690" x1="641.435" y1="235.559" x2="967.497" y2="628.966" gradientUnits="userSpaceOnUse">
<stop offset="1.86066e-08" stop-color="#4E5E6E"/>
<stop offset="1" stop-color="#4E5E6E" stop-opacity="0"/>
</linearGradient>
<linearGradient id="paint3_linear_186_1690" x1="648.485" y1="397.116" x2="861.817" y2="716.128" gradientUnits="userSpaceOnUse">
<stop offset="1.86066e-08" stop-color="#4E5E6E"/>
<stop offset="1" stop-color="#4E5E6E" stop-opacity="0"/>
</linearGradient>
<linearGradient id="paint4_linear_186_1690" x1="656.74" y1="516.193" x2="784.348" y2="760.509" gradientUnits="userSpaceOnUse">
<stop offset="1.86066e-08" stop-color="#4E5E6E"/>
<stop offset="1" stop-color="#4E5E6E" stop-opacity="0"/>
</linearGradient>
<linearGradient id="paint5_linear_186_1690" x1="872.761" y1="535.573" x2="890.298" y2="565.733" gradientUnits="userSpaceOnUse">
<stop offset="1.86066e-08" stop-color="#4E5E6E"/>
<stop offset="1" stop-color="#4E5E6E" stop-opacity="0"/>
</linearGradient>
<linearGradient id="paint6_linear_186_1690" x1="614.823" y1="535.573" x2="609.283" y2="575.155" gradientUnits="userSpaceOnUse">
<stop offset="1.86066e-08" stop-color="#4E5E6E"/>
<stop offset="1" stop-color="#4E5E6E" stop-opacity="0"/>
</linearGradient>
<linearGradient id="paint7_linear_186_1690" x1="798.235" y1="222.441" x2="787.918" y2="303.199" gradientUnits="userSpaceOnUse">
<stop offset="1.86066e-08" stop-color="#4E5E6E"/>
<stop offset="1" stop-color="#4E5E6E" stop-opacity="0"/>
</linearGradient>
<linearGradient id="paint8_linear_186_1690" x1="837.311" y1="290.703" x2="824.075" y2="370.586" gradientUnits="userSpaceOnUse">
<stop offset="1.86066e-08" stop-color="#4E5E6E"/>
<stop offset="1" stop-color="#4E5E6E" stop-opacity="0"/>
</linearGradient>
<linearGradient id="paint9_linear_186_1690" x1="184.084" y1="19.594" x2="328.979" y2="136.417" gradientUnits="userSpaceOnUse">
<stop offset="1.86066e-08" stop-color="#4E5E6E"/>
<stop offset="1" stop-color="#4E5E6E" stop-opacity="0"/>
</linearGradient>
</defs>
</svg>
